<svg width="80" height="80" viewBox="0 0 80 80" fill="none" xmlns="http://www.w3.org/2000/svg">
<path d="M15.511 49.0819L17.6484 70.6411C17.6744 70.9011 17.649 71.1637 17.5735 71.4139C17.498 71.664 17.3739 71.8968 17.2083 72.099C17.0427 72.3012 16.8389 72.4687 16.6086 72.592C16.3782 72.7153 16.1258 72.792 15.8657 72.8177L7.82798 73.6147C7.62833 73.6311 7.43396 73.6871 7.25618 73.7795C7.0784 73.8718 6.92078 73.9986 6.7925 74.1524C6.66423 74.3063 6.56785 74.4841 6.50901 74.6756C6.45016 74.8671 6.43002 75.0684 6.44976 75.2677C6.46949 75.4671 6.52871 75.6605 6.62395 75.8367C6.7192 76.013 6.84857 76.1685 7.00453 76.2942C7.16048 76.4199 7.3399 76.5133 7.53233 76.569C7.72476 76.6247 7.92634 76.6415 8.12533 76.6185L16.1631 75.8215C17.1544 75.7243 18.0942 75.3333 18.8619 74.6986C19.6297 74.064 20.1905 73.2146 20.4725 72.2592L21.2001 72.1883C26.2114 71.6932 29.3902 73.986 30.9585 74.5445C33.1536 75.5416 35.5341 76.0652 37.945 76.081C40.3558 76.0969 42.743 75.6047 44.951 74.6366L73.5819 59.8834C76.8695 58.4494 78.1027 54.4041 76.4936 51.2343C74.9993 48.2909 71.5865 47.0743 68.8091 48.4253L52.8242 54.9853C52.8227 54.8207 52.8393 54.6592 52.8242 54.4932C52.5359 51.5921 50.0378 49.4607 47.2785 49.7309L39.6272 50.4887C36.7432 50.7667 33.8414 50.1831 31.2891 48.8117C28.2096 47.1588 24.7091 46.4559 21.2302 46.792L18.0302 47.109C17.1442 45.272 15.1985 44.0796 13.0597 44.2894L4.18722 45.026C3.7883 45.0594 3.41899 45.25 3.16054 45.5557C2.9021 45.8614 2.77568 46.2573 2.80911 46.6562C2.87703 47.4864 3.59401 48.1113 4.4393 48.0343L13.3344 47.2947C13.8591 47.2461 14.3819 47.4064 14.7893 47.7406C15.1968 48.0749 15.456 48.5577 15.511 49.0819ZM21.5291 49.7973C24.4141 49.5178 27.317 50.1026 29.8687 51.4773C32.9472 53.13 36.4468 53.8323 39.9246 53.4954L47.5774 52.7362C48.6763 52.6305 49.6967 53.5483 49.8189 54.792C49.9472 56.1022 49.0446 57.1483 48.0227 57.2494L34.1359 58.6275C33.9363 58.644 33.7419 58.7 33.5641 58.7923C33.3863 58.8846 33.2287 59.0114 33.1004 59.1653C32.9722 59.3191 32.8758 59.497 32.8169 59.6885C32.7581 59.8799 32.7379 60.0812 32.7577 60.2806C32.7774 60.4799 32.8366 60.6733 32.9319 60.8496C33.0271 61.0258 33.1565 61.1813 33.3125 61.307C33.4684 61.4327 33.6478 61.5262 33.8403 61.5818C34.0327 61.6375 34.2343 61.6543 34.4333 61.6313L48.3201 60.2532C49.3948 60.1413 50.4015 59.6738 51.1804 58.9249L70.0408 51.1815C71.4099 50.5173 73.0597 51.1422 73.8023 52.6019C74.6144 54.2019 74.1178 56.3543 72.2884 57.1588L43.6544 71.912C39.9714 73.5181 35.9065 73.4773 32.2053 71.7973C30.6853 71.266 26.8302 68.5958 20.9027 69.186L20.5404 69.2207L18.6446 50.0841L21.5291 49.7973Z" fill="url(#paint0_linear_19_7306)"/>
<path d="M12.4076 66.3027C12.4076 65.4695 11.6529 64.7163 10.8196 64.7163C9.98644 64.7163 9.23474 65.4695 9.23474 66.3027C9.23474 67.1359 9.98493 67.8891 10.8196 67.8891C11.6544 67.8891 12.4076 67.1359 12.4076 66.3027ZM52.1917 15.6914C46.8785 15.6914 42.554 20.0159 42.554 25.3291C42.554 30.6424 46.8785 34.9669 52.1917 34.9669C57.5049 34.9669 61.828 30.6439 61.828 25.3291C61.828 20.0144 57.5064 15.6929 52.1917 15.6929V15.6914ZM52.1917 31.948C50.4369 31.946 48.7545 31.248 47.5137 30.0072C46.2728 28.7663 45.5749 27.084 45.5729 25.3291C45.5753 23.5746 46.2734 21.8926 47.5142 20.6521C48.755 19.4116 50.4372 18.7138 52.1917 18.7118C53.946 18.7142 55.6278 19.4121 56.8683 20.6526C58.1087 21.8931 58.8067 23.5748 58.8091 25.3291C58.8071 27.0837 58.1093 28.7658 56.8688 30.0066C55.6283 31.2475 53.9463 31.9456 52.1917 31.948Z" fill="url(#paint1_linear_19_7306)"/>
<path d="M72.9404 29.518C73.2816 29.4488 73.5884 29.2636 73.8087 28.994C74.0291 28.7245 74.1494 28.387 74.1494 28.0388V22.6048C74.1492 22.256 74.0282 21.918 73.807 21.6484C73.5857 21.3787 73.2779 21.194 72.9359 21.1256L68.9736 20.3316C68.6302 19.1733 68.1684 18.0534 67.5955 16.9897L69.834 13.6282C70.0272 13.3375 70.1137 12.9888 70.0788 12.6415C70.0438 12.2942 69.8896 11.9697 69.6423 11.7233L65.7932 7.88936C65.5464 7.64477 65.2228 7.49264 64.877 7.45856C64.5312 7.42447 64.1842 7.51051 63.8944 7.70219L60.5283 9.93163C59.4687 9.34971 58.3492 8.88411 57.1894 8.54295L56.394 4.58219C56.3253 4.24042 56.1404 3.93295 55.8708 3.712C55.6011 3.49106 55.2633 3.37026 54.9147 3.37012H49.4687C49.1198 3.36991 48.7817 3.49055 48.5117 3.71153C48.2417 3.9325 48.0567 4.24016 47.9879 4.58219L47.194 8.54446C46.0347 8.88408 44.9177 9.34899 43.8551 9.93314L40.4891 7.69917C40.1986 7.50709 39.8508 7.42111 39.5043 7.45576C39.1578 7.49041 38.8338 7.64356 38.5872 7.88936L34.7411 11.7218C34.4939 11.9682 34.3396 12.2927 34.3046 12.64C34.2697 12.9873 34.3562 13.336 34.5494 13.6267L36.7864 16.9897C36.2174 18.0569 35.76 19.1754 35.4219 20.3301L31.4611 21.1241C31.1191 21.1924 30.8113 21.3772 30.59 21.6469C30.3688 21.9165 30.2478 22.2545 30.2476 22.6033V28.0373C30.2475 28.3853 30.3676 28.7226 30.5877 28.9921C30.8077 29.2617 31.1142 29.4469 31.4551 29.5165L35.4204 30.3241C35.7555 31.4637 36.2128 32.5822 36.7879 33.6645L34.5494 37.0305C34.3568 37.3208 34.2705 37.6687 34.3052 38.0154C34.3398 38.362 34.4933 38.686 34.7396 38.9324L38.5872 42.7799C38.8341 43.0265 39.1589 43.1799 39.5062 43.2141C39.8535 43.2482 40.2019 43.1609 40.4921 42.9671L43.843 40.7256C44.9087 41.3097 46.0317 41.7746 47.194 42.1143L47.9879 46.0735C48.0566 46.4153 48.2415 46.7228 48.5111 46.9437C48.7808 47.1647 49.1186 47.2855 49.4672 47.2856H54.9147C55.2633 47.2855 55.6011 47.1647 55.8708 46.9437C56.1404 46.7228 56.3253 46.4153 56.394 46.0735L57.1894 42.1143C58.3571 41.775 59.4843 41.3094 60.551 40.7256L63.8868 42.9656C64.1771 43.1614 64.5264 43.2499 64.8749 43.216C65.2234 43.1821 65.5491 43.0279 65.7962 42.7799L69.6438 38.9324C69.8901 38.686 70.0436 38.362 70.0783 38.0154C70.1129 37.6687 70.0266 37.3208 69.834 37.0305L67.594 33.6645C68.1796 32.5716 68.6415 31.4546 68.9751 30.3241L72.9404 29.518ZM67.4551 27.5543C67.1711 27.6117 66.9096 27.7498 66.7019 27.9519C66.4942 28.1539 66.349 28.4115 66.2838 28.6939C65.9254 30.1972 65.3336 31.635 64.5298 32.955C64.3828 33.1997 64.3082 33.481 64.3146 33.7663C64.321 34.0516 64.4082 34.3293 64.5661 34.5671L66.634 37.6735L64.5389 39.7686L61.4491 37.6946C61.2072 37.5319 60.9234 37.4427 60.632 37.4378C60.3405 37.433 60.0539 37.5128 59.8068 37.6675C58.499 38.4855 57.0632 39.0784 55.5593 39.4214C55.2757 39.4861 55.0168 39.6314 54.8138 39.8397C54.6109 40.0481 54.4724 40.3106 54.4151 40.5958L53.6785 44.2682H50.7049L49.9683 40.5958C49.9111 40.3108 49.7729 40.0484 49.5702 39.8401C49.3675 39.6318 49.109 39.4864 48.8257 39.4214C47.3257 39.0779 45.8939 38.485 44.5902 37.6675C44.3435 37.5134 44.0576 37.4338 43.7668 37.4384C43.476 37.4429 43.1927 37.5314 42.951 37.6931L39.8461 39.7701L37.7479 37.6735L39.8159 34.5671C39.9737 34.3293 40.0609 34.0516 40.0673 33.7663C40.0737 33.481 39.9991 33.1997 39.8521 32.955C39.0525 31.6347 38.4657 30.1967 38.1132 28.6939C38.0481 28.4117 37.9032 28.1543 37.6958 27.9522C37.4883 27.7501 37.2272 27.612 36.9434 27.5543L33.2664 26.8056V23.8426L36.9389 23.106C37.223 23.0489 37.4847 22.9112 37.6926 22.7094C37.9006 22.5075 38.0461 22.2501 38.1117 21.9679C38.4657 20.4672 39.0519 19.031 39.8491 17.7113C39.9977 17.4662 40.0735 17.1839 40.0677 16.8974C40.0618 16.6108 39.9744 16.3319 39.8159 16.0931L37.7479 12.9882L39.8461 10.8977L42.9706 12.9701C43.2123 13.1303 43.4949 13.2174 43.7848 13.2212C44.0747 13.2249 44.3596 13.1451 44.6053 12.9913C45.9051 12.1755 47.332 11.5827 48.8272 11.2373C49.1102 11.1721 49.3684 11.0266 49.5708 10.8183C49.7732 10.61 49.9113 10.3477 49.9683 10.0629L50.7049 6.3905H53.6785L54.4151 10.0629C54.4722 10.3477 54.6102 10.61 54.8126 10.8183C55.015 11.0266 55.2732 11.1721 55.5562 11.2373C57.0514 11.5827 58.4784 12.1755 59.7781 12.9913C60.0239 13.1451 60.3087 13.2249 60.5986 13.2212C60.8885 13.2174 61.1712 13.1303 61.4128 12.9701L64.5359 10.8977L66.634 12.9882L64.5661 16.0931C64.4075 16.3319 64.3201 16.6108 64.3142 16.8974C64.3084 17.1839 64.3842 17.4662 64.5328 17.7113C65.3419 19.0456 65.9472 20.5188 66.2853 21.9679C66.3509 22.2501 66.4964 22.5075 66.7044 22.7094C66.9123 22.9112 67.174 23.0489 67.4581 23.106L71.1306 23.8426V26.8056L67.4551 27.5543Z" fill="url(#paint2_linear_19_7306)"/>
<defs>
<linearGradient id="paint0_linear_19_7306" x1="3.27276" y1="47.4351" x2="28.242" y2="100" gradientUnits="userSpaceOnUse">
<stop stop-color="#2C91F0"/>
<stop offset="1" stop-color="#C725D5"/>
</linearGradient>
<linearGradient id="paint1_linear_19_7306" x1="9.56626" y1="20.8036" x2="61.3547" y2="68.5923" gradientUnits="userSpaceOnUse">
<stop stop-color="#2C91F0"/>
<stop offset="1" stop-color="#C725D5"/>
</linearGradient>
<linearGradient id="paint2_linear_19_7306" x1="30.5243" y1="7.67118" x2="74.0666" y2="47.5362" gradientUnits="userSpaceOnUse">
<stop stop-color="#2C91F0"/>
<stop offset="1" stop-color="#C725D5"/>
</linearGradient>
</defs>
</svg>
