<svg width="68" height="64" viewBox="0 0 68 64" fill="none" xmlns="http://www.w3.org/2000/svg">
<path d="M34.0001 63.0131C32.3549 63.0191 30.7693 62.3946 29.567 61.2671L1.3078 34.736C0.899017 34.369 0.571435 33.92 0.346192 33.418C0.120949 32.916 0.00305077 32.3722 0.000106321 31.8216V30.3119C-0.0138792 29.2522 0.391208 28.2302 1.12658 27.4698C1.86196 26.7094 2.86763 26.2728 3.92318 26.2555H11.7693C12.8098 26.2555 13.8077 25.8405 14.5434 25.102C15.2791 24.3634 15.6924 23.3617 15.6924 22.3171V3.93832C15.6924 2.89381 16.1057 1.89209 16.8415 1.15351C17.5772 0.414929 18.575 0 19.6155 0L48.3847 0C49.4252 0 50.423 0.414929 51.1588 1.15351C51.8945 1.89209 52.3078 2.89381 52.3078 3.93832V22.409C52.3113 23.4304 52.7178 24.4087 53.4385 25.1297C54.1591 25.8506 55.135 26.2555 56.1524 26.2555H64.077C65.1326 26.2728 66.1383 26.7094 66.8736 27.4698C67.609 28.2302 68.0141 29.2522 68.0001 30.3119V31.8216C67.9972 32.3722 67.8793 32.916 67.654 33.418C67.4288 33.92 67.1012 34.369 66.6924 34.736L38.4332 61.254C37.2329 62.3863 35.6472 63.0155 34.0001 63.0131ZM3.92318 28.881C3.56477 28.9077 3.22997 29.0706 2.987 29.3365C2.74404 29.6023 2.61118 29.9512 2.61549 30.3119V31.8216C2.61222 32.0092 2.64905 32.1954 2.72349 32.3675C2.79793 32.5396 2.90825 32.6937 3.04703 32.8193L31.3847 59.3374C32.1087 60.0053 33.0561 60.3759 34.0393 60.3759C35.0226 60.3759 35.97 60.0053 36.694 59.3374L64.9532 32.8193C65.0882 32.6906 65.1959 32.536 65.2701 32.3646C65.3442 32.1931 65.3832 32.0085 65.3847 31.8216V30.3119C65.389 29.9512 65.2562 29.6023 65.0132 29.3365C64.7702 29.0706 64.4354 28.9077 64.077 28.881H56.1524C54.4414 28.881 52.8002 28.1996 51.5891 26.9862C50.378 25.7729 49.6959 24.1267 49.6924 22.409V3.93832C49.6924 3.59015 49.5546 3.25624 49.3094 3.01005C49.0642 2.76386 48.7315 2.62555 48.3847 2.62555H19.6155C19.2687 2.62555 18.9361 2.76386 18.6908 3.01005C18.4456 3.25624 18.3078 3.59015 18.3078 3.93832V22.3171C18.3078 23.1791 18.1387 24.0327 17.8101 24.829C17.4815 25.6254 16.9999 26.349 16.3927 26.9585C15.7856 27.568 15.0648 28.0515 14.2715 28.3814C13.4782 28.7112 12.628 28.881 11.7693 28.881H3.92318Z" fill="url(#paint0_linear_19_7324)"/>
<path d="M62.7692 23.6299H57.5385C56.8448 23.6299 56.1796 23.3533 55.6891 22.8609C55.1986 22.3685 54.9231 21.7007 54.9231 21.0044V6.56387H57.5385V21.0044H62.7692V23.6299Z" fill="url(#paint1_linear_19_7324)"/>
<path d="M10.4616 23.6299H5.23083V21.0044H10.4616V6.56387H13.077V21.0044C13.077 21.7007 12.8014 22.3685 12.311 22.8609C11.8205 23.3533 11.1552 23.6299 10.4616 23.6299Z" fill="url(#paint2_linear_19_7324)"/>
<path d="M35.3731 40.9848L26.5854 29.9575V27.7652C30.7046 28.054 33.9084 27.6207 34.6538 23.6956H25.8792L27.2915 21.3063L34.3008 21.4113C33.2415 19.1796 30.2992 18.9171 25.7223 19.0746L27.2915 16.7379H42.1731L40.6954 19.0483H36.6154C37.316 19.7102 37.7763 20.5881 37.9231 21.5426H42.1861L40.7084 23.8268H37.8708C37.4261 27.24 34.3007 29.2617 30.3515 29.7212L39.2308 40.9848H35.3731Z" fill="url(#paint3_linear_19_7324)"/>
<defs>
<linearGradient id="paint0_linear_19_7324" x1="34.0001" y1="0.157533" x2="34.0001" y2="63.7089" gradientUnits="userSpaceOnUse">
<stop stop-color="#1A6DFF"/>
<stop offset="1" stop-color="#C822FF"/>
</linearGradient>
<linearGradient id="paint1_linear_19_7324" x1="58.8462" y1="0.157538" x2="58.8462" y2="63.6958" gradientUnits="userSpaceOnUse">
<stop stop-color="#1A6DFF"/>
<stop offset="1" stop-color="#C822FF"/>
</linearGradient>
<linearGradient id="paint2_linear_19_7324" x1="9.15391" y1="0.157538" x2="9.15391" y2="63.6958" gradientUnits="userSpaceOnUse">
<stop stop-color="#1A6DFF"/>
<stop offset="1" stop-color="#C822FF"/>
</linearGradient>
<linearGradient id="paint3_linear_19_7324" x1="-1.56339e-05" y1="40.9848" x2="34.0887" y2="16.7841" gradientUnits="userSpaceOnUse">
<stop stop-color="#1A6DFF"/>
<stop offset="1" stop-color="#C822FF"/>
</linearGradient>
</defs>
</svg>
