<svg width="90" height="90" viewBox="0 0 90 90" fill="none" xmlns="http://www.w3.org/2000/svg">
<path d="M90 26.6765C90 22.2834 85.2293 18.4809 76.1977 15.6776C67.8389 13.0887 56.7682 11.6613 45.0049 11.6613C33.2416 11.6613 22.1611 13.0887 13.8122 15.6776C4.78055 18.4809 0 22.2834 0 26.6765V65.6578H0.0105469C0 65.7084 0 65.7598 0 65.8104C0 70.785 6.26906 75.0663 17.6555 77.8697L19.5518 78.3387V56.2795C26.4227 54.6996 35.1176 53.6906 45.0056 53.6906C54.9035 53.6906 63.5991 54.6996 70.4594 56.2795V78.3387L72.3558 77.8697C83.7309 75.0663 90 70.785 90 65.8104C90 65.7598 90 65.7084 89.9895 65.6578H90V26.6765ZM16.4932 74.404C8.15484 72.1005 3.05789 68.869 3.05789 65.8104C3.05789 65.7183 3.05789 65.617 3.06844 65.5249C3.38414 62.5584 8.41992 59.4598 16.4932 57.2168V74.404ZM73.5166 74.404V57.2168C81.5899 59.4598 86.6257 62.5584 86.9316 65.5249C86.9421 65.617 86.9421 65.7183 86.9421 65.8104C86.9421 68.8683 81.855 72.0998 73.5166 74.404ZM86.9421 29.8673C83.8125 32.0892 78.4202 34.1184 71.6513 35.6168L70.4587 35.8819V51.2536H73.5166V38.328C79.103 37.0132 83.6592 35.3616 86.9414 33.4758V59.9386C84.6274 57.9305 81.019 56.1466 76.197 54.6581C67.8389 52.0594 56.7689 50.632 45.0049 50.632C33.2409 50.632 22.1611 52.0594 13.8122 54.6588C8.99086 56.1473 5.37187 57.9312 3.05789 59.9393V33.5166C6.36047 35.3819 10.9378 37.0336 16.4932 38.3379V51.2536H19.5511V35.8819L18.348 35.6168C11.6613 34.1487 6.22758 32.1201 3.05719 29.9285V26.6765C3.05719 21.0192 20.2845 14.7192 45.0042 14.7192C69.724 14.7192 86.9407 21.0192 86.9407 26.6765V29.8673H86.9421ZM39.8482 25.7477H44.1633L37.3873 45.6223H33.4638L26.7427 25.7477H31.1787L35.4938 40.8354L39.8482 25.7477ZM59.374 26.2596C60.1059 26.5739 60.7261 27.0373 61.2345 27.6483C61.6556 28.1517 61.9882 28.7093 62.2336 29.321C62.479 29.9327 62.602 30.6288 62.602 31.4107C62.602 32.3557 62.3637 33.2831 61.887 34.1958C61.4109 35.1077 60.6234 35.7525 59.5273 36.1301C60.4441 36.4992 61.0938 37.023 61.4756 37.7008C61.8574 38.3801 62.0487 39.4158 62.0487 40.8087V42.1439C62.0487 43.053 62.0852 43.6683 62.1584 43.9917C62.268 44.5043 62.524 44.8819 62.9255 45.1244V45.623H58.3411C58.2152 45.1828 58.1252 44.8277 58.0718 44.5577C57.9635 44.0001 57.9052 43.4299 57.896 42.8456L57.8693 40.9978C57.8524 39.7308 57.633 38.8856 57.2126 38.463C56.7921 38.0398 56.0032 37.8288 54.8466 37.8288H50.7902V45.6223H46.7318V25.7477H56.238C57.5965 25.7744 58.6427 25.9446 59.374 26.2596ZM50.7909 29.1994V34.5389H55.26C56.148 34.5389 56.8139 34.4313 57.2576 34.2155C58.043 33.8379 58.436 33.0919 58.436 31.9767C58.436 30.7723 58.0556 29.9637 57.2962 29.5495C56.8695 29.3168 56.2289 29.1994 55.3753 29.1994H50.7909Z" fill="url(#paint0_linear_19_7273)"/>
<defs>
<linearGradient id="paint0_linear_19_7273" x1="-4.14561e-07" y1="11.9531" x2="90" y2="78.0469" gradientUnits="userSpaceOnUse">
<stop stop-color="#2B91F1"/>
<stop offset="1" stop-color="#D01ED4"/>
</linearGradient>
</defs>
</svg>
