<svg width="85" height="84" viewBox="0 0 85 84" fill="none" xmlns="http://www.w3.org/2000/svg">
<path d="M72.2304 8.08295L61.3548 18.9585L56.9309 14.5346M67.2535 3.84332C65.2258 2.73733 62.8295 2 60.4332 2C52.8756 2 46.7926 8.08295 46.7926 15.6406C46.7926 23.1982 52.8756 29.2811 60.4332 29.2811C67.9908 29.2811 74.0737 23.1982 74.0737 15.6406M27.6221 76.1014H49.5576C49.7419 76.1014 49.7419 75.917 49.7419 75.917V32.2304C49.7419 32.0461 49.5576 32.0461 49.5576 32.0461H2.18433C2 32.0461 2 32.2304 2 32.2304V75.917C2 76.1014 2.18433 76.1014 2.18433 76.1014H7.71428M76.8387 75.7327H82.3687C82.553 75.7327 82.7373 75.5484 82.7373 75.364V55.4562L74.6267 39.4193C74.6267 39.235 74.4424 39.235 74.2581 39.235H55.8249C55.6406 39.235 55.2719 39.4194 55.2719 39.788V75.917H57.8525M63.5668 39.235V54.7189H76.6544M65.5945 61.1705H61.7235M77.3917 66.1475H81.2627M49.3733 69.4654H25.9631M2 67.4378H7.71428V61.1705H2M50.1106 40.7097H7.71428M25.9631 54.7189H50.1106M18.4055 54.7189H22.2765M16.7465 69.4654C13.2442 69.4654 10.4793 72.2304 10.4793 75.7327C10.4793 79.235 13.2442 82 16.7465 82C20.2488 82 23.0138 79.235 23.0138 75.7327C23.0138 72.2304 20.2488 69.4654 16.7465 69.4654ZM66.8848 69.4654C63.3825 69.4654 60.6175 72.2304 60.6175 75.7327C60.6175 79.235 63.3825 82 66.8848 82C70.3871 82 73.1521 79.235 73.1521 75.7327C73.1521 72.2304 70.3871 69.4654 66.8848 69.4654Z" stroke="url(#paint0_linear_19_7276)" stroke-width="3" stroke-miterlimit="10"/>
<defs>
<linearGradient id="paint0_linear_19_7276" x1="0.152441" y1="42" x2="83.0036" y2="82.6349" gradientUnits="userSpaceOnUse">
<stop stop-color="#3D9BF3"/>
<stop offset="0.284375" stop-color="#6D46FF"/>
<stop offset="0.4912" stop-color="#813AFF"/>
<stop offset="0.7439" stop-color="#8D32FF"/>
<stop offset="1" stop-color="#CA22D5"/>
</linearGradient>
</defs>
</svg>
