<svg width="62" height="80" viewBox="0 0 62 80" fill="none" xmlns="http://www.w3.org/2000/svg">
<path d="M39.0045 32.7668L36.0634 35.7838L31.973 39.9796L27.8826 44.1854L19.6922 35.7838L15.6018 39.9796L23.7825 48.3812L27.8826 52.577L31.973 48.3812L36.0634 44.1854L40.1537 39.9796L44.2538 35.7838L46.6204 33.3562L42.53 29.1504" stroke="url(#paint0_linear_19_7279)" stroke-width="2.63" stroke-miterlimit="10" stroke-linecap="square"/>
<path d="M51.0029 9.12092C46.1361 9.14645 41.325 8.05772 36.9204 5.93411C34.7413 4.89517 32.7021 3.57223 30.853 1.99805C28.9889 3.57588 26.933 4.89894 24.7369 5.93411C20.3175 8.065 15.489 9.1539 10.6057 9.12092H0.973882V46.2238C0.971882 49.4468 1.60101 52.6373 2.82394 55.6061C4.04687 58.575 5.83868 61.2616 8.09306 63.5065C14.7837 70.1998 30.853 78.7912 30.853 78.7912C30.853 78.7912 46.8249 70.1998 53.5156 63.5365C55.7735 61.288 57.5674 58.5966 58.7904 55.6223C60.0134 52.6481 60.6407 49.4518 60.6348 46.2238V9.12092H51.0029Z" stroke="url(#paint1_linear_19_7279)" stroke-width="2.63" stroke-miterlimit="10" stroke-linecap="square"/>
<path d="M53.1553 21.9785V45.9546C53.1569 48.1108 52.7372 50.2454 51.9209 52.2324C51.1046 54.2193 49.9083 56.0183 48.4027 57.523C44.2052 61.6788 34.6416 67.3731 31.1647 69.4111C27.6295 67.4131 18.0561 61.6688 13.8684 57.513C12.3547 56.0146 11.1504 54.2191 10.3272 52.2334C9.50402 50.2477 9.07877 48.1123 9.07678 45.9546V16.8437H10.9174C16.9444 16.8454 22.8972 15.4808 28.3502 12.8477C29.3241 12.3881 30.2298 11.8487 31.1161 11.3691C32.0023 11.8886 32.9372 12.3681 33.9014 12.8577C39.3458 15.4958 45.2934 16.8607 51.3147 16.8537H53.1553" stroke="url(#paint2_linear_19_7279)" stroke-width="2.63" stroke-miterlimit="10" stroke-linecap="square"/>
<defs>
<linearGradient id="paint0_linear_19_7279" x1="31.1111" y1="29.1504" x2="31.1111" y2="52.577" gradientUnits="userSpaceOnUse">
<stop stop-color="#2E8FF0"/>
<stop offset="1" stop-color="#C625D6"/>
</linearGradient>
<linearGradient id="paint1_linear_19_7279" x1="30.8043" y1="1.99805" x2="30.8043" y2="78.7912" gradientUnits="userSpaceOnUse">
<stop stop-color="#2E8FF0"/>
<stop offset="1" stop-color="#C625D6"/>
</linearGradient>
<linearGradient id="paint2_linear_19_7279" x1="31.1161" y1="11.3691" x2="31.1161" y2="69.4111" gradientUnits="userSpaceOnUse">
<stop stop-color="#2E8FF0"/>
<stop offset="1" stop-color="#C625D6"/>
</linearGradient>
</defs>
</svg>
