<svg width="96" height="74" viewBox="0 0 96 74" fill="none" xmlns="http://www.w3.org/2000/svg">
<path d="M48 0L52.9277 3.88782L58.8156 1.71302L62.3007 6.93329L68.5725 6.6844L70.2739 12.7261L76.3156 14.4275L76.0667 20.6993L81.287 24.1844L79.1122 30.0723L83 35L79.1122 39.9277L81.287 45.8156L76.0667 49.3007L76.3156 55.5725L70.2739 57.2739L68.5725 63.3156L62.3007 63.0667L58.8156 68.287L52.9277 66.1122L48 70L43.0723 66.1122L37.1844 68.287L33.6993 63.0667L27.4275 63.3156L25.7261 57.2739L19.6844 55.5725L19.9333 49.3007L14.713 45.8156L16.8878 39.9277L13 35L16.8878 30.0723L14.713 24.1844L19.9333 20.6993L19.6844 14.4275L25.7261 12.7261L27.4275 6.6844L33.6993 6.93329L37.1844 1.71302L43.0723 3.88782L48 0Z" fill="#003AC9"/>
<path d="M0 43H96L83.7966 50L96 57H0L11.3898 50L0 43Z" fill="#FFFE4D"/>
<path d="M28.584 27V21.288H29.784V26.056H33.256V27H28.584ZM36.9599 27.16C34.5439 27.16 33.5999 25.752 33.5999 24.144C33.5999 22.536 34.5439 21.128 36.9599 21.128C39.3759 21.128 40.3199 22.536 40.3199 24.144C40.3199 25.752 39.3759 27.16 36.9599 27.16ZM36.9599 26.264C38.3039 26.264 39.0719 25.4 39.0719 24.144C39.0719 22.888 38.3039 22.024 36.9599 22.024C35.6159 22.024 34.8479 22.888 34.8479 24.144C34.8479 25.4 35.6159 26.264 36.9599 26.264ZM42.4339 27L40.5379 21.288H41.8339L43.1219 25.72H43.1379L44.5619 21.288H45.8099L47.2419 25.72H47.2579L48.5699 21.288H49.8179L47.8979 27H46.6019L45.1779 22.616H45.1619L43.7299 27H42.4339ZM50.3574 27V21.288H55.3174V22.184H51.5574V23.624H55.1654V24.52H51.5574V26.104H55.3814V27H50.3574ZM55.9831 22.896C55.9831 21.624 57.1111 21.128 58.5031 21.128C59.3831 21.128 61.1431 21.288 61.2951 22.944H59.9991C59.9591 22.504 59.5591 22.024 58.5591 22.024C57.7591 22.024 57.2311 22.272 57.2311 22.808C57.2311 24.152 61.4871 22.864 61.4871 25.304C61.4871 26.776 59.9591 27.16 58.7431 27.16C56.6871 27.16 55.8631 26.352 55.8471 25.152H57.1431C57.1751 25.904 57.7991 26.264 58.7831 26.264C59.5111 26.264 60.1911 26.048 60.1911 25.424C60.1911 24.008 55.9831 25.24 55.9831 22.896ZM63.7768 27V22.184H61.6328V21.288H67.1208V22.184H64.9768V27H63.7768Z" fill="white"/>
<path d="M22.672 49.864V53H21.968L21.8 52.256C21.336 52.816 20.52 53.16 19.624 53.16C17.208 53.16 16.264 51.752 16.264 50.144C16.264 48.536 17.264 47.128 19.592 47.128C21.328 47.128 22.44 48.008 22.568 49.128H21.272C21.056 48.352 20.336 48.024 19.56 48.024C18.08 48.024 17.512 48.928 17.512 50.184C17.512 51.704 18.488 52.264 19.496 52.264C20.72 52.264 21.28 51.704 21.472 50.76H19.856V49.864H22.672ZM23.7938 50.544V47.288H24.9938V50.512C24.9938 51.304 25.0258 52.264 26.5858 52.264C28.1538 52.264 28.1858 51.304 28.1858 50.512V47.288H29.3858V50.544C29.3858 51.488 29.3538 53.16 26.5858 53.16C23.8258 53.16 23.7938 51.488 23.7938 50.544ZM32.0979 50.688H34.0659L33.0899 48.28L32.0979 50.688ZM29.8499 53L32.3939 47.288H33.8179L36.3619 53H35.0259L34.4259 51.584H31.7379L31.1459 53H29.8499ZM36.8731 53V47.288H40.4891C41.9451 47.288 42.4171 47.952 42.4171 48.84C42.4171 49.584 42.0091 50.048 41.4731 50.216V50.232C42.1531 50.376 42.3051 50.968 42.3051 51.776C42.3051 52.048 42.3131 52.688 42.5451 53H41.2491C41.1611 52.84 41.1051 52.552 41.1051 52.136C41.1051 51.32 40.9931 50.744 40.1131 50.744H38.0731V53H36.8731ZM38.0731 49.848H40.1451C40.8091 49.848 41.1691 49.648 41.1691 49.008C41.1691 48.416 40.7771 48.184 40.1451 48.184H38.0731V49.848ZM44.9885 50.688H46.9565L45.9805 48.28L44.9885 50.688ZM42.7405 53L45.2845 47.288H46.7085L49.2525 53H47.9165L47.3165 51.584H44.6285L44.0365 53H42.7405ZM49.7637 53V47.288H51.1397L54.5397 51.576H54.5557V47.288H55.7077V53H54.3557L50.9317 48.712H50.9157V53H49.7637ZM58.4331 53V48.184H56.2891V47.288H61.7771V48.184H59.6331V53H58.4331ZM62.3574 53V47.288H67.3174V48.184H63.5574V49.624H67.1654V50.52H63.5574V52.104H67.3814V53H62.3574ZM68.2871 53V47.288H73.2471V48.184H69.4871V49.624H73.0951V50.52H69.4871V52.104H73.3111V53H68.2871ZM75.4168 48.184V52.104H77.1048C77.9688 52.104 78.8888 51.824 78.8888 50.152C78.8888 48.296 77.7128 48.184 77.0408 48.184H75.4168ZM74.2168 53V47.288H77.2968C79.5368 47.288 80.0888 48.568 80.0888 50.2C80.0888 51.432 79.5288 53 77.5848 53H74.2168Z" fill="#003AC9"/>
<path d="M40.115 32.99V34.08H41.32C41.745 34.08 41.975 33.965 41.975 33.54C41.975 33.1 41.665 32.99 41.375 32.99H40.115ZM39.365 36V32.43H41.565C42.44 32.43 42.725 32.965 42.725 33.54C42.725 34.085 42.38 34.64 41.575 34.64H40.115V36H39.365ZM43.2566 36V32.43H45.5166C46.4266 32.43 46.7216 32.845 46.7216 33.4C46.7216 33.865 46.4666 34.155 46.1316 34.26V34.27C46.5566 34.36 46.6516 34.73 46.6516 35.235C46.6516 35.405 46.6566 35.805 46.8016 36H45.9916C45.9366 35.9 45.9016 35.72 45.9016 35.46C45.9016 34.95 45.8316 34.59 45.2816 34.59H44.0066V36H43.2566ZM44.0066 34.03H45.3016C45.7166 34.03 45.9416 33.905 45.9416 33.505C45.9416 33.135 45.6966 32.99 45.3016 32.99H44.0066V34.03ZM47.3338 36V32.43H48.0838V36H47.3338ZM52.5582 33.75H51.7482C51.6732 33.21 51.2282 32.89 50.5982 32.89C49.9082 32.89 49.3932 33.35 49.3932 34.28C49.3932 35.025 49.9082 35.54 50.6482 35.54C51.4282 35.54 51.6882 35.01 51.7482 34.635H52.5582C52.4532 35.345 51.9882 36.1 50.5182 36.1C49.2282 36.1 48.6132 35.22 48.6132 34.215C48.6132 33.21 49.2032 32.33 50.6082 32.33C51.8382 32.33 52.4782 32.98 52.5582 33.75ZM53.1638 36V32.43H56.2638V32.99H53.9138V33.89H56.1688V34.45H53.9138V35.44H56.3038V36H53.1638Z" fill="white"/>
<g style="mix-blend-mode:multiply" opacity="0.5">
<path d="M48 74C74.5097 74 96 73.5523 96 73C96 72.4477 74.5097 72 48 72C21.4903 72 0 72.4477 0 73C0 73.5523 21.4903 74 48 74Z" fill="#B5B5B5"/>
</g>
</svg>
