<svg width="124" height="69" viewBox="0 0 124 69" fill="none" xmlns="http://www.w3.org/2000/svg">
<g clip-path="url(#clip0_19_7152)">
<g style="mix-blend-mode:multiply" opacity="0.5">
<path d="M61.9998 69.0006C94.4679 69.0006 120.789 68.5834 120.789 68.0687C120.789 67.554 94.4679 67.1367 61.9998 67.1367C29.5316 67.1367 3.21094 67.554 3.21094 68.0687C3.21094 68.5834 29.5316 69.0006 61.9998 69.0006Z" fill="#B5B5B5"/>
</g>
<path d="M116.581 32.9054L111.616 27.8889L107.275 22.926C106.624 22.1991 105.876 21.3698 105.012 20.42C101.615 16.6832 100.383 13.9766 98.3283 13.6912C93.5802 13.0313 82.0244 13.0312 82.0244 13.0312V58.0101L123.114 58.1127V36.1204C123.105 33.445 116.581 32.9054 116.581 32.9054Z" fill="#1256FF"/>
<g style="mix-blend-mode:multiply">
<path d="M86.2721 58.0096H82.0156V13.0352H86.3075L86.2721 58.0096Z" fill="#BA1C28"/>
</g>
<path d="M124 53.6758H118.782V58.8617H124V53.6758Z" fill="#103093"/>
<path d="M123.105 35.7232V39.1478C121.825 38.6139 120.684 37.7891 119.773 36.7378C118.862 35.6866 118.204 34.4374 117.852 33.0879C118.588 33.1637 123.105 32.8159 123.105 35.7232Z" fill="#FFFE4D"/>
<g style="mix-blend-mode:multiply" opacity="0.5">
<path d="M97.7614 17.2168H87.6628V51.699H114.761V36.2081L97.7614 17.2168Z" fill="#BA1C28"/>
</g>
<path d="M97.6462 21.123H91.0024C90.7923 21.123 90.5843 21.165 90.3905 21.2467C90.1966 21.3283 90.0208 21.4479 89.8733 21.5985C89.7258 21.7491 89.6094 21.9277 89.5311 22.1239C89.4527 22.3202 89.4138 22.5302 89.4168 22.7417V32.4491C89.4168 32.6594 89.4579 32.8675 89.5378 33.0617C89.6177 33.256 89.7349 33.4324 89.8825 33.5811C90.0302 33.7297 90.2054 33.8477 90.3984 33.9281C90.5913 34.0086 90.7981 34.05 91.0069 34.05H107.187C107.485 34.0517 107.778 33.9691 108.031 33.8114C108.285 33.6537 108.49 33.4273 108.622 33.1581L97.6462 21.123Z" fill="#6FADAE"/>
<path d="M95.3829 36.8954C95.3817 37.0945 95.3023 37.285 95.1621 37.4254C95.0218 37.5657 94.8321 37.6445 94.6344 37.6445H90.1609C90.0631 37.6445 89.9664 37.6251 89.8761 37.5875C89.7858 37.5498 89.7038 37.4946 89.6347 37.4251C89.5656 37.3555 89.5108 37.2729 89.4734 37.182C89.436 37.0912 89.4167 36.9937 89.4167 36.8954C89.4167 36.797 89.436 36.6996 89.4734 36.6087C89.5108 36.5178 89.5656 36.4352 89.6347 36.3657C89.7038 36.2961 89.7858 36.2409 89.8761 36.2033C89.9664 36.1656 90.0631 36.1462 90.1609 36.1462H94.6344C94.8321 36.1462 95.0218 36.225 95.1621 36.3654C95.3023 36.5057 95.3817 36.6963 95.3829 36.8954Z" fill="#282B4D"/>
<path opacity="0.4" d="M92.3977 34.05L95.0287 21.123H96.8801L94.2713 34.05H92.3977Z" fill="white"/>
<path opacity="0.4" d="M98.6517 22.2246L96.1182 34.0501H98.1246L100.131 23.8477L98.6517 22.2246Z" fill="white"/>
<path d="M115.881 58.9942C115.881 56.2658 114.805 53.6493 112.888 51.7201C110.972 49.7908 108.373 48.707 105.663 48.707C102.953 48.707 100.354 49.7908 98.4378 51.7201C96.5215 53.6493 95.4449 56.2658 95.4449 58.9942H115.881Z" fill="#FFFE4D"/>
<path d="M114.761 59.3074C114.761 61.1189 114.227 62.8897 113.227 64.3959C112.228 65.9021 110.807 67.076 109.145 67.7692C107.482 68.4624 105.653 68.6438 103.888 68.2904C102.123 67.937 100.502 67.0647 99.2301 65.7838C97.9577 64.5029 97.0913 62.8709 96.7402 61.0942C96.3892 59.3176 96.5694 57.476 97.2579 55.8024C97.9465 54.1288 99.1126 52.6984 100.609 51.692C102.105 50.6856 103.864 50.1484 105.663 50.1484C108.075 50.1496 110.389 51.115 112.095 52.8323C113.801 54.5497 114.759 56.8787 114.761 59.3074Z" fill="#103093"/>
<path d="M110.885 59.3069C110.885 60.3478 110.579 61.3652 110.004 62.2306C109.43 63.096 108.613 63.7704 107.658 64.1685C106.703 64.5666 105.651 64.6706 104.637 64.4672C103.623 64.2638 102.692 63.7622 101.961 63.0259C101.231 62.2896 100.733 61.3516 100.532 60.3307C100.331 59.3097 100.435 58.2516 100.831 57.2902C101.228 56.3289 101.898 55.5074 102.758 54.9298C103.618 54.3521 104.629 54.0443 105.663 54.0452C106.349 54.0452 107.029 54.1813 107.663 54.4458C108.296 54.7103 108.872 55.0979 109.357 55.5866C109.842 56.0752 110.227 56.6553 110.489 57.2937C110.751 57.932 110.886 58.6161 110.885 59.3069Z" fill="#FFFE4D"/>
<path d="M110.261 59.3068C110.261 60.2233 109.991 61.1193 109.485 61.8812C108.979 62.6432 108.26 63.2371 107.419 63.5876C106.578 63.9381 105.652 64.0296 104.759 63.8505C103.866 63.6713 103.046 63.2297 102.403 62.5813C101.76 61.9329 101.322 61.107 101.145 60.2079C100.968 59.3089 101.059 58.3773 101.408 57.5308C101.757 56.6843 102.348 55.961 103.105 55.4525C103.863 54.9439 104.753 54.6729 105.663 54.6738C106.267 54.6738 106.865 54.7937 107.424 55.0266C107.982 55.2595 108.489 55.6008 108.916 56.0311C109.343 56.4613 109.681 56.9721 109.912 57.5342C110.143 58.0963 110.261 58.6986 110.261 59.3068Z" fill="#427985"/>
<path d="M108.099 59.3066C108.099 59.7927 107.956 60.2679 107.688 60.672C107.419 61.0762 107.038 61.3911 106.592 61.5769C106.145 61.7628 105.655 61.8112 105.181 61.716C104.707 61.6208 104.273 61.3864 103.931 61.0423C103.59 60.6983 103.358 60.2601 103.265 59.7832C103.171 59.3063 103.22 58.8121 103.405 58.3632C103.591 57.9144 103.904 57.531 104.306 57.2615C104.708 56.9921 105.18 56.8487 105.663 56.8496C105.983 56.8496 106.301 56.9132 106.596 57.0367C106.892 57.1603 107.161 57.3413 107.387 57.5695C107.614 57.7977 107.793 58.0686 107.915 58.3667C108.037 58.6647 108.1 58.9841 108.099 59.3066Z" fill="#103093"/>
<path d="M79.3891 2.81849C79.3891 3.41601 79.0303 3.90205 78.583 3.90205H72.2492C71.8063 3.90205 71.4431 3.41601 71.4431 2.81849C71.4431 2.21651 71.8063 1.73047 72.2492 1.73047H78.583C79.0259 1.73047 79.3891 2.21651 79.3891 2.81849Z" fill="#45335B"/>
<path d="M83.3222 54.4729C83.2989 55.6336 82.8197 56.7376 81.9896 57.5433C81.1594 58.349 80.0459 58.7906 78.893 58.7715H4.4292C3.27593 58.7918 2.16179 58.3506 1.33137 57.5446C0.500948 56.7387 0.0221183 55.634 0 54.4729L0 4.29924C0.0221183 3.13822 0.500948 2.03348 1.33137 1.22755C2.16179 0.421626 3.27593 -0.0196254 4.4292 0.000670392H78.8841C80.0374 -0.0196254 81.1515 0.421626 81.982 1.22755C82.8124 2.03348 83.2912 3.13822 83.3133 4.29924L83.3222 54.4729Z" fill="#003AC9"/>
<path d="M83.3222 39.375H0V53.1759H83.3222V39.375Z" fill="#FFFE96"/>
<g style="mix-blend-mode:multiply" opacity="0.2">
<path d="M4.4292 0.000670392H12.5568V38.1482C12.5562 39.0106 12.7244 39.8646 13.0518 40.6614C13.3792 41.4583 13.8594 42.1824 14.4648 42.7924C15.0703 43.4024 15.7892 43.8862 16.5805 44.2164C17.3718 44.5465 18.22 44.7164 19.0766 44.7164H83.3222V54.4729C83.2989 55.6336 82.8197 56.7376 81.9896 57.5433C81.1594 58.349 80.0459 58.7906 78.893 58.7715H4.4292C3.27593 58.7918 2.16179 58.3506 1.33137 57.5446C0.500948 56.7387 0.0221183 55.634 0 54.4729L0 4.29924C0.0221183 3.13822 0.500948 2.03348 1.33137 1.22755C2.16179 0.421626 3.27593 -0.0196254 4.4292 0.000670392Z" fill="#FFFE96"/>
</g>
<path d="M30.9291 58.6641C30.9291 55.9358 29.8526 53.3192 27.9363 51.39C26.02 49.4608 23.421 48.377 20.711 48.377C18.0009 48.377 15.4019 49.4608 13.4856 51.39C11.5694 53.3192 10.4928 55.9358 10.4928 58.6641H30.9291Z" fill="#FFFE4D"/>
<path d="M29.8085 59.3074C29.8085 61.1189 29.2749 62.8897 28.2752 64.3959C27.2756 65.9021 25.8547 67.076 24.1924 67.7692C22.53 68.4624 20.7008 68.6438 18.936 68.2904C17.1713 67.937 15.5502 67.0647 14.2779 65.7838C13.0056 64.5029 12.1391 62.8709 11.7881 61.0942C11.4371 59.3176 11.6172 57.476 12.3058 55.8024C12.9944 54.1288 14.1604 52.6984 15.6565 51.692C17.1526 50.6856 18.9115 50.1484 20.7109 50.1484C23.1237 50.1484 25.4377 51.1134 27.1438 52.831C28.85 54.5487 29.8085 56.8783 29.8085 59.3074Z" fill="#103093"/>
<path d="M25.9374 59.3069C25.9374 60.3476 25.6309 61.3649 25.0566 62.2302C24.4823 63.0954 23.6661 63.7699 22.711 64.1681C21.756 64.5664 20.7052 64.6706 19.6913 64.4675C18.6775 64.2645 17.7462 63.7634 17.0153 63.0275C16.2844 62.2916 15.7866 61.3541 15.5849 60.3334C15.3833 59.3127 15.4868 58.2548 15.8823 57.2933C16.2779 56.3319 16.9478 55.5101 17.8073 54.9319C18.6668 54.3538 19.6773 54.0452 20.711 54.0452C21.3975 54.0446 22.0774 54.1803 22.7117 54.4445C23.3461 54.7087 23.9225 55.0963 24.4079 55.585C24.8934 56.0737 25.2783 56.654 25.5408 57.2926C25.8032 57.9313 25.938 58.6158 25.9374 59.3069Z" fill="#FFFE4D"/>
<path d="M25.3084 59.3068C25.3076 60.2221 25.0372 61.1165 24.5315 61.8771C24.0257 62.6377 23.3074 63.2302 22.4672 63.5799C21.6271 63.9295 20.7028 64.0205 19.8113 63.8414C18.9197 63.6623 18.101 63.2212 17.4584 62.5737C16.8159 61.9262 16.3785 61.1014 16.2014 60.2037C16.0244 59.306 16.1157 58.3756 16.4638 57.5301C16.8119 56.6846 17.4012 55.962 18.1571 55.4536C18.9131 54.9452 19.8018 54.6738 20.7109 54.6738C21.315 54.6738 21.9132 54.7937 22.4713 55.0266C23.0294 55.2595 23.5364 55.6008 23.9634 56.0311C24.3904 56.4613 24.729 56.9721 24.9597 57.5342C25.1905 58.0963 25.309 58.6986 25.3084 59.3068Z" fill="#427985"/>
<path d="M23.1515 59.3066C23.1515 59.7925 23.0084 60.2675 22.7402 60.6716C22.472 61.0756 22.0909 61.3905 21.6449 61.5765C21.199 61.7625 20.7083 61.8111 20.2349 61.7163C19.7615 61.6215 19.3266 61.3875 18.9853 61.0439C18.644 60.7003 18.4116 60.2625 18.3174 59.7859C18.2232 59.3093 18.2716 58.8153 18.4563 58.3663C18.641 57.9174 18.9538 57.5337 19.3551 57.2637C19.7565 56.9937 20.2283 56.8496 20.711 56.8496C21.3583 56.8496 21.979 57.1085 22.4367 57.5692C22.8944 58.03 23.1515 58.6549 23.1515 59.3066Z" fill="#103093"/>
<path d="M25.7879 11.867C27.6399 12.7581 29.1878 14.182 30.2358 15.9588C31.2839 17.7356 31.785 19.7854 31.6757 21.849C31.5665 23.9125 30.8518 25.8971 29.6221 27.5517C28.3924 29.2063 26.7029 30.4565 24.7674 31.1443C22.8318 31.8321 20.7371 31.9266 18.7481 31.4158C16.7592 30.9049 14.9655 29.8117 13.5938 28.2744C12.2221 26.7372 11.334 24.8249 11.042 22.7794C10.7499 20.734 11.067 18.6473 11.953 16.7833C13.1407 14.2849 15.2652 12.3635 17.8595 11.4416C20.4538 10.5197 23.3056 10.6727 25.7879 11.867Z" fill="#F8C331"/>
<path d="M25.5303 12.4211C27.2725 13.2613 28.728 14.6028 29.7128 16.2758C30.6976 17.9489 31.1675 19.8783 31.0631 21.8203C30.9586 23.7622 30.2845 25.6293 29.126 27.1855C27.9675 28.7417 26.3766 29.917 24.5545 30.563C22.7324 31.2089 20.761 31.2963 18.8896 30.8142C17.0182 30.3321 15.3308 29.3021 14.0409 27.8544C12.7509 26.4068 11.9163 24.6066 11.6427 22.6815C11.369 20.7563 11.6686 18.7927 12.5035 17.039C13.6236 14.6883 15.6249 12.8815 18.0675 12.0156C20.5102 11.1497 23.1944 11.2956 25.5303 12.4211Z" fill="white"/>
<path d="M21.3666 20.8325C21.4273 20.8614 21.4817 20.9022 21.5267 20.9524C21.5716 21.0025 21.6063 21.0612 21.6286 21.125C21.6509 21.1887 21.6604 21.2563 21.6566 21.3238C21.6529 21.3912 21.6358 21.4573 21.6065 21.5181C21.5478 21.6409 21.4432 21.7352 21.3156 21.7805C21.188 21.8257 21.0477 21.8183 20.9256 21.7597L17.0161 19.877C16.8942 19.8179 16.8005 19.7126 16.7555 19.5841C16.7105 19.4556 16.718 19.3144 16.7762 19.1914C16.8036 19.1291 16.8431 19.0729 16.8924 19.0262C16.9417 18.9794 16.9997 18.9431 17.0632 18.9192C17.1266 18.8954 17.1942 18.8846 17.2618 18.8874C17.3295 18.8902 17.3959 18.9066 17.4571 18.9357L21.3666 20.8325Z" fill="#282B4D"/>
<path d="M18.4029 27.4224C18.5484 27.4916 18.6606 27.6162 18.7149 27.7688C18.7691 27.9213 18.761 28.0894 18.6922 28.2359C18.6234 28.3823 18.4996 28.4953 18.3481 28.55C18.1966 28.6046 18.0297 28.5964 17.8842 28.5271C17.8076 28.4963 17.738 28.4499 17.6799 28.3909C17.6218 28.332 17.5763 28.2616 17.5463 28.1842C17.5162 28.1068 17.5023 28.0241 17.5053 27.941C17.5083 27.858 17.5282 27.7765 17.5637 27.7015C17.5993 27.6265 17.6497 27.5597 17.7119 27.5051C17.7742 27.4505 17.8469 27.4094 17.9255 27.3842C18.0042 27.3591 18.0871 27.3504 18.1692 27.3588C18.2513 27.3672 18.3308 27.3925 18.4029 27.4331V27.4224Z" fill="#003AC9"/>
<path d="M24.0413 27.7558C24.1179 27.7867 24.1875 27.833 24.2456 27.892C24.3037 27.951 24.3492 28.0214 24.3792 28.0988C24.4093 28.1761 24.4232 28.2589 24.4202 28.3419C24.4172 28.425 24.3973 28.5065 24.3618 28.5815C24.3262 28.6565 24.2758 28.7233 24.2135 28.7779C24.1513 28.8324 24.0786 28.8736 24 28.8987C23.9213 28.9239 23.8384 28.9325 23.7563 28.9241C23.6742 28.9158 23.5947 28.8905 23.5226 28.8499C23.3799 28.7787 23.2705 28.6541 23.2178 28.5028C23.165 28.3515 23.1731 28.1854 23.2404 28.04C23.3097 27.8959 23.4328 27.7853 23.5828 27.732C23.7328 27.6788 23.8975 27.6874 24.0413 27.7558Z" fill="#003AC9"/>
<path d="M24.7469 14.069C24.8533 14.1211 24.942 14.2038 25.0019 14.3066C25.0617 14.4095 25.09 14.5278 25.0832 14.6468C25.0763 14.7658 25.0347 14.8801 24.9635 14.9752C24.8922 15.0704 24.7946 15.1423 24.6829 15.1817C24.5712 15.2212 24.4504 15.2265 24.3358 15.197C24.2211 15.1675 24.1176 15.1044 24.0384 15.0158C23.9593 14.9272 23.9079 14.8171 23.8908 14.6991C23.8737 14.5812 23.8917 14.4608 23.9424 14.3531C23.9764 14.281 24.0242 14.2164 24.0831 14.163C24.1421 14.1096 24.2109 14.0685 24.2858 14.0421C24.3606 14.0157 24.4398 14.0045 24.519 14.0091C24.5981 14.0137 24.6756 14.034 24.7469 14.069Z" fill="#003AC9"/>
<path d="M14.6028 23.1996C14.7097 23.2513 14.7989 23.3337 14.8593 23.4365C14.9197 23.5392 14.9485 23.6576 14.9421 23.7768C14.9356 23.896 14.8942 24.0106 14.8231 24.1062C14.752 24.2017 14.6543 24.2739 14.5425 24.3135C14.4307 24.3532 14.3096 24.3586 14.1947 24.3291C14.0799 24.2996 13.9762 24.2364 13.897 24.1476C13.8177 24.0589 13.7664 23.9484 13.7494 23.8302C13.7325 23.7121 13.7507 23.5915 13.8018 23.4838C13.8354 23.4118 13.8829 23.3473 13.9416 23.2939C14.0002 23.2406 14.0687 23.1995 14.1432 23.173C14.2178 23.1466 14.2968 23.1353 14.3757 23.1399C14.4545 23.1445 14.5317 23.1648 14.6028 23.1996Z" fill="#003AC9"/>
<path d="M28.3141 23.9551C28.421 24.0067 28.5102 24.0892 28.5706 24.1919C28.631 24.2946 28.6598 24.4131 28.6534 24.5323C28.6469 24.6515 28.6055 24.7661 28.5344 24.8616C28.4633 24.9571 28.3656 25.0293 28.2538 25.069C28.142 25.1086 28.0209 25.1141 27.9061 25.0845C27.7912 25.055 27.6875 24.9919 27.6083 24.9031C27.529 24.8143 27.4777 24.7038 27.4607 24.5857C27.4438 24.4675 27.462 24.347 27.5131 24.2392C27.5825 24.0952 27.7055 23.9845 27.8555 23.9313C28.0055 23.878 28.1703 23.8866 28.3141 23.9551Z" fill="#003AC9"/>
<path d="M28.6103 18.2259C28.7185 18.2771 28.8091 18.3594 28.8707 18.4625C28.9323 18.5656 28.9621 18.6848 28.9564 18.805C28.9506 18.9251 28.9095 19.0409 28.8383 19.1375C28.7671 19.2341 28.669 19.3073 28.5565 19.3477C28.4439 19.3882 28.322 19.394 28.2061 19.3646C28.0902 19.3352 27.9857 19.2718 27.9056 19.1824C27.8256 19.0931 27.7737 18.9818 27.7566 18.8627C27.7395 18.7437 27.7578 18.6222 27.8094 18.5136C27.8781 18.3689 28.0009 18.2574 28.151 18.2035C28.301 18.1496 28.4661 18.1577 28.6103 18.2259Z" fill="#003AC9"/>
<path d="M14.8499 18.2264C14.9926 18.2976 15.102 18.4222 15.1547 18.5735C15.2075 18.7248 15.1994 18.8909 15.1321 19.0363C15.0805 19.1447 14.9981 19.2352 14.8954 19.2964C14.7927 19.3576 14.6742 19.3868 14.555 19.3802C14.4358 19.3736 14.3213 19.3316 14.2258 19.2594C14.1303 19.1873 14.0583 19.0882 14.0188 18.9748C13.9792 18.8614 13.974 18.7387 14.0038 18.6223C14.0335 18.506 14.0969 18.4011 14.1859 18.3209C14.2748 18.2408 14.3854 18.1891 14.5036 18.1722C14.6218 18.1554 14.7423 18.1743 14.8499 18.2264Z" fill="#003AC9"/>
<path d="M19.1403 13.6647C19.2467 13.7168 19.3355 13.7995 19.3953 13.9023C19.4552 14.0052 19.4834 14.1235 19.4766 14.2425C19.4698 14.3615 19.4281 14.4758 19.3569 14.571C19.2857 14.6661 19.1881 14.738 19.0764 14.7775C18.9647 14.8169 18.8439 14.8222 18.7292 14.7927C18.6145 14.7632 18.5111 14.7001 18.4319 14.6115C18.3527 14.523 18.3013 14.4128 18.2842 14.2948C18.2671 14.1769 18.2851 14.0565 18.3358 13.9488C18.3698 13.8767 18.4176 13.8121 18.4766 13.7587C18.5355 13.7053 18.6044 13.6642 18.6792 13.6378C18.754 13.6114 18.8333 13.6002 18.9124 13.6048C18.9916 13.6094 19.069 13.6297 19.1403 13.6647Z" fill="#003AC9"/>
<path d="M27.9048 18.676C28.0035 18.642 28.1116 18.6486 28.2055 18.6945C28.2993 18.7405 28.3713 18.8219 28.4058 18.9211C28.4396 19.0205 28.433 19.1293 28.3874 19.2238C28.3417 19.3183 28.2608 19.3908 28.1623 19.4255L21.4584 21.7522C21.4098 21.7695 21.3582 21.7768 21.3067 21.7738C21.2552 21.7708 21.2049 21.7575 21.1586 21.7347C21.1122 21.7119 21.0709 21.68 21.037 21.6409C21.003 21.6019 20.9772 21.5564 20.9609 21.5071C20.927 21.4086 20.9333 21.3007 20.9782 21.2068C21.0232 21.113 21.1032 21.0409 21.2008 21.0062L27.9048 18.676Z" fill="#282B4D"/>
<path d="M21.7583 20.356C21.9366 20.4417 22.0857 20.5786 22.1867 20.7496C22.2877 20.9206 22.336 21.1179 22.3255 21.3166C22.315 21.5152 22.2463 21.7063 22.1279 21.8655C22.0095 22.0248 21.8469 22.1452 21.6606 22.2113C21.4742 22.2775 21.2726 22.2866 21.0812 22.2373C20.8897 22.1881 20.7171 22.0827 20.5851 21.9347C20.4532 21.7866 20.3678 21.6025 20.3399 21.4056C20.3119 21.2086 20.3426 21.0078 20.4281 20.8285C20.5425 20.5884 20.7468 20.4039 20.9962 20.3153C21.2455 20.2268 21.5196 20.2414 21.7583 20.356Z" fill="#282B4D"/>
<path d="M6.85645 9.8418V34.9376" stroke="#F0EF49" stroke-width="0.75" stroke-miterlimit="10"/>
<path d="M15.1257 5.50781H66.2077" stroke="#F0EF49" stroke-width="0.75" stroke-miterlimit="10"/>
<path d="M40.6624 27.2815L38.9728 25.0351L38.0832 25.7487V27.2847H36V19.2559H38.0864V23.4127L40.4096 21.3391H43.5553L40.8128 23.5439L43.8177 27.2815H40.6624Z" fill="white"/>
<path d="M49.7951 27.2821C49.7599 27.1957 49.7311 27.0997 49.7119 27.0037C49.6927 26.9044 49.6799 26.8148 49.6735 26.7348C49.3375 27.0581 48.9471 27.2693 48.4991 27.3717C48.0543 27.4741 47.5135 27.5253 46.8767 27.5253C44.9407 27.5253 43.9711 26.9077 43.9711 25.6724C43.9711 25.0452 44.1759 24.5812 44.5855 24.2804C44.9951 23.9796 45.6447 23.7972 46.5375 23.7332L48.8511 23.5796C49.1519 23.5572 49.3439 23.5124 49.4271 23.442C49.5103 23.3716 49.5519 23.2564 49.5519 23.0964C49.5519 22.8852 49.4335 22.7252 49.1999 22.6196C48.9663 22.514 48.5919 22.4596 48.0831 22.4596C47.6671 22.4596 47.3471 22.5204 47.1231 22.642C46.8991 22.7636 46.7583 22.9524 46.7007 23.2052H44.3775C44.4351 22.7156 44.6111 22.322 44.9023 22.0276C45.1935 21.7332 45.5903 21.5188 46.0863 21.3876C46.5823 21.2564 47.2511 21.1892 48.0927 21.1892C49.4655 21.1892 50.4415 21.3492 51.0143 21.6724C51.5871 21.9956 51.8751 22.5044 51.8751 23.2084V26.2132C51.8751 26.4756 51.8975 26.6868 51.9423 26.8436C51.9871 27.0005 52.0447 27.1477 52.1183 27.2885H49.7951V27.2821ZM49.6191 24.5076C49.4303 24.5652 49.1327 24.6196 48.7295 24.6708L47.1615 24.8564C46.9279 24.8852 46.7583 24.9492 46.6527 25.042C46.5471 25.138 46.4927 25.2756 46.4927 25.458C46.4927 25.6916 46.5887 25.8708 46.7775 25.9956C46.9663 26.1204 47.2191 26.1812 47.5327 26.1812C48.2111 26.1812 48.7295 26.066 49.0847 25.8356C49.4399 25.6052 49.6159 25.282 49.6159 24.866V24.5076H49.6191Z" fill="white"/>
<path d="M53.2609 27.2816V21.3391H55.5521V22.5136H55.5745C55.8081 22.12 56.1377 21.8 56.5665 21.5536C56.9953 21.3071 57.4721 21.1855 57.9969 21.1855C58.1217 21.1855 58.2561 21.1919 58.3969 21.2015C58.5409 21.2111 58.6689 21.2303 58.7873 21.2495V23.4192C58.6401 23.3616 58.4449 23.3136 58.2017 23.2752C57.9553 23.24 57.7249 23.2208 57.5041 23.2208C56.8545 23.2208 56.3713 23.3744 56.0577 23.6816C55.7441 23.9888 55.5873 24.4208 55.5873 24.9744V27.2784H53.2609V27.2816Z" fill="white"/>
<path d="M71.8657 26.6933H62.0385C60.4096 26.6933 59.0848 25.4901 59.0848 24.0117C59.0848 22.5333 60.4096 21.3301 62.0385 21.3301H71.8657C73.4945 21.3301 74.8194 22.5333 74.8194 24.0117C74.8194 25.4901 73.4945 26.6933 71.8657 26.6933ZM62.0385 23.4037C61.6769 23.4037 61.3697 23.6821 61.3697 24.0117C61.3697 24.3413 61.6769 24.6197 62.0385 24.6197H71.8657C72.2273 24.6197 72.5345 24.3413 72.5345 24.0117C72.5345 23.6821 72.2273 23.4037 71.8657 23.4037H62.0385Z" fill="white"/>
<path d="M36 15.0688V14H38.0864V15.0688H36ZM36 20.112V15.584H38.0864V20.112H36Z" fill="white"/>
<path d="M43.229 20.112V17.664C43.229 17.0912 42.9218 16.8032 42.3106 16.8032C41.9874 16.8032 41.7218 16.896 41.517 17.0816C41.3122 17.2672 41.2066 17.536 41.2066 17.888V20.1088H39.437V15.584H41.1586V16.2368H41.1746C41.3538 16.0128 41.6034 15.8304 41.9234 15.6864C42.2434 15.5424 42.6306 15.4688 43.0786 15.4688C43.6802 15.4688 44.1506 15.6159 44.4898 15.9072C44.8291 16.1984 44.9987 16.608 44.9987 17.1296V20.112H43.229Z" fill="white"/>
<path d="M49.3665 20.1285C49.1873 20.1573 48.9857 20.1765 48.7617 20.1925C48.5377 20.2053 48.2913 20.2149 48.0225 20.2149C47.3985 20.2149 46.9729 20.1189 46.7393 19.9269C46.5089 19.7349 46.3937 19.4117 46.3937 18.9541V16.7589H45.4657V15.5909H46.3937V14.1541H48.1633V15.5909H49.3313V16.7589H48.1633V18.5797C48.1633 18.7813 48.2017 18.9093 48.2753 18.9637C48.3489 19.0181 48.5057 19.0469 48.7393 19.0469C48.8513 19.0469 49.0593 19.0405 49.3665 19.0309V20.1285Z" fill="white"/>
<path d="M51.7315 18.2644C51.7827 18.5812 51.9235 18.8308 52.1603 19.0068C52.3971 19.186 52.7267 19.2756 53.1491 19.2756C53.4211 19.2756 53.6419 19.2276 53.8083 19.1284C53.9747 19.0324 54.1123 18.9108 54.2179 18.7636H56.0899C55.9491 19.2436 55.6195 19.618 55.1011 19.8868C54.5795 20.1556 53.9075 20.2932 53.0851 20.2932C52.0611 20.2932 51.2739 20.0916 50.7298 19.6916C50.1826 19.2916 49.9106 18.674 49.9106 17.8388C49.9106 17.0772 50.1858 16.4788 50.7362 16.0468C51.2867 15.6148 52.0515 15.4004 53.0339 15.4004C54.0483 15.4004 54.8227 15.6308 55.3635 16.0884C55.9043 16.5492 56.1731 17.2276 56.1731 18.13V18.2644H51.7315ZM54.3555 17.346C54.2819 17.0388 54.1347 16.8084 53.9075 16.6516C53.6803 16.4948 53.3923 16.418 53.0435 16.418C52.6755 16.418 52.3779 16.5012 52.1539 16.6644C51.9299 16.8276 51.7891 17.0548 51.7315 17.346H54.3555Z" fill="white"/>
<path d="M56.9441 20.112V15.584H58.6913V16.4768H58.7073C58.8865 16.176 59.1361 15.9328 59.4625 15.7472C59.7889 15.5616 60.1505 15.4688 60.5537 15.4688C60.6497 15.4688 60.7489 15.4719 60.8577 15.4815C60.9665 15.4911 61.0657 15.504 61.1553 15.52V17.1744C61.0433 17.1296 60.8961 17.0944 60.7073 17.0656C60.5217 17.0368 60.3425 17.024 60.1761 17.024C59.6801 17.024 59.3121 17.1424 59.0721 17.376C58.8321 17.6096 58.7137 17.9392 58.7137 18.3616V20.1152H56.9441V20.112Z" fill="white"/>
<path d="M61.7377 15.0688V14H63.5073V15.0688H61.7377ZM61.7377 20.112V15.584H63.5073V20.112H61.7377Z" fill="white"/>
<path d="M67.4083 20.2939C66.3715 20.2939 65.5843 20.0859 65.0435 19.6731C64.5027 19.2571 64.2339 18.6491 64.2339 17.8491C64.2339 17.0459 64.5027 16.4379 65.0435 16.0251C65.5843 15.6091 66.3715 15.4043 67.4083 15.4043C68.4451 15.4043 69.2323 15.6123 69.7731 16.0251C70.3139 16.4411 70.5827 17.0491 70.5827 17.8491C70.5827 18.6555 70.3139 19.2667 69.7731 19.6795C69.2323 20.0891 68.4451 20.2939 67.4083 20.2939ZM66.1059 17.8491C66.1059 18.2715 66.2243 18.5915 66.4579 18.8059C66.6915 19.0203 67.0083 19.1259 67.4115 19.1259C67.8115 19.1259 68.1283 19.0203 68.3651 18.8123C68.5987 18.6043 68.7171 18.2811 68.7171 17.8491C68.7171 17.4139 68.5987 17.0939 68.3651 16.8859C68.1315 16.6779 67.8147 16.5723 67.4115 16.5723C67.0115 16.5723 66.6947 16.6811 66.4579 16.8987C66.2211 17.1163 66.1059 17.4299 66.1059 17.8491Z" fill="white"/>
<path d="M71.3091 20.112V15.584H73.0563V16.4768H73.0723C73.2515 16.176 73.5011 15.9328 73.8275 15.7472C74.1539 15.5616 74.5155 15.4688 74.9187 15.4688C75.0147 15.4688 75.1139 15.4719 75.2227 15.4815C75.3315 15.4911 75.4307 15.504 75.5203 15.52V17.1744C75.4083 17.1296 75.2611 17.0944 75.0723 17.0656C74.8867 17.0368 74.7075 17.024 74.5411 17.024C74.0451 17.024 73.6771 17.1424 73.4371 17.376C73.1971 17.6096 73.0787 17.9392 73.0787 18.3616V20.1152H71.3091V20.112Z" fill="white"/>
<path d="M62.4385 27.9991H61.6577L62.4193 26.0566H63.2001L62.4385 27.9991Z" fill="white"/>
<path d="M71.8561 27.9991H72.6401L71.8785 26.0566H71.0945L71.8561 27.9991Z" fill="white"/>
<path d="M75.8209 20.5312C75.9009 20.5312 75.9713 20.5601 76.0257 20.6145C76.0833 20.6721 76.1121 20.7393 76.1121 20.8193C76.1121 20.8993 76.0833 20.9665 76.0257 21.0241C75.9681 21.0817 75.9009 21.1073 75.8209 21.1073C75.7409 21.1073 75.6737 21.0785 75.6193 21.0241C75.5649 20.9697 75.5361 20.8993 75.5361 20.8193C75.5361 20.7393 75.5649 20.6721 75.6193 20.6145C75.6737 20.5601 75.7409 20.5312 75.8209 20.5312Z" fill="white"/>
<path d="M75.632 22.7898C75.5936 22.7258 75.5648 22.6586 75.5456 22.585C75.5264 22.5146 75.5168 22.4346 75.5168 22.3514C75.5168 22.0922 75.6 21.881 75.7632 21.7178C75.9264 21.5546 76.1408 21.4746 76.4065 21.4746C76.6657 21.4746 76.8737 21.5578 77.0369 21.721C77.2001 21.8842 77.2801 22.0986 77.2801 22.3578C77.2801 22.4442 77.2705 22.5242 77.2545 22.5914C77.2385 22.6618 77.2129 22.7258 77.1745 22.7898L76.6945 22.7866C76.7457 22.7354 76.7841 22.6778 76.8129 22.6138C76.8417 22.5466 76.8545 22.4794 76.8545 22.4058C76.8545 22.2714 76.8129 22.1658 76.7329 22.0858C76.6496 22.0058 76.5409 21.9642 76.4065 21.9642C76.2689 21.9642 76.1569 22.0058 76.0768 22.0858C75.9936 22.169 75.9552 22.2778 75.9552 22.4186C75.9552 22.4954 75.968 22.5626 75.9968 22.6234C76.0256 22.6842 76.0672 22.7386 76.128 22.7866L75.632 22.7898Z" fill="white"/>
<path d="M76.4003 24.8805C76.1475 24.8805 75.9395 24.7941 75.7699 24.6213C75.6035 24.4485 75.5203 24.2309 75.5203 23.9653C75.5203 23.6997 75.6035 23.4789 75.7699 23.3061C75.9363 23.1333 76.1475 23.0469 76.4003 23.0469C76.6499 23.0469 76.8611 23.1333 77.0307 23.3093C77.2003 23.4821 77.2835 23.7029 77.2835 23.9685C77.2835 24.2341 77.2003 24.4517 77.0339 24.6245C76.8643 24.7941 76.6563 24.8805 76.4003 24.8805ZM76.4035 24.3941C76.5379 24.3941 76.6435 24.3557 76.7235 24.2757C76.8035 24.1989 76.8419 24.0933 76.8419 23.9621C76.8419 23.8309 76.8035 23.7253 76.7235 23.6485C76.6435 23.5717 76.5379 23.5333 76.4035 23.5333C76.2691 23.5333 76.1635 23.5717 76.0835 23.6485C76.0035 23.7253 75.9619 23.8309 75.9619 23.9621C75.9619 24.0933 76.0035 24.1989 76.0835 24.2757C76.1603 24.3557 76.2691 24.3941 76.4035 24.3941Z" fill="white"/>
<path d="M75.584 25.7073V25.2305H77.2256V25.7073H76.9664C77.0752 25.7841 77.1552 25.8673 77.2032 25.9569C77.2544 26.0465 77.28 26.1457 77.28 26.2577C77.28 26.3953 77.2512 26.5041 77.1968 26.5905C77.1424 26.6769 77.056 26.7377 76.944 26.7729C77.056 26.8497 77.1392 26.9361 77.1968 27.0321C77.2544 27.1281 77.28 27.2337 77.28 27.3489C77.28 27.4641 77.2576 27.5633 77.216 27.6433C77.1744 27.7233 77.1072 27.7873 77.024 27.8321C76.976 27.8545 76.9248 27.8737 76.864 27.8833C76.8064 27.8929 76.7136 27.8993 76.5952 27.8993H76.544H75.584V27.4225H76.3968C76.5952 27.4225 76.7296 27.4033 76.7968 27.3617C76.864 27.3201 76.896 27.2497 76.896 27.1473C76.896 27.0257 76.8512 26.9361 76.7584 26.8817C76.6656 26.8273 76.5184 26.7985 76.3104 26.7985H75.5872V26.3217H76.4C76.592 26.3217 76.7232 26.3025 76.7904 26.2641C76.8576 26.2257 76.8928 26.1617 76.8928 26.0689C76.8928 25.9441 76.848 25.8513 76.7552 25.7937C76.6624 25.7361 76.5152 25.7073 76.3104 25.7073H75.584Z" fill="white"/>
</g>
<defs>
<clipPath id="clip0_19_7152">
<rect width="124" height="69" fill="white"/>
</clipPath>
</defs>
</svg>
