<svg width="107" height="65" viewBox="0 0 107 65" fill="none" xmlns="http://www.w3.org/2000/svg">
<path d="M7.82605 5.39368C8.37146 2.68666 11.0081 0.934328 13.7151 1.47974L83.5942 15.5589C84.8397 15.8098 85.9429 16.5254 86.6798 17.5604L99.7249 35.8825C101.4 38.2349 100.739 41.5131 98.2841 43.0334L79.1618 54.8745C78.0816 55.5433 76.7874 55.7759 75.5419 55.525L5.66278 41.4458C2.95576 40.9004 1.20343 38.2638 1.74883 35.5568L7.82605 5.39368Z" fill="#003AC9"/>
<ellipse cx="93.7055" cy="38.3913" rx="2.88462" ry="2.91209" transform="rotate(11.3914 93.7055 38.3913)" fill="#FFD757"/>
<rect x="11.8938" y="4.67749" width="73.7179" height="33.7802" rx="5" transform="rotate(11.3914 11.8938 4.67749)" fill="#FFFE96"/>
<path d="M3.00012 24C3.00012 21.2386 5.2387 19 8.00012 19H79.2835C80.5539 19 81.7768 19.4836 82.7035 20.3527L99.1104 35.7373C101.217 37.7126 101.217 41.0566 99.1104 43.032L82.7035 58.4166C81.7768 59.2856 80.5539 59.7692 79.2835 59.7692H8.00011C5.23869 59.7692 3.00012 57.5307 3.00012 54.7692V24Z" fill="#003AC9"/>
<ellipse cx="93.7052" cy="39.3847" rx="2.88462" ry="2.91209" fill="#FFD757"/>
<rect x="7.00012" y="22" width="73.7179" height="33.7802" rx="5" fill="#FFFE96"/>
<path d="M12.7301 43V35.86H14.2301V41.82H18.5701V43H12.7301ZM23.2 43.2C20.18 43.2 19 41.44 19 39.43C19 37.42 20.18 35.66 23.2 35.66C26.22 35.66 27.4 37.42 27.4 39.43C27.4 41.44 26.22 43.2 23.2 43.2ZM23.2 42.08C24.88 42.08 25.84 41 25.84 39.43C25.84 37.86 24.88 36.78 23.2 36.78C21.52 36.78 20.56 37.86 20.56 39.43C20.56 41 21.52 42.08 23.2 42.08ZM30.4525 40.11H32.9125L31.6925 37.1L30.4525 40.11ZM27.6425 43L30.8225 35.86H32.6025L35.7825 43H34.1125L33.3625 41.23H30.0025L29.2625 43H27.6425ZM36.4215 43V35.86H38.1415L42.3915 41.22H42.4115V35.86H43.8515V43H42.1615L37.8815 37.64H37.8615V43H36.4215ZM44.9282 37.87C44.9282 36.28 46.3382 35.66 48.0782 35.66C49.1782 35.66 51.3782 35.86 51.5682 37.93H49.9482C49.8982 37.38 49.3982 36.78 48.1482 36.78C47.1482 36.78 46.4882 37.09 46.4882 37.76C46.4882 39.44 51.8082 37.83 51.8082 40.88C51.8082 42.72 49.8982 43.2 48.3782 43.2C45.8082 43.2 44.7782 42.19 44.7582 40.69H46.3782C46.4182 41.63 47.1982 42.08 48.4282 42.08C49.3382 42.08 50.1882 41.81 50.1882 41.03C50.1882 39.26 44.9282 40.8 44.9282 37.87Z" fill="#003AC9"/>
<g style="mix-blend-mode:multiply" opacity="0.5">
<path d="M52 65C80.1665 65 103 64.5523 103 64C103 63.4477 80.1665 63 52 63C23.8335 63 1 63.4477 1 64C1 64.5523 23.8335 65 52 65Z" fill="#B5B5B5"/>
</g>
</svg>
