<svg width="212" height="265" viewBox="0 0 212 265" fill="none" xmlns="http://www.w3.org/2000/svg">
<g clip-path="url(#clip0_19_7094)">
<path d="M199.084 241.781C192.515 240.712 185.866 240.207 179.211 240.271C172.554 240.207 165.903 240.712 159.332 241.781H150.208V245.821C150.208 248.886 163.198 251.37 179.222 251.37C195.246 251.37 208.236 248.886 208.236 245.821V241.781H199.084Z" fill="black" stroke="#17282F" stroke-miterlimit="10"/>
<path d="M179.211 247.332C195.235 247.332 208.225 244.847 208.225 241.782C208.225 238.717 195.235 236.232 179.211 236.232C163.187 236.232 150.197 238.717 150.197 241.782C150.197 244.847 163.187 247.332 179.211 247.332Z" fill="black" stroke="#17282F" stroke-miterlimit="10"/>
<path d="M193.222 238.284C183.575 236.926 173.786 236.926 164.139 238.284H157.422V241.019C157.422 243.082 166.934 244.757 178.669 244.757C190.405 244.757 199.911 243.082 199.911 241.019V238.284H193.222Z" fill="black" stroke="#17282F" stroke-miterlimit="10"/>
<path d="M199.911 238.283C199.911 240.345 190.399 242.02 178.669 242.02C166.939 242.02 157.422 240.345 157.422 238.283C157.422 236.22 166.934 234.539 178.669 234.539C190.405 234.539 199.911 236.214 199.911 238.283Z" fill="black" stroke="#17282F" stroke-miterlimit="10"/>
<path d="M180.488 38.7227H177.112V212.483H180.488V38.7227Z" fill="black" stroke="#17282F" stroke-miterlimit="10"/>
<path d="M181.629 71.7539H176.097V73.2923H181.629V71.7539Z" fill="black" stroke="#17282F" stroke-miterlimit="10"/>
<path d="M181.538 73.291H176.097C175.102 73.6285 174.232 74.2584 173.602 75.0981C172.971 75.9379 172.608 76.9484 172.562 77.9974L177.187 86.6011H180.448L185.073 77.9974C185.027 76.9484 184.664 75.9379 184.033 75.0981C183.403 74.2584 182.533 73.6285 181.538 73.291Z" fill="black" stroke="#17282F" stroke-miterlimit="10"/>
<path d="M180.54 86.6016H177.187V87.6898H180.54V86.6016Z" fill="#1256FF" stroke="#17282F" stroke-miterlimit="10"/>
<path d="M193.022 237.405L192.452 237.69C191.622 238.111 190.743 238.427 189.835 238.63C182.593 240.197 175.099 240.197 167.857 238.63C166.71 238.39 165.605 237.981 164.578 237.417L169.454 230.579C170.254 229.762 171.21 229.113 172.264 228.67C173.319 228.226 174.451 227.998 175.596 227.998H181.999C183.143 227.998 184.276 228.226 185.331 228.67C186.385 229.113 187.341 229.762 188.141 230.579L193.022 237.405Z" fill="black" stroke="#17282F" stroke-miterlimit="10"/>
<path d="M181.612 226.477H176.086V229.012C177.865 229.522 179.752 229.522 181.532 229.012H181.612V226.477Z" fill="black" stroke="#17282F" stroke-miterlimit="10"/>
<path d="M181.52 226.478H176.086C175.09 226.14 174.22 225.509 173.589 224.668C172.959 223.827 172.597 222.816 172.55 221.766L177.169 213.168H180.437L185.056 221.766C185.01 222.816 184.648 223.827 184.017 224.668C183.386 225.509 182.516 226.14 181.52 226.478Z" fill="black" stroke="#17282F" stroke-miterlimit="10"/>
<path d="M180.522 212.078H177.169V213.166H180.522V212.078Z" fill="#1256FF" stroke="#17282F" stroke-miterlimit="10"/>
<path d="M181.566 42.5625H176.126L176.941 38.7734H180.751L181.566 42.5625Z" fill="black" stroke="#17282F" stroke-miterlimit="10"/>
<path d="M181.937 42.6428H175.755V43.3835H181.937V42.6428Z" fill="#1256FF" stroke="#17282F" stroke-miterlimit="10"/>
<path d="M181.566 47.0931H176.126L176.941 43.418H180.751L181.566 47.0931Z" fill="black" stroke="#17282F" stroke-miterlimit="10"/>
<path d="M181.937 47.1777H175.755V47.9184H181.937V47.1777Z" fill="#1256FF" stroke="#17282F" stroke-miterlimit="10"/>
<path d="M211.635 40.7226H146.753L156.487 0.285156H201.901L211.635 40.7226Z" fill="#FFFE96" stroke="#17282F" stroke-miterlimit="10"/>
<path opacity="0.26" d="M71.7026 262.74C111.303 262.74 143.405 258.189 143.405 252.575C143.405 246.961 111.303 242.41 71.7026 242.41C32.1024 242.41 0 246.961 0 252.575C0 258.189 32.1024 262.74 71.7026 262.74Z" fill="#636363"/>
<path d="M111.015 223.065L128.585 249.844C128.771 250.13 129.056 250.337 129.385 250.426C129.714 250.515 130.064 250.481 130.369 250.329C130.692 250.169 130.94 249.89 131.06 249.551C131.181 249.211 131.164 248.838 131.014 248.511L118.508 220.939L111.015 223.065Z" fill="#FFEB36" stroke="#17282F" stroke-miterlimit="10"/>
<path d="M82.5829 228.439L88.2169 242.057C88.3088 242.279 88.4686 242.466 88.6734 242.592C88.8782 242.718 89.1176 242.776 89.3574 242.757C89.5177 242.743 89.6732 242.695 89.8135 242.616C89.9539 242.538 90.0761 242.43 90.172 242.301C90.2678 242.172 90.3353 242.024 90.3698 241.867C90.4044 241.71 90.4053 241.547 90.3724 241.39L87.5554 227.863L82.5829 228.439Z" fill="#FFEB36" stroke="#17282F" stroke-miterlimit="10"/>
<path d="M24.1898 221.533L14.4957 251.732C14.4364 251.913 14.4174 252.106 14.4401 252.296C14.4627 252.485 14.5264 252.668 14.6268 252.831C14.7272 252.993 14.8619 253.132 15.0214 253.238C15.1809 253.343 15.3615 253.412 15.5506 253.441C15.8303 253.486 16.1169 253.439 16.3677 253.308C16.6185 253.176 16.82 252.967 16.942 252.712L31.5004 222.69L24.1898 221.533Z" fill="#FFEB36" stroke="#17282F" stroke-miterlimit="10"/>
<path d="M145.549 135.222C145.028 143.362 145.351 151.535 146.513 159.608C148.44 173.089 148.281 188.331 144.745 191.22C141.21 194.109 135.274 192.986 134.31 195.55C133.346 198.114 125.961 213.043 122.107 218.342C118.252 223.641 107.491 227.344 95.1283 229.885C82.7654 232.427 57.7088 228.746 57.7088 228.746C57.7088 228.746 23.6652 224.256 19.012 221.367C14.3588 218.478 11.7813 213.043 13.07 204.057C14.3588 195.072 24.6289 181.112 31.8539 177.739C39.0789 174.366 52.4112 183.197 61.404 181.272C70.3967 179.346 76.179 173.728 82.6 161.215C89.021 148.703 92.3797 135.7 111.198 131.53C130.016 127.359 147.317 129.444 145.549 135.222Z" fill="#FABF9F" stroke="#17282F" stroke-miterlimit="10"/>
<path d="M134.469 191.379C123.39 188.81 107.81 184.798 94.1645 191.06C80.5186 197.322 70.0774 214.006 64.4547 220.421C61.2013 224.049 56.9861 226.683 52.2971 228.016C55.576 228.484 57.7087 228.763 57.7087 228.763C57.7087 228.763 82.7596 232.455 95.1282 229.902C107.497 227.35 118.252 223.635 122.107 218.353C125.961 213.071 133.346 198.137 134.31 195.562C135.097 193.471 139.185 193.852 142.59 192.468C141.107 192.587 138.621 192.342 134.469 191.379Z" fill="#17282F" stroke="#17282F" stroke-miterlimit="10"/>
<path d="M140.411 184.639C140.411 184.639 134.008 186.89 129.491 185.442C124.975 183.995 110.223 180.628 98.4985 184.16C86.7742 187.693 76.9831 199.881 72.3242 205.812C67.8877 211.47 59.9613 222.336 59.9613 222.336" stroke="#17282F" stroke-miterlimit="10"/>
<path d="M80.9748 195.755C80.9748 195.755 63.3542 194.109 46.4921 195.072C29.6299 196.035 20.1582 200.365 18.2307 204.695C16.3033 209.026 17.267 211.755 25.9404 214.951C34.6139 218.148 62.151 219.282 62.151 219.282L73.8866 203.863C73.8866 203.863 79.4579 196.958 80.9748 195.755Z" stroke="#17282F" stroke-miterlimit="10"/>
<path d="M72.4895 195.003C72.4895 195.003 77.6217 175.716 90.7887 167.996C103.956 160.275 117.265 164.138 122.323 166.161C127.381 168.184 129.406 173.323 129.217 177.824C129.14 180.254 128.925 182.678 128.573 185.083" stroke="#17282F" stroke-miterlimit="10"/>
<path d="M37.4993 214.951C38.4459 215.031 39.4438 215.093 40.4816 215.145C51.5045 215.657 63.1261 215.23 64.9223 214.461" stroke="#17282F" stroke-miterlimit="10"/>
<path d="M28.2214 213.596C30.4467 214.086 32.6967 214.457 34.9617 214.707" stroke="#17282F" stroke-miterlimit="10"/>
<path d="M23.7336 212.324C24.8313 212.729 25.953 213.066 27.0924 213.333" stroke="#17282F" stroke-miterlimit="10"/>
<path d="M16.4744 216.593C18.2493 215.119 20.4188 214.2 22.7128 213.949" stroke="#17282F" stroke-miterlimit="10"/>
<path d="M68.9483 228.632L67.8079 263.354C67.8025 263.531 67.8328 263.707 67.8969 263.872C67.961 264.037 68.0576 264.188 68.1809 264.315C68.3043 264.442 68.452 264.543 68.6152 264.612C68.7783 264.68 68.9537 264.716 69.1308 264.716C69.4493 264.715 69.7567 264.599 69.9966 264.39C70.2365 264.18 70.3928 263.891 70.4367 263.576L76.0251 227.652C76.0251 227.652 74.3258 224.985 68.9483 228.632Z" fill="#FFEB36" stroke="#17282F" stroke-miterlimit="10"/>
<path d="M86.1469 14.9392H26.4822V90.0137H86.1469V14.9392Z" fill="#FBFBFA" stroke="#17282F" stroke-miterlimit="10"/>
<path d="M77.9239 46.5347C77.0571 45.5718 73.6528 41.6118 72.2215 40.5919C70.7902 39.572 64.4376 35.9595 63.9301 35.7601C63.4226 35.5607 63.1603 34.3755 65.4184 35.2416C67.4413 35.9944 69.3315 37.0637 71.0182 38.4096C72.8031 39.7999 75.01 40.7343 75.7684 41.8283C76.2506 42.549 76.6667 43.3119 77.0115 44.1074C77.0115 44.1074 77.7243 40.3981 77.2396 38.7287C76.7549 37.0592 77.2396 34.7402 74.109 32.689C70.9783 30.6378 66.04 30.3643 64.8767 29.9142C63.7134 29.464 65.0364 27.7148 65.715 27.5097C66.3936 27.3045 70.659 28.6492 72.2158 29.5381C73.7725 30.427 76.2417 31.6349 76.2417 31.6349C74.7756 29.9528 73.3957 28.1975 72.1074 26.3758C70.2655 23.7149 69.3759 22.205 68.4864 21.7036C67.5968 21.2022 66.2852 20.3076 66.3765 19.4871C66.4677 18.6666 66.5932 17.151 65.7435 17.3675C64.8938 17.5841 62.6927 19.0028 62.2536 20.2165C61.8145 21.4301 62.7326 22.4956 62.1737 24.2448C61.6776 25.7718 61.0333 27.1849 61.1872 28.4669H61.2271C61.187 28.1796 61.187 27.8881 61.2271 27.6008C61.3412 27.0994 61.8316 26.7405 62.5216 25.0995C62.9907 23.9231 63.5632 22.7905 64.2323 21.715C64.7456 20.8125 65.3473 19.9631 66.0286 19.1795C66.0286 19.1795 63.4169 23.7377 62.9835 24.6892L61.2728 28.3017C61.9804 27.5155 62.7592 26.7964 63.5994 26.1536C64.1692 25.7743 64.7793 25.459 65.4184 25.2134C64.4314 25.8508 63.5021 26.5734 62.6414 27.3729C61.7632 28.3017 61.25 28.9227 61.2443 28.9284C61.2464 28.9378 61.2464 28.9475 61.2443 28.9569H61.1929H61.2328L60.5543 30.4156L60.3091 31.0366C60.7513 31.3088 61.2147 31.5451 61.6947 31.7431C62.4133 32.0223 63.5594 31.6406 66.6901 32.3927C68.5073 32.8424 70.2774 33.4643 71.9763 34.2502C72.25 34.3755 72.4153 34.461 72.4153 34.461L71.9763 34.2502C70.966 33.7799 69.909 33.417 68.8228 33.1676C67.0041 32.7284 65.1581 32.4105 63.2971 32.2161C62.225 32.1192 61.1735 31.8618 60.1779 31.4526C59.8357 32.3471 59.3111 33.7317 58.7694 35.2587L59.8186 36.0621L63.1717 38.0335C63.1717 38.0335 67.477 40.3127 70.3226 42.1018C71.9903 43.1174 73.4012 44.5037 74.4454 46.1529C73.6276 45.2267 72.7616 44.3443 71.8508 43.5092C71.1437 42.9394 65.0079 39.2301 63.0462 38.2102C61.4096 37.3498 59.2313 36.0849 58.604 35.7202C57.9939 37.4296 57.3837 39.3099 56.9788 40.8483V40.8939C57.0549 40.971 57.1436 41.0346 57.2411 41.0819C59.2944 42.5536 61.1247 44.3133 62.6756 46.3068C64.9565 49.264 65.2189 51.1499 65.2189 51.1499C65.2189 51.1499 64.3578 49.4406 64.1468 49.0076C63.9358 48.5745 62.5729 46.9051 60.5942 44.4493C59.5883 43.1625 58.3086 42.1154 56.8477 41.3839C56.2184 43.5667 55.7627 45.7958 55.4848 48.0503C55.4106 48.5403 55.308 49.3437 55.1825 50.3294C55.3764 50.5403 56.2489 51.5146 57.7943 53.5715C59.5563 55.9361 60.1323 59.8391 60.1323 59.8391C59.6116 58.1003 58.938 56.411 58.1193 54.7908C57.2694 53.3801 56.259 52.0723 55.1084 50.8935C54.504 55.8392 53.5345 64.386 53.5345 64.386L53.7626 57.993L54.7435 48.7796C54.7435 48.7796 56.0379 43.2698 56.209 41.8511C56.3843 40.8449 56.6185 39.8499 56.9104 38.8711C56.4656 38.9509 54.8632 39.2472 54.35 39.3668C51.745 40.0729 49.2348 41.0906 46.8741 42.3981C44.4917 43.8714 42.2216 45.5188 40.0825 47.3267C40.0825 47.3267 43.9088 43.5775 45.477 42.7342C47.5986 41.5836 49.7952 40.5766 52.0519 39.7201C53.679 39.2013 55.3406 38.7976 57.0244 38.5122C57.4749 36.8769 58.0167 35.0935 58.336 33.9995C58.4443 33.6348 58.5869 33.2189 58.7523 32.7802L57.1898 32.8599L51.1965 33.4297C51.1965 33.4297 45.9104 34.3072 43.5552 34.5351C41.2001 34.763 37.8072 36.1305 37.8072 36.1305C38.7052 35.6116 39.6368 35.1529 40.5957 34.7573C41.1659 34.649 46.1042 33.8286 46.1042 33.8286L50.1815 33.2189L58.9519 32.199C59.1914 31.595 59.448 30.9682 59.6932 30.3985C58.4362 30.0944 57.1649 29.8529 55.8839 29.6748C53.9622 29.4355 52.4169 28.2048 49.4687 27.4812C46.5205 26.7576 41.4853 26.051 41.4853 26.051C42.208 25.9861 42.9351 25.9861 43.6579 26.051C46.7531 26.2813 49.7971 26.9687 52.6906 28.0908C55.0257 28.9925 57.4743 29.5677 59.9669 29.8002L60.2919 29.0652L60.1494 29.1962C60.1494 29.1962 55.5874 25.7092 54.5097 24.94C53.66 24.3189 51.1737 22.6266 49.8222 21.7834C48.2541 20.9458 47.0394 20.3361 47.0394 20.3361L49.0752 21.3503C49.3319 21.4809 49.5813 21.6255 49.8222 21.7834C51.837 22.817 53.787 23.972 55.6616 25.2419C57.6688 26.7405 59.8015 28.1877 60.4402 28.6207C60.1665 28.2789 59.0659 26.9114 58.5527 26.0852C58.021 25.1644 57.6071 24.1805 57.321 23.1565C57.2611 22.9358 57.1829 22.7204 57.0872 22.5127L56.5169 21.3446C56.5169 21.3446 56.8534 21.9144 57.0872 22.5127C57.5377 23.4186 58.1364 24.6095 58.4672 25.2362C59.0225 26.1888 59.6659 27.0872 60.3889 27.9199C60.4967 28.0633 60.5655 28.2321 60.5885 28.4099C60.6061 28.3647 60.627 28.3209 60.6512 28.2789C60.2085 27.419 60.028 26.4483 60.1323 25.4869C60.3547 23.544 60.9135 21.8061 59.2142 20.2165C57.5148 18.6268 54.8461 17.1282 53.3749 16.7978C51.9036 16.4673 49.1322 17.0428 48.2427 17.396C47.3531 17.7493 43.9772 18.0969 42.4832 19.2364C40.9891 20.376 39.1644 21.7093 40.3961 21.7891C41.6278 21.8688 43.8746 21.5668 44.6729 21.8745L48.8927 23.4984C49.9135 23.8916 51.0198 24.4727 51.3448 24.9115C51.6698 25.3502 52.2344 26.4214 50.4495 26.4385C48.6646 26.4556 44.6729 24.2961 43.2644 23.8289C41.8559 23.3617 39.3982 22.9685 38.1322 23.9656C36.8663 24.9627 35.1669 27.8174 34.6195 29.3273C34.3194 30.3399 34.4047 31.4277 34.859 32.3813C34.859 32.3813 38.9135 29.9654 41.1716 29.4241C43.4298 28.8828 48.984 29.0595 49.7424 29.2874C50.5008 29.5153 52.1089 29.8914 50.7574 30.6948C49.406 31.4981 43.4127 32.085 41.8331 32.0223C40.2535 31.9597 35.5946 32.5921 34.534 33.5095C33.4733 34.4268 32.7548 39.7771 33.3935 40.7115C34.0322 41.646 35.7543 44.7456 35.7543 44.7456C35.7543 44.7456 38.5428 41.5263 39.6377 40.928C40.7325 40.3298 43.2017 38.478 45.0493 37.7031C46.8969 36.9282 49.7082 36.0621 49.7082 36.0621C49.7082 36.0621 51.7668 34.9795 52.1203 36.3641C52.4739 37.7487 49.7481 38.3469 46.76 39.6859C43.7719 41.0249 40.2649 42.4266 38.7766 43.5035C37.2883 44.5803 36.8207 45.9478 36.393 46.9563C35.9653 47.9649 35.9482 49.4406 36.393 51.469C36.8378 53.4974 39.7118 56.654 39.7118 56.654L42.563 51.1044C44.4562 47.3894 46.1841 46.1017 47.8378 45.1729C49.4915 44.2442 52.3997 42.626 52.5366 44.2499C52.6735 45.8738 50.9684 46.3809 48.1799 48.1928C45.3914 50.0047 42.928 52.6542 42.3178 53.8906C41.7077 55.127 41.9643 55.5487 41.3883 57.1213C40.8124 58.6939 40.8181 59.2522 41.451 60.1924C42.084 61.1325 43.8974 63.6111 44.5418 64.1125C45.1861 64.6139 45.6823 65.0184 45.6823 65.0184L45.3173 61.03C45.6539 59.0261 46.1692 57.0563 46.857 55.1441C47.758 52.9903 50.4951 50.6884 51.3733 51.4177C52.2515 52.147 49.5428 54.7738 49.3033 55.1498C48.1616 56.9511 47.1479 58.8303 46.2696 60.7736C45.2831 63.1268 46.1499 65.4914 46.7315 66.7278C47.3132 67.9642 48.8528 68.3232 49.041 68.3745C49.2769 68.801 49.5812 69.186 49.942 69.514C51.265 70.8074 54.504 72.1977 55.8782 71.4855C57.2525 70.7732 57.4521 70.7675 57.6688 70.8473C57.8855 70.9271 57.7772 69.1721 57.3723 67.9243C56.9674 66.6765 56.323 64.7905 56.266 63.5199C56.209 62.2493 55.6159 60.2266 55.5931 59.275C55.5703 58.3235 56.3116 56.7452 57.1613 58.5571C58.011 60.369 59.5392 66.1808 59.6248 66.9956C59.7103 67.8104 60.1494 69.7704 59.8129 70.5795L59.4708 71.3886C59.4708 71.3886 62.2878 70.5168 63.3542 68.9784C63.8844 68.1331 64.6383 67.4507 65.5325 67.007C65.5325 67.007 64.5232 62.557 63.8218 59.9531C63.1204 57.3492 60.041 52.6428 59.2598 51.8109C58.4786 50.979 56.899 49.1842 57.7544 47.9535C58.6097 46.7227 59.1229 47.3096 60.2805 49.7825C61.4381 52.2553 63.5195 56.5686 64.9908 58.3292C66.2255 59.9702 66.9583 61.9333 67.1007 63.9814C67.1613 64.6133 67.0935 65.251 66.9011 65.856C66.9011 65.856 71.3376 59.52 71.5315 59.0528C71.7254 58.5856 70.1629 54.8592 70.1629 54.8592C70.1629 54.8592 67.574 51.3607 66.9581 49.4064C66.3422 47.452 63.4739 44.0106 62.6242 43.2129C61.7746 42.4152 59.6419 39.646 61.8658 40.5805C64.0898 41.5149 68.321 45.9535 69.4558 47.4805C70.5906 49.0076 73.6186 52.6713 74.2059 53.6798C74.7933 54.6883 75.7399 56.0672 75.7399 56.0672C76.4837 55.027 77.0076 53.8464 77.2795 52.5972C77.77 50.5289 78.7907 47.4919 77.9239 46.5347ZM62.2308 34.6604C62.0996 34.9624 61.5066 34.9909 60.9021 34.7288C60.2976 34.4667 59.9213 34.0166 60.0524 33.7146C60.1836 33.4126 60.7766 33.3841 61.3754 33.6405C61.9742 33.8969 62.3619 34.3585 62.2308 34.6604ZM54.8689 30.427C55.7813 30.427 56.5169 30.6663 56.5169 30.9569C56.5169 31.2474 55.7813 31.4811 54.8689 31.4811C53.9565 31.4811 53.2209 31.2474 53.2209 30.9569C53.2209 30.6663 53.9565 30.427 54.8689 30.427ZM55.3992 34.7573C56.2375 34.7573 56.9161 35.1447 56.9161 35.6177C56.9161 36.0906 56.2375 36.4723 55.3992 36.4723C54.561 36.4723 53.8767 36.0906 53.8767 35.6177C53.8767 35.1447 54.561 34.7573 55.3992 34.7573ZM50.8373 60.4545C50.6605 61.4801 49.2748 61.9587 48.9327 64.7962C48.7046 66.6708 48.6361 67.5483 49.0011 68.3004C48.4606 67.6096 48.0898 66.8018 47.9185 65.9419C47.7472 65.082 47.7801 64.1939 48.0146 63.349C48.8186 60.312 51.0426 59.4517 50.8658 60.4773L50.8373 60.4545ZM51.4817 57.7594C50.843 57.9132 50.267 57.7594 50.1872 57.4631C50.1074 57.1668 50.5636 56.7623 51.2022 56.6027C51.8409 56.4432 52.4169 56.6027 52.4967 56.899C52.5765 57.1953 52.1488 57.6227 51.5102 57.7822L51.4817 57.7594ZM49.5599 50.7112C47.6211 52.2838 45.0493 56.0672 45.3857 55.3777C46.0488 54.2283 46.812 53.1396 47.6667 52.1243C48.2905 51.3456 49.0045 50.6437 49.7937 50.0332C51.6926 48.6714 55.1483 46.774 55.1483 46.774V47.0418L53.3806 48.0902C52.0425 48.8661 50.7653 49.7423 49.5599 50.7112ZM61.307 39.7543C61.1758 40.0563 60.5771 40.0905 59.9783 39.8284C59.3796 39.5663 58.9975 39.1104 59.1229 38.8084C59.2484 38.5065 59.8757 38.4609 60.4459 38.7458C61.0162 39.0307 61.4381 39.4409 61.307 39.7372V39.7543Z" fill="#FEAE28"/>
<path d="M86.05 59.6457V56.0675C85.3607 56.0455 84.671 56.0932 83.9914 56.2099C83.3694 56.3815 82.8318 56.7747 82.4802 57.3153C82.4802 57.3153 85.0406 58.6429 86.0386 59.64L86.05 59.6457Z" fill="#FEAE28"/>
<path d="M82.982 64.3068C83.9742 65.0134 85.3257 66.1928 85.3257 66.1928C85.6219 66.3697 85.8705 66.6161 86.0499 66.9108V64.814C85.3884 64.0447 84.6072 63.1046 84.1567 62.5348C83.3631 61.6141 82.4656 60.7882 81.4822 60.0734C82.0411 60.3728 82.5801 60.7078 83.096 61.0762C83.3241 61.3212 85.3371 63.6345 85.3371 63.6345L86.0499 64.4778V62.4721C85.6394 61.9528 85.2586 61.4106 84.9094 60.8483C84.4361 60.005 82.6284 57.7942 81.8016 57.5378C80.9747 57.2814 77.9809 58.6204 77.6901 59.2472C77.3993 59.8739 76.3557 61.7656 76.3557 61.7656C76.3557 61.7656 78.9218 62.1816 79.5776 62.5576C80.7448 63.0754 81.8814 63.6595 82.982 64.3068Z" fill="#FEAE28"/>
<path d="M86.0499 79.2969C85.9473 79.633 85.8503 79.9179 85.7705 80.1117C85.3371 81.1886 84.4076 83.9349 84.0598 84.5617C83.7119 85.1884 83.3127 86.1229 83.3127 86.1229C84.0864 86.1719 84.862 86.0654 85.5937 85.8095C85.7249 85.7582 85.8674 85.7126 86.0214 85.6613L86.0499 79.2969Z" fill="#FEAE28"/>
<path d="M85.799 75.2106C85.8602 74.9326 85.9441 74.6601 86.0499 74.3958V71.2677L85.1888 71.507C85.1778 71.5711 85.1778 71.6366 85.1888 71.7007C85.0811 73.2364 84.7527 74.7485 84.2137 76.1906C83.3983 78.3045 82.503 79.0395 82.503 79.0395C82.503 79.0395 83.1074 78.0481 83.2728 77.7974C83.4382 77.5467 83.8431 76.3046 84.4931 74.4984C84.8386 73.565 84.973 72.5668 84.8866 71.5754C83.5509 71.9491 82.2467 72.4273 80.9861 73.0055C80.7124 73.1252 80.2562 73.3246 79.6974 73.5753C79.6518 73.7462 79.4237 74.5098 78.8477 75.9684C78.1862 77.6436 76.3443 79.1934 76.3443 79.1934C77.0807 78.364 77.7428 77.4717 78.3231 76.5268C78.7805 75.6356 79.1345 74.695 79.378 73.7235C76.6295 74.9827 71.8736 77.2219 71.8736 77.2219L75.2951 75.296L80.3988 72.8574C80.3988 72.8574 83.6777 71.7634 84.4703 71.3987C85.005 71.179 85.5514 70.9888 86.1069 70.829V70.6409C85.8389 70.3446 85.3485 69.8091 85.166 69.621C83.9564 68.4966 82.6163 67.521 81.1743 66.7151C79.6451 65.9526 78.0611 65.305 76.4356 64.7779C76.4356 64.7779 79.6118 65.5642 80.5527 66.0884C81.8308 66.8192 83.0577 67.6359 84.2251 68.5327C84.8853 69.0897 85.5064 69.6913 86.0841 70.3332V67.3419C86.0536 67.3933 86.0172 67.4411 85.9758 67.4843C85.3713 68.1111 84.1909 66.9146 82.5543 65.775C80.9177 64.6354 79.0587 63.2964 78.0323 62.8805C77.2119 62.5867 76.3227 62.543 75.4776 62.7551C74.5703 62.9935 73.752 63.4904 73.1224 64.1853C72.1987 65.0514 71.4973 67.5641 71.4973 67.5641L75.278 67.2564C77.8213 67.0513 79.0416 67.5299 80.0509 68.094C81.0603 68.6581 82.828 69.6267 82.0354 70.2307C81.2427 70.8347 80.4273 70.0996 78.6139 69.2336C76.8005 68.3675 74.6222 67.9402 73.7725 68.0256C72.9229 68.1111 72.7974 68.3732 71.7995 68.5954C70.8016 68.8176 70.5164 68.9886 70.2256 69.6096C69.791 70.5259 69.4398 71.4794 69.1764 72.4585C69.1364 72.9428 69.0737 73.3417 69.0737 73.3417L71.0125 71.8774C72.1621 71.4113 73.351 71.049 74.5652 70.7948C75.968 70.5726 78.0437 71.2563 77.9467 71.9343C77.8498 72.6124 75.6201 72.0654 75.3464 72.0597C74.0444 72.0419 72.7427 72.1181 71.4516 72.2876C70.8395 72.4218 70.2619 72.6815 69.7554 73.0503C69.2489 73.419 68.8245 73.8889 68.5092 74.43C68.3825 74.6952 68.3102 74.9831 68.2965 75.2766C68.2828 75.5701 68.328 75.8635 68.4293 76.1393C68.2863 76.3968 68.1861 76.6759 68.1328 76.9655C67.8876 78.0652 68.1955 80.1791 69.011 80.6748C69.8264 81.1705 69.8892 81.2446 69.912 81.3984C69.9348 81.5523 70.8187 80.9198 71.3376 80.3101C71.9064 79.5779 72.5547 78.911 73.2707 78.3216C73.9151 77.8829 74.7762 76.9313 75.2552 76.6123C75.7342 76.2932 76.8005 76.1735 76.1333 77.182C75.0425 78.6037 73.8412 79.9373 72.5408 81.1705C72.1473 81.4725 71.2692 82.3101 70.7388 82.4183L70.2142 82.4981C70.2142 82.4981 71.5657 83.6832 72.7062 83.7402C73.3115 83.7486 73.903 83.922 74.4169 84.2416C74.4169 84.2416 76.4014 82.293 77.5361 81.1021C78.6709 79.9113 80.1194 76.806 80.3132 76.1507C80.5071 75.4955 80.9234 74.0824 81.8358 74.128C82.7482 74.1736 82.6056 74.6351 81.6932 76.0254C80.7808 77.4156 79.207 79.8828 78.7736 81.199C78.3164 82.3695 77.5228 83.3786 76.4926 84.0992C76.1857 84.3338 75.8347 84.5043 75.4605 84.6006C75.4605 84.6006 80.165 84.8684 80.4729 84.8228C80.7808 84.7772 82.2122 82.7659 82.2122 82.7659C82.2122 82.7659 83.1987 80.3044 84.0141 79.3472C84.8296 78.39 85.6564 75.9 85.799 75.2106ZM77.6844 70.8176C76.2474 70.3162 73.4589 70.1908 73.9265 70.1509C74.7368 70.1232 75.548 70.1689 76.35 70.2877C76.9545 70.3611 77.5479 70.5065 78.1178 70.7207C79.4294 71.2905 81.5393 72.43 81.5393 72.43L81.3967 72.5041L80.2562 71.9343C79.4275 71.498 78.5679 71.1228 77.6844 70.8119V70.8176ZM74.3713 73.3303C74.5081 73.1879 74.856 73.3018 75.1411 73.581C75.4262 73.8602 75.5403 74.2078 75.4034 74.3502C75.2666 74.4927 74.9187 74.3787 74.6336 74.0995C74.3485 73.8203 74.2287 73.4671 74.3713 73.3246V73.3303ZM70.1629 75.0396C69.1136 75.524 68.6403 75.769 68.3609 76.1792C68.5484 75.6739 68.8527 75.2201 69.2491 74.8547C69.6455 74.4893 70.1227 74.2227 70.6419 74.0767C72.4781 73.5069 73.6357 74.3787 73.0483 74.6123C72.461 74.8459 71.7425 74.2932 70.1401 75.0226L70.1629 75.0396Z" fill="#FEAE28"/>
<path d="M53.4775 89.7466C53.0346 88.6965 52.4923 87.691 51.858 86.7439L48.7559 89.7466H53.4775Z" fill="#FEAE28"/>
<path d="M30.5765 88.3175C30.0063 86.1523 29.0198 82.3689 28.0047 80.728C27.1978 79.2521 26.9374 77.5393 27.2691 75.8905C27.3609 75.3701 27.5695 74.8773 27.8793 74.449L26.7388 75.3093V87.9984C26.7388 88.0839 26.7844 88.1579 26.7958 88.2149C27.016 88.7427 27.2792 89.2515 27.5827 89.7362H31.0042C30.831 89.2731 30.6881 88.7992 30.5765 88.3175Z" fill="#FEAE28"/>
<path d="M32.0078 86.9202C32.4469 87.5811 33.2965 88.8631 32.9544 89.7691H35.2354L35.6516 88.8517C35.0141 87.8684 34.4279 86.8529 33.8953 85.8091C32.7548 83.6211 33.0741 80.4417 33.0741 80.4417C33.1793 81.9145 33.4412 83.3719 33.8554 84.7892C34.3618 86.0779 35.0326 87.2959 35.8512 88.413C37.562 84.6581 40.4132 78.1 40.4132 78.1L38.7481 83.0855L35.8968 89.7691H40.7382L41.1317 89.6209C43.3385 88.7435 46.6517 86.2421 46.1727 86.7208C45.2622 87.5166 44.2854 88.2333 43.253 88.8631C42.7139 89.1969 42.156 89.4994 41.5822 89.7691H46.8569C47.5569 89.4127 48.2085 88.9685 48.7958 88.4472C49.6112 87.5526 49.4801 87.1766 50.3811 86.037C51.282 84.8975 51.3961 84.4644 51.014 83.6097C50.632 82.7551 49.4573 80.4474 48.9497 79.946C48.4422 79.4446 48.0659 79.023 48.0659 79.023L47.4956 82.2138C46.7138 83.7654 45.7817 85.2367 44.7128 86.6068C43.367 88.1281 40.225 89.4557 39.5806 88.6979C38.9362 87.9401 42.0897 86.4188 42.4318 86.1453C43.9134 84.9584 45.3084 83.6674 46.606 82.2822C48.083 80.6127 47.7864 78.59 47.5127 77.5074C47.239 76.4248 45.802 75.8835 45.6366 75.798C45.4996 75.4123 45.2928 75.055 45.0265 74.7439C44.057 73.4847 41.2971 71.7868 39.803 72.0887C38.309 72.3907 38.1379 72.3622 37.944 72.254C37.7501 72.1457 37.4593 73.5531 37.5677 74.6129C37.676 75.6727 37.8642 77.2795 37.6304 78.288C37.3966 79.2965 37.5049 81.0001 37.311 81.7522C37.1172 82.5044 36.0508 83.6097 35.6516 82.0258C35.2525 80.4418 35.0814 75.5815 35.2068 74.9263C35.3323 74.271 35.3323 72.6471 35.8398 72.0774L36.3473 71.5076C36.3473 71.5076 33.4562 71.6671 32.0876 72.6813C31.3488 73.2575 30.4825 73.6483 29.5614 73.8209C29.5614 73.8209 29.5158 77.5074 29.5614 79.6839C29.607 81.8605 31.4831 86.1225 32.0078 86.9202ZM42.0612 81.6554C42.4604 80.8805 43.8917 80.7608 44.8611 78.59C45.5055 77.1541 45.7678 76.4761 45.591 75.8208C45.9491 76.4484 46.1226 77.1643 46.0913 77.8861C46.06 78.6079 45.8253 79.3061 45.4142 79.9005C43.9772 82.1625 41.662 82.4303 42.0612 81.6554ZM42.0042 84.1282C42.0042 84.396 41.4852 84.6126 40.8637 84.6183C40.2421 84.624 39.6947 84.4074 39.6947 84.1453C39.6947 83.8832 40.2079 83.661 40.8352 83.6553C41.4624 83.6496 41.9985 83.8661 42.0042 84.1282Z" fill="#FEAE28"/>
<path d="M20.8424 6.83765V98.1395H91.8094V6.83765H20.8424ZM85.4854 90.0258H27.1493V14.9399H85.4854V90.0258Z" fill="#17282F"/>
</g>
<defs>
<clipPath id="clip0_19_7094">
<rect width="212" height="265" fill="white"/>
</clipPath>
</defs>
</svg>
