<svg width="56" height="63" viewBox="0 0 56 63" fill="none" xmlns="http://www.w3.org/2000/svg">
<rect width="43.8357" height="50.9603" rx="20" transform="matrix(0.955431 -0.295215 0.226332 0.97405 0 12.9409)" fill="#F151FF" fill-opacity="0.5"/>
<path d="M55.7288 40.2213V40.1194L55.2389 35.1441C55.2295 34.2084 55.0128 33.4023 54.636 32.7908C54.6454 32.7723 54.6549 32.763 54.6549 32.7445C54.994 31.2899 55.1636 29.7982 55.1636 28.2973C55.1636 24.3041 53.9671 20.4591 51.7061 17.1608C51.7061 17.0867 51.7155 17.0033 51.7155 16.9292C51.7155 16.3733 51.6308 15.8174 51.4706 15.2522C51.9793 14.5944 52.2525 13.7976 52.2525 12.9638C52.2525 11.3517 51.2068 9.92486 49.6995 9.38749C49.0589 7.35846 47.137 5.94092 44.9325 5.94092C42.8034 5.94092 40.9946 7.25654 40.2692 9.10028C38.5263 8.63703 36.7364 8.37761 34.9182 8.37761C25.2241 8.37761 16.8584 15.1688 15.0307 24.5172C15.0307 24.5357 15.0307 24.5543 15.0213 24.5821C13.2219 25.5919 11.9972 27.4913 11.9972 29.6685C11.9972 29.8816 12.0066 30.0947 12.0349 30.3078C10.7537 31.3918 10 32.9854 10 34.6623C10 37.831 12.619 40.3974 15.8315 40.3974C16.5098 40.3974 17.1787 40.2862 17.8193 40.0546C18.2338 40.3418 18.686 40.5734 19.1477 40.7587C19.1759 40.8143 19.2136 40.8699 19.2513 40.9162C23.1138 45.5487 28.8229 48.2077 34.9182 48.2077C35.4457 48.2077 35.9827 48.1892 36.5103 48.1429C36.548 48.1429 36.5762 48.1336 36.6139 48.1244C36.6516 48.1614 36.6893 48.1985 36.7364 48.2355L39.883 50.5703C39.9301 50.6074 39.9866 50.6259 40.0337 50.6537C40.1938 50.8297 40.4294 50.9409 40.6837 50.9409H53.383C53.8164 50.9409 54.1838 50.6259 54.2498 50.1997L55.7194 40.3233V40.3047C55.7288 40.2862 55.7288 40.2584 55.7288 40.2213ZM53.4113 28.2973C53.4113 29.4276 53.2983 30.5487 53.091 31.6512C52.9497 31.6234 52.7989 31.6049 52.6482 31.6049C52.3467 31.6049 52.0641 31.6605 51.8098 31.7717C51.7155 29.826 50.6793 28.4919 49.2284 28.4919C48.9647 28.4919 48.7103 28.5382 48.4748 28.6216C48.5219 28.5197 48.5407 28.4085 48.5407 28.2973C48.5407 26.4073 48.1262 24.545 47.3537 22.831C49.0212 22.2936 50.3778 21.0892 51.1126 19.5419C52.6199 22.2102 53.4113 25.2028 53.4113 28.2973ZM44.9325 7.6642C46.4776 7.6642 47.8153 8.74821 48.1074 10.2491L48.2204 10.8236L48.7951 10.9347C49.7748 11.1293 50.4908 11.9817 50.4908 12.973C50.4908 13.5289 50.2647 14.057 49.8596 14.4554L49.4545 14.8446L49.6524 15.3727C49.8502 15.9008 49.9538 16.4289 49.9538 16.9384C49.9538 19.4122 47.9001 21.432 45.3847 21.432C44.8854 21.432 44.3861 21.3393 43.8491 21.1447L43.3592 20.9687L42.973 21.3115C42.3701 21.8489 41.607 22.1454 40.8156 22.1454C39.0257 22.1454 37.5748 20.7186 37.5748 18.9582C37.5748 17.3461 38.809 15.9934 40.4482 15.8081L40.9664 15.7525L41.1642 15.2708C41.3997 14.6871 41.7389 14.1867 42.1628 13.7606L42.6809 13.251L42.2664 12.658C41.8896 12.1207 41.6918 11.4999 41.6918 10.8514C41.6918 9.09101 43.1426 7.6642 44.9325 7.6642ZM34.9182 10.1009C36.6328 10.1009 38.3097 10.3418 39.9395 10.7958V10.8514C39.9395 11.6203 40.1185 12.3615 40.467 13.0379C40.1844 13.39 39.9395 13.7606 39.7416 14.1682C38.9691 14.335 38.2626 14.6778 37.6691 15.1503C36.7646 14.965 35.8414 14.8724 34.9182 14.8724C28.5026 14.8724 23.1327 19.1528 21.6724 25.1009C20.6456 24.2948 19.3549 23.8131 17.9512 23.8131C17.6121 23.8131 17.2917 23.8501 16.9714 23.8964C18.9875 15.8544 26.3923 10.1009 34.9182 10.1009ZM18.0737 38.0533L17.5649 38.285C17.0091 38.5444 16.425 38.6741 15.8315 38.6741C13.5799 38.6741 11.7523 36.8767 11.7523 34.6623C11.7523 33.3653 12.4023 32.133 13.4857 31.3825L13.9568 31.0583L13.8437 30.5024C13.7872 30.2337 13.7589 29.9557 13.7589 29.6685C13.7589 27.3986 15.6431 25.5456 17.9512 25.5456C19.3455 25.5456 20.589 26.2127 21.3521 27.2596C21.3898 27.482 21.5123 27.6673 21.6913 27.797C21.908 28.2232 22.0587 28.6957 22.1246 29.196L22.1906 29.7982L22.7935 29.9372C25.0263 30.456 26.5901 32.3924 26.5901 34.6531C26.5901 37.3307 24.3762 39.5079 21.6536 39.5079C20.5137 39.5079 19.3926 39.1095 18.5165 38.3961L18.0737 38.0533ZM34.9182 46.4845C30.0005 46.4845 25.356 44.5851 21.908 41.222C23.811 41.1478 25.5067 40.2955 26.6749 38.9706C29.0395 40.7309 31.9412 41.713 34.9182 41.713C35.408 41.713 35.8979 41.6852 36.3878 41.6296V46.4289H36.3784C35.8979 46.4659 35.408 46.4845 34.9182 46.4845ZM36.3878 39.9063H36.3407C33.2601 40.2677 30.0947 39.3968 27.6453 37.5345C28.0786 36.6636 28.3236 35.6908 28.3236 34.6623C28.3236 31.7995 26.4677 29.3165 23.7544 28.427C23.632 27.8526 23.4153 27.3152 23.1327 26.8149C23.8769 20.9687 28.87 16.6049 34.9182 16.6049C35.408 16.6049 35.8979 16.642 36.3878 16.6976C36.0298 17.3739 35.8226 18.1429 35.8226 18.9489C35.8226 21.6543 38.0647 23.8594 40.8156 23.8594C41.8708 23.8594 42.8882 23.5258 43.7455 22.9051C44.3013 23.0626 44.8477 23.1367 45.4036 23.1367C45.4601 23.1367 45.5166 23.1275 45.5732 23.1275C46.1101 24.2115 46.4776 25.3696 46.666 26.5648C46.4022 26.4536 46.1196 26.398 45.8181 26.398C44.3673 26.398 43.331 27.7414 43.2368 29.6871C42.973 29.5759 42.6998 29.5203 42.3983 29.5203C40.8721 29.5203 39.8076 30.9934 39.8076 33.1058V36.6543C39.5532 36.5431 39.2706 36.4876 38.9691 36.4876C37.4901 36.4968 36.4443 37.8866 36.3878 39.9063ZM52.6199 49.2176H40.9569L40.9381 49.1991L38.1401 47.1237V40.0824C38.1401 38.9335 38.5735 38.2294 38.9691 38.2294C39.3648 38.2294 39.7982 38.9428 39.7982 40.0824V44.7982C39.7982 45.2707 40.1938 45.6599 40.6743 45.6599C41.1548 45.6599 41.5504 45.2707 41.5504 44.7982V33.1151C41.5504 31.9662 41.9838 31.2621 42.3795 31.2621C42.7846 31.2621 43.2085 31.9755 43.2085 33.1151V40.2121C43.2085 40.6846 43.6042 41.0737 44.0847 41.0737C44.5651 41.0737 44.9608 40.6846 44.9608 40.2121V29.9835C44.9608 28.8347 45.3942 28.1305 45.7898 28.1305C46.1949 28.1305 46.6189 28.8439 46.6189 29.9835V40.2028C46.6189 40.6753 47.0145 41.0644 47.495 41.0644C47.9755 41.0644 48.3711 40.6753 48.3711 40.2028V32.0682C48.3711 30.9193 48.8045 30.2152 49.2002 30.2152C49.5959 30.2152 50.0292 30.9286 50.0292 32.0682V40.1935C50.0292 40.6661 50.4249 41.0552 50.9054 41.0552C51.3858 41.0552 51.7815 40.6661 51.7815 40.1935V35.1812C51.7815 34.0323 52.2149 33.3282 52.6105 33.3282C53.0156 33.3282 53.4396 34.0416 53.4396 35.1812V35.2646L53.92 40.175L52.6199 49.2176Z" fill="#07071E"/>
</svg>
