<svg width="61" height="63" viewBox="0 0 61 63" fill="none" xmlns="http://www.w3.org/2000/svg">
<rect width="43.8357" height="50.9603" rx="20" transform="matrix(0.955431 -0.295215 0.226332 0.97405 0 12.9409)" fill="#A45151" fill-opacity="0.5"/>
<path d="M59.2074 14.9409H11.8169C11.6004 14.9414 11.3929 15.0263 11.2398 15.1771C11.0868 15.3278 11.0005 15.5321 11 15.7452V49.5345C11.0005 49.7476 11.0868 49.9519 11.2398 50.1026C11.3929 50.2533 11.6004 50.3383 11.8169 50.3388H46.1342V57.1774C46.1482 57.9151 46.4556 58.6178 46.9904 59.1346C47.5252 59.6514 48.2445 59.9409 48.9938 59.9409C49.7431 59.9409 50.4625 59.6514 50.9972 59.1346C51.532 58.6178 51.8394 57.9151 51.8534 57.1774V50.3388H59.2074C59.4239 50.3383 59.6314 50.2533 59.7845 50.1026C59.9375 49.9519 60.0238 49.7476 60.0243 49.5345V15.7452C60.0238 15.5321 59.9375 15.3278 59.7845 15.1771C59.6314 15.0263 59.4239 14.9414 59.2074 14.9409ZM50.2197 57.1774C50.2105 57.4916 50.0774 57.7899 49.8485 58.0089C49.6196 58.2279 49.313 58.3504 48.9938 58.3504C48.6746 58.3504 48.368 58.2279 48.1391 58.0089C47.9102 57.7899 47.7771 57.4916 47.768 57.1774V45.5119H50.2197V57.1774ZM50.2197 43.9032H45.3173V25.0244C46.707 23.8809 48.4165 23.1797 50.2197 23.0136V43.9032ZM58.3905 48.7301H51.8534V22.1817C51.8529 21.9685 51.7667 21.7641 51.6136 21.6132C51.4606 21.4623 51.2531 21.3772 51.0365 21.3764C48.2202 21.3793 45.5202 22.4822 43.5288 24.4431C41.5375 26.4039 40.4176 29.0626 40.415 31.8355V44.7076C40.4155 44.9207 40.5017 45.125 40.6548 45.2757C40.8079 45.4265 41.0154 45.5114 41.2319 45.5119H46.1342V48.7301H12.6338V16.5496H58.3905V48.7301ZM43.6825 26.7668V43.9032H42.0488V31.8355C42.0519 30.0209 42.6223 28.2511 43.6825 26.7668Z" fill="#07071E"/>
<path d="M17.1274 42.2933C17.8856 42.2925 18.6124 41.9957 19.1486 41.468C19.6848 40.9402 19.9865 40.2246 19.9875 39.4782V25.8008C19.9735 25.0632 19.6661 24.3604 19.1313 23.8437C18.5966 23.3269 17.8772 23.0374 17.1279 23.0374C16.3786 23.0374 15.6593 23.3269 15.1245 23.8437C14.5897 24.3604 14.2823 25.0632 14.2683 25.8008V39.4782C14.2694 40.2245 14.5709 40.9399 15.1069 41.4676C15.6429 41.9953 16.3695 42.2922 17.1274 42.2933ZM15.9021 25.8008C15.9112 25.4867 16.0443 25.1884 16.2732 24.9694C16.5021 24.7504 16.8087 24.6278 17.1279 24.6278C17.4471 24.6278 17.7537 24.7504 17.9826 24.9694C18.2115 25.1884 18.3446 25.4867 18.3538 25.8008V39.4782C18.3446 39.7923 18.2115 40.0906 17.9826 40.3096C17.7537 40.5286 17.4471 40.6512 17.1279 40.6512C16.8087 40.6512 16.5021 40.5286 16.2732 40.3096C16.0443 40.0906 15.9112 39.7923 15.9021 39.4782V25.8008Z" fill="#07071E"/>
</svg>
