<svg width="55" height="63" viewBox="0 0 55 63" fill="none" xmlns="http://www.w3.org/2000/svg">
<rect width="43.8357" height="50.9603" rx="20" transform="matrix(0.955431 -0.295215 0.226332 0.97405 0 12.9409)" fill="#8C63FF" fill-opacity="0.5"/>
<path d="M51.4868 42.2954H44.9921C49.4452 39.2082 52.2088 34.1207 52.2088 28.6619C52.2217 24.7894 50.8485 21.0359 48.3298 18.0591H53.7487V16.5447H42.9675C41.7533 16.5276 40.5947 16.0413 39.7422 15.1909C38.8898 14.3404 38.4118 13.1942 38.4118 12C38.4118 10.8058 38.8898 9.65956 39.7422 8.80913C40.5947 7.95869 41.7533 7.47238 42.9675 7.45534H53.7496V5.94092H42.9675C41.754 5.94182 40.5678 6.29464 39.5573 6.95523C38.5467 7.61581 37.7567 8.55483 37.286 9.65477L19.0943 8.97069C18.2776 8.97142 17.4946 9.29074 16.917 9.85857C16.3395 10.4264 16.0145 11.1964 16.0135 11.9995C16.0146 12.3992 16.0959 12.7947 16.2527 13.1635C16.4095 13.5322 16.6388 13.8669 16.9273 14.1483C17.2159 14.4298 17.5581 14.6525 17.9343 14.8036C18.3105 14.9548 18.7133 15.0315 19.1197 15.0293L25.9118 14.7738C23.6098 16.2701 21.7147 18.2972 20.3915 20.6785C19.0683 23.0598 18.3572 25.7232 18.3201 28.4367C18.283 31.1501 18.921 33.8313 20.1786 36.2468C21.4361 38.6623 23.2751 40.7388 25.5353 42.2954H18.0843C17.5782 42.2922 17.0884 42.4713 16.7074 42.799C16.3265 43.1267 16.0807 43.5803 16.0167 44.0741C15.9526 44.5678 16.0746 45.0675 16.3597 45.4788C16.6447 45.8901 17.0731 46.1845 17.5638 46.3064L35.4553 50.8682C35.7968 50.9553 36.154 50.9643 36.4996 50.8945C36.8451 50.8248 37.1699 50.6781 37.4488 50.4657C37.7278 50.2534 37.9536 49.981 38.109 49.6695C38.2643 49.358 38.345 49.0157 38.3449 48.6688V46.9229L51.3598 48.2568C51.7612 48.2705 52.1614 48.2056 52.5372 48.0658C52.9129 47.9261 53.2566 47.7143 53.5484 47.4427C53.8402 47.1712 54.0742 46.8454 54.2368 46.4841C54.3995 46.1229 54.4875 45.7335 54.4958 45.3385C54.5041 44.9436 54.4325 44.5509 54.2852 44.1834C54.1378 43.8159 53.9177 43.4808 53.6376 43.1977C53.3574 42.9145 53.0229 42.689 52.6533 42.5341C52.2838 42.3792 51.8866 42.2981 51.4849 42.2954H51.4868ZM19.0943 13.5149C18.7896 13.5152 18.4916 13.4266 18.2381 13.2602C17.9847 13.0938 17.7872 12.8571 17.6706 12.5802C17.5541 12.3033 17.5238 11.9986 17.5835 11.7047C17.6433 11.4108 17.7904 11.141 18.0062 10.9294C18.2859 10.65 18.6664 10.4904 19.0651 10.4851L36.8738 11.1544C36.8315 11.4342 36.8092 11.7166 36.8069 11.9995C36.8091 12.2827 36.8315 12.5655 36.8738 12.8456L19.0943 13.5149ZM19.8642 28.6619C19.8571 25.6518 20.7656 22.7083 22.473 20.21C24.1804 17.7117 26.6085 15.7727 29.4453 14.6424L37.286 14.3452C37.7565 15.4449 38.5463 16.3837 39.5565 17.0443C40.5667 17.7048 41.7525 18.0578 42.9656 18.0591H46.2431C49.087 20.8779 50.6779 24.691 50.667 28.6619C50.6591 31.5058 49.841 34.2906 48.3053 36.7004C46.7697 39.1102 44.5781 41.0485 41.9792 42.2954H28.5596C25.9583 41.0506 23.7644 39.113 22.2272 36.7029C20.6901 34.2928 19.8714 31.5069 19.8642 28.6619ZM52.5203 46.336C52.2401 46.6032 51.864 46.7509 51.4737 46.747L37.6569 45.3289C37.5496 45.3183 37.4412 45.3298 37.3386 45.3627C37.236 45.3955 37.1415 45.4489 37.0611 45.5196C36.981 45.5906 36.917 45.6775 36.8732 45.7744C36.8294 45.8714 36.8068 45.9763 36.8069 46.0824V48.6688C36.8068 48.7844 36.7798 48.8985 36.7279 49.0023C36.676 49.1061 36.6007 49.1968 36.5077 49.2676C36.4146 49.3383 36.3064 49.3872 36.1912 49.4105C36.076 49.4338 35.9569 49.4308 35.8431 49.4019L17.9525 44.841C17.8271 44.8092 17.7178 44.7335 17.6451 44.6281C17.5723 44.5227 17.5411 44.3948 17.5572 44.2684C17.5734 44.142 17.6358 44.0258 17.7328 43.9414C17.8298 43.8569 17.9548 43.8102 18.0843 43.8098H51.4868C51.7848 43.8093 52.0761 43.8965 52.3232 44.0602C52.5703 44.224 52.7619 44.4567 52.8733 44.7285C52.9847 45.0003 53.0108 45.2987 52.9482 45.5852C52.8857 45.8717 52.7373 46.1332 52.5222 46.336H52.5203Z" fill="#07071E"/>
<path d="M53.7494 9.72791H44.5081V11.2423H53.7494V9.72791Z" fill="#07071E"/>
<path d="M53.7494 12.7574H44.5081V14.2719H53.7494V12.7574Z" fill="#07071E"/>
<path d="M46.0482 28.6618C46.0482 26.5646 45.4158 24.5144 44.231 22.7706C43.0462 21.0268 41.3622 19.6677 39.392 18.8652C37.4217 18.0626 35.2538 17.8527 33.1622 18.2619C31.0706 18.6711 29.1494 19.6811 27.6416 21.1642C26.1337 22.6473 25.1069 24.5367 24.691 26.5937C24.275 28.6507 24.4887 30.7828 25.3049 32.7204C26.1211 34.6579 27.5032 36.3139 29.2765 37.479C31.0497 38.644 33.1344 39.2658 35.267 39.2656C38.1255 39.2624 40.866 38.1442 42.8872 36.1563C44.9084 34.1683 46.0452 31.4731 46.0482 28.6618ZM26.0247 28.6618C26.0247 26.8642 26.5668 25.1068 27.5823 23.6121C28.5979 22.1174 30.0413 20.9524 31.7301 20.2644C33.4189 19.5765 35.2772 19.3965 37.07 19.7472C38.8629 20.0979 40.5097 20.9636 41.8022 22.2347C43.0948 23.5059 43.975 25.1255 44.3316 26.8886C44.6882 28.6518 44.5052 30.4793 43.8057 32.1402C43.1062 33.801 41.9216 35.2206 40.4017 36.2193C38.8818 37.2181 37.0949 37.7512 35.267 37.7512C32.8166 37.7485 30.4674 36.79 28.7348 35.086C27.0021 33.382 26.0275 31.0717 26.0247 28.6618Z" fill="#07071E"/>
</svg>
