<svg width="54" height="63" viewBox="0 0 54 63" fill="none" xmlns="http://www.w3.org/2000/svg">
<rect width="43.8357" height="50.9603" rx="20" transform="matrix(0.955431 -0.295215 0.226332 0.97405 0 12.9409)" fill="#32CD32" fill-opacity="0.5"/>
<path d="M53.1823 23.9406H40.269V23.3493C40.2696 22.609 40.0476 21.8851 39.6312 21.2694L36.094 16.0306C35.8445 15.6612 35.7115 15.2271 35.7115 14.7831V11.7324C35.9416 11.6017 36.1329 11.4136 36.2662 11.1869C36.3995 10.9603 36.4701 10.703 36.4709 10.4408V7.44058C36.4704 7.043 36.3102 6.66183 36.0255 6.3807C35.7407 6.09956 35.3547 5.9414 34.952 5.94092H24.317C23.9143 5.9414 23.5283 6.09956 23.2436 6.3807C22.9588 6.66183 22.7986 7.043 22.7981 7.44058V10.4408C22.7989 10.703 22.8695 10.9603 23.0028 11.1869C23.1361 11.4136 23.3274 11.6017 23.5576 11.7324V14.5576C23.5584 15.1499 23.3806 15.729 23.047 16.2213L19.7659 21.0796C19.2657 21.8183 18.9991 22.6871 19 23.5757V50.1911C19 50.39 19.08 50.5807 19.2224 50.7213C19.3649 50.8619 19.558 50.9409 19.7594 50.9409H53.1823C53.3838 50.9409 53.5769 50.8619 53.7194 50.7213C53.8618 50.5807 53.9418 50.39 53.9418 50.1911V24.6913C53.9419 24.5928 53.9224 24.4951 53.8842 24.4041C53.8461 24.313 53.7902 24.2302 53.7197 24.1605C53.6492 24.0908 53.5654 24.0355 53.4732 23.9977C53.381 23.96 53.2822 23.9406 53.1823 23.9406ZM52.4229 28.1086C51.6776 27.9248 50.9118 27.8348 50.1437 27.841C47.6564 27.841 46.3492 28.6146 45.1961 29.2966C44.069 29.964 43.0942 30.5405 41.0183 30.5405C39.1837 30.5405 38.2126 30.0822 37.2276 29.5139V25.4411H52.4229V28.1086ZM24.317 7.44058H34.952V10.4408H24.317V7.44058ZM21.0295 21.912L24.3115 17.0536C24.8109 16.3146 25.0771 15.446 25.0765 14.5576V11.9405H34.1926V14.7822C34.1918 15.5225 34.4138 16.2465 34.8304 16.8621L38.3667 22.0999C38.6169 22.4694 38.7504 22.9039 38.7502 23.3484V23.9396H36.4709C36.3711 23.9396 36.2723 23.9591 36.1801 23.9968C36.0879 24.0345 36.0041 24.0899 35.9336 24.1596C35.863 24.2293 35.8071 24.3121 35.769 24.4032C35.7309 24.4942 35.7113 24.5918 35.7115 24.6904V39.8704C33.7089 40.0097 32.5548 40.6871 31.5234 41.2958C30.3954 41.9631 29.4214 42.5397 27.3455 42.5397C25.2696 42.5397 24.3087 41.9659 23.1834 41.2958C22.4221 40.8439 21.6358 40.3791 20.5189 40.0995V23.5757C20.5187 22.9835 20.6964 22.4045 21.0295 21.912ZM20.5189 41.6634C21.2393 41.898 21.8103 42.2317 22.4008 42.58C23.5529 43.2639 24.8592 44.0384 27.3483 44.0384C29.8374 44.0384 31.1548 43.2648 32.3042 42.5809C33.2827 42.0025 34.1471 41.4929 35.7115 41.3691V49.4358H20.5189V41.6634ZM37.2303 49.4413V31.217C38.1588 31.6699 39.3072 32.042 41.0211 32.042C43.5148 32.042 44.8229 31.2675 45.9769 30.5845C47.104 29.9172 48.0761 29.3415 50.1437 29.3415C50.9161 29.3292 51.6855 29.4387 52.4229 29.666V49.4413H37.2303Z" fill="#07071E"/>
<path d="M23.5575 23.1907H22.0386V26.1909H23.5575V23.1907Z" fill="#07071E"/>
<path d="M23.5575 27.6899H22.0386V29.1896H23.5575V27.6899Z" fill="#07071E"/>
</svg>
