<svg width="66" height="63" viewBox="0 0 66 63" fill="none" xmlns="http://www.w3.org/2000/svg">
<rect width="43.8357" height="50.9603" rx="20" transform="matrix(0.955431 -0.295215 0.226332 0.97405 0 12.9409)" fill="#C19E43" fill-opacity="0.5"/>
<path d="M54.696 46.3533H53.9202V44.06C53.9197 43.8574 53.8378 43.6633 53.6924 43.52C53.547 43.3768 53.35 43.2961 53.1443 43.2956H51.9341C52.2162 42.8335 52.3663 42.305 52.3685 41.7658C52.3685 40.2827 50.2658 37.8969 49.839 37.4305C49.7644 37.354 49.6748 37.2931 49.5757 37.2516C49.4766 37.2101 49.3699 37.1888 49.2622 37.1891C49.1545 37.1894 49.0479 37.2111 48.949 37.2531C48.8501 37.2951 48.7608 37.3564 48.6866 37.4334C48.2598 37.9006 46.1561 40.2855 46.1561 41.7686C46.1614 42.3077 46.3148 42.8354 46.6 43.2956H45.3841C45.1785 43.2961 44.9814 43.3768 44.8361 43.52C44.6907 43.6633 44.6088 43.8574 44.6083 44.06V46.3533H41.504V44.06C41.5035 43.8574 41.4216 43.6633 41.2762 43.52C41.1308 43.3768 40.9337 43.2961 40.7281 43.2956H39.5179C39.8 42.8335 39.9501 42.305 39.9523 41.7658C39.9523 40.2827 37.8496 37.8969 37.4228 37.4305C37.3484 37.3544 37.2593 37.2938 37.1606 37.2524C37.0619 37.211 36.9557 37.1896 36.8485 37.1896C36.7412 37.1896 36.6351 37.211 36.5364 37.2524C36.4377 37.2938 36.3485 37.3544 36.2742 37.4305C35.8474 37.8978 33.7437 40.2827 33.7437 41.7658C33.7448 42.3047 33.8939 42.8334 34.1753 43.2956H32.9679C32.7623 43.2961 32.5652 43.3768 32.4198 43.52C32.2744 43.6633 32.1925 43.8574 32.192 44.06V46.3533H29.0878V44.06C29.0873 43.8574 29.0054 43.6633 28.86 43.52C28.7146 43.3768 28.5175 43.2961 28.3119 43.2956H27.1017C27.3838 42.8335 27.5339 42.305 27.5361 41.7658C27.5361 40.2827 25.4334 37.9006 25.0066 37.4334C24.9322 37.3572 24.843 37.2966 24.7444 37.2552C24.6457 37.2138 24.5395 37.1924 24.4323 37.1924C24.325 37.1924 24.2189 37.2138 24.1202 37.2552C24.0215 37.2966 23.9323 37.3572 23.858 37.4334C23.4312 37.9006 21.3285 40.2855 21.3285 41.7686C21.3303 42.3078 21.4804 42.8365 21.7628 43.2984H20.5517C20.3461 43.2989 20.149 43.3796 20.0036 43.5228C19.8582 43.6661 19.7763 43.8602 19.7758 44.0628V46.3561C19.5707 46.3566 19.3741 46.4369 19.2288 46.5796C19.0835 46.7222 19.0013 46.9156 19 47.1177V50.1764C19.0005 50.379 19.0824 50.5731 19.2278 50.7164C19.3732 50.8597 19.5702 50.9404 19.7758 50.9408H54.696C54.9017 50.9404 55.0989 50.8597 55.2444 50.7165C55.3899 50.5732 55.472 50.3791 55.4728 50.1764V47.1177C55.472 46.9151 55.3899 46.7209 55.2444 46.5777C55.0989 46.4345 54.9017 46.3538 54.696 46.3533ZM49.2642 39.1276C50.0865 40.1453 50.8159 41.292 50.8159 41.7658C50.8159 42.1712 50.6524 42.5601 50.3614 42.8468C50.0704 43.1336 49.6757 43.2946 49.2642 43.2946C48.8527 43.2946 48.458 43.1336 48.167 42.8468C47.876 42.5601 47.7126 42.1712 47.7126 41.7658C47.7126 41.277 48.4419 40.1369 49.2642 39.1276ZM46.1599 44.8282H52.3685V46.357H46.1599V44.8282ZM36.848 39.1276C37.6703 40.1453 38.4006 41.292 38.4006 41.7658C38.4057 41.9698 38.3694 42.1727 38.2937 42.3627C38.218 42.5527 38.1045 42.7258 37.9598 42.8719C37.8152 43.0179 37.6424 43.134 37.4515 43.2133C37.2606 43.2925 37.0556 43.3334 36.8485 43.3334C36.6414 43.3334 36.4363 43.2925 36.2455 43.2133C36.0546 43.134 35.8818 43.0179 35.7371 42.8719C35.5925 42.7258 35.479 42.5527 35.4033 42.3627C35.3276 42.1727 35.2912 41.9698 35.2963 41.7658C35.2963 41.277 36.0257 40.1369 36.848 39.1276ZM33.7437 44.8282H39.9523V46.357H33.7437V44.8282ZM24.4318 39.1276C25.2598 40.1434 25.9844 41.292 25.9844 41.7658C25.9895 41.9698 25.9532 42.1727 25.8775 42.3627C25.8018 42.5527 25.6883 42.7258 25.5436 42.8719C25.399 43.0179 25.2261 43.134 25.0353 43.2133C24.8444 43.2925 24.6394 43.3334 24.4323 43.3334C24.2251 43.3334 24.0201 43.2925 23.8293 43.2133C23.6384 43.134 23.4656 43.0179 23.3209 42.8719C23.1763 42.7258 23.0628 42.5527 22.9871 42.3627C22.9114 42.1727 22.875 41.9698 22.8801 41.7658C22.8801 41.277 23.6095 40.1369 24.4318 39.1276ZM21.3285 44.8282H27.5361V46.357H21.3285V44.8282ZM53.9202 49.4157H20.5517V47.8831H53.9202V49.4157Z" fill="#07071E"/>
<path d="M64.6832 24.3095C64.4111 24.098 64.0934 23.9509 63.7545 23.8793C63.4157 23.8077 63.0647 23.8135 62.7285 23.8964L52.2756 26.4738H19.7758C19.5702 26.4743 19.3732 26.555 19.2278 26.6983C19.0824 26.8415 19.0005 27.0357 19 27.2383V29.5316C19.0015 30.9506 19.5742 32.3112 20.5925 33.3147C21.6108 34.3182 22.9916 34.8827 24.4318 34.8845H49.2642C50.5264 34.8827 51.7486 34.4482 52.7213 33.6557C53.694 32.8632 54.3566 31.762 54.5955 30.5408L63.8382 28.2625C64.2522 28.1592 64.6284 27.9435 64.9242 27.64C65.2201 27.3365 65.4235 26.9574 65.5116 26.5456C65.5996 26.1338 65.5686 25.706 65.4222 25.3107C65.2758 24.9155 65.0198 24.5686 64.6832 24.3095ZM53.1443 29.5316C53.1438 30.5454 52.7349 31.5175 52.0073 32.2344C51.2798 32.9512 50.2931 33.3542 49.2642 33.3547H24.4318C23.4029 33.3542 22.4162 32.9512 21.6887 32.2344C20.9611 31.5175 20.5522 30.5454 20.5517 29.5316V28.0027H53.1443V29.5316ZM63.4578 26.7794L54.696 28.9353V27.4523L63.1031 25.3776C63.2115 25.35 63.325 25.348 63.4343 25.3719C63.5436 25.3957 63.6456 25.4448 63.7319 25.515C63.8196 25.5817 63.8905 25.6674 63.939 25.7654C63.9876 25.8635 64.0124 25.9713 64.0117 26.0804C64.0119 26.2411 63.9575 26.3973 63.8571 26.524C63.7567 26.6507 63.6161 26.7406 63.4578 26.7794Z" fill="#07071E"/>
<path d="M63.1859 7.12147C62.8856 6.59007 62.3838 6.19758 61.7904 6.02995C61.197 5.86233 60.5604 5.93323 60.0199 6.22714L47.2547 13.2005C46.5542 12.7856 45.7553 12.5595 44.9381 12.5447C44.121 12.53 43.3142 12.7271 42.5987 13.1164L35.8164 16.8245C35.6834 16.8973 35.575 17.007 35.5047 17.1399C35.4344 17.2728 35.4052 17.4231 35.4208 17.5722C35.4298 17.6749 35.4622 17.7742 35.5157 17.8628L39.2716 24.5455C39.3201 24.6344 39.3864 24.7127 39.4664 24.7756C39.5464 24.8386 39.6386 24.8849 39.7373 24.9118C39.8075 24.9336 39.8808 24.944 39.9545 24.9427C40.0875 24.943 40.2184 24.9089 40.3338 24.8436L47.1162 21.1429C47.8301 20.7518 48.4272 20.183 48.8479 19.4932C49.2687 18.8035 49.4983 18.017 49.5139 17.2124L62.2782 10.239C62.8184 9.94366 63.2174 9.44908 63.3876 8.86396C63.5578 8.27885 63.4852 7.65109 63.1859 7.11866V7.12147ZM40.2551 23.14L37.2438 17.788L38.602 17.046L41.6133 22.3989L40.2551 23.14ZM61.8903 8.44474C61.8637 8.54143 61.8177 8.63186 61.755 8.71069C61.6923 8.78951 61.6141 8.85511 61.5251 8.90359L48.3416 16.0994C48.2099 16.1718 48.1023 16.2804 48.0321 16.412C47.9619 16.5436 47.932 16.6924 47.9461 16.8404C48.0042 17.4332 47.8853 18.0297 47.6041 18.5567C47.3229 19.0838 46.8916 19.5185 46.3632 19.8075L42.9724 21.6579L39.9611 16.305L43.3528 14.4546C43.8813 14.1673 44.4831 14.0375 45.085 14.081C45.687 14.1245 46.2632 14.3393 46.7435 14.6995C46.8618 14.7925 47.006 14.8481 47.157 14.8589C47.308 14.8698 47.4587 14.8354 47.5895 14.7602L60.773 7.56443C60.8856 7.49884 61.0141 7.4646 61.1448 7.46537C61.2843 7.46553 61.4211 7.50244 61.5412 7.57228C61.6613 7.64211 61.7602 7.74233 61.8277 7.86254C61.8783 7.95011 61.9099 8.04702 61.9207 8.1472C61.9314 8.24738 61.9211 8.34868 61.8903 8.44474Z" fill="#07071E"/>
<path d="M30.1435 15.4569L29.8409 14.8299L28.1337 8.39946C28.0474 8.07435 27.8895 7.77192 27.6714 7.51361C27.4532 7.25531 27.18 7.04745 26.8712 6.90477C26.5624 6.76209 26.2255 6.68808 25.8844 6.68799C25.5434 6.6879 25.2065 6.76172 24.8976 6.90424L21.2346 8.58637C20.9261 8.72866 20.6531 8.93589 20.4347 9.19345C20.2163 9.45101 20.0578 9.75263 19.9706 10.0771C19.8833 10.4015 19.8693 10.7408 19.9296 11.0712C19.9898 11.4015 20.1229 11.7148 20.3194 11.9889L24.2166 17.4138L24.5191 18.0409C24.6899 18.4051 24.9321 18.7325 25.2318 19.0042C25.5314 19.2759 25.8827 19.4865 26.2652 19.6239C26.6062 19.7458 26.9658 19.8091 27.3285 19.8108C27.8504 19.8108 28.3639 19.6812 28.8216 19.434C29.2792 19.1868 29.6663 18.83 29.947 18.3965C30.2277 17.9629 30.3931 17.4667 30.4277 16.9536C30.4624 16.4405 30.3653 15.927 30.1454 15.4607L30.1435 15.4569ZM25.1461 16.0606L21.5846 11.1077C21.519 11.0161 21.4745 10.9114 21.4542 10.801C21.4339 10.6907 21.4383 10.5773 21.4671 10.4688C21.496 10.3603 21.5485 10.2593 21.621 10.1729C21.6936 10.0865 21.7844 10.0167 21.8872 9.96852L25.5492 8.28639C25.6516 8.2404 25.7629 8.21681 25.8754 8.21723C25.9904 8.21701 26.1041 8.24057 26.2093 8.28639C26.312 8.33374 26.4028 8.40285 26.4753 8.48879C26.5478 8.57473 26.6001 8.67538 26.6285 8.78355L28.2001 14.6617L25.1461 16.0606ZM28.7853 17.269C28.7181 17.4585 28.6128 17.6327 28.4755 17.7811C28.3383 17.9295 28.172 18.049 27.9867 18.1324C27.8023 18.2185 27.6023 18.2676 27.3984 18.2767C27.1945 18.2859 26.9908 18.2549 26.7992 18.1857C26.4136 18.0472 26.0991 17.7645 25.9238 17.3989L28.7331 16.1064C28.831 16.3066 28.8812 16.5262 28.8801 16.7484C28.8798 16.9261 28.8477 17.1023 28.7853 17.269Z" fill="#07071E"/>
<path d="M30.6391 20.3569H29.0874V21.8858H30.6391V20.3569Z" fill="#07071E"/>
<path d="M33.7438 21.8862H32.1921V23.4151H33.7438V21.8862Z" fill="#07071E"/>
<path d="M29.088 23.4156H27.5364V24.9445H29.088V23.4156Z" fill="#07071E"/>
</svg>
