<svg width="71" height="71" viewBox="0 0 71 71" fill="none" xmlns="http://www.w3.org/2000/svg">
<path d="M17.5044 52.9515H6.46697C6.74505 46.8338 5.97499 40.652 4.14612 34.8231L3.3012 32.128C3.17285 31.7001 2.72366 31.4648 2.29585 31.6039C1.86804 31.7322 1.64344 32.1814 1.77178 32.6092L2.6167 35.3044C5.69692 45.1333 5.69692 55.9568 2.6167 65.7857L1.77178 68.4809C1.64344 68.9087 1.87874 69.3579 2.29585 69.4862C2.37072 69.5076 2.45628 69.5183 2.53114 69.5183C2.87339 69.5183 3.19424 69.2937 3.3012 68.9515L4.14612 66.2563C5.33328 62.4595 6.08194 58.5237 6.38141 54.5451H16.713V68.7162C16.713 69.1547 17.0766 69.5183 17.5151 69.5183C17.9536 69.5183 18.3172 69.1547 18.3172 68.7162V53.7429C18.3065 53.3151 17.9429 52.9515 17.5044 52.9515ZM69.6114 32.6092C69.7397 32.1814 69.5044 31.7322 69.0873 31.6039C68.6595 31.4648 68.2103 31.7108 68.0819 32.128L67.237 34.8231C65.4081 40.652 64.6381 46.8338 64.9162 52.9515H53.868C53.4295 52.9515 53.0659 53.3151 53.0659 53.7536V68.7269C53.0659 69.1654 53.4295 69.529 53.868 69.529C54.3065 69.529 54.6702 69.1654 54.6702 68.7269V54.5558H65.0017C65.3012 58.5344 66.0499 62.4702 67.237 66.267L68.0819 68.9622C68.1889 69.3044 68.5098 69.529 68.852 69.529C68.9269 69.529 69.0124 69.5183 69.0873 69.4969C69.5151 69.3686 69.7504 68.9194 69.6114 68.4916L68.7664 65.7964C65.6862 55.9675 65.6862 45.144 68.7664 35.3151L69.6114 32.6092ZM41.5686 67.9996H38.6274V47.144H56.0071C56.4456 47.144 56.8092 46.7804 56.8092 46.3419V39.9247C56.8092 39.4862 56.4456 39.1226 56.0071 39.1226H36.4884V31.3472C37.1622 31.8606 37.9857 32.1707 38.8948 32.1707C40.2103 32.1707 41.3761 31.529 42.1033 30.5451C42.8306 31.529 43.9964 32.1707 45.3119 32.1707C46.6274 32.1707 47.7932 31.529 48.5204 30.5451C49.2477 31.529 50.4135 32.1707 51.729 32.1707C53.9429 32.1707 55.7397 30.3739 55.7397 28.16V26.021C55.7397 14.9622 46.745 5.96753 35.6862 5.96753C24.6274 5.96753 15.6327 14.9622 15.6327 26.021V28.16C15.6327 30.3739 17.4295 32.1707 19.6434 32.1707C20.959 32.1707 22.1247 31.529 22.852 30.5451C23.5793 31.529 24.745 32.1707 26.0606 32.1707C27.3761 32.1707 28.5418 31.529 29.2691 30.5451C29.9964 31.529 31.1622 32.1707 32.4777 32.1707C33.3868 32.1707 34.2103 31.8606 34.8841 31.3472V39.1226H15.3654C14.9269 39.1226 14.5632 39.4862 14.5632 39.9247V46.3419C14.5632 46.7804 14.9269 47.144 15.3654 47.144H32.745V67.9996H29.8039C29.3654 67.9996 29.0017 68.3632 29.0017 68.8018C29.0017 69.2402 29.3654 69.6039 29.8039 69.6039H41.5686C42.0071 69.6039 42.3707 69.2402 42.3707 68.8018C42.3707 68.3632 42.0071 67.9996 41.5686 67.9996ZM38.8948 30.5665C37.5686 30.5665 36.4884 29.4862 36.4884 28.16V26.8231H41.3012V28.16C41.3012 29.4862 40.221 30.5665 38.8948 30.5665ZM41.3012 25.2189H36.4884V7.8178C38.8413 9.10122 41.1729 15.8499 41.3012 25.2189ZM42.8948 25.2189C42.7985 18.6199 41.5579 11.9034 39.2691 8.41673C43.9964 10.6841 47.4937 17.3151 47.7076 25.2189H42.8948ZM32.1033 8.41673C29.8146 11.9034 28.5739 18.6306 28.4777 25.2189H23.6648C23.8894 17.3044 27.3761 10.6734 32.1033 8.41673ZM34.8841 7.8178V25.2189H30.0712C30.1996 15.8499 32.5311 9.10122 34.8841 7.8178ZM45.3119 30.5665C43.9857 30.5665 42.9055 29.4862 42.9055 28.16V26.8231H47.7183V28.16C47.7183 29.4862 46.6381 30.5665 45.3119 30.5665ZM54.1354 28.16C54.1354 29.4862 53.0552 30.5665 51.729 30.5665C50.4028 30.5665 49.3226 29.4862 49.3226 28.16V26.8231H54.1354V28.16ZM54.114 25.2189H49.2905C49.1087 18.4167 46.6167 12.4916 42.9376 9.06913C49.2798 11.7964 53.8039 17.9675 54.114 25.2189ZM28.4349 9.06913C24.7557 12.4916 22.2638 18.4167 22.0819 25.2189H17.2584C17.5686 17.9675 22.0926 11.7964 28.4349 9.06913ZM19.6434 30.5665C18.3172 30.5665 17.237 29.4862 17.237 28.16V26.8231H22.0499V28.16C22.0499 29.4862 20.9696 30.5665 19.6434 30.5665ZM26.0606 30.5665C24.7344 30.5665 23.6541 29.4862 23.6541 28.16V26.8231H28.467V28.16C28.467 29.4862 27.3868 30.5665 26.0606 30.5665ZM32.4777 30.5665C31.1515 30.5665 30.0712 29.4862 30.0712 28.16V26.8231H34.8841V28.16C34.8841 29.4862 33.8039 30.5665 32.4777 30.5665ZM16.1675 40.7269H55.2049V45.5397H16.1675V40.7269ZM34.3493 47.144H37.0231V67.9996H34.3493V47.144ZM8.94826 16.128C12.9269 16.128 16.1675 12.8873 16.1675 8.9087C16.1675 4.93009 12.9269 1.68945 8.94826 1.68945C4.96965 1.68945 1.729 4.93009 1.729 8.9087C1.729 12.8873 4.96965 16.128 8.94826 16.128ZM8.94826 3.29373C12.0499 3.29373 14.5632 5.8071 14.5632 8.9087C14.5632 12.0103 12.0499 14.5237 8.94826 14.5237C5.84665 14.5237 3.33328 12.0103 3.33328 8.9087C3.33328 5.8071 5.84665 3.29373 8.94826 3.29373ZM58.1461 12.9194H66.7023C68.3279 12.9194 69.6434 11.6039 69.6434 9.97822C69.6434 8.60924 68.7023 7.46485 67.4402 7.1333C67.1087 5.25095 65.4616 3.82849 63.4937 3.82849C61.5579 3.82849 59.9322 5.20817 59.5686 7.03705H58.1461C56.5204 7.03705 55.2049 8.35255 55.2049 9.97822C55.2049 11.6039 56.5204 12.9194 58.1461 12.9194ZM58.1461 8.64132H60.2852C60.7237 8.64132 61.0873 8.27769 61.0873 7.83919C61.0873 6.51298 62.1675 5.43277 63.4937 5.43277C64.8199 5.43277 65.9001 6.51298 65.9001 7.83919C65.9001 8.27769 66.2638 8.64132 66.7023 8.64132C67.4402 8.64132 68.0392 9.24025 68.0392 9.97822C68.0392 10.7162 67.4402 11.3151 66.7023 11.3151H58.1461C57.4081 11.3151 56.8092 10.7162 56.8092 9.97822C56.8092 9.24025 57.4081 8.64132 58.1461 8.64132Z" fill="url(#paint0_linear_19_6604)"/>
<defs>
<linearGradient id="paint0_linear_19_6604" x1="1.729" y1="1.68945" x2="66.1804" y2="70.2333" gradientUnits="userSpaceOnUse">
<stop stop-color="#2893F1"/>
<stop offset="1" stop-color="#D41BD3"/>
</linearGradient>
</defs>
</svg>
