<svg width="76" height="76" viewBox="0 0 76 76" fill="none" xmlns="http://www.w3.org/2000/svg">
<g clip-path="url(#clip0_19_6523)">
<path d="M44.5176 45.397H3.43523C3.0192 45.397 2.62022 45.2317 2.32604 44.9375C2.03187 44.6434 1.8666 44.2444 1.8666 43.8283C1.86544 43.6235 1.90585 43.4206 1.98539 43.2319C2.06493 43.0431 2.18194 42.8725 2.32935 42.7303C2.47156 42.5856 2.64127 42.4709 2.8285 42.3927C3.01572 42.3146 3.21668 42.2747 3.41954 42.2754H44.5176" stroke="url(#paint0_linear_19_6523)" stroke-width="1.98" stroke-linecap="round" stroke-linejoin="round"/>
<path d="M63.1137 42.2988H73.1921C73.6082 42.2988 74.0072 42.4641 74.3013 42.7583C74.5955 43.0524 74.7608 43.4514 74.7608 43.8675C74.7608 44.2835 74.5955 44.6825 74.3013 44.9766C74.0072 45.2708 73.6082 45.4361 73.1921 45.4361H63.1137" stroke="url(#paint1_linear_19_6523)" stroke-width="1.98" stroke-linecap="round" stroke-linejoin="round"/>
<path d="M63.1137 45.3965H72.4157V51.6004C72.4136 56.5331 70.4526 61.2631 66.9639 64.7503C63.4752 68.2375 58.7444 70.1965 53.8117 70.1965H22.8157C17.8829 70.1965 13.1522 68.2375 9.66347 64.7503C6.17478 61.2631 4.21381 56.5331 4.21173 51.6004V45.3965H44.5176" stroke="url(#paint2_linear_19_6523)" stroke-width="1.98" stroke-linecap="round" stroke-linejoin="round"/>
<path d="M13.5137 19.0432H30.5647" stroke="url(#paint3_linear_19_6523)" stroke-width="1.98" stroke-linecap="round" stroke-linejoin="round"/>
<path d="M18.9333 12.0703H25.1372C26.3707 12.0703 27.5537 12.5603 28.426 13.4326C29.2982 14.3048 29.7882 15.4878 29.7882 16.7213V19.0742H14.2902V16.7213C14.2902 15.4891 14.7791 14.3073 15.6496 13.4353C16.5202 12.5633 17.7011 12.0724 18.9333 12.0703Z" stroke="url(#paint4_linear_19_6523)" stroke-width="1.98" stroke-linecap="round" stroke-linejoin="round"/>
<path d="M4.21173 10.909V42.2816H7.34899V10.909C7.34899 9.16173 8.0431 7.48599 9.27864 6.25046C10.5142 5.01492 12.1899 4.32081 13.9372 4.32081C15.6845 4.32081 17.3603 5.01492 18.5958 6.25046C19.8313 7.48599 20.5255 9.16173 20.5255 10.909V12.0698H23.6235V10.909C23.6245 9.63305 23.3735 8.36944 22.8847 7.19077C22.3959 6.01211 21.6791 4.94163 20.7754 4.04083C19.8717 3.14003 18.7989 2.42666 17.6186 1.94171C16.4384 1.45675 15.174 1.20976 13.898 1.21492C12.6253 1.21492 11.3651 1.46573 10.1894 1.953C9.01372 2.44027 7.94556 3.15445 7.046 4.05474C6.14645 4.95502 5.43313 6.02376 4.94681 7.19986C4.46049 8.37595 4.2107 9.63636 4.21173 10.909Z" stroke="url(#paint5_linear_19_6523)" stroke-width="1.98" stroke-linecap="round" stroke-linejoin="round"/>
<path d="M13.5137 37.2637V42.299H10.4156V38.4245L13.5137 37.2637Z" stroke="url(#paint6_linear_19_6523)" stroke-width="1.98" stroke-linecap="round" stroke-linejoin="round"/>
<path d="M10.4156 38.4232L13.5137 37.2624L16.6117 36.0938" stroke="url(#paint7_linear_19_6523)" stroke-width="1.98" stroke-linecap="round" stroke-linejoin="round"/>
<path d="M19.9764 69.9849L15.5686 73.6712C15.2579 73.9356 14.8629 74.0803 14.4549 74.079C14.0981 74.0778 13.7504 73.967 13.4586 73.7616C13.1669 73.5563 12.9453 73.2663 12.8238 72.9309C12.7023 72.5954 12.6868 72.2308 12.7793 71.8863C12.8718 71.5417 13.0679 71.2339 13.3411 71.0045L15.9137 68.8555" stroke="url(#paint8_linear_19_6523)" stroke-width="1.98" stroke-linecap="round" stroke-linejoin="round"/>
<path d="M60.7372 68.8555L63.3098 71.0045C63.583 71.2339 63.7791 71.5417 63.8716 71.8863C63.9641 72.2308 63.9486 72.5954 63.8271 72.9309C63.7056 73.2663 63.484 73.5563 63.1923 73.7616C62.9006 73.967 62.5528 74.0778 62.1961 74.079C61.78 74.086 61.3756 73.941 61.0588 73.6712L56.6274 69.9849" stroke="url(#paint9_linear_19_6523)" stroke-width="1.98" stroke-linecap="round" stroke-linejoin="round"/>
<path d="M44.5176 42.298H39.8823C39.8823 41.674 40.1302 41.0755 40.5715 40.6342C41.0127 40.193 41.6112 39.9451 42.2353 39.9451C42.8593 39.9451 43.4578 40.193 43.899 40.6342C44.3403 41.0755 44.5882 41.674 44.5882 42.298H44.5176Z" stroke="url(#paint10_linear_19_6523)" stroke-width="1.98" stroke-linecap="round" stroke-linejoin="round"/>
<path d="M63.1137 42.298V60.9019H44.5176V42.298C44.5176 41.674 44.2697 41.0755 43.8285 40.6342C43.3872 40.193 42.7887 39.9451 42.1647 39.9451H60.7921C61.4162 39.9451 62.0146 40.193 62.4559 40.6342C62.8972 41.0755 63.1451 41.674 63.1451 42.298H63.1137Z" stroke="url(#paint11_linear_19_6523)" stroke-width="1.98" stroke-linecap="round" stroke-linejoin="round"/>
<path d="M63.1215 53.9219H44.5176V57.0199H63.1215V53.9219Z" stroke="url(#paint12_linear_19_6523)" stroke-width="1.98" stroke-linecap="round" stroke-linejoin="round"/>
</g>
<defs>
<linearGradient id="paint0_linear_19_6523" x1="23.1921" y1="42.2754" x2="23.1921" y2="45.397" gradientUnits="userSpaceOnUse">
<stop stop-color="#3B86EE"/>
<stop offset="1" stop-color="#A83ADB"/>
</linearGradient>
<linearGradient id="paint1_linear_19_6523" x1="68.9372" y1="42.2988" x2="68.9372" y2="45.4361" gradientUnits="userSpaceOnUse">
<stop stop-color="#3B86EE"/>
<stop offset="1" stop-color="#A83ADB"/>
</linearGradient>
<linearGradient id="paint2_linear_19_6523" x1="38.3137" y1="45.3965" x2="38.3137" y2="70.1965" gradientUnits="userSpaceOnUse">
<stop stop-color="#3B86EE"/>
<stop offset="1" stop-color="#A83ADB"/>
</linearGradient>
<linearGradient id="paint3_linear_19_6523" x1="22.0392" y1="19.0432" x2="22.0392" y2="20.0432" gradientUnits="userSpaceOnUse">
<stop stop-color="#3B86EE"/>
<stop offset="1" stop-color="#A83ADB"/>
</linearGradient>
<linearGradient id="paint4_linear_19_6523" x1="22.0392" y1="12.0703" x2="22.0392" y2="19.0742" gradientUnits="userSpaceOnUse">
<stop stop-color="#3B86EE"/>
<stop offset="1" stop-color="#A83ADB"/>
</linearGradient>
<linearGradient id="paint5_linear_19_6523" x1="13.9176" y1="1.21484" x2="13.9176" y2="42.2816" gradientUnits="userSpaceOnUse">
<stop stop-color="#3B86EE"/>
<stop offset="1" stop-color="#A83ADB"/>
</linearGradient>
<linearGradient id="paint6_linear_19_6523" x1="11.9647" y1="37.2637" x2="11.9647" y2="42.299" gradientUnits="userSpaceOnUse">
<stop stop-color="#3B86EE"/>
<stop offset="1" stop-color="#A83ADB"/>
</linearGradient>
<linearGradient id="paint7_linear_19_6523" x1="13.5137" y1="36.0938" x2="13.5137" y2="38.4232" gradientUnits="userSpaceOnUse">
<stop stop-color="#3B86EE"/>
<stop offset="1" stop-color="#A83ADB"/>
</linearGradient>
<linearGradient id="paint8_linear_19_6523" x1="16.3481" y1="68.8555" x2="16.3481" y2="74.079" gradientUnits="userSpaceOnUse">
<stop stop-color="#3B86EE"/>
<stop offset="1" stop-color="#A83ADB"/>
</linearGradient>
<linearGradient id="paint9_linear_19_6523" x1="60.2793" y1="68.8555" x2="60.2793" y2="74.0792" gradientUnits="userSpaceOnUse">
<stop stop-color="#3B86EE"/>
<stop offset="1" stop-color="#A83ADB"/>
</linearGradient>
<linearGradient id="paint10_linear_19_6523" x1="42.2353" y1="39.9451" x2="42.2353" y2="42.298" gradientUnits="userSpaceOnUse">
<stop stop-color="#3B86EE"/>
<stop offset="1" stop-color="#A83ADB"/>
</linearGradient>
<linearGradient id="paint11_linear_19_6523" x1="52.6549" y1="39.9451" x2="52.6549" y2="60.9019" gradientUnits="userSpaceOnUse">
<stop stop-color="#3B86EE"/>
<stop offset="1" stop-color="#A83ADB"/>
</linearGradient>
<linearGradient id="paint12_linear_19_6523" x1="53.8195" y1="53.9219" x2="53.8195" y2="57.0199" gradientUnits="userSpaceOnUse">
<stop stop-color="#3B86EE"/>
<stop offset="1" stop-color="#A83ADB"/>
</linearGradient>
<clipPath id="clip0_19_6523">
<rect width="75.2941" height="75.2941" fill="white" transform="translate(0.666626)"/>
</clipPath>
</defs>
</svg>
