<svg width="64" height="71" viewBox="0 0 64 71" fill="none" xmlns="http://www.w3.org/2000/svg">
<path d="M63.2129 53.0634C63.2129 50.5822 61.1392 46.2631 59.4462 44.4926C59.4033 44.0035 59.4728 42.2739 61.8965 39.3176C62.0835 39.0895 62.1224 38.7739 61.996 38.5074C61.8699 38.2406 61.6013 38.0707 61.3064 38.0707H46.2088C45.9137 38.0707 45.6453 38.2406 45.5191 38.5074C45.393 38.7739 45.4316 39.0895 45.6187 39.3176C48.0542 42.2885 48.1124 44.0212 48.0683 44.5002C46.3738 46.2776 44.3023 50.5885 44.3023 53.0634C44.3023 55.8508 45.6276 57.8877 48.1392 58.984C48.431 60.1851 49.6921 61.1664 51.436 61.6325C51.3227 61.8879 51.2586 62.1699 51.2586 62.4668C51.2586 63.4936 52.012 64.3455 52.9945 64.5045V65.5311C52.9945 66.8297 52.2119 67.9806 51.0136 68.6862C51.8755 67.2372 51.688 65.3326 50.4425 64.0869C49.2053 62.8497 47.1919 62.8495 45.9544 64.0869C44.9051 65.1362 44.9051 66.8438 45.9544 67.8933C46.3899 68.3287 46.9689 68.5687 47.5848 68.5687C48.2007 68.5687 48.7798 68.3287 49.2153 67.8933C49.5132 67.5953 49.5132 67.1121 49.2153 66.8141C48.9172 66.5162 48.4342 66.5162 48.1361 66.8141C47.8322 67.1182 47.3376 67.1182 47.0337 66.8141C46.5793 66.3598 46.5793 65.6205 47.0337 65.1662C47.6759 64.5237 48.7211 64.5239 49.3635 65.166C50.2407 66.0434 50.2407 67.4709 49.3635 68.3481C48.5894 69.1223 47.4432 69.405 46.4072 69.1089C44.707 68.5181 43.5116 67.1368 43.5116 65.5311V62.3332C43.5116 58.828 41.3655 56.3538 37.2913 55.1344C39.761 54.0316 41.0623 52.0044 41.0623 49.2406C41.0623 46.7594 38.9886 42.4404 37.2956 40.6697C37.2527 40.1807 37.3222 38.4509 39.7459 35.4948C39.9329 35.2667 39.9718 34.9511 39.8454 34.6845C39.7193 34.4178 39.4507 34.2479 39.1558 34.2479H33.819C33.9196 33.9852 33.9771 33.7015 33.9771 33.4039V31.6862C33.9771 31.0657 33.7356 30.5021 33.344 30.0791C33.7356 29.6562 33.9771 29.0926 33.9771 28.4721V26.7544C33.9771 26.1339 33.7356 25.5702 33.344 25.1473C33.7356 24.7244 33.9771 24.1608 33.9771 23.5403V21.8225C33.9771 21.2021 33.7356 20.6384 33.344 20.2155C33.7356 19.7926 33.9771 19.2289 33.9771 18.6085V16.8907C33.9771 16.2703 33.7356 15.7066 33.344 15.2837C33.7356 14.8608 33.9771 14.2971 33.9771 13.6767V11.9589C33.9771 11.3384 33.7356 10.7748 33.344 10.3519C33.7356 9.92896 33.9771 9.3653 33.9771 8.74484V7.02708C33.9771 6.63588 33.8802 6.2674 33.7115 5.94199C36.4947 5.28761 38.5153 3.3723 38.5153 1.11683C38.5153 0.695446 38.1736 0.35376 37.7522 0.35376H25.4615C25.0401 0.35376 24.6984 0.695446 24.6984 1.11683C24.6984 3.3723 26.7192 5.28761 29.5022 5.94199C29.3337 6.26757 29.2369 6.63588 29.2369 7.02708V8.74484C29.2369 9.3653 29.4783 9.92896 29.8699 10.3519C29.4783 10.7748 29.2369 11.3384 29.2369 11.9589V13.6767C29.2369 14.2971 29.4783 14.8608 29.8699 15.2837C29.4783 15.7066 29.2369 16.2703 29.2369 16.8907V18.6085C29.2369 19.2289 29.4783 19.7926 29.8699 20.2155C29.4783 20.6384 29.2369 21.2021 29.2369 21.8225V23.5403C29.2369 24.1608 29.4783 24.7244 29.8699 25.1473C29.4783 25.5702 29.2369 26.1339 29.2369 26.7544V28.4721C29.2369 29.0926 29.4783 29.6562 29.8699 30.0791C29.4783 30.5021 29.2369 31.0657 29.2369 31.6862V33.4039C29.2369 33.7015 29.2943 33.9852 29.3949 34.2479H24.0576C23.7626 34.2479 23.4941 34.4178 23.368 34.6845C23.2418 34.9511 23.2805 35.2667 23.4675 35.4948C25.9031 38.4656 25.9612 40.1983 25.9172 40.6774C24.2226 42.4548 22.1511 46.7657 22.1511 49.2406C22.1511 52.0041 23.4524 54.0313 25.9224 55.1342C21.8481 56.3534 19.7018 58.8278 19.7018 62.333V65.531C19.7018 67.1365 18.5067 68.5175 16.8067 69.1086C15.7703 69.405 14.624 69.1225 13.8498 68.3481C12.9726 67.4707 12.9726 66.0432 13.8498 65.166C14.4919 64.5239 15.5373 64.5237 16.1795 65.166C16.634 65.6203 16.634 66.3597 16.1795 66.8139C15.8758 67.118 15.381 67.118 15.0771 66.8139C14.779 66.516 14.2961 66.516 13.998 66.8139C13.7 67.1119 13.7 67.5952 13.998 67.8931C14.897 68.7922 16.3599 68.7922 17.2588 67.8931C18.3081 66.8438 18.3081 65.1362 17.2588 64.0867C16.0215 62.8494 14.0081 62.8494 12.7708 64.0867C11.5253 65.3322 11.3377 67.2369 12.1997 68.686C11.0013 67.9803 10.2187 66.8294 10.2187 65.531V64.5044C11.2012 64.3453 11.9546 63.4934 11.9546 62.4666C11.9546 62.1697 11.8905 61.8879 11.7773 61.6323C13.5211 61.1662 14.7822 60.1851 15.0741 58.9838C17.5856 57.8875 18.911 55.8505 18.911 53.0632C18.911 50.5883 16.8395 46.2775 15.1448 44.5C15.1007 44.021 15.1589 42.2883 17.5944 39.3174C17.7814 39.0893 17.8201 38.7738 17.6939 38.5072C17.5678 38.2405 17.2992 38.0705 17.0043 38.0705H1.90649C1.61144 38.0705 1.34301 38.2405 1.21685 38.5072C1.09068 38.7738 1.12935 39.0893 1.31638 39.3174C3.7399 42.2735 3.80943 44.0033 3.76669 44.4924C2.07369 46.2631 0 50.582 0 53.0632C0 55.8508 1.32537 57.8879 3.83673 58.984C4.12856 60.1851 5.38966 61.1662 7.13337 61.6323C7.02009 61.8877 6.956 62.1697 6.956 62.4666C6.956 63.4936 7.70957 64.3455 8.69224 64.5044V65.5308C8.69224 68.5141 11.5039 70.9413 14.9599 70.9413C15.7462 70.9413 16.4986 70.8145 17.1927 70.5852C17.4009 70.5277 17.9027 70.318 17.9453 70.2873C19.8989 69.3701 21.2278 67.5818 21.2278 65.5308V62.3328C21.2278 59.4277 23.0936 57.46 26.7738 56.4786C27.3673 57.0651 28.2389 57.5299 29.2847 57.8094C29.1716 58.0647 29.1073 58.3466 29.1073 58.6435C29.1073 59.7832 30.0345 60.7104 31.1742 60.7104H32.0389C33.1785 60.7104 34.1058 59.7832 34.1058 58.6435C34.1058 58.3466 34.0417 58.0647 33.9284 57.8094C34.974 57.5299 35.8457 57.0651 36.4391 56.4786C40.1193 57.46 41.9851 59.4277 41.9851 62.3328V65.5308C41.9851 67.5818 43.314 69.3701 45.2676 70.2873C45.3102 70.318 45.8125 70.5277 46.0207 70.5854C46.7146 70.8145 47.4666 70.9413 48.2528 70.9413C51.7088 70.9413 54.5205 68.5141 54.5205 65.5308V64.5044C55.5031 64.3453 56.2567 63.4934 56.2567 62.4666C56.2567 62.1697 56.1925 61.8879 56.0794 61.6323C57.8231 61.1662 59.0842 60.1851 59.376 58.984C61.8875 57.8879 63.2129 55.851 63.2129 53.0634ZM13.6139 44.1049H12.3928C12.5554 41.4306 13.5439 40.0581 13.9557 39.5969H15.4688C14.0212 41.6811 13.6587 43.1908 13.6139 44.1049ZM12.1003 39.5969C11.5546 40.538 10.9796 42.0051 10.8648 44.1049H8.07347C7.95867 42.0051 7.38365 40.5378 6.83797 39.5969H12.1003ZM3.44196 39.5969H4.9793C5.38271 40.0584 6.37945 41.4545 6.54462 44.1049H5.29674C5.25214 43.1908 4.8896 41.6811 3.44196 39.5969ZM1.52614 53.0634C1.52614 51.0701 3.37583 47.1765 4.79023 45.6311H14.114C15.5311 47.1784 17.3846 51.0726 17.3846 53.0634C17.3846 55.3351 16.3528 56.8479 14.2313 57.684H4.67899C2.55782 56.848 1.52614 55.3351 1.52614 53.0634ZM13.2318 59.2102C12.5868 59.8588 11.179 60.3999 9.45531 60.3999C7.73179 60.3999 6.324 59.8588 5.67878 59.2102H13.2318ZM8.48231 62.4666C8.48231 62.1685 8.7248 61.926 9.0229 61.926H9.88755C10.1857 61.926 10.4281 62.1685 10.4281 62.4666C10.4281 62.7647 10.1857 63.0072 9.88755 63.0072H9.0229C8.7248 63.0072 8.48231 62.7647 8.48231 62.4666ZM35.765 40.2821H34.5165C34.6789 37.6078 35.6675 36.2353 36.0794 35.774H37.62C36.1722 37.8582 35.8096 39.3679 35.765 40.2821ZM30.1971 40.2821C30.0823 38.1823 29.5073 36.715 28.9616 35.774H34.224C33.6783 36.7152 33.1033 38.1823 32.9885 40.2821H30.1971ZM30.7625 33.4038V31.686C30.7625 31.2207 31.1411 30.842 31.6066 30.842C32.0719 30.842 32.4506 31.2207 32.4506 31.686V33.4038C32.4506 33.8691 32.0721 34.2477 31.6066 34.2477C31.1411 34.2477 30.7625 33.8691 30.7625 33.4038ZM30.7625 28.4719V26.7542C30.7625 26.2889 31.1411 25.9102 31.6066 25.9102C32.0719 25.9102 32.4506 26.2889 32.4506 26.7542V28.4719C32.4506 28.9373 32.0721 29.3159 31.6066 29.3159C31.1411 29.3159 30.7625 28.9373 30.7625 28.4719ZM30.7625 23.54V21.8222C30.7625 21.3569 31.1411 20.9782 31.6066 20.9782C32.0719 20.9782 32.4506 21.3569 32.4506 21.8222V23.54C32.4506 24.0053 32.0721 24.3839 31.6066 24.3839C31.1411 24.3839 30.7625 24.0053 30.7625 23.54ZM30.7625 18.6081V16.8904C30.7625 16.4251 31.1411 16.0464 31.6066 16.0464C32.0719 16.0464 32.4506 16.4251 32.4506 16.8904V18.6081C32.4506 19.0734 32.0721 19.4521 31.6066 19.4521C31.1411 19.4521 30.7625 19.0734 30.7625 18.6081ZM30.7625 13.6762V11.9584C30.7625 11.4931 31.1411 11.1144 31.6066 11.1144C32.0719 11.1144 32.4506 11.4931 32.4506 11.9584V13.6762C32.4506 14.1415 32.0721 14.5201 31.6066 14.5201C31.1411 14.5201 30.7625 14.1415 30.7625 13.6762ZM30.7625 8.74433V7.02657C30.7625 6.56127 31.1411 6.18261 31.6066 6.18261C32.0719 6.18261 32.4506 6.56127 32.4506 7.02657V8.74433C32.4506 9.20963 32.0721 9.58829 31.6066 9.58829C31.1411 9.58829 30.7625 9.20963 30.7625 8.74433ZM26.3558 1.87923H36.8571C36.31 3.44607 34.1273 4.6563 31.6064 4.6563C29.0856 4.6563 26.9029 3.44607 26.3558 1.87923ZM25.5931 35.7739H27.1031C27.5065 36.2354 28.5033 37.6315 28.6685 40.2819H27.4479C27.4033 39.3679 27.0407 37.8582 25.5931 35.7739ZM23.6773 49.2404C23.6773 47.2496 25.5307 43.3554 26.948 41.8081H36.2717C37.6861 43.3534 39.5358 47.2469 39.5358 49.2404C39.5358 51.5121 38.5041 53.0249 36.3829 53.861H26.8306C24.7091 53.0249 23.6773 51.5121 23.6773 49.2404ZM32.0389 58.1031C32.337 58.1031 32.5796 58.3455 32.5796 58.6437C32.5796 58.9418 32.3371 59.1844 32.0389 59.1844H31.1742C30.8761 59.1844 30.6334 58.9419 30.6334 58.6437C30.6334 58.3455 30.8759 58.1031 31.1742 58.1031H32.0389ZM31.6064 56.5769C29.8829 56.5769 28.4751 56.0358 27.8299 55.3872H35.3828C34.7379 56.0358 33.3301 56.5769 31.6064 56.5769ZM57.9162 44.1049H56.6676C56.83 41.4306 57.8186 40.0581 58.2305 39.5969H59.7711C58.3233 41.6811 57.9607 43.1908 57.9162 44.1049ZM56.3749 39.5969C55.8292 40.538 55.2542 42.0051 55.1394 44.1049H52.3483C52.2335 42.0051 51.6585 40.5378 51.1128 39.5969H56.3749ZM47.7441 39.5969H49.2541C49.6575 40.0584 50.6543 41.4545 50.8194 44.1049H49.5988C49.5544 43.1908 49.1919 41.6811 47.7441 39.5969ZM54.19 61.926C54.4881 61.926 54.7308 62.1685 54.7308 62.4666C54.7308 62.7647 54.4883 63.0072 54.19 63.0072H53.3253C53.0272 63.0072 52.7846 62.7647 52.7846 62.4666C52.7846 62.1685 53.0271 61.926 53.3253 61.926H54.19ZM53.7576 60.3999C52.0341 60.3999 50.6263 59.8588 49.9812 59.2102H57.5341C56.8891 59.8588 55.4811 60.3999 53.7576 60.3999ZM58.5339 57.684H48.9816C46.8601 56.8479 45.8282 55.335 45.8282 53.0634C45.8282 51.0726 47.6817 47.1784 49.0989 45.6311H58.4227C59.8371 47.1764 61.6867 51.0699 61.6867 53.0634C61.6867 55.3351 60.6551 56.848 58.5339 57.684Z" fill="url(#paint0_linear_19_6445)"/>
<defs>
<linearGradient id="paint0_linear_19_6445" x1="0" y1="0.35376" x2="67.0351" y2="64.1897" gradientUnits="userSpaceOnUse">
<stop stop-color="#2893F1"/>
<stop offset="1" stop-color="#D41BD3"/>
</linearGradient>
</defs>
</svg>
