<svg width="76" height="76" viewBox="0 0 76 76" fill="none" xmlns="http://www.w3.org/2000/svg">
<g clip-path="url(#clip0_19_6447)">
<path d="M37.8431 37.6462C38.9166 37.6462 39.9659 37.3279 40.8584 36.7315C41.751 36.1352 42.4466 35.2875 42.8574 34.2958C43.2682 33.304 43.3757 32.2127 43.1663 31.1599C42.9569 30.1071 42.4399 29.14 41.6809 28.381C40.9219 27.6219 39.9548 27.105 38.902 26.8956C37.8491 26.6862 36.7579 26.7937 35.7661 27.2045C34.7744 27.6152 33.9267 28.3109 33.3304 29.2034C32.734 30.096 32.4157 31.1453 32.4157 32.2188V1.21484H1.41174V74.0776H63.4196V37.6462H37.8431Z" stroke="url(#paint0_linear_19_6447)" stroke-width="1.98" stroke-linecap="round" stroke-linejoin="round"/>
<path d="M74.2745 32.2204C74.2745 32.9332 74.1341 33.6389 73.8614 34.2974C73.5886 34.9559 73.1888 35.5542 72.6848 36.0582C72.1809 36.5622 71.5825 36.962 70.9241 37.2347C70.2656 37.5075 69.5598 37.6479 68.8471 37.6479H37.8431C38.5727 37.6756 39.3004 37.5559 39.9826 37.2958C40.6648 37.0358 41.2876 36.6407 41.8136 36.1344C42.3396 35.628 42.758 35.0207 43.0438 34.3489C43.3296 33.677 43.4769 32.9544 43.4769 32.2243C43.4769 31.4942 43.3296 30.7716 43.0438 30.0998C42.758 29.4279 42.3396 28.8206 41.8136 28.3143C41.2876 27.8079 40.6648 27.4129 39.9826 27.1528C39.3004 26.8928 38.5727 26.773 37.8431 26.8008H68.8471C69.5594 26.7998 70.265 26.9392 70.9235 27.2111C71.5819 27.483 72.1803 27.882 72.6844 28.3854C73.1885 28.8887 73.5884 29.4866 73.8612 30.1446C74.1341 30.8026 74.2745 31.508 74.2745 32.2204Z" stroke="url(#paint1_linear_19_6447)" stroke-width="1.98" stroke-linecap="round" stroke-linejoin="round"/>
<path d="M32.4156 32.2204C32.4156 31.508 32.5561 30.8026 32.8289 30.1446C33.1018 29.4865 33.5017 28.8887 34.0058 28.3854C34.5099 27.882 35.1083 27.483 35.7667 27.2111C36.4251 26.9392 37.1307 26.7998 37.8431 26.8008" stroke="#3D85EE" stroke-width="1.98" stroke-linecap="round" stroke-linejoin="round"/>
<path d="M32.4156 46.9482V32.2188" stroke="url(#paint2_linear_19_6447)" stroke-width="1.98" stroke-linecap="round" stroke-linejoin="round"/>
<rect x="4.11755" y="6.27539" width="1.56863" height="1.56863" fill="url(#paint3_linear_19_6447)"/>
<rect x="4.11755" y="18.8242" width="1.56863" height="1.56863" fill="url(#paint4_linear_19_6447)"/>
<rect x="4.11755" y="31.373" width="1.56863" height="1.56863" fill="url(#paint5_linear_19_6447)"/>
<rect x="4.11755" y="43.9219" width="1.56863" height="1.56863" fill="url(#paint6_linear_19_6447)"/>
<rect x="4.11755" y="56.4707" width="1.56863" height="1.56863" fill="url(#paint7_linear_19_6447)"/>
<rect x="34.7058" y="56.4707" width="1.56863" height="1.56863" fill="url(#paint8_linear_19_6447)"/>
<rect x="34.7058" y="43.9219" width="1.56863" height="1.56863" fill="url(#paint9_linear_19_6447)"/>
<rect x="6.47058" y="9.41211" width="1.56863" height="1.56863" fill="url(#paint10_linear_19_6447)"/>
<rect x="6.47058" y="21.9607" width="1.56863" height="1.56863" fill="url(#paint11_linear_19_6447)"/>
<rect x="6.47058" y="34.5098" width="1.56863" height="1.56863" fill="url(#paint12_linear_19_6447)"/>
<rect x="6.47058" y="47.0588" width="1.56863" height="1.56863" fill="url(#paint13_linear_19_6447)"/>
<rect x="6.47058" y="59.6074" width="1.56863" height="1.56863" fill="url(#paint14_linear_19_6447)"/>
<rect x="37.0588" y="59.6074" width="1.56863" height="1.56863" fill="url(#paint15_linear_19_6447)"/>
<rect x="37.0588" y="47.0588" width="1.56863" height="1.56863" fill="url(#paint16_linear_19_6447)"/>
<rect x="10.3921" y="9.41211" width="1.56863" height="1.56863" fill="url(#paint17_linear_19_6447)"/>
<rect x="10.3921" y="21.9607" width="1.56863" height="1.56863" fill="url(#paint18_linear_19_6447)"/>
<rect x="10.3921" y="34.5098" width="1.56863" height="1.56863" fill="url(#paint19_linear_19_6447)"/>
<rect x="10.3921" y="47.0588" width="1.56863" height="1.56863" fill="url(#paint20_linear_19_6447)"/>
<rect x="10.3921" y="59.6074" width="1.56863" height="1.56863" fill="url(#paint21_linear_19_6447)"/>
<rect x="40.9803" y="59.6074" width="1.56863" height="1.56863" fill="url(#paint22_linear_19_6447)"/>
<rect x="40.9803" y="47.0588" width="1.56863" height="1.56863" fill="url(#paint23_linear_19_6447)"/>
<rect x="14.3137" y="9.41211" width="1.56863" height="1.56863" fill="url(#paint24_linear_19_6447)"/>
<rect x="14.3137" y="21.9607" width="1.56863" height="1.56863" fill="url(#paint25_linear_19_6447)"/>
<rect x="14.3137" y="34.5098" width="1.56863" height="1.56863" fill="url(#paint26_linear_19_6447)"/>
<rect x="14.3137" y="47.0588" width="1.56863" height="1.56863" fill="url(#paint27_linear_19_6447)"/>
<rect x="14.3137" y="59.6074" width="1.56863" height="1.56863" fill="url(#paint28_linear_19_6447)"/>
<rect x="44.902" y="59.6074" width="1.56863" height="1.56863" fill="url(#paint29_linear_19_6447)"/>
<rect x="44.902" y="47.0588" width="1.56863" height="1.56863" fill="url(#paint30_linear_19_6447)"/>
<rect x="18.2352" y="9.41211" width="1.56863" height="1.56863" fill="url(#paint31_linear_19_6447)"/>
<rect x="18.2352" y="21.9607" width="1.56863" height="1.56863" fill="url(#paint32_linear_19_6447)"/>
<rect x="18.2352" y="34.5098" width="1.56863" height="1.56863" fill="url(#paint33_linear_19_6447)"/>
<rect x="18.2352" y="47.0588" width="1.56863" height="1.56863" fill="url(#paint34_linear_19_6447)"/>
<rect x="18.2352" y="59.6074" width="1.56863" height="1.56863" fill="url(#paint35_linear_19_6447)"/>
<rect x="48.8235" y="59.6074" width="1.56863" height="1.56863" fill="url(#paint36_linear_19_6447)"/>
<rect x="48.8235" y="47.0588" width="1.56863" height="1.56863" fill="url(#paint37_linear_19_6447)"/>
<rect x="22.1569" y="9.41211" width="1.56863" height="1.56863" fill="url(#paint38_linear_19_6447)"/>
<rect x="22.1569" y="21.9607" width="1.56863" height="1.56863" fill="url(#paint39_linear_19_6447)"/>
<rect x="22.1569" y="34.5098" width="1.56863" height="1.56863" fill="url(#paint40_linear_19_6447)"/>
<rect x="22.1569" y="47.0588" width="1.56863" height="1.56863" fill="url(#paint41_linear_19_6447)"/>
<rect x="22.1569" y="59.6074" width="1.56863" height="1.56863" fill="url(#paint42_linear_19_6447)"/>
<rect x="52.7451" y="59.6074" width="1.56863" height="1.56863" fill="url(#paint43_linear_19_6447)"/>
<rect x="52.7451" y="47.0588" width="1.56863" height="1.56863" fill="url(#paint44_linear_19_6447)"/>
<rect x="26.0784" y="9.41211" width="1.56863" height="1.56863" fill="url(#paint45_linear_19_6447)"/>
<rect x="26.0784" y="21.9607" width="1.56863" height="1.56863" fill="url(#paint46_linear_19_6447)"/>
<rect x="26.0784" y="34.5098" width="1.56863" height="1.56863" fill="url(#paint47_linear_19_6447)"/>
<rect x="26.0784" y="47.0588" width="1.56863" height="1.56863" fill="url(#paint48_linear_19_6447)"/>
<rect x="26.0784" y="59.6074" width="1.56863" height="1.56863" fill="url(#paint49_linear_19_6447)"/>
<rect x="56.6666" y="59.6074" width="1.56863" height="1.56863" fill="url(#paint50_linear_19_6447)"/>
<rect x="56.6666" y="47.0588" width="1.56863" height="1.56863" fill="url(#paint51_linear_19_6447)"/>
<rect x="11.9607" y="6.27539" width="1.56863" height="1.56863" fill="url(#paint52_linear_19_6447)"/>
<rect x="11.9607" y="18.8242" width="1.56863" height="1.56863" fill="url(#paint53_linear_19_6447)"/>
<rect x="11.9607" y="31.373" width="1.56863" height="1.56863" fill="url(#paint54_linear_19_6447)"/>
<rect x="11.9607" y="43.9219" width="1.56863" height="1.56863" fill="url(#paint55_linear_19_6447)"/>
<rect x="11.9607" y="56.4707" width="1.56863" height="1.56863" fill="url(#paint56_linear_19_6447)"/>
<rect x="42.549" y="56.4707" width="1.56863" height="1.56863" fill="url(#paint57_linear_19_6447)"/>
<rect x="42.549" y="43.9219" width="1.56863" height="1.56863" fill="url(#paint58_linear_19_6447)"/>
<rect x="19.8038" y="6.27539" width="1.56863" height="1.56863" fill="url(#paint59_linear_19_6447)"/>
<rect x="19.8038" y="18.8242" width="1.56863" height="1.56863" fill="url(#paint60_linear_19_6447)"/>
<rect x="19.8038" y="31.373" width="1.56863" height="1.56863" fill="url(#paint61_linear_19_6447)"/>
<rect x="19.8038" y="43.9219" width="1.56863" height="1.56863" fill="url(#paint62_linear_19_6447)"/>
<rect x="19.8038" y="56.4707" width="1.56863" height="1.56863" fill="url(#paint63_linear_19_6447)"/>
<rect x="50.3921" y="56.4707" width="1.56863" height="1.56863" fill="url(#paint64_linear_19_6447)"/>
<rect x="50.3921" y="43.9219" width="1.56863" height="1.56863" fill="url(#paint65_linear_19_6447)"/>
<rect x="27.647" y="6.27539" width="1.56863" height="1.56863" fill="url(#paint66_linear_19_6447)"/>
<rect x="27.647" y="18.8242" width="1.56863" height="1.56863" fill="url(#paint67_linear_19_6447)"/>
<rect x="27.647" y="31.373" width="1.56863" height="1.56863" fill="url(#paint68_linear_19_6447)"/>
<rect x="27.647" y="43.9219" width="1.56863" height="1.56863" fill="url(#paint69_linear_19_6447)"/>
<rect x="27.647" y="56.4707" width="1.56863" height="1.56863" fill="url(#paint70_linear_19_6447)"/>
<rect x="58.2352" y="56.4707" width="1.56863" height="1.56863" fill="url(#paint71_linear_19_6447)"/>
<rect x="58.2352" y="43.9219" width="1.56863" height="1.56863" fill="url(#paint72_linear_19_6447)"/>
</g>
<defs>
<linearGradient id="paint0_linear_19_6447" x1="32.4157" y1="1.21484" x2="32.4157" y2="74.0776" gradientUnits="userSpaceOnUse">
<stop stop-color="#3B86EE"/>
<stop offset="1" stop-color="#A83ADB"/>
</linearGradient>
<linearGradient id="paint1_linear_19_6447" x1="56.0588" y1="26.7969" x2="56.0588" y2="37.6518" gradientUnits="userSpaceOnUse">
<stop stop-color="#3B86EE"/>
<stop offset="1" stop-color="#A83ADB"/>
</linearGradient>
<linearGradient id="paint2_linear_19_6447" x1="32.9156" y1="32.2188" x2="32.9156" y2="46.9482" gradientUnits="userSpaceOnUse">
<stop stop-color="#3B86EE"/>
<stop offset="1" stop-color="#A83ADB"/>
</linearGradient>
<linearGradient id="paint3_linear_19_6447" x1="4.11755" y1="6.27539" x2="5.68618" y2="7.84402" gradientUnits="userSpaceOnUse">
<stop stop-color="#2992F1"/>
<stop offset="1" stop-color="#D41BD3"/>
</linearGradient>
<linearGradient id="paint4_linear_19_6447" x1="4.11755" y1="18.8242" x2="5.68618" y2="20.3928" gradientUnits="userSpaceOnUse">
<stop stop-color="#2992F1"/>
<stop offset="1" stop-color="#D41BD3"/>
</linearGradient>
<linearGradient id="paint5_linear_19_6447" x1="4.11755" y1="31.373" x2="5.68618" y2="32.9417" gradientUnits="userSpaceOnUse">
<stop stop-color="#2992F1"/>
<stop offset="1" stop-color="#D41BD3"/>
</linearGradient>
<linearGradient id="paint6_linear_19_6447" x1="4.11755" y1="43.9219" x2="5.68618" y2="45.4905" gradientUnits="userSpaceOnUse">
<stop stop-color="#2992F1"/>
<stop offset="1" stop-color="#D41BD3"/>
</linearGradient>
<linearGradient id="paint7_linear_19_6447" x1="4.11755" y1="56.4707" x2="5.68618" y2="58.0393" gradientUnits="userSpaceOnUse">
<stop stop-color="#2992F1"/>
<stop offset="1" stop-color="#D41BD3"/>
</linearGradient>
<linearGradient id="paint8_linear_19_6447" x1="34.7058" y1="56.4707" x2="36.2744" y2="58.0393" gradientUnits="userSpaceOnUse">
<stop stop-color="#2992F1"/>
<stop offset="1" stop-color="#D41BD3"/>
</linearGradient>
<linearGradient id="paint9_linear_19_6447" x1="34.7058" y1="43.9219" x2="36.2744" y2="45.4905" gradientUnits="userSpaceOnUse">
<stop stop-color="#2992F1"/>
<stop offset="1" stop-color="#D41BD3"/>
</linearGradient>
<linearGradient id="paint10_linear_19_6447" x1="6.47058" y1="9.41211" x2="8.03921" y2="10.9807" gradientUnits="userSpaceOnUse">
<stop stop-color="#2992F1"/>
<stop offset="1" stop-color="#D41BD3"/>
</linearGradient>
<linearGradient id="paint11_linear_19_6447" x1="6.47058" y1="21.9607" x2="8.03921" y2="23.5293" gradientUnits="userSpaceOnUse">
<stop stop-color="#2992F1"/>
<stop offset="1" stop-color="#D41BD3"/>
</linearGradient>
<linearGradient id="paint12_linear_19_6447" x1="6.47058" y1="34.5098" x2="8.03921" y2="36.0784" gradientUnits="userSpaceOnUse">
<stop stop-color="#2992F1"/>
<stop offset="1" stop-color="#D41BD3"/>
</linearGradient>
<linearGradient id="paint13_linear_19_6447" x1="6.47058" y1="47.0588" x2="8.03921" y2="48.6275" gradientUnits="userSpaceOnUse">
<stop stop-color="#2992F1"/>
<stop offset="1" stop-color="#D41BD3"/>
</linearGradient>
<linearGradient id="paint14_linear_19_6447" x1="6.47058" y1="59.6074" x2="8.03921" y2="61.176" gradientUnits="userSpaceOnUse">
<stop stop-color="#2992F1"/>
<stop offset="1" stop-color="#D41BD3"/>
</linearGradient>
<linearGradient id="paint15_linear_19_6447" x1="37.0588" y1="59.6074" x2="38.6275" y2="61.176" gradientUnits="userSpaceOnUse">
<stop stop-color="#2992F1"/>
<stop offset="1" stop-color="#D41BD3"/>
</linearGradient>
<linearGradient id="paint16_linear_19_6447" x1="37.0588" y1="47.0588" x2="38.6275" y2="48.6275" gradientUnits="userSpaceOnUse">
<stop stop-color="#2992F1"/>
<stop offset="1" stop-color="#D41BD3"/>
</linearGradient>
<linearGradient id="paint17_linear_19_6447" x1="10.3921" y1="9.41211" x2="11.9607" y2="10.9807" gradientUnits="userSpaceOnUse">
<stop stop-color="#2992F1"/>
<stop offset="1" stop-color="#D41BD3"/>
</linearGradient>
<linearGradient id="paint18_linear_19_6447" x1="10.3921" y1="21.9607" x2="11.9607" y2="23.5293" gradientUnits="userSpaceOnUse">
<stop stop-color="#2992F1"/>
<stop offset="1" stop-color="#D41BD3"/>
</linearGradient>
<linearGradient id="paint19_linear_19_6447" x1="10.3921" y1="34.5098" x2="11.9607" y2="36.0784" gradientUnits="userSpaceOnUse">
<stop stop-color="#2992F1"/>
<stop offset="1" stop-color="#D41BD3"/>
</linearGradient>
<linearGradient id="paint20_linear_19_6447" x1="10.3921" y1="47.0588" x2="11.9607" y2="48.6275" gradientUnits="userSpaceOnUse">
<stop stop-color="#2992F1"/>
<stop offset="1" stop-color="#D41BD3"/>
</linearGradient>
<linearGradient id="paint21_linear_19_6447" x1="10.3921" y1="59.6074" x2="11.9607" y2="61.176" gradientUnits="userSpaceOnUse">
<stop stop-color="#2992F1"/>
<stop offset="1" stop-color="#D41BD3"/>
</linearGradient>
<linearGradient id="paint22_linear_19_6447" x1="40.9803" y1="59.6074" x2="42.549" y2="61.176" gradientUnits="userSpaceOnUse">
<stop stop-color="#2992F1"/>
<stop offset="1" stop-color="#D41BD3"/>
</linearGradient>
<linearGradient id="paint23_linear_19_6447" x1="40.9803" y1="47.0588" x2="42.549" y2="48.6275" gradientUnits="userSpaceOnUse">
<stop stop-color="#2992F1"/>
<stop offset="1" stop-color="#D41BD3"/>
</linearGradient>
<linearGradient id="paint24_linear_19_6447" x1="14.3137" y1="9.41211" x2="15.8823" y2="10.9807" gradientUnits="userSpaceOnUse">
<stop stop-color="#2992F1"/>
<stop offset="1" stop-color="#D41BD3"/>
</linearGradient>
<linearGradient id="paint25_linear_19_6447" x1="14.3137" y1="21.9607" x2="15.8823" y2="23.5293" gradientUnits="userSpaceOnUse">
<stop stop-color="#2992F1"/>
<stop offset="1" stop-color="#D41BD3"/>
</linearGradient>
<linearGradient id="paint26_linear_19_6447" x1="14.3137" y1="34.5098" x2="15.8823" y2="36.0784" gradientUnits="userSpaceOnUse">
<stop stop-color="#2992F1"/>
<stop offset="1" stop-color="#D41BD3"/>
</linearGradient>
<linearGradient id="paint27_linear_19_6447" x1="14.3137" y1="47.0588" x2="15.8823" y2="48.6275" gradientUnits="userSpaceOnUse">
<stop stop-color="#2992F1"/>
<stop offset="1" stop-color="#D41BD3"/>
</linearGradient>
<linearGradient id="paint28_linear_19_6447" x1="14.3137" y1="59.6074" x2="15.8823" y2="61.176" gradientUnits="userSpaceOnUse">
<stop stop-color="#2992F1"/>
<stop offset="1" stop-color="#D41BD3"/>
</linearGradient>
<linearGradient id="paint29_linear_19_6447" x1="44.902" y1="59.6074" x2="46.4706" y2="61.176" gradientUnits="userSpaceOnUse">
<stop stop-color="#2992F1"/>
<stop offset="1" stop-color="#D41BD3"/>
</linearGradient>
<linearGradient id="paint30_linear_19_6447" x1="44.902" y1="47.0588" x2="46.4706" y2="48.6275" gradientUnits="userSpaceOnUse">
<stop stop-color="#2992F1"/>
<stop offset="1" stop-color="#D41BD3"/>
</linearGradient>
<linearGradient id="paint31_linear_19_6447" x1="18.2352" y1="9.41211" x2="19.8039" y2="10.9807" gradientUnits="userSpaceOnUse">
<stop stop-color="#2992F1"/>
<stop offset="1" stop-color="#D41BD3"/>
</linearGradient>
<linearGradient id="paint32_linear_19_6447" x1="18.2352" y1="21.9607" x2="19.8039" y2="23.5293" gradientUnits="userSpaceOnUse">
<stop stop-color="#2992F1"/>
<stop offset="1" stop-color="#D41BD3"/>
</linearGradient>
<linearGradient id="paint33_linear_19_6447" x1="18.2352" y1="34.5098" x2="19.8039" y2="36.0784" gradientUnits="userSpaceOnUse">
<stop stop-color="#2992F1"/>
<stop offset="1" stop-color="#D41BD3"/>
</linearGradient>
<linearGradient id="paint34_linear_19_6447" x1="18.2352" y1="47.0588" x2="19.8039" y2="48.6275" gradientUnits="userSpaceOnUse">
<stop stop-color="#2992F1"/>
<stop offset="1" stop-color="#D41BD3"/>
</linearGradient>
<linearGradient id="paint35_linear_19_6447" x1="18.2352" y1="59.6074" x2="19.8039" y2="61.176" gradientUnits="userSpaceOnUse">
<stop stop-color="#2992F1"/>
<stop offset="1" stop-color="#D41BD3"/>
</linearGradient>
<linearGradient id="paint36_linear_19_6447" x1="48.8235" y1="59.6074" x2="50.3921" y2="61.176" gradientUnits="userSpaceOnUse">
<stop stop-color="#2992F1"/>
<stop offset="1" stop-color="#D41BD3"/>
</linearGradient>
<linearGradient id="paint37_linear_19_6447" x1="48.8235" y1="47.0588" x2="50.3921" y2="48.6275" gradientUnits="userSpaceOnUse">
<stop stop-color="#2992F1"/>
<stop offset="1" stop-color="#D41BD3"/>
</linearGradient>
<linearGradient id="paint38_linear_19_6447" x1="22.1569" y1="9.41211" x2="23.7255" y2="10.9807" gradientUnits="userSpaceOnUse">
<stop stop-color="#2992F1"/>
<stop offset="1" stop-color="#D41BD3"/>
</linearGradient>
<linearGradient id="paint39_linear_19_6447" x1="22.1569" y1="21.9607" x2="23.7255" y2="23.5293" gradientUnits="userSpaceOnUse">
<stop stop-color="#2992F1"/>
<stop offset="1" stop-color="#D41BD3"/>
</linearGradient>
<linearGradient id="paint40_linear_19_6447" x1="22.1569" y1="34.5098" x2="23.7255" y2="36.0784" gradientUnits="userSpaceOnUse">
<stop stop-color="#2992F1"/>
<stop offset="1" stop-color="#D41BD3"/>
</linearGradient>
<linearGradient id="paint41_linear_19_6447" x1="22.1569" y1="47.0588" x2="23.7255" y2="48.6275" gradientUnits="userSpaceOnUse">
<stop stop-color="#2992F1"/>
<stop offset="1" stop-color="#D41BD3"/>
</linearGradient>
<linearGradient id="paint42_linear_19_6447" x1="22.1569" y1="59.6074" x2="23.7255" y2="61.176" gradientUnits="userSpaceOnUse">
<stop stop-color="#2992F1"/>
<stop offset="1" stop-color="#D41BD3"/>
</linearGradient>
<linearGradient id="paint43_linear_19_6447" x1="52.7451" y1="59.6074" x2="54.3137" y2="61.176" gradientUnits="userSpaceOnUse">
<stop stop-color="#2992F1"/>
<stop offset="1" stop-color="#D41BD3"/>
</linearGradient>
<linearGradient id="paint44_linear_19_6447" x1="52.7451" y1="47.0588" x2="54.3137" y2="48.6275" gradientUnits="userSpaceOnUse">
<stop stop-color="#2992F1"/>
<stop offset="1" stop-color="#D41BD3"/>
</linearGradient>
<linearGradient id="paint45_linear_19_6447" x1="26.0784" y1="9.41211" x2="27.647" y2="10.9807" gradientUnits="userSpaceOnUse">
<stop stop-color="#2992F1"/>
<stop offset="1" stop-color="#D41BD3"/>
</linearGradient>
<linearGradient id="paint46_linear_19_6447" x1="26.0784" y1="21.9607" x2="27.647" y2="23.5293" gradientUnits="userSpaceOnUse">
<stop stop-color="#2992F1"/>
<stop offset="1" stop-color="#D41BD3"/>
</linearGradient>
<linearGradient id="paint47_linear_19_6447" x1="26.0784" y1="34.5098" x2="27.647" y2="36.0784" gradientUnits="userSpaceOnUse">
<stop stop-color="#2992F1"/>
<stop offset="1" stop-color="#D41BD3"/>
</linearGradient>
<linearGradient id="paint48_linear_19_6447" x1="26.0784" y1="47.0588" x2="27.647" y2="48.6275" gradientUnits="userSpaceOnUse">
<stop stop-color="#2992F1"/>
<stop offset="1" stop-color="#D41BD3"/>
</linearGradient>
<linearGradient id="paint49_linear_19_6447" x1="26.0784" y1="59.6074" x2="27.647" y2="61.176" gradientUnits="userSpaceOnUse">
<stop stop-color="#2992F1"/>
<stop offset="1" stop-color="#D41BD3"/>
</linearGradient>
<linearGradient id="paint50_linear_19_6447" x1="56.6666" y1="59.6074" x2="58.2353" y2="61.176" gradientUnits="userSpaceOnUse">
<stop stop-color="#2992F1"/>
<stop offset="1" stop-color="#D41BD3"/>
</linearGradient>
<linearGradient id="paint51_linear_19_6447" x1="56.6666" y1="47.0588" x2="58.2353" y2="48.6275" gradientUnits="userSpaceOnUse">
<stop stop-color="#2992F1"/>
<stop offset="1" stop-color="#D41BD3"/>
</linearGradient>
<linearGradient id="paint52_linear_19_6447" x1="11.9607" y1="6.27539" x2="13.5293" y2="7.84402" gradientUnits="userSpaceOnUse">
<stop stop-color="#2992F1"/>
<stop offset="1" stop-color="#D41BD3"/>
</linearGradient>
<linearGradient id="paint53_linear_19_6447" x1="11.9607" y1="18.8242" x2="13.5293" y2="20.3928" gradientUnits="userSpaceOnUse">
<stop stop-color="#2992F1"/>
<stop offset="1" stop-color="#D41BD3"/>
</linearGradient>
<linearGradient id="paint54_linear_19_6447" x1="11.9607" y1="31.373" x2="13.5293" y2="32.9417" gradientUnits="userSpaceOnUse">
<stop stop-color="#2992F1"/>
<stop offset="1" stop-color="#D41BD3"/>
</linearGradient>
<linearGradient id="paint55_linear_19_6447" x1="11.9607" y1="43.9219" x2="13.5293" y2="45.4905" gradientUnits="userSpaceOnUse">
<stop stop-color="#2992F1"/>
<stop offset="1" stop-color="#D41BD3"/>
</linearGradient>
<linearGradient id="paint56_linear_19_6447" x1="11.9607" y1="56.4707" x2="13.5293" y2="58.0393" gradientUnits="userSpaceOnUse">
<stop stop-color="#2992F1"/>
<stop offset="1" stop-color="#D41BD3"/>
</linearGradient>
<linearGradient id="paint57_linear_19_6447" x1="42.549" y1="56.4707" x2="44.1176" y2="58.0393" gradientUnits="userSpaceOnUse">
<stop stop-color="#2992F1"/>
<stop offset="1" stop-color="#D41BD3"/>
</linearGradient>
<linearGradient id="paint58_linear_19_6447" x1="42.549" y1="43.9219" x2="44.1176" y2="45.4905" gradientUnits="userSpaceOnUse">
<stop stop-color="#2992F1"/>
<stop offset="1" stop-color="#D41BD3"/>
</linearGradient>
<linearGradient id="paint59_linear_19_6447" x1="19.8038" y1="6.27539" x2="21.3725" y2="7.84402" gradientUnits="userSpaceOnUse">
<stop stop-color="#2992F1"/>
<stop offset="1" stop-color="#D41BD3"/>
</linearGradient>
<linearGradient id="paint60_linear_19_6447" x1="19.8038" y1="18.8242" x2="21.3725" y2="20.3928" gradientUnits="userSpaceOnUse">
<stop stop-color="#2992F1"/>
<stop offset="1" stop-color="#D41BD3"/>
</linearGradient>
<linearGradient id="paint61_linear_19_6447" x1="19.8038" y1="31.373" x2="21.3725" y2="32.9417" gradientUnits="userSpaceOnUse">
<stop stop-color="#2992F1"/>
<stop offset="1" stop-color="#D41BD3"/>
</linearGradient>
<linearGradient id="paint62_linear_19_6447" x1="19.8038" y1="43.9219" x2="21.3725" y2="45.4905" gradientUnits="userSpaceOnUse">
<stop stop-color="#2992F1"/>
<stop offset="1" stop-color="#D41BD3"/>
</linearGradient>
<linearGradient id="paint63_linear_19_6447" x1="19.8038" y1="56.4707" x2="21.3725" y2="58.0393" gradientUnits="userSpaceOnUse">
<stop stop-color="#2992F1"/>
<stop offset="1" stop-color="#D41BD3"/>
</linearGradient>
<linearGradient id="paint64_linear_19_6447" x1="50.3921" y1="56.4707" x2="51.9607" y2="58.0393" gradientUnits="userSpaceOnUse">
<stop stop-color="#2992F1"/>
<stop offset="1" stop-color="#D41BD3"/>
</linearGradient>
<linearGradient id="paint65_linear_19_6447" x1="50.3921" y1="43.9219" x2="51.9607" y2="45.4905" gradientUnits="userSpaceOnUse">
<stop stop-color="#2992F1"/>
<stop offset="1" stop-color="#D41BD3"/>
</linearGradient>
<linearGradient id="paint66_linear_19_6447" x1="27.647" y1="6.27539" x2="29.2156" y2="7.84402" gradientUnits="userSpaceOnUse">
<stop stop-color="#2992F1"/>
<stop offset="1" stop-color="#D41BD3"/>
</linearGradient>
<linearGradient id="paint67_linear_19_6447" x1="27.647" y1="18.8242" x2="29.2156" y2="20.3928" gradientUnits="userSpaceOnUse">
<stop stop-color="#2992F1"/>
<stop offset="1" stop-color="#D41BD3"/>
</linearGradient>
<linearGradient id="paint68_linear_19_6447" x1="27.647" y1="31.373" x2="29.2156" y2="32.9417" gradientUnits="userSpaceOnUse">
<stop stop-color="#2992F1"/>
<stop offset="1" stop-color="#D41BD3"/>
</linearGradient>
<linearGradient id="paint69_linear_19_6447" x1="27.647" y1="43.9219" x2="29.2156" y2="45.4905" gradientUnits="userSpaceOnUse">
<stop stop-color="#2992F1"/>
<stop offset="1" stop-color="#D41BD3"/>
</linearGradient>
<linearGradient id="paint70_linear_19_6447" x1="27.647" y1="56.4707" x2="29.2156" y2="58.0393" gradientUnits="userSpaceOnUse">
<stop stop-color="#2992F1"/>
<stop offset="1" stop-color="#D41BD3"/>
</linearGradient>
<linearGradient id="paint71_linear_19_6447" x1="58.2352" y1="56.4707" x2="59.8039" y2="58.0393" gradientUnits="userSpaceOnUse">
<stop stop-color="#2992F1"/>
<stop offset="1" stop-color="#D41BD3"/>
</linearGradient>
<linearGradient id="paint72_linear_19_6447" x1="58.2352" y1="43.9219" x2="59.8039" y2="45.4905" gradientUnits="userSpaceOnUse">
<stop stop-color="#2992F1"/>
<stop offset="1" stop-color="#D41BD3"/>
</linearGradient>
<clipPath id="clip0_19_6447">
<rect width="75.2941" height="75.2941" fill="white" transform="translate(0.196045)"/>
</clipPath>
</defs>
</svg>
