<svg width="89" height="64" viewBox="0 0 89 64" fill="none" xmlns="http://www.w3.org/2000/svg">
<path d="M41.9255 34.4082V35.0043C41.9255 36.4386 42.9546 37.6447 44.3098 37.9241V45.1935C42.624 45.4776 41.3294 46.9491 41.3294 48.7141C41.3294 50.4744 42.617 51.9436 44.2981 52.2347C44.1724 54.5957 42.2328 56.4631 39.8392 56.4631C37.4456 56.4631 35.506 54.5957 35.3826 52.2347C37.0614 51.9436 38.349 50.4744 38.349 48.7141C38.349 46.7466 36.74 45.1376 34.7725 45.1376C32.805 45.1376 31.196 46.7466 31.196 48.7141C31.196 50.4837 32.4976 51.9576 34.1904 52.237C34.3185 55.243 36.8029 57.6553 39.8392 57.6553C42.0558 57.6553 43.9768 56.3676 44.9058 54.5049C45.8349 56.3676 47.7558 57.6553 49.9725 57.6553C53.0088 57.6553 55.4932 55.243 55.6236 52.237C57.3141 51.9576 58.6157 50.4837 58.6157 48.7141C58.6157 46.7466 57.0067 45.1376 55.0392 45.1376C53.0717 45.1376 51.4627 46.7466 51.4627 48.7141C51.4627 50.4744 52.7503 51.9436 54.4315 52.2347C54.3057 54.5957 52.3661 56.4631 49.9725 56.4631C47.5789 56.4631 45.6393 54.5957 45.5136 52.2347C47.1947 51.9436 48.4823 50.4744 48.4823 48.7141C48.4823 46.9491 47.1877 45.4776 45.5019 45.1935V37.9241C46.8571 37.6447 47.8862 36.4386 47.8862 35.0043V34.4082H41.9255ZM43.3621 35.6004H46.4496C46.1888 36.264 45.6672 36.7925 44.9058 36.7925C44.1445 36.7925 43.6229 36.264 43.3621 35.6004ZM34.7725 46.3298C36.0974 46.3298 37.1568 47.3892 37.1568 48.7141C37.1568 50.039 36.0974 51.0984 34.7725 51.0984C33.4476 51.0984 32.3882 50.039 32.3882 48.7141C32.3882 47.3892 33.4476 46.3298 34.7725 46.3298ZM44.9058 46.3298C46.2307 46.3298 47.2902 47.3892 47.2902 48.7141C47.2902 50.039 46.2307 51.0984 44.9058 51.0984C43.581 51.0984 42.5215 50.039 42.5215 48.7141C42.5215 47.3892 43.581 46.3298 44.9058 46.3298ZM55.0392 46.3298C56.3641 46.3298 57.4235 47.3892 57.4235 48.7141C57.4235 50.039 56.3641 51.0984 55.0392 51.0984C53.7143 51.0984 52.6549 50.039 52.6549 48.7141C52.6549 47.3892 53.7143 46.3298 55.0392 46.3298ZM44.9058 57.0592C43.5949 57.0592 42.5215 58.1326 42.5215 59.4435C42.5215 60.7544 43.5949 61.8278 44.9058 61.8278C46.2168 61.8278 47.2902 60.7544 47.2902 59.4435C47.2902 58.1326 46.2168 57.0592 44.9058 57.0592ZM44.9058 58.2513C45.5718 58.2513 46.098 58.7776 46.098 59.4435C46.098 60.1094 45.5718 60.6357 44.9058 60.6357C44.2399 60.6357 43.7137 60.1094 43.7137 59.4435C43.7137 58.7776 44.2399 58.2513 44.9058 58.2513Z" fill="url(#paint0_linear_19_6538)"/>
<path d="M19.2999 26.7458L1.40925 11.2557" stroke="#D11ED3" stroke-width="2" stroke-linecap="round"/>
<path d="M19.2999 26.7458L1.40925 11.2557" stroke="url(#paint1_linear_19_6538)" stroke-width="2" stroke-linecap="round"/>
<path d="M70.0718 26.7458L87.8019 11.2557" stroke="#D11ED3" stroke-width="2" stroke-linecap="round"/>
<path d="M70.0718 26.7458L87.8019 11.2557" stroke="url(#paint2_linear_19_6538)" stroke-width="2" stroke-linecap="round"/>
<rect x="1.76465" y="1.27539" width="85.8431" height="9.76471" stroke="url(#paint3_linear_19_6538)" stroke-width="2"/>
<path d="M19.2999 27.2361H70.0716" stroke="#D11ED3" stroke-width="2" stroke-linecap="round"/>
<path d="M19.2999 27.2361H70.0716" stroke="url(#paint4_linear_19_6538)" stroke-width="2" stroke-linecap="round"/>
<path d="M43.9279 34.0016C43.9279 34.5539 44.3756 35.0016 44.9279 35.0016C45.4801 35.0016 45.9279 34.5539 45.9279 34.0016L43.9279 34.0016ZM43.9279 19.0996L43.9279 34.0016L45.9279 34.0016L45.9279 19.0996L43.9279 19.0996Z" fill="#D11ED3"/>
<line x1="40.9802" y1="18.0996" x2="49.1763" y2="18.0996" stroke="#D11ED3" stroke-width="2" stroke-linecap="round"/>
<line x1="40.9802" y1="18.0996" x2="49.1763" y2="18.0996" stroke="url(#paint5_linear_19_6538)" stroke-width="2" stroke-linecap="round"/>
<defs>
<linearGradient id="paint0_linear_19_6538" x1="31.196" y1="34.4082" x2="62.5883" y2="56.0536" gradientUnits="userSpaceOnUse">
<stop stop-color="#2A92F1"/>
<stop offset="1" stop-color="#D41BD3"/>
</linearGradient>
<linearGradient id="paint1_linear_19_6538" x1="19.2158" y1="26.8897" x2="3.82028" y2="8.77279" gradientUnits="userSpaceOnUse">
<stop stop-color="#2D90F0"/>
<stop offset="1" stop-color="#CF1FD4"/>
</linearGradient>
<linearGradient id="paint2_linear_19_6538" x1="69.987" y1="26.6023" x2="90.5931" y2="21.687" gradientUnits="userSpaceOnUse">
<stop stop-color="#CF1FD4"/>
<stop offset="1" stop-color="#2D90F0"/>
</linearGradient>
<linearGradient id="paint3_linear_19_6538" x1="0.764645" y1="-1.68536" x2="89.0725" y2="7.63821" gradientUnits="userSpaceOnUse">
<stop stop-color="#2D90F0"/>
<stop offset="1" stop-color="#CF1FD4"/>
</linearGradient>
<linearGradient id="paint4_linear_19_6538" x1="19.2999" y1="27.0694" x2="53.3562" y2="51.5192" gradientUnits="userSpaceOnUse">
<stop stop-color="#2D90F0"/>
<stop offset="1" stop-color="#CF1FD4"/>
</linearGradient>
<linearGradient id="paint5_linear_19_6538" x1="39.9802" y1="18.9329" x2="50.1335" y2="20.3968" gradientUnits="userSpaceOnUse">
<stop stop-color="#2D90F0"/>
<stop offset="1" stop-color="#CF1FD4"/>
</linearGradient>
</defs>
</svg>
