<svg width="75" height="74" viewBox="0 0 75 74" fill="none" xmlns="http://www.w3.org/2000/svg">
<path d="M5.35566 69.7598L69.3425 69.7598L69.3425 1.20186L5.35566 1.20186L5.35566 69.7598Z" stroke="url(#paint0_linear_19_6611)" stroke-width="1.98" stroke-linecap="round" stroke-linejoin="round"/>
<path d="M5.36332 69.7598H37.3529L37.3529 1.20186H5.36332L5.36332 69.7598Z" stroke="url(#paint1_linear_19_6611)" stroke-width="1.98" stroke-linecap="round" stroke-linejoin="round"/>
<path d="M8.40811 66.707H34.3081L34.3081 4.24641H8.40811L8.40811 66.707Z" stroke="url(#paint2_linear_19_6611)" stroke-width="1.98" stroke-linecap="round" stroke-linejoin="round"/>
<path d="M64.7792 5.76587H41.924V65.1817H64.7792V5.76587Z" stroke="url(#paint3_linear_19_6611)" stroke-width="1.98" stroke-linecap="round" stroke-linejoin="round"/>
<path d="M69.3425 69.752H63.2529L64.7792 72.7967H69.3425V69.752Z" stroke="url(#paint4_linear_19_6611)" stroke-width="1.98" stroke-linecap="round" stroke-linejoin="round"/>
<path d="M5.36328 69.752H11.4529L9.93432 72.7967H5.36328V69.752Z" stroke="url(#paint5_linear_19_6611)" stroke-width="1.98" stroke-linecap="round" stroke-linejoin="round"/>
<path d="M39.6345 32.4297V38.527" stroke="url(#paint6_linear_19_6611)" stroke-width="1.98" stroke-linecap="round" stroke-linejoin="round"/>
<path d="M8.40811 66.707H34.3081V57.5649H8.40811V66.707Z" stroke="url(#paint7_linear_19_6611)" stroke-width="1.98" stroke-linecap="round" stroke-linejoin="round"/>
<path d="M8.40811 57.5664H34.3081V48.4243H8.40811V57.5664Z" stroke="url(#paint8_linear_19_6611)" stroke-width="1.98" stroke-linecap="round" stroke-linejoin="round"/>
<path d="M22.8767 51.4766H19.8319" stroke="url(#paint9_linear_19_6611)" stroke-width="1.98" stroke-linecap="round" stroke-linejoin="round"/>
<path d="M8.40811 48.4315H34.3081V39.2894H8.40811V48.4315Z" stroke="url(#paint10_linear_19_6611)" stroke-width="1.98" stroke-linecap="round" stroke-linejoin="round"/>
<path d="M22.8767 42.3341H19.8319" stroke="url(#paint11_linear_19_6611)" stroke-width="1.98" stroke-linecap="round" stroke-linejoin="round"/>
<path d="M22.8767 60.6113H19.8319" stroke="url(#paint12_linear_19_6611)" stroke-width="1.98" stroke-linecap="round" stroke-linejoin="round"/>
<path d="M17.5502 21.0058L22.1212 24.0506V35.4743H34.3081V9.58203H26.6845L20.595 11.8637L17.5502 21.0058Z" stroke="url(#paint13_linear_19_6611)" stroke-width="1.98" stroke-linecap="round" stroke-linejoin="round"/>
<path d="M22.1212 17.1973V24.05" stroke="url(#paint14_linear_19_6611)" stroke-width="1.98" stroke-linecap="round" stroke-linejoin="round"/>
<path d="M30.5002 4.24805V9.57451" stroke="url(#paint15_linear_19_6611)" stroke-width="1.98" stroke-linecap="round" stroke-linejoin="round"/>
<path d="M26.6923 9.57422C26.6923 11.2623 28.3958 12.6576 30.5002 12.6576C32.6046 12.6576 34.3081 11.2932 34.3081 9.57422H26.6923Z" stroke="url(#paint16_linear_19_6611)" stroke-width="1.98" stroke-linecap="round" stroke-linejoin="round"/>
<path d="M25.166 10.1524V9.58203H17.5502L11.4529 11.8637L8.40808 21.0058L12.9791 24.0506V35.4743H22.1212H25.166" stroke="url(#paint17_linear_19_6611)" stroke-width="1.98" stroke-linecap="round" stroke-linejoin="round"/>
<path d="M12.9791 17.1973V24.05" stroke="url(#paint18_linear_19_6611)" stroke-width="1.98" stroke-linecap="round" stroke-linejoin="round"/>
<path d="M25.0889 10.1832C25.1416 9.98452 25.1675 9.77973 25.166 9.57422H17.5502C17.5502 10.9848 18.7527 12.1719 20.3714 12.5188" stroke="url(#paint19_linear_19_6611)" stroke-width="1.98" stroke-linecap="round" stroke-linejoin="round"/>
<path d="M21.3582 4.24805V9.57451" stroke="url(#paint20_linear_19_6611)" stroke-width="1.98" stroke-linecap="round" stroke-linejoin="round"/>
<defs>
<linearGradient id="paint0_linear_19_6611" x1="37.3491" y1="69.7598" x2="37.3491" y2="1.20186" gradientUnits="userSpaceOnUse">
<stop stop-color="#3B86EE"/>
<stop offset="1" stop-color="#A83ADB"/>
</linearGradient>
<linearGradient id="paint1_linear_19_6611" x1="21.3581" y1="69.7598" x2="21.3581" y2="1.20186" gradientUnits="userSpaceOnUse">
<stop stop-color="#3B86EE"/>
<stop offset="1" stop-color="#A83ADB"/>
</linearGradient>
<linearGradient id="paint2_linear_19_6611" x1="21.3581" y1="66.707" x2="21.3581" y2="4.24641" gradientUnits="userSpaceOnUse">
<stop stop-color="#3B86EE"/>
<stop offset="1" stop-color="#A83ADB"/>
</linearGradient>
<linearGradient id="paint3_linear_19_6611" x1="53.3516" y1="5.76587" x2="53.3516" y2="65.1817" gradientUnits="userSpaceOnUse">
<stop stop-color="#3B86EE"/>
<stop offset="1" stop-color="#A83ADB"/>
</linearGradient>
<linearGradient id="paint4_linear_19_6611" x1="66.2977" y1="69.752" x2="66.2977" y2="72.7967" gradientUnits="userSpaceOnUse">
<stop stop-color="#3B86EE"/>
<stop offset="1" stop-color="#A83ADB"/>
</linearGradient>
<linearGradient id="paint5_linear_19_6611" x1="8.40807" y1="69.752" x2="8.40807" y2="72.7967" gradientUnits="userSpaceOnUse">
<stop stop-color="#3B86EE"/>
<stop offset="1" stop-color="#A83ADB"/>
</linearGradient>
<linearGradient id="paint6_linear_19_6611" x1="40.1345" y1="32.4297" x2="40.1345" y2="38.527" gradientUnits="userSpaceOnUse">
<stop stop-color="#3B86EE"/>
<stop offset="1" stop-color="#A83ADB"/>
</linearGradient>
<linearGradient id="paint7_linear_19_6611" x1="21.3581" y1="66.707" x2="21.3581" y2="57.5649" gradientUnits="userSpaceOnUse">
<stop stop-color="#3B86EE"/>
<stop offset="1" stop-color="#A83ADB"/>
</linearGradient>
<linearGradient id="paint8_linear_19_6611" x1="21.3581" y1="57.5664" x2="21.3581" y2="48.4243" gradientUnits="userSpaceOnUse">
<stop stop-color="#3B86EE"/>
<stop offset="1" stop-color="#A83ADB"/>
</linearGradient>
<linearGradient id="paint9_linear_19_6611" x1="21.3543" y1="51.4766" x2="21.3543" y2="52.4766" gradientUnits="userSpaceOnUse">
<stop stop-color="#3B86EE"/>
<stop offset="1" stop-color="#A83ADB"/>
</linearGradient>
<linearGradient id="paint10_linear_19_6611" x1="21.3581" y1="48.4315" x2="21.3581" y2="39.2894" gradientUnits="userSpaceOnUse">
<stop stop-color="#3B86EE"/>
<stop offset="1" stop-color="#A83ADB"/>
</linearGradient>
<linearGradient id="paint11_linear_19_6611" x1="21.3543" y1="42.3341" x2="21.3543" y2="43.3341" gradientUnits="userSpaceOnUse">
<stop stop-color="#3B86EE"/>
<stop offset="1" stop-color="#A83ADB"/>
</linearGradient>
<linearGradient id="paint12_linear_19_6611" x1="21.3543" y1="60.6113" x2="21.3543" y2="61.6113" gradientUnits="userSpaceOnUse">
<stop stop-color="#3B86EE"/>
<stop offset="1" stop-color="#A83ADB"/>
</linearGradient>
<linearGradient id="paint13_linear_19_6611" x1="25.9291" y1="9.58203" x2="25.9291" y2="35.4743" gradientUnits="userSpaceOnUse">
<stop stop-color="#3B86EE"/>
<stop offset="1" stop-color="#A83ADB"/>
</linearGradient>
<linearGradient id="paint14_linear_19_6611" x1="22.6212" y1="17.1973" x2="22.6212" y2="24.05" gradientUnits="userSpaceOnUse">
<stop stop-color="#3B86EE"/>
<stop offset="1" stop-color="#A83ADB"/>
</linearGradient>
<linearGradient id="paint15_linear_19_6611" x1="31.0002" y1="4.24805" x2="31.0002" y2="9.57451" gradientUnits="userSpaceOnUse">
<stop stop-color="#3B86EE"/>
<stop offset="1" stop-color="#A83ADB"/>
</linearGradient>
<linearGradient id="paint16_linear_19_6611" x1="30.5002" y1="9.57422" x2="30.5002" y2="12.6576" gradientUnits="userSpaceOnUse">
<stop stop-color="#3B86EE"/>
<stop offset="1" stop-color="#A83ADB"/>
</linearGradient>
<linearGradient id="paint17_linear_19_6611" x1="16.787" y1="9.58203" x2="16.787" y2="35.4743" gradientUnits="userSpaceOnUse">
<stop stop-color="#3B86EE"/>
<stop offset="1" stop-color="#A83ADB"/>
</linearGradient>
<linearGradient id="paint18_linear_19_6611" x1="13.4791" y1="17.1973" x2="13.4791" y2="24.05" gradientUnits="userSpaceOnUse">
<stop stop-color="#3B86EE"/>
<stop offset="1" stop-color="#A83ADB"/>
</linearGradient>
<linearGradient id="paint19_linear_19_6611" x1="21.3581" y1="9.57422" x2="21.3581" y2="12.5188" gradientUnits="userSpaceOnUse">
<stop stop-color="#3B86EE"/>
<stop offset="1" stop-color="#A83ADB"/>
</linearGradient>
<linearGradient id="paint20_linear_19_6611" x1="21.8582" y1="4.24805" x2="21.8582" y2="9.57451" gradientUnits="userSpaceOnUse">
<stop stop-color="#3B86EE"/>
<stop offset="1" stop-color="#A83ADB"/>
</linearGradient>
</defs>
</svg>
