<svg width="1193" height="585" viewBox="0 0 1193 585" fill="none" xmlns="http://www.w3.org/2000/svg">
<g clip-path="url(#clip0_187_5722)">
<path d="M408.407 247.377C408.165 248.581 408.175 249.822 408.435 251.023C408.695 252.223 409.201 253.357 409.92 254.352C409.92 254.352 417.638 247.377 418.924 247.377L415.58 241.324L408.407 247.377Z" stroke="black" stroke-miterlimit="10"/>
<path d="M397.845 257.243C397.845 257.243 357.912 210.334 356.626 192.584C356.626 192.584 349.166 193.931 346.578 190.844C343.991 187.757 337.499 181.371 335.774 180.69C335.774 180.69 335.517 177.861 338.604 178.693C342.315 179.871 345.738 181.815 348.652 184.398C348.652 184.398 352.253 177.967 348.909 173.805C345.565 169.644 345.035 171.354 344.778 165.74C344.778 165.74 341.751 162.714 339.118 159.884C339.118 159.884 358.684 160.141 361.272 188.998C361.272 188.998 390.885 223.499 396.816 232.26C402.748 241.021 406.849 238.706 406.849 238.706L397.845 257.243Z" fill="#F5F6F8" stroke="black" stroke-miterlimit="10"/>
<path d="M390.612 254.352C390.612 254.352 404.306 245.954 405.593 243.003C406.879 240.053 416.639 266.322 416.639 266.322L406.047 278.942C406.047 278.942 389.507 261.979 390.612 254.352Z" fill="#6498FD" stroke="black" stroke-miterlimit="10"/>
<path d="M394.486 209.002C394.486 209.002 387.586 206.384 392.126 224.422C392.126 224.422 392.126 229.733 391.747 233.728C391.369 237.723 392.64 243.639 401.522 245.319C403.023 245.577 404.426 246.235 405.584 247.222C406.742 248.21 407.613 249.492 408.105 250.933C408.105 250.933 414.415 243.261 416.73 243.367C419.045 243.473 416.73 212.452 416.73 212.452L394.486 209.002Z" fill="#F5F6F8" stroke="black" stroke-miterlimit="10"/>
<path d="M407.878 249.677L417.608 243.155L419.333 246.015C419.333 246.015 409.875 252.915 408.362 252.627L407.878 249.677Z" fill="#F5F6F8" stroke="black" stroke-miterlimit="10"/>
<path d="M390.052 449.115C390.052 449.115 403.187 540.104 390.052 552.845C376.918 565.586 392.685 565.601 392.685 565.601L411.298 554.388L414.324 463.597L399.54 445.332L390.052 449.115Z" fill="#F5F7F6" stroke="black" stroke-miterlimit="10"/>
<path d="M403.989 446.603C403.989 446.603 411.721 540.875 407.469 548.214C403.217 555.553 401.28 557.218 401.28 557.218L415.065 559.412L418.289 557.218C422.767 542.982 425.664 528.296 426.929 513.426C427.731 502.546 428.442 491.061 428.624 480.862C428.987 464.474 423.691 451.355 420.543 449.085C411.207 442.472 403.989 446.603 403.989 446.603Z" fill="#F5F7F6" stroke="black" stroke-miterlimit="10"/>
<path d="M410.465 251.492C410.465 251.492 415.232 267.729 403.641 276.218C392.05 284.707 380.58 297.07 395.258 312.535C395.258 312.535 402.476 320.736 403.247 323.823C404.019 326.91 390.612 343.57 390.612 343.57C390.612 343.57 395.243 364.952 390.234 375.12C385.225 385.289 371.546 432.622 371.546 432.622C371.546 432.622 362.285 455.319 386.239 460.298C410.193 465.276 426.929 451.673 436.462 453.609C445.995 455.546 449.717 451.809 449.717 451.809C449.717 451.809 446.782 404.022 454.893 384.351C454.893 384.351 460.431 368.114 438.792 332.448L435.766 329.876L438.474 326.002C438.474 326.002 443.241 279.26 439.988 266.503C436.734 253.747 421.315 243.079 421.315 243.079L410.465 251.492Z" fill="#0F56FE" stroke="black" stroke-miterlimit="10"/>
<path d="M390.113 210.152C390.113 210.152 394.743 183.505 424.916 195.868C424.916 195.868 433.027 202.813 436.507 210.152C439.987 217.491 443.846 229.733 440.759 240.416C437.672 251.099 449.626 255.729 449.626 255.729C449.626 255.729 444.996 261.918 455.422 271.951C465.848 281.983 448.461 292.439 462.761 304.409C462.761 304.409 454.257 305.756 458.131 316.091C458.131 316.091 431.075 296.313 436.099 273.721C441.879 247.815 414.475 257.606 411.766 233.652C411.766 233.652 412.145 223.211 410.253 221.41C408.362 219.61 405.35 216.523 401.749 217.93C401.749 217.93 402.4 211.105 399.948 211.499C397.497 211.892 398.269 213.693 396.468 214.525C394.667 215.357 389.598 215.055 390.113 210.152Z" fill="black"/>
<path d="M358.941 580.476C358.941 580.476 355.657 574.68 368.792 570.625C381.926 566.569 389.462 551.301 389.462 551.301C389.462 551.301 398.345 556.128 403.368 553.42C403.368 553.42 406.274 578.145 403.368 580.476C400.463 582.806 392.352 572.38 392.352 572.38C392.352 572.38 385.982 584.334 358.941 580.476Z" fill="#0F56FE" stroke="black" stroke-miterlimit="10"/>
<path d="M375.631 580.476C375.631 580.476 372.348 574.68 385.482 570.625C398.617 566.569 406.153 551.301 406.153 551.301C406.153 551.301 415.035 556.128 420.059 553.42C420.059 553.42 422.949 578.145 420.059 580.476C417.169 582.806 409.043 572.38 409.043 572.38C409.043 572.38 402.718 584.334 375.631 580.476Z" fill="#0F56FE" stroke="black" stroke-miterlimit="10"/>
<path d="M404.231 327.319L438.58 325.926V334.309C438.58 334.309 404.322 336.882 400.978 334.309L404.231 327.319Z" fill="#F5F6F8" stroke="black" stroke-miterlimit="10"/>
<path d="M404.412 300.823C404.412 300.823 384.741 331.525 384.105 337.139C384.105 337.139 372.968 348.821 360.439 362.198C352.782 370.369 342.568 379.176 340.026 386.409L316.466 387.377C316.466 387.377 308.794 391.811 309.52 395.261L345.035 397.44C345.035 397.44 387.919 356.493 391.792 351.045C395.666 345.598 414.384 320.267 415.58 306.996L404.412 300.823Z" fill="#F5F6F8" stroke="black" stroke-miterlimit="10"/>
<path d="M397.845 303.395L413.598 320.191C413.598 320.191 429.002 297.206 429.516 285.63C430.031 274.054 419.242 268.365 412.659 275.84C406.077 283.315 397.845 303.395 397.845 303.395Z" fill="#6498FD" stroke="black" stroke-miterlimit="10"/>
<path d="M296.809 168.691H208.439V397.485H296.809V168.691Z" fill="#666666"/>
<path d="M328.98 0.756592H91.7568V71.8463H328.98V0.756592Z" fill="#CBCBCB" stroke="black"/>
<path d="M328.98 71.8463H91.7568V142.936H328.98V71.8463Z" fill="#CBCBCB" stroke="black"/>
<path d="M328.98 142.936H91.7568V159.929H328.98V142.936Z" fill="#CBCBCB" stroke="black"/>
<path d="M208.439 336.488V159.929H91.7568L91.7568 336.488H208.439Z" fill="#CBCBCB" stroke="black"/>
<path d="M208.439 417.172V336.489H91.7567V417.172H208.439Z" fill="#CBCBCB" stroke="black"/>
<path d="M208.424 559.82V417.187H91.7416L91.7416 559.82H208.424Z" fill="#CBCBCB" stroke="black"/>
<path d="M332.944 584.228V560.501H91.7718V584.228H332.944Z" fill="#CBCBCB" stroke="black"/>
<path d="M325.106 559.805V486.007H208.424V559.805H325.106Z" fill="#CBCBCB" stroke="black"/>
<path d="M332.929 559.79V412.209H325.106V559.79H332.929Z" fill="#CBCBCB" stroke="black"/>
<path d="M325.121 486.022V412.224H208.439V486.022H325.121Z" fill="#CBCBCB" stroke="black"/>
<path d="M337.575 412.209V398.302H208.439V412.209H337.575Z" fill="#CBCBCB" stroke="black"/>
<path d="M325.469 159.929H208.439V168.691H325.469V159.929Z" fill="#CBCBCB" stroke="black"/>
<path d="M225.145 389.435V178.693H217.155V389.435H225.145Z" fill="#CBCBCB" stroke="black"/>
<path d="M217.155 225.405V206.415H208.424V225.405H217.155Z" fill="#CBCBCB" stroke="black"/>
<path d="M217.155 357.023V338.032H208.424V357.023H217.155Z" fill="#CBCBCB" stroke="black"/>
<path d="M247.192 155.677C247.192 155.677 261.098 161.987 249.522 168.691V174.35" stroke="#020202" stroke-linecap="round"/>
<path d="M293.329 156.449C293.329 156.449 307.235 162.759 295.644 169.462V175.122" stroke="#020202" stroke-linecap="round"/>
<path d="M249.356 173.911C249.16 173.908 248.967 173.947 248.787 174.023C248.607 174.099 248.445 174.212 248.311 174.354C248.177 174.497 248.075 174.665 248.01 174.85C247.944 175.034 247.918 175.23 247.933 175.424V181.296L245.104 183.217C245.104 183.217 248.902 190.556 253.275 183.732L251.292 181.477L251.414 175.243C251.414 175.243 251.474 173.518 249.356 173.911Z" fill="#FFFEFF" stroke="#020202" stroke-miterlimit="10"/>
<path d="M295.568 173.911C295.373 173.908 295.179 173.947 295 174.023C294.82 174.099 294.658 174.212 294.524 174.354C294.39 174.497 294.287 174.665 294.222 174.85C294.157 175.034 294.131 175.23 294.146 175.424V181.296L291.316 183.217C291.316 183.217 295.115 190.556 299.488 183.732L297.49 181.477L297.626 175.243C297.626 175.243 297.687 173.518 295.568 173.911Z" fill="#FFFEFA" stroke="#020202" stroke-miterlimit="10"/>
<path d="M238.4 240.446C238.4 240.446 227.339 249.979 231.576 257.712C234.147 262.437 235.645 267.671 235.964 273.04C235.964 273.04 227.52 290.034 234.451 299.052C241.381 308.071 262.233 307.178 262.233 307.178C262.233 307.178 272.023 307.299 269.194 291.335C266.364 275.371 270.858 263.522 267.68 257.076C264.503 250.63 263.822 245.879 256.347 242.913C248.871 239.947 238.4 240.446 238.4 240.446Z" fill="#F7F771" stroke="black" stroke-miterlimit="10"/>
<path d="M244.075 180.69C244.075 180.69 246.798 192.478 255.635 182.052C255.635 182.052 261.688 188.226 254.5 195.187C254.5 195.187 250.385 202.919 259.978 204.901C259.978 204.901 265.063 239.417 259.978 246.696C259.978 246.696 249.386 252.037 243.56 246.696C241.331 244.944 238.751 243.695 235.994 243.034V190.359C235.994 190.359 238.022 182.37 244.075 180.69Z" fill="#FFFDD2" stroke="#020202" stroke-miterlimit="10"/>
<path d="M286.278 241.929C286.278 241.929 278.167 248.784 277.789 252.521C277.41 256.259 278.56 266.912 277.789 270.392C276.624 278.498 276.984 286.75 278.848 294.724C281.254 304.969 274.399 304.106 274.021 312.217C273.642 320.328 278.56 318.012 278.273 327.576C277.985 337.139 275.368 344.856 276.911 348.049C278.454 351.242 285.128 348.049 281.647 357.128C278.167 366.208 275.852 371.927 287.7 377.541C299.548 383.155 296.87 388.058 302.953 388.451C309.036 388.845 313.863 385.168 313.545 381.687C313.228 378.207 308.037 362.47 314.03 345.28C314.03 345.28 315.664 336.867 308.234 332.327C308.234 332.327 303.997 327.409 314.181 319.011C314.181 319.011 316.254 265.883 314.605 260.087C312.955 254.292 300.895 242.504 300.895 242.504L286.278 241.929Z" fill="#F9BEA0" stroke="#020202" stroke-miterlimit="10"/>
<path d="M293.329 183.248C293.329 183.248 303.437 181.734 303.573 185.109C303.71 188.483 299.2 196.897 299.896 199.408C300.592 201.92 305.056 208.488 307.371 209.184C309.687 209.88 307.054 249.752 307.054 249.752C303.169 250.97 299.05 251.243 295.039 250.548C291.028 249.853 287.241 248.211 283.993 245.758C282.651 244.64 281.611 243.204 280.966 241.581C280.119 239.13 283.145 224.255 281.284 215.312C279.423 206.369 279.998 192.841 282.51 190.587C285.022 188.332 285.672 185.306 293.329 183.248Z" fill="#F9BEA0" stroke="#020202" stroke-miterlimit="10"/>
<path d="M281.844 316.106C284.442 312.836 288.029 310.494 292.068 309.43C296.107 308.366 300.382 308.638 304.254 310.204" stroke="#020202" stroke-miterlimit="10" stroke-linecap="round"/>
<path d="M283.675 327.318C283.675 327.318 291.498 315.637 303.346 322.204" stroke="#020202" stroke-miterlimit="10" stroke-linecap="round"/>
<path d="M161.59 355.328H140.814C139.803 355.328 138.983 356.147 138.983 357.159V360.352C138.983 361.363 139.803 362.183 140.814 362.183H161.59C162.602 362.183 163.421 361.363 163.421 360.352V357.159C163.421 356.147 162.602 355.328 161.59 355.328Z" fill="#F5F674" stroke="black" stroke-miterlimit="10"/>
<path d="M161.727 394.05H140.678C139.742 394.05 138.983 394.809 138.983 395.745V399.21C138.983 400.146 139.742 400.905 140.678 400.905H161.727C162.663 400.905 163.421 400.146 163.421 399.21V395.745C163.421 394.809 162.663 394.05 161.727 394.05Z" fill="#F1F071" stroke="#020202" stroke-miterlimit="10"/>
<path d="M328.98 159.929H512.454" stroke="black"/>
<path d="M429.94 201.466H486.185" stroke="black"/>
<path d="M350.119 407.563V574.983" stroke="black" stroke-width="0.75"/>
<path d="M350.119 409.591L354.22 412.088L354.311 411.951L351.663 405.278L350.15 398.302C349.65 400.633 349.136 402.948 348.636 405.278L345.988 411.951L346.064 412.088L350.119 409.591Z" fill="black"/>
<path d="M350.119 572.955L354.296 570.473L354.387 570.61L351.738 577.283L350.225 584.259C349.726 581.928 349.211 579.613 348.712 577.283L346.064 570.61L346.14 570.473L350.119 572.955Z" fill="black"/>
<path d="M475.881 210.712V571.986" stroke="black" stroke-width="0.75"/>
<path d="M475.881 212.755L479.966 215.236L480.057 215.1L477.409 208.427C476.909 206.112 476.395 203.781 475.896 201.466C475.381 203.781 474.882 206.112 474.382 208.427L471.734 215.1V215.236L475.881 212.755Z" fill="black"/>
<path d="M475.881 569.944L479.966 567.462L480.057 567.598L477.409 574.272C476.909 576.587 476.395 578.917 475.896 581.232C475.381 578.917 474.882 576.587 474.382 574.272L471.734 567.598V567.462L475.881 569.944Z" fill="black"/>
<path d="M506.281 168.524V571.987" stroke="black" stroke-width="0.75"/>
<path d="M506.28 170.552L510.366 173.049L510.457 172.897L507.809 166.239C507.294 163.909 506.78 161.594 506.296 159.263L504.782 166.239L502.134 172.897L502.21 173.049L506.28 170.552Z" fill="black"/>
<path d="M506.28 569.944L510.366 567.462L510.457 567.598L507.809 574.272C507.294 576.587 506.78 578.917 506.296 581.232L504.782 574.272L502.134 567.598L502.21 567.462L506.28 569.944Z" fill="black"/>
<path d="M559.333 10.0022V571.987" stroke="black" stroke-width="0.75"/>
<path d="M559.333 12.1056L563.419 14.5872L563.51 14.451L560.861 7.79295C560.362 5.46264 559.848 3.14745 559.348 0.817139C558.834 3.14745 558.319 5.46264 557.835 7.79295L555.187 14.451V14.5872L559.333 12.1056Z" fill="black"/>
<path d="M559.333 569.944L563.419 567.462L563.51 567.598L560.861 574.272C560.362 576.587 559.848 578.917 559.348 581.232C558.834 578.917 558.319 576.587 557.835 574.272L555.187 567.598V567.462L559.333 569.944Z" fill="black"/>
<path d="M337.575 398.302H359.198" stroke="black"/>
<path d="M327.588 0.756592H563.449" stroke="black"/>
<path d="M394.19 148.09L395.58 147.2H396.54V153.16C396.54 153.387 396.55 153.523 396.57 153.57C396.59 153.61 396.653 153.637 396.76 153.65L397.31 153.72V154H394.37V153.72L395.12 153.65C395.227 153.637 395.29 153.61 395.31 153.57C395.33 153.523 395.34 153.387 395.34 153.16V147.78L394.38 148.39L394.19 148.09ZM398.222 149.41H397.942V147.2H402.102V148.14C401.816 148.52 401.566 148.907 401.352 149.3C401.146 149.693 400.972 150.117 400.832 150.57C400.699 151.023 400.592 151.53 400.512 152.09C400.432 152.65 400.376 153.287 400.342 154H398.892C398.959 153.527 399.052 153.067 399.172 152.62C399.292 152.173 399.456 151.723 399.662 151.27C399.876 150.817 400.146 150.343 400.472 149.85C400.799 149.357 401.202 148.82 401.682 148.24H398.982C398.829 148.24 398.716 148.247 398.642 148.26C398.576 148.267 398.529 148.29 398.502 148.33C398.482 148.363 398.462 148.42 398.442 148.5L398.222 149.41ZM407.704 150.28V150.91C407.704 151.55 407.607 152.11 407.414 152.59C407.227 153.07 406.95 153.443 406.584 153.71C406.217 153.97 405.774 154.1 405.254 154.1C404.734 154.1 404.29 153.97 403.924 153.71C403.557 153.443 403.277 153.07 403.084 152.59C402.897 152.11 402.804 151.55 402.804 150.91V150.28C402.804 149.64 402.897 149.083 403.084 148.61C403.277 148.13 403.557 147.76 403.924 147.5C404.29 147.233 404.734 147.1 405.254 147.1C405.774 147.1 406.217 147.233 406.584 147.5C406.95 147.76 407.227 148.13 407.414 148.61C407.607 149.083 407.704 149.64 407.704 150.28ZM406.374 149.58C406.374 148.82 406.277 148.277 406.084 147.95C405.89 147.617 405.614 147.45 405.254 147.45C404.894 147.45 404.617 147.617 404.424 147.95C404.23 148.277 404.134 148.82 404.134 149.58V151.61C404.134 152.377 404.23 152.927 404.424 153.26C404.617 153.587 404.894 153.75 405.254 153.75C405.614 153.75 405.89 153.587 406.084 153.26C406.277 152.927 406.374 152.377 406.374 151.61V149.58ZM413.866 150.28V150.91C413.866 151.55 413.769 152.11 413.576 152.59C413.389 153.07 413.113 153.443 412.746 153.71C412.379 153.97 411.936 154.1 411.416 154.1C410.896 154.1 410.453 153.97 410.086 153.71C409.719 153.443 409.439 153.07 409.246 152.59C409.059 152.11 408.966 151.55 408.966 150.91V150.28C408.966 149.64 409.059 149.083 409.246 148.61C409.439 148.13 409.719 147.76 410.086 147.5C410.453 147.233 410.896 147.1 411.416 147.1C411.936 147.1 412.379 147.233 412.746 147.5C413.113 147.76 413.389 148.13 413.576 148.61C413.769 149.083 413.866 149.64 413.866 150.28ZM412.536 149.58C412.536 148.82 412.439 148.277 412.246 147.95C412.053 147.617 411.776 147.45 411.416 147.45C411.056 147.45 410.779 147.617 410.586 147.95C410.393 148.277 410.296 148.82 410.296 149.58V151.61C410.296 152.377 410.393 152.927 410.586 153.26C410.779 153.587 411.056 153.75 411.416 153.75C411.776 153.75 412.053 153.587 412.246 153.26C412.439 152.927 412.536 152.377 412.536 151.61V149.58Z" fill="black"/>
<path d="M445.19 191.09L446.58 190.2H447.54V196.16C447.54 196.387 447.55 196.523 447.57 196.57C447.59 196.61 447.653 196.637 447.76 196.65L448.31 196.72V197H445.37V196.72L446.12 196.65C446.227 196.637 446.29 196.61 446.31 196.57C446.33 196.523 446.34 196.387 446.34 196.16V190.78L445.38 191.39L445.19 191.09ZM452.732 189.33H453.012V191.24H449.822L449.712 193.17C449.892 193.043 450.099 192.947 450.332 192.88C450.572 192.807 450.826 192.77 451.092 192.77C451.546 192.77 451.939 192.857 452.272 193.03C452.612 193.203 452.876 193.447 453.062 193.76C453.249 194.073 453.342 194.447 453.342 194.88C453.342 195.273 453.266 195.64 453.112 195.98C452.959 196.313 452.709 196.583 452.362 196.79C452.022 196.997 451.572 197.1 451.012 197.1C450.506 197.1 450.079 196.98 449.732 196.74C449.386 196.493 449.162 196.087 449.062 195.52L449.772 195.33C449.839 195.837 449.969 196.2 450.162 196.42C450.362 196.64 450.616 196.75 450.922 196.75C451.309 196.75 451.592 196.607 451.772 196.32C451.952 196.027 452.042 195.547 452.042 194.88C452.042 194.533 452.009 194.23 451.942 193.97C451.882 193.703 451.769 193.497 451.602 193.35C451.436 193.197 451.202 193.12 450.902 193.12C450.702 193.12 450.489 193.16 450.262 193.24C450.036 193.32 449.806 193.467 449.572 193.68L449.332 193.53L449.522 190.2H452.072C452.306 190.2 452.446 190.187 452.492 190.16C452.546 190.133 452.586 190.06 452.612 189.94L452.732 189.33ZM453.979 191.09L455.369 190.2H456.329V196.16C456.329 196.387 456.339 196.523 456.359 196.57C456.379 196.61 456.442 196.637 456.549 196.65L457.099 196.72V197H454.159V196.72L454.909 196.65C455.016 196.637 455.079 196.61 455.099 196.57C455.119 196.523 455.129 196.387 455.129 196.16V190.78L454.169 191.39L453.979 191.09ZM462.971 193.28V193.91C462.971 194.55 462.875 195.11 462.681 195.59C462.495 196.07 462.218 196.443 461.851 196.71C461.485 196.97 461.041 197.1 460.521 197.1C460.001 197.1 459.558 196.97 459.191 196.71C458.825 196.443 458.545 196.07 458.351 195.59C458.165 195.11 458.071 194.55 458.071 193.91V193.28C458.071 192.64 458.165 192.083 458.351 191.61C458.545 191.13 458.825 190.76 459.191 190.5C459.558 190.233 460.001 190.1 460.521 190.1C461.041 190.1 461.485 190.233 461.851 190.5C462.218 190.76 462.495 191.13 462.681 191.61C462.875 192.083 462.971 192.64 462.971 193.28ZM461.641 192.58C461.641 191.82 461.545 191.277 461.351 190.95C461.158 190.617 460.881 190.45 460.521 190.45C460.161 190.45 459.885 190.617 459.691 190.95C459.498 191.277 459.401 191.82 459.401 192.58V194.61C459.401 195.377 459.498 195.927 459.691 196.26C459.885 196.587 460.161 196.75 460.521 196.75C460.881 196.75 461.158 196.587 461.351 196.26C461.545 195.927 461.641 195.377 461.641 194.61V192.58Z" fill="black"/>
<path d="M361.04 491.17C361.04 491.537 360.957 491.867 360.79 492.16C360.63 492.447 360.383 492.677 360.05 492.85C359.723 493.017 359.31 493.1 358.81 493.1C358.29 493.1 357.857 493.023 357.51 492.87C357.17 492.717 356.917 492.513 356.75 492.26C356.583 492 356.5 491.723 356.5 491.43C356.5 491.057 356.623 490.727 356.87 490.44C357.123 490.147 357.48 489.9 357.94 489.7C357.54 489.5 357.223 489.263 356.99 488.99C356.757 488.71 356.64 488.343 356.64 487.89C356.64 487.563 356.723 487.267 356.89 487C357.057 486.727 357.293 486.51 357.6 486.35C357.913 486.183 358.29 486.1 358.73 486.1C359.397 486.1 359.917 486.253 360.29 486.56C360.67 486.86 360.86 487.237 360.86 487.69C360.86 487.997 360.747 488.267 360.52 488.5C360.293 488.733 359.953 488.943 359.5 489.13C359.973 489.343 360.347 489.603 360.62 489.91C360.9 490.21 361.04 490.63 361.04 491.17ZM358.69 488.78L359.17 488.99C359.403 488.83 359.56 488.647 359.64 488.44C359.72 488.227 359.76 487.98 359.76 487.7C359.76 486.867 359.41 486.45 358.71 486.45C358.377 486.45 358.117 486.547 357.93 486.74C357.75 486.927 357.66 487.187 357.66 487.52C357.66 487.827 357.75 488.08 357.93 488.28C358.11 488.473 358.363 488.64 358.69 488.78ZM357.6 491.4C357.6 491.827 357.7 492.16 357.9 492.4C358.107 492.633 358.41 492.75 358.81 492.75C359.203 492.75 359.503 492.647 359.71 492.44C359.917 492.233 360.02 491.93 360.02 491.53C360.02 491.203 359.94 490.933 359.78 490.72C359.62 490.5 359.343 490.307 358.95 490.14L358.28 489.86C358.053 490.007 357.883 490.217 357.77 490.49C357.657 490.757 357.6 491.06 357.6 491.4ZM367.067 489.28V489.91C367.067 490.55 366.97 491.11 366.777 491.59C366.59 492.07 366.314 492.443 365.947 492.71C365.58 492.97 365.137 493.1 364.617 493.1C364.097 493.1 363.654 492.97 363.287 492.71C362.92 492.443 362.64 492.07 362.447 491.59C362.26 491.11 362.167 490.55 362.167 489.91V489.28C362.167 488.64 362.26 488.083 362.447 487.61C362.64 487.13 362.92 486.76 363.287 486.5C363.654 486.233 364.097 486.1 364.617 486.1C365.137 486.1 365.58 486.233 365.947 486.5C366.314 486.76 366.59 487.13 366.777 487.61C366.97 488.083 367.067 488.64 367.067 489.28ZM365.737 488.58C365.737 487.82 365.64 487.277 365.447 486.95C365.254 486.617 364.977 486.45 364.617 486.45C364.257 486.45 363.98 486.617 363.787 486.95C363.594 487.277 363.497 487.82 363.497 488.58V490.61C363.497 491.377 363.594 491.927 363.787 492.26C363.98 492.587 364.257 492.75 364.617 492.75C364.977 492.75 365.254 492.587 365.447 492.26C365.64 491.927 365.737 491.377 365.737 490.61V488.58ZM373.229 489.28V489.91C373.229 490.55 373.133 491.11 372.939 491.59C372.753 492.07 372.476 492.443 372.109 492.71C371.743 492.97 371.299 493.1 370.779 493.1C370.259 493.1 369.816 492.97 369.449 492.71C369.083 492.443 368.803 492.07 368.609 491.59C368.423 491.11 368.329 490.55 368.329 489.91V489.28C368.329 488.64 368.423 488.083 368.609 487.61C368.803 487.13 369.083 486.76 369.449 486.5C369.816 486.233 370.259 486.1 370.779 486.1C371.299 486.1 371.743 486.233 372.109 486.5C372.476 486.76 372.753 487.13 372.939 487.61C373.133 488.083 373.229 488.64 373.229 489.28ZM371.899 488.58C371.899 487.82 371.803 487.277 371.609 486.95C371.416 486.617 371.139 486.45 370.779 486.45C370.419 486.45 370.143 486.617 369.949 486.95C369.756 487.277 369.659 487.82 369.659 488.58V490.61C369.659 491.377 369.756 491.927 369.949 492.26C370.143 492.587 370.419 492.75 370.779 492.75C371.139 492.75 371.416 492.587 371.609 492.26C371.803 491.927 371.899 491.377 371.899 490.61V488.58Z" fill="black"/>
</g>
<path d="M689.013 97.6797V574.05" stroke="black" stroke-width="0.75"/>
<path d="M689.013 99.7146L693.128 102.22L693.219 102.069L690.562 95.3865L689.043 88.3855C688.542 90.7242 688.025 93.0478 687.524 95.3865L684.867 102.069V102.22L689.013 99.7146Z" fill="black"/>
<path d="M689.013 572L693.128 569.495L693.219 569.631L690.562 576.328L689.043 583.314C688.542 580.991 688.026 578.652 687.524 576.328L684.821 569.646V569.51L689.013 572Z" fill="black"/>
<path d="M724.686 179.095V574.84" stroke="black" stroke-width="0.75"/>
<path d="M724.685 181.145L728.801 183.635L728.892 183.499L726.234 176.801L724.716 169.816C724.215 172.139 723.698 174.478 723.197 176.801L720.54 183.499L720.615 183.635L724.685 181.145Z" fill="black"/>
<path d="M724.685 572.805L728.801 570.299L728.892 570.451L726.234 577.088L724.716 584.089C724.215 581.75 723.698 579.427 723.197 577.088L720.54 570.406L720.615 570.254L724.685 572.805Z" fill="black"/>
<path d="M832.479 345.949V574.84" stroke="black" stroke-width="0.75"/>
<path d="M832.479 347.984L836.595 350.49L836.686 350.338L834.028 343.656L832.51 336.655C832.009 338.994 831.492 341.317 830.991 343.656L828.333 350.338V350.49L832.479 347.984Z" fill="black"/>
<path d="M832.479 572.805L836.595 570.299L836.686 570.451L834.028 577.088L832.51 584.089C832.009 581.75 831.492 579.427 830.991 577.088L828.333 570.406V570.254L832.479 572.805Z" fill="black"/>
<path d="M1110.36 0.759277H866.406V88.3855H1110.36V0.759277Z" fill="#CBCBCB" stroke="black"/>
<path d="M1110.36 88.3855H866.406V97.3H1110.36V88.3855Z" fill="#CBCBCB" stroke="black"/>
<path d="M1110.36 322.455H866.406V340.163H1110.36V322.455Z" fill="#CBCBCB" stroke="black"/>
<path d="M1110.36 340.163H866.406V378.418H1110.36V340.163Z" fill="#CBCBCB" stroke="black"/>
<path d="M1110.36 378.418H866.406V469.142H1110.36V378.418Z" fill="#CBCBCB" stroke="black"/>
<path d="M1110.36 378.418H987.747V469.142H1110.36V378.418Z" stroke="black" stroke-width="0.75"/>
<path d="M1110.36 378.418H987.747V423.78H1110.36V378.418Z" fill="#CBCBCB" stroke="black"/>
<path d="M1110.36 340.163H987.747V378.418H1110.36V340.163Z" fill="#CBCBCB" stroke="black"/>
<path d="M1110.36 423.78H987.747V469.142H1110.36V423.78Z" fill="#CBCBCB" stroke="black"/>
<path d="M1110.36 469.157H987.747V565.06H1110.36V469.157Z" fill="#CBCBCB" stroke="black"/>
<path d="M987.731 469.157H866.406V565.06H987.731V469.157Z" fill="#CBCBCB" stroke="black"/>
<path d="M866.406 469.157H1110.36V565.045H866.406" stroke="black" stroke-width="0.75"/>
<path d="M1110.36 565.045H866.406V583.922H1110.36V565.045Z" fill="#CBCBCB" stroke="black"/>
<path d="M939.94 354.955H920.258C919.109 354.955 918.177 355.886 918.177 357.035V361.591C918.177 362.74 919.109 363.672 920.258 363.672H939.94C941.089 363.672 942.02 362.74 942.02 361.591V357.035C942.02 355.886 941.089 354.955 939.94 354.955Z" fill="#F5F372" stroke="black" stroke-miterlimit="10"/>
<path d="M1110.36 97.786H911.191V322.455H1110.36V97.786Z" fill="#666666" stroke="black"/>
<path d="M917.919 86.9732C917.919 86.9732 920.956 82.9639 922.475 86.9732C923.994 90.9824 929.096 104.787 918.693 104.544L917.919 115.418" stroke="black"/>
<path d="M914.305 117.984C914.305 117.984 918.299 109.449 923.083 117.984C927.866 126.519 934.776 289.501 924.996 307.588C924.996 307.588 914.168 312.766 909.263 301.392C904.358 290.017 907.319 202.391 909.263 199.794L907 201.161L898.921 185.837C908.562 164.485 913.794 141.406 914.305 117.984Z" fill="#F7F771" stroke="black" stroke-miterlimit="10"/>
<path d="M915.747 166.232C915.747 166.232 916.34 191.882 909.263 199.794" stroke="black" stroke-linecap="round"/>
<path d="M974.884 88.3855C974.884 88.3855 979.531 82.0072 982.006 91.1191C984.482 100.231 976.676 101.051 976.676 101.051L977.071 106.093" stroke="black" stroke-miterlimit="10"/>
<path d="M972.651 116.496C972.651 116.496 974.443 106.852 973.957 103.511C973.471 100.17 981.034 99.3349 980.7 103.511C980.366 107.688 982.826 116.784 982.826 116.784L972.651 116.496Z" fill="#FEFDFE" stroke="black" stroke-miterlimit="10"/>
<path d="M957.951 125.031C957.951 125.031 971.33 112.228 974.914 112.046C978.498 111.864 983.145 111.013 986.061 115.402C988.977 119.791 996.342 125.228 999.045 129.07C1001.75 132.912 1007 172.109 1007 172.109L991.817 207.782L970.556 205.064L957.951 125.031Z" fill="#E08C05" stroke="black" stroke-miterlimit="10"/>
<path d="M971.299 138.607C971.119 136.419 971.527 134.222 972.48 132.244C973.433 130.265 974.897 128.577 976.721 127.354C983.115 122.905 992.819 126.777 992.044 132.199C991.27 137.62 983.114 175.662 986.228 183.013C986.228 183.013 970.707 158.38 971.299 138.607Z" fill="#7A4D01" stroke="black" stroke-miterlimit="10"/>
<path d="M979.44 299.509C979.44 299.509 990.875 300.875 996.312 297.185C1001.75 293.495 994.945 277.443 994.945 277.443L977.298 274.876L979.44 299.509Z" fill="#744F07" stroke="black" stroke-miterlimit="10"/>
<path d="M961.793 124.059C961.793 124.059 949.006 124.833 937.95 159.838C937.95 159.838 937.175 181.828 926.12 194.053C926.12 194.053 933.713 292.918 937.95 297.959C937.95 297.959 935.824 305.143 939.696 307.664C943.569 310.185 977.298 303.578 981.657 305.917C986.015 308.256 982.34 288.65 984.481 280.905C984.481 280.905 994.459 284.2 992.075 296.805C989.69 309.41 1007.53 306.874 1009.48 305.522C1011.42 304.171 1023.63 296.608 1023.63 296.608C1023.63 296.608 1019.55 291.946 1027.11 293.115C1034.67 294.284 1037.19 295.059 1037 291.596C1036.8 288.134 1018 154.143 1019.55 147.75C1021.1 141.356 996.676 129.708 996.676 129.708C996.676 129.708 1000.75 162.86 996.297 171.395C991.847 179.93 989.311 200.249 987.185 202.026C987.2 201.981 955.597 137.635 961.793 124.059Z" fill="#FEAD28" stroke="black" stroke-miterlimit="10"/>
<path d="M940.471 280.51L937.95 297.96C937.95 297.96 963.767 299.478 964.511 297.96C965.256 296.441 955.597 197.151 961.596 188.617" stroke="black" stroke-miterlimit="10" stroke-linecap="round"/>
<path d="M987.2 201.996L984.481 280.905" stroke="black" stroke-miterlimit="10"/>
<path d="M1022.87 293.51C1022.87 293.51 1009.3 270.821 1012.01 249.302C1014.73 227.783 1001.54 200.827 1006.97 184.941" stroke="black" stroke-miterlimit="10" stroke-linecap="round"/>
<path d="M789.38 226.947C789.38 226.947 833.573 166.718 842.882 162.314C842.882 162.314 847.803 153.278 847.013 147.324C847.013 147.324 856.125 129.86 866.467 125.41C866.467 125.41 857.872 139.822 856.839 142.419C855.766 145.487 855.252 148.722 855.32 151.972C855.32 151.972 863.977 146.808 866.498 142.161C866.498 142.161 873.013 152.123 856.611 158.183C856.611 158.183 848.091 165.943 847.044 172.914C845.685 176.092 844.043 179.142 842.138 182.026C839.815 185.063 823.535 207.843 823.019 214.343C822.502 220.842 810.08 240.448 805.691 241.678L789.38 226.947Z" fill="#F5F7F6" stroke="black" stroke-miterlimit="10"/>
<path d="M787.771 220.098C787.771 220.098 809.989 235.725 809.609 240.767C809.229 245.809 790.216 268.437 790.216 268.437L773.283 244.26L787.771 220.098Z" fill="#629AF7" stroke="black" stroke-miterlimit="10"/>
<path d="M790.413 177.379C790.413 177.379 801.666 183.575 803.018 186.87C804.369 190.166 805.934 217.562 797.976 221.799C790.018 226.036 788.089 221.025 786.92 226.841C785.751 232.657 784.991 241.709 784.991 241.709L760.359 232.46L762.5 208.42L772.387 186.323L790.413 177.379Z" fill="#F6F6F6" stroke="black" stroke-miterlimit="10"/>
<path d="M775.105 213.629C775.105 213.629 767.922 223.136 763.077 222.938C758.233 222.741 754.36 213.629 754.36 213.629C754.36 213.629 757.656 196.757 756.684 190.758C755.712 184.759 770.716 144.029 804.127 178.609C805.813 181.085 806.512 184.102 806.086 187.068C806.086 187.068 797.171 181.251 796.199 182.223C795.227 183.195 783.594 190.363 778.947 204.912C778.947 204.912 775.515 200.827 773.252 202.193C773.252 202.193 768.484 204.092 774.3 211.472L775.105 213.629Z" fill="black" stroke="black" stroke-miterlimit="10"/>
<path d="M757.489 237.274L752.249 234.237C752.249 234.237 751.095 226.097 763.685 229.392C772.611 231.958 781.228 235.497 789.38 239.947L787.178 248.284L757.489 237.274Z" fill="#629AF7" stroke="black" stroke-miterlimit="10"/>
<path d="M754.74 561.43C754.74 561.43 744.474 573.838 754.74 580.626C765.006 587.415 816.579 582.57 816.579 582.57C816.579 582.57 827.833 572.091 809.806 567.384C809.806 567.384 792.22 570.102 785.113 561.309L754.74 561.43Z" fill="#0F56FC" stroke="black" stroke-miterlimit="10"/>
<path d="M747.572 340.178C747.572 340.178 735.544 349.29 744.853 375.335C754.162 401.38 747.89 528.096 747.572 539.729C747.253 551.362 740.981 560.534 752.932 565.045C764.884 569.555 790.155 562.979 790.155 562.979C790.155 562.979 784.399 364.476 793.708 342.365L747.572 340.178Z" fill="#CBCBCB" stroke="black" stroke-miterlimit="10"/>
<path d="M758.81 235.725C752.292 242.245 747.855 250.552 746.06 259.594C744.265 268.637 745.193 278.009 748.726 286.524C748.726 286.524 758.035 298.157 748.544 313.86C739.052 329.563 745.157 349.138 745.157 349.138H794.68C794.68 349.138 800.664 344.78 801.666 340.163C801.848 339.252 792.934 323.169 799.722 300.101C799.722 300.101 800.269 253.311 784.019 244.26C767.77 235.209 758.81 235.725 758.81 235.725Z" fill="#0E54FF" stroke="black" stroke-miterlimit="10"/>
<path d="M764.429 292.432C764.429 292.432 764.049 327.437 768.119 331.309C772.189 335.182 853.164 336.731 859.041 329.958C859.041 329.958 873.392 333.253 878.237 321.62L891.996 321.423C891.996 321.423 895.488 318.704 890.264 317.155C885.04 315.606 875.336 313.86 872.223 311.734C869.11 309.608 857.689 320.846 857.689 320.846C857.689 320.846 795.425 314.255 787.512 315.029C787.512 315.029 788.667 297.185 784.217 291.171L764.429 292.432Z" fill="#F6F8F7" stroke="black" stroke-miterlimit="10"/>
<path d="M761.908 296.213L760.389 263.258C760.389 263.258 769.987 238.96 780.314 261.74L786.176 296.243L761.908 296.213Z" fill="#669CFE" stroke="black" stroke-miterlimit="10"/>
<path d="M866.406 90.709H677" stroke="black" stroke-width="0.75"/>
<path d="M770.762 167.173H714.617" stroke="black" stroke-width="0.75"/>
<path d="M773.4 82.79H773.68V85H769.49V84.3C769.49 83.8867 769.553 83.54 769.68 83.26C769.813 82.9733 769.99 82.7267 770.21 82.52C770.43 82.3133 770.667 82.13 770.92 81.97C771.167 81.8033 771.41 81.6333 771.65 81.46C771.897 81.28 772.1 81.0633 772.26 80.81C772.42 80.55 772.5 80.22 772.5 79.82C772.5 78.9067 772.197 78.45 771.59 78.45C771.217 78.45 770.953 78.6133 770.8 78.94C770.653 79.2667 770.613 79.73 770.68 80.33L769.48 80.17C769.42 79.81 769.453 79.4733 769.58 79.16C769.713 78.8467 769.947 78.5933 770.28 78.4C770.62 78.2 771.06 78.1 771.6 78.1C772.127 78.1 772.55 78.1867 772.87 78.36C773.19 78.5267 773.423 78.75 773.57 79.03C773.723 79.3033 773.8 79.6 773.8 79.92C773.8 80.3133 773.72 80.6367 773.56 80.89C773.4 81.1433 773.19 81.3533 772.93 81.52C772.67 81.68 772.39 81.82 772.09 81.94C771.79 82.0533 771.5 82.1767 771.22 82.31C770.88 82.4633 770.59 82.67 770.35 82.93C770.11 83.1833 769.963 83.5267 769.91 83.96H772.64C772.8 83.96 772.913 83.9567 772.98 83.95C773.047 83.9367 773.09 83.9133 773.11 83.88C773.137 83.84 773.16 83.78 773.18 83.7L773.4 82.79ZM779.862 81.28V81.91C779.862 82.55 779.765 83.11 779.572 83.59C779.385 84.07 779.109 84.4433 778.742 84.71C778.375 84.97 777.932 85.1 777.412 85.1C776.892 85.1 776.449 84.97 776.082 84.71C775.715 84.4433 775.435 84.07 775.242 83.59C775.055 83.11 774.962 82.55 774.962 81.91V81.28C774.962 80.64 775.055 80.0833 775.242 79.61C775.435 79.13 775.715 78.76 776.082 78.5C776.449 78.2333 776.892 78.1 777.412 78.1C777.932 78.1 778.375 78.2333 778.742 78.5C779.109 78.76 779.385 79.13 779.572 79.61C779.765 80.0833 779.862 80.64 779.862 81.28ZM778.532 80.58C778.532 79.82 778.435 79.2767 778.242 78.95C778.049 78.6167 777.772 78.45 777.412 78.45C777.052 78.45 776.775 78.6167 776.582 78.95C776.389 79.2767 776.292 79.82 776.292 80.58V82.61C776.292 83.3767 776.389 83.9267 776.582 84.26C776.775 84.5867 777.052 84.75 777.412 84.75C777.772 84.75 778.049 84.5867 778.242 84.26C778.435 83.9267 778.532 83.3767 778.532 82.61V80.58ZM786.024 81.28V81.91C786.024 82.55 785.927 83.11 785.734 83.59C785.547 84.07 785.271 84.4433 784.904 84.71C784.537 84.97 784.094 85.1 783.574 85.1C783.054 85.1 782.611 84.97 782.244 84.71C781.877 84.4433 781.597 84.07 781.404 83.59C781.217 83.11 781.124 82.55 781.124 81.91V81.28C781.124 80.64 781.217 80.0833 781.404 79.61C781.597 79.13 781.877 78.76 782.244 78.5C782.611 78.2333 783.054 78.1 783.574 78.1C784.094 78.1 784.537 78.2333 784.904 78.5C785.271 78.76 785.547 79.13 785.734 79.61C785.927 80.0833 786.024 80.64 786.024 81.28ZM784.694 80.58C784.694 79.82 784.597 79.2767 784.404 78.95C784.211 78.6167 783.934 78.45 783.574 78.45C783.214 78.45 782.937 78.6167 782.744 78.95C782.551 79.2767 782.454 79.82 782.454 80.58V82.61C782.454 83.3767 782.551 83.9267 782.744 84.26C782.937 84.5867 783.214 84.75 783.574 84.75C783.934 84.75 784.211 84.5867 784.404 84.26C784.597 83.9267 784.694 83.3767 784.694 82.61V80.58ZM792.186 81.28V81.91C792.186 82.55 792.09 83.11 791.896 83.59C791.71 84.07 791.433 84.4433 791.066 84.71C790.7 84.97 790.256 85.1 789.736 85.1C789.216 85.1 788.773 84.97 788.406 84.71C788.04 84.4433 787.76 84.07 787.566 83.59C787.38 83.11 787.286 82.55 787.286 81.91V81.28C787.286 80.64 787.38 80.0833 787.566 79.61C787.76 79.13 788.04 78.76 788.406 78.5C788.773 78.2333 789.216 78.1 789.736 78.1C790.256 78.1 790.7 78.2333 791.066 78.5C791.433 78.76 791.71 79.13 791.896 79.61C792.09 80.0833 792.186 80.64 792.186 81.28ZM790.856 80.58C790.856 79.82 790.76 79.2767 790.566 78.95C790.373 78.6167 790.096 78.45 789.736 78.45C789.376 78.45 789.1 78.6167 788.906 78.95C788.713 79.2767 788.616 79.82 788.616 80.58V82.61C788.616 83.3767 788.713 83.9267 788.906 84.26C789.1 84.5867 789.376 84.75 789.736 84.75C790.096 84.75 790.373 84.5867 790.566 84.26C790.76 83.9267 790.856 83.3767 790.856 82.61V80.58Z" fill="black"/>
<path d="M731.19 156.09L732.58 155.2H733.54V161.16C733.54 161.387 733.55 161.523 733.57 161.57C733.59 161.61 733.653 161.637 733.76 161.65L734.31 161.72V162H731.37V161.72L732.12 161.65C732.227 161.637 732.29 161.61 732.31 161.57C732.33 161.523 732.34 161.387 732.34 161.16V155.78L731.38 156.39L731.19 156.09ZM739.692 160.17C739.692 160.537 739.609 160.867 739.442 161.16C739.282 161.447 739.036 161.677 738.702 161.85C738.376 162.017 737.962 162.1 737.462 162.1C736.942 162.1 736.509 162.023 736.162 161.87C735.822 161.717 735.569 161.513 735.402 161.26C735.236 161 735.152 160.723 735.152 160.43C735.152 160.057 735.276 159.727 735.522 159.44C735.776 159.147 736.132 158.9 736.592 158.7C736.192 158.5 735.876 158.263 735.642 157.99C735.409 157.71 735.292 157.343 735.292 156.89C735.292 156.563 735.376 156.267 735.542 156C735.709 155.727 735.946 155.51 736.252 155.35C736.566 155.183 736.942 155.1 737.382 155.1C738.049 155.1 738.569 155.253 738.942 155.56C739.322 155.86 739.512 156.237 739.512 156.69C739.512 156.997 739.399 157.267 739.172 157.5C738.946 157.733 738.606 157.943 738.152 158.13C738.626 158.343 738.999 158.603 739.272 158.91C739.552 159.21 739.692 159.63 739.692 160.17ZM737.342 157.78L737.822 157.99C738.056 157.83 738.212 157.647 738.292 157.44C738.372 157.227 738.412 156.98 738.412 156.7C738.412 155.867 738.062 155.45 737.362 155.45C737.029 155.45 736.769 155.547 736.582 155.74C736.402 155.927 736.312 156.187 736.312 156.52C736.312 156.827 736.402 157.08 736.582 157.28C736.762 157.473 737.016 157.64 737.342 157.78ZM736.252 160.4C736.252 160.827 736.352 161.16 736.552 161.4C736.759 161.633 737.062 161.75 737.462 161.75C737.856 161.75 738.156 161.647 738.362 161.44C738.569 161.233 738.672 160.93 738.672 160.53C738.672 160.203 738.592 159.933 738.432 159.72C738.272 159.5 737.996 159.307 737.602 159.14L736.932 158.86C736.706 159.007 736.536 159.217 736.422 159.49C736.309 159.757 736.252 160.06 736.252 160.4ZM744.269 154.33H744.549V156.24H741.359L741.249 158.17C741.429 158.043 741.636 157.947 741.869 157.88C742.109 157.807 742.363 157.77 742.629 157.77C743.083 157.77 743.476 157.857 743.809 158.03C744.149 158.203 744.413 158.447 744.599 158.76C744.786 159.073 744.879 159.447 744.879 159.88C744.879 160.273 744.803 160.64 744.649 160.98C744.496 161.313 744.246 161.583 743.899 161.79C743.559 161.997 743.109 162.1 742.549 162.1C742.043 162.1 741.616 161.98 741.269 161.74C740.923 161.493 740.699 161.087 740.599 160.52L741.309 160.33C741.376 160.837 741.506 161.2 741.699 161.42C741.899 161.64 742.153 161.75 742.459 161.75C742.846 161.75 743.129 161.607 743.309 161.32C743.489 161.027 743.579 160.547 743.579 159.88C743.579 159.533 743.546 159.23 743.479 158.97C743.419 158.703 743.306 158.497 743.139 158.35C742.973 158.197 742.739 158.12 742.439 158.12C742.239 158.12 742.026 158.16 741.799 158.24C741.573 158.32 741.343 158.467 741.109 158.68L740.869 158.53L741.059 155.2H743.609C743.843 155.2 743.983 155.187 744.029 155.16C744.083 155.133 744.123 155.06 744.149 154.94L744.269 154.33ZM750.856 158.28V158.91C750.856 159.55 750.76 160.11 750.566 160.59C750.38 161.07 750.103 161.443 749.736 161.71C749.37 161.97 748.926 162.1 748.406 162.1C747.886 162.1 747.443 161.97 747.076 161.71C746.71 161.443 746.43 161.07 746.236 160.59C746.05 160.11 745.956 159.55 745.956 158.91V158.28C745.956 157.64 746.05 157.083 746.236 156.61C746.43 156.13 746.71 155.76 747.076 155.5C747.443 155.233 747.886 155.1 748.406 155.1C748.926 155.1 749.37 155.233 749.736 155.5C750.103 155.76 750.38 156.13 750.566 156.61C750.76 157.083 750.856 157.64 750.856 158.28ZM749.526 157.58C749.526 156.82 749.43 156.277 749.236 155.95C749.043 155.617 748.766 155.45 748.406 155.45C748.046 155.45 747.77 155.617 747.576 155.95C747.383 156.277 747.286 156.82 747.286 157.58V159.61C747.286 160.377 747.383 160.927 747.576 161.26C747.77 161.587 748.046 161.75 748.406 161.75C748.766 161.75 749.043 161.587 749.236 161.26C749.43 160.927 749.526 160.377 749.526 159.61V157.58Z" fill="black"/>
<path d="M804.19 445.09L805.58 444.2H806.54V450.16C806.54 450.387 806.55 450.523 806.57 450.57C806.59 450.61 806.653 450.637 806.76 450.65L807.31 450.72V451H804.37V450.72L805.12 450.65C805.227 450.637 805.29 450.61 805.31 450.57C805.33 450.523 805.34 450.387 805.34 450.16V444.78L804.38 445.39L804.19 445.09ZM813.182 447.28V447.91C813.182 448.55 813.086 449.11 812.892 449.59C812.706 450.07 812.429 450.443 812.062 450.71C811.696 450.97 811.252 451.1 810.732 451.1C810.212 451.1 809.769 450.97 809.402 450.71C809.036 450.443 808.756 450.07 808.562 449.59C808.376 449.11 808.282 448.55 808.282 447.91V447.28C808.282 446.64 808.376 446.083 808.562 445.61C808.756 445.13 809.036 444.76 809.402 444.5C809.769 444.233 810.212 444.1 810.732 444.1C811.252 444.1 811.696 444.233 812.062 444.5C812.429 444.76 812.706 445.13 812.892 445.61C813.086 446.083 813.182 446.64 813.182 447.28ZM811.852 446.58C811.852 445.82 811.756 445.277 811.562 444.95C811.369 444.617 811.092 444.45 810.732 444.45C810.372 444.45 810.096 444.617 809.902 444.95C809.709 445.277 809.612 445.82 809.612 446.58V448.61C809.612 449.377 809.709 449.927 809.902 450.26C810.096 450.587 810.372 450.75 810.732 450.75C811.092 450.75 811.369 450.587 811.562 450.26C811.756 449.927 811.852 449.377 811.852 448.61V446.58ZM819.344 447.28V447.91C819.344 448.55 819.248 449.11 819.054 449.59C818.868 450.07 818.591 450.443 818.224 450.71C817.858 450.97 817.414 451.1 816.894 451.1C816.374 451.1 815.931 450.97 815.564 450.71C815.198 450.443 814.918 450.07 814.724 449.59C814.538 449.11 814.444 448.55 814.444 447.91V447.28C814.444 446.64 814.538 446.083 814.724 445.61C814.918 445.13 815.198 444.76 815.564 444.5C815.931 444.233 816.374 444.1 816.894 444.1C817.414 444.1 817.858 444.233 818.224 444.5C818.591 444.76 818.868 445.13 819.054 445.61C819.248 446.083 819.344 446.64 819.344 447.28ZM818.014 446.58C818.014 445.82 817.918 445.277 817.724 444.95C817.531 444.617 817.254 444.45 816.894 444.45C816.534 444.45 816.258 444.617 816.064 444.95C815.871 445.277 815.774 445.82 815.774 446.58V448.61C815.774 449.377 815.871 449.927 816.064 450.26C816.258 450.587 816.534 450.75 816.894 450.75C817.254 450.75 817.531 450.587 817.724 450.26C817.918 449.927 818.014 449.377 818.014 448.61V446.58ZM825.507 447.28V447.91C825.507 448.55 825.41 449.11 825.217 449.59C825.03 450.07 824.753 450.443 824.387 450.71C824.02 450.97 823.577 451.1 823.057 451.1C822.537 451.1 822.093 450.97 821.727 450.71C821.36 450.443 821.08 450.07 820.887 449.59C820.7 449.11 820.607 448.55 820.607 447.91V447.28C820.607 446.64 820.7 446.083 820.887 445.61C821.08 445.13 821.36 444.76 821.727 444.5C822.093 444.233 822.537 444.1 823.057 444.1C823.577 444.1 824.02 444.233 824.387 444.5C824.753 444.76 825.03 445.13 825.217 445.61C825.41 446.083 825.507 446.64 825.507 447.28ZM824.177 446.58C824.177 445.82 824.08 445.277 823.887 444.95C823.693 444.617 823.417 444.45 823.057 444.45C822.697 444.45 822.42 444.617 822.227 444.95C822.033 445.277 821.937 445.82 821.937 446.58V448.61C821.937 449.377 822.033 449.927 822.227 450.26C822.42 450.587 822.697 450.75 823.057 450.75C823.417 450.75 823.693 450.587 823.887 450.26C824.08 449.927 824.177 449.377 824.177 448.61V446.58Z" fill="black"/>
<line y1="584.3" x2="1193" y2="584.3" stroke="black" stroke-width="1.4"/>
<defs>
<clipPath id="clip0_187_5722">
<rect width="472.509" height="585" fill="white" transform="translate(91)"/>
</clipPath>
</defs>
</svg>
