<svg width="1222" height="491" viewBox="0 0 1222 491" fill="none" xmlns="http://www.w3.org/2000/svg">
<line x1="-4.37114e-08" y1="489.327" x2="1193.91" y2="489.327" stroke="black"/>
<path d="M267.55 339.215C267.55 339.215 265.596 349.231 268.934 351.524C272.273 353.816 278.751 340.753 279.535 339.215C280.32 337.676 282.09 316.028 286.275 308.95C290.46 301.873 311.031 271.239 310.631 266.716C310.231 262.192 293.937 264.746 293.937 264.746L267.55 339.215Z" fill="#F4F6F5" stroke="black" stroke-miterlimit="10"/>
<path d="M335.325 359.633C335.325 359.633 361.25 440.564 344.357 471.597L342.695 487.306H363.605C365.196 484.996 366.048 482.257 366.048 479.452C366.048 476.647 365.196 473.908 363.605 471.597C363.605 471.597 371.636 415.807 366.051 397.344C360.466 378.881 368.02 343.493 368.02 343.493L338.787 346.57L335.325 359.633Z" fill="#F4F6F5" stroke="black" stroke-miterlimit="10"/>
<path d="M323.201 341.57C320.064 348.509 317.567 355.719 315.738 363.111C312.661 375.635 310.215 385.651 314.2 396.114C316.215 401.422 317.508 400.576 321.539 408.684C323.539 412.731 326.155 418.808 329.124 432.256C331.695 443.91 333.403 455.738 334.232 467.644C320.385 479.322 310.8 483.291 304.384 484.568C303.583 484.722 301.829 485.03 301.845 485.399C301.845 487.322 351.08 487.322 351.08 487.322L348.311 471.213C348.018 466.474 347.695 459.243 347.741 450.396C347.741 439.364 348.403 435.687 347.941 428.994C347.623 424.854 347.016 420.741 346.126 416.685C344.797 410.105 342.908 403.65 340.479 397.391C337.617 389.698 338.141 375.112 352.65 344.755L323.201 341.57Z" fill="#F4F6F5" stroke="black" stroke-miterlimit="10"/>
<path d="M348.88 467.427C350.167 469.214 352.04 470.493 354.173 471.042C356.207 471.458 358.319 471.232 360.219 470.396C361.521 469.904 362.729 469.191 363.789 468.288C363.789 468.288 373.775 473.489 367.482 488.613L318.246 486.659C318.246 486.659 317.246 475.889 335.325 475.458L348.88 467.427Z" fill="#0F56FE" stroke="black"/>
<path d="M333.633 467.503C334.981 469.248 336.897 470.467 339.049 470.95C341.092 471.31 343.196 471.02 345.065 470.119C346.355 469.591 347.542 468.842 348.573 467.903C348.573 467.903 358.697 472.796 352.896 488.105L303.568 487.675C303.568 487.675 302.23 476.904 320.278 475.95L333.633 467.503Z" fill="#0F56FE" stroke="black"/>
<path d="M276.781 219.004C276.781 219.004 274.627 248.653 279.535 252.853C284.443 257.054 284.058 257.946 289.551 258.746C295.044 259.546 322.554 282.302 322.554 282.302C322.554 282.302 310.569 344.77 316.4 347.908C322.231 351.047 373.974 350.016 373.974 350.016C373.974 350.016 384.529 289.118 348.218 258.285C348.218 258.285 328.001 214.48 324.478 210.357C320.954 206.233 289.951 190.478 289.951 190.478L278.75 196.971L276.781 219.004Z" fill="#0F56FE" stroke="black"/>
<path d="M292.167 243.944C292.167 243.944 277.381 317.013 261.395 330.768L262.765 349.231C262.765 349.231 273.535 339.799 275.612 333.707C277.689 327.614 280.228 316.028 293.414 291.087C306.599 266.146 306.569 243.944 306.569 243.944H292.167Z" fill="#F4F6F5" stroke="black" stroke-miterlimit="10"/>
<path d="M287.397 244.33C287.397 244.33 295.444 250.608 312.538 248.838C312.538 248.838 315.031 221.851 316.662 213.881C318.293 205.911 295.506 202.695 292.167 219.005C288.828 235.314 287.397 244.33 287.397 244.33Z" fill="#6796FE" stroke="black"/>
<path d="M239.855 187.185C239.855 187.185 253.61 202.894 257.349 205.249C261.087 207.603 274.427 205.649 275.612 199.756C276.797 193.863 263.426 174.8 263.426 174.8L239.855 187.185Z" fill="#F4F6F5" stroke="black" stroke-miterlimit="10"/>
<path d="M262.056 186.985C262.056 186.985 242.055 194.847 237.439 186.985C232.823 179.123 240.516 168.122 240.516 168.122C240.516 168.122 249.548 152.612 268.996 158.89C288.444 165.167 274.688 170.676 295.152 175.599C295.152 175.599 305.568 193.662 321.308 196.016C321.308 196.016 329.955 214.88 343.51 217.557C357.065 220.234 337.817 230.127 329.17 222.08C320.523 214.034 310.307 203.817 302.26 207.541C294.213 211.264 300.491 203.233 290.875 199.694C281.258 196.155 296.952 208.525 296.167 214.034C295.383 219.542 287.336 216.095 285.166 212.603C282.997 209.11 280.858 204.402 280.858 207.541C280.858 210.679 282.812 219.326 276.919 223.065C271.027 226.804 270.765 222.665 270.765 218.542C270.765 214.418 274.304 208.325 273.319 201.848C272.334 195.37 263.626 196.216 262.056 186.985Z" fill="black" stroke="black" stroke-miterlimit="10"/>
<path d="M319.478 281.719C319.478 281.719 348.28 260.517 349.85 257.101L351.681 262.994L322.155 284.334L319.478 281.719Z" fill="#F4F6F5" stroke="black" stroke-miterlimit="10"/>
<path d="M160.601 322.291H35.6814V474.044H160.601V322.291Z" fill="#CBCBCB" stroke="black" stroke-miterlimit="10"/>
<path d="M26.25 322.291H169.633" stroke="black" stroke-miterlimit="10"/>
<path d="M198.574 377.341C195.918 381.687 194.417 386.64 194.212 391.729C194.007 396.818 195.106 401.876 197.405 406.421C197.405 406.421 199.882 408.867 199.882 406.421C199.882 406.098 197.405 395.42 200.543 379.049C200.559 379.049 200.497 375.449 198.574 377.341Z" fill="#FFFFFA" stroke="black" stroke-miterlimit="10"/>
<path d="M207.698 380.188C205.296 384.114 203.936 388.589 203.748 393.188C203.56 397.786 204.548 402.357 206.621 406.467C206.621 406.467 208.883 408.683 208.883 406.467C207.525 398.256 207.723 389.864 209.467 381.726C209.467 381.726 209.344 378.541 207.698 380.188Z" fill="#FFFFFA" stroke="black" stroke-miterlimit="10"/>
<path d="M188.942 377.341C186.286 381.687 184.785 386.64 184.58 391.729C184.375 396.818 185.474 401.876 187.773 406.421C187.773 406.421 190.265 408.867 190.265 406.421C190.265 406.098 187.773 395.42 190.912 379.049C190.881 379.049 190.881 375.449 188.942 377.341Z" fill="#FFFFFA" stroke="black" stroke-miterlimit="10"/>
<path d="M292.336 408.344H160.601V423.269H292.336V408.344Z" fill="#F0B79A" stroke="black" stroke-miterlimit="10"/>
<path d="M292.336 381.172H160.601V386.665H292.336V381.172Z" fill="#F0B79A" stroke="black" stroke-miterlimit="10"/>
<path d="M220.637 388.678L221.422 393.632C221.422 393.632 229.807 392.602 232.1 396.14H268.503C268.503 396.14 270.919 392.894 280.15 393.632V388.678H220.637Z" fill="black" stroke="black" stroke-miterlimit="10"/>
<path d="M268.504 388.678H232.1V408.357H268.504V388.678Z" fill="#A3A3A3" stroke="black" stroke-miterlimit="10"/>
<path d="M154.585 474.043H35.6814V488.429H154.585V474.043Z" fill="#CBCBCB" stroke="#020202" stroke-miterlimit="10"/>
<path d="M164.863 474.042V427.7" stroke="#020101" stroke-width="1.5" stroke-miterlimit="10"/>
<path d="M164.863 373.476V327.133" stroke="#020101" stroke-width="1.5" stroke-miterlimit="10"/>
<path d="M41.9438 407.512H154.324" stroke="black" stroke-width="0.5" stroke-miterlimit="10"/>
<path d="M43.3283 407.513L45.0207 404.743L44.9284 404.666L40.4049 406.467L35.6814 407.513L40.4049 408.544L44.9284 410.344H45.0207L43.3283 407.513Z" fill="black"/>
<path d="M152.954 407.513L151.262 404.743L151.354 404.666L155.878 406.467L160.601 407.513L155.878 408.544L151.354 410.344H151.262L152.954 407.513Z" fill="black"/>
<path d="M88.4111 399.16C88.4111 399.786 88.2044 400.286 87.7911 400.66C87.3844 401.026 86.8344 401.21 86.1411 401.21C85.3811 401.21 84.7944 400.936 84.3811 400.39C83.9677 399.843 83.7611 399.066 83.7611 398.06V397.43C83.7611 396.33 83.9677 395.52 84.3811 395C84.8011 394.473 85.3777 394.21 86.1111 394.21C86.5577 394.21 86.9444 394.29 87.2711 394.45C87.6044 394.603 87.8577 394.813 88.0311 395.08C88.2111 395.34 88.2977 395.63 88.2911 395.95L87.1111 396.09C87.1444 395.596 87.0711 395.22 86.8911 394.96C86.7111 394.693 86.4511 394.56 86.1111 394.56C85.9044 394.56 85.7177 394.62 85.5511 394.74C85.3911 394.86 85.2644 395.086 85.1711 395.42C85.0844 395.746 85.0411 396.22 85.0411 396.84V397.7C85.2344 397.473 85.4511 397.313 85.6911 397.22C85.9377 397.126 86.1911 397.08 86.4511 397.08C86.8244 397.08 87.1577 397.163 87.4511 397.33C87.7511 397.49 87.9844 397.72 88.1511 398.02C88.3244 398.313 88.4111 398.66 88.4111 399.06V399.16ZM85.0411 398.65C85.0411 399.21 85.0844 399.653 85.1711 399.98C85.2577 400.3 85.3844 400.526 85.5511 400.66C85.7244 400.793 85.9344 400.86 86.1811 400.86C86.4811 400.86 86.7211 400.736 86.9011 400.49C87.0877 400.243 87.1811 399.82 87.1811 399.22V399.12C87.1811 398.626 87.1077 398.236 86.9611 397.95C86.8144 397.663 86.5611 397.52 86.2011 397.52C86.0077 397.52 85.8044 397.576 85.5911 397.69C85.3777 397.796 85.1944 397.973 85.0411 398.22V398.65ZM94.4416 397.39V398.02C94.4416 398.66 94.345 399.22 94.1516 399.7C93.965 400.18 93.6883 400.553 93.3216 400.82C92.955 401.08 92.5116 401.21 91.9916 401.21C91.4716 401.21 91.0283 401.08 90.6616 400.82C90.295 400.553 90.015 400.18 89.8216 399.7C89.635 399.22 89.5416 398.66 89.5416 398.02V397.39C89.5416 396.75 89.635 396.193 89.8216 395.72C90.015 395.24 90.295 394.87 90.6616 394.61C91.0283 394.343 91.4716 394.21 91.9916 394.21C92.5116 394.21 92.955 394.343 93.3216 394.61C93.6883 394.87 93.965 395.24 94.1516 395.72C94.345 396.193 94.4416 396.75 94.4416 397.39ZM93.1116 396.69C93.1116 395.93 93.015 395.386 92.8216 395.06C92.6283 394.726 92.3516 394.56 91.9916 394.56C91.6316 394.56 91.355 394.726 91.1616 395.06C90.9683 395.386 90.8716 395.93 90.8716 396.69V398.72C90.8716 399.486 90.9683 400.036 91.1616 400.37C91.355 400.696 91.6316 400.86 91.9916 400.86C92.3516 400.86 92.6283 400.696 92.8216 400.37C93.015 400.036 93.1116 399.486 93.1116 398.72V396.69ZM100.02 396.29C99.7001 396.29 99.4601 396.443 99.3001 396.75C99.1467 397.05 99.0701 397.556 99.0701 398.27V398.87C99.0701 399.576 99.1601 400.086 99.3401 400.4C99.5201 400.706 99.8134 400.86 100.22 400.86C100.52 400.86 100.763 400.776 100.95 400.61C101.143 400.436 101.253 400.146 101.28 399.74L101.92 399.92C101.8 400.386 101.58 400.72 101.26 400.92C100.947 401.113 100.577 401.21 100.15 401.21C99.3834 401.21 98.8067 400.98 98.4201 400.52C98.0334 400.053 97.8401 399.436 97.8401 398.67V398.47C97.8401 397.703 98.0267 397.09 98.4001 396.63C98.7734 396.17 99.3134 395.94 100.02 395.94C100.487 395.94 100.867 396.033 101.16 396.22C101.46 396.4 101.67 396.64 101.79 396.94C101.917 397.233 101.95 397.55 101.89 397.89L100.79 398.05C100.863 397.49 100.833 397.056 100.7 396.75C100.567 396.443 100.34 396.29 100.02 396.29ZM108.359 400.83V401.11H105.669V400.83L106.219 400.76C106.326 400.746 106.389 400.72 106.409 400.68C106.429 400.633 106.439 400.496 106.439 400.27V397.75C106.439 397.29 106.376 396.956 106.249 396.75C106.123 396.536 105.933 396.43 105.679 396.43C105.573 396.43 105.446 396.46 105.299 396.52C105.153 396.573 105.006 396.673 104.859 396.82C104.719 396.966 104.596 397.183 104.489 397.47V400.27C104.489 400.496 104.499 400.633 104.519 400.68C104.539 400.72 104.603 400.746 104.709 400.76L105.259 400.83V401.11H102.569V400.83L103.119 400.76C103.226 400.746 103.289 400.72 103.309 400.68C103.329 400.633 103.339 400.496 103.339 400.27V396.88C103.339 396.653 103.329 396.52 103.309 396.48C103.289 396.433 103.226 396.403 103.119 396.39L102.569 396.32V396.04H104.429V396.92C104.616 396.58 104.856 396.333 105.149 396.18C105.443 396.02 105.739 395.94 106.039 395.94C106.399 395.94 106.703 396.033 106.949 396.22C107.203 396.4 107.383 396.66 107.489 397C107.669 396.626 107.913 396.356 108.219 396.19C108.526 396.023 108.833 395.94 109.139 395.94C109.613 395.94 109.989 396.096 110.269 396.41C110.549 396.723 110.689 397.166 110.689 397.74V400.27C110.689 400.496 110.699 400.633 110.719 400.68C110.739 400.72 110.803 400.746 110.909 400.76L111.459 400.83V401.11H108.769V400.83L109.319 400.76C109.426 400.746 109.489 400.72 109.509 400.68C109.529 400.633 109.539 400.496 109.539 400.27V397.75C109.539 397.29 109.476 396.956 109.349 396.75C109.223 396.536 109.033 396.43 108.779 396.43C108.673 396.43 108.546 396.46 108.399 396.52C108.253 396.573 108.106 396.676 107.959 396.83C107.813 396.983 107.686 397.206 107.579 397.5C107.586 397.533 107.589 397.573 107.589 397.62C107.589 397.66 107.589 397.7 107.589 397.74V400.27C107.589 400.496 107.599 400.633 107.619 400.68C107.639 400.72 107.703 400.746 107.809 400.76L108.359 400.83Z" fill="black"/>
<path d="M688.277 133.734C687.069 138.654 686.772 143.754 687.4 148.781C688.461 156.105 692.462 163.844 698.062 166.26C698.725 166.543 699.416 166.754 700.124 166.891C710.648 168.999 718.418 152.074 718.418 152.074L713.802 136.088L688.277 133.734Z" fill="#F6F6F6" stroke="#020202" stroke-miterlimit="10"/>
<path d="M684.969 341.769C684.969 341.769 671.614 368.279 672.398 372.402C672.05 374.485 672.05 376.612 672.398 378.695C673.014 381.049 697.17 434.285 696.185 448.425C695.201 462.565 696.001 461.98 693.108 467.088C690.216 472.196 691.939 478.674 691.939 478.674H708.633L710.171 461.98C710.57 450.43 710.308 438.866 709.387 427.346C708.749 421.255 707.722 415.211 706.309 409.252C704.694 402.59 703.432 396.528 702.386 393.297C696.893 378.111 697.77 379.711 698.062 374.833C698.693 364.063 715.541 346.154 716.926 341.83C718.31 337.507 684.969 341.769 684.969 341.769Z" fill="#F6F6F6" stroke="black" stroke-miterlimit="10"/>
<path d="M725.234 474.936L716.003 479.844L712.002 469.443C714.556 418.177 705.925 396.76 703.755 387.143C701.586 377.527 700.678 344.909 700.678 344.909L732.496 339.016C732.496 339.016 721.895 362.987 726.342 384.974C730.773 406.514 728.665 438.348 726.342 448.426L725.234 474.936Z" fill="#F6F6F6" stroke="black" stroke-miterlimit="10"/>
<path d="M700.278 187.585C700.278 187.585 685.553 208.403 684.569 212.526C683.584 216.65 683.199 225.681 689.677 230.005C696.154 234.328 692.893 307.597 684.015 323.69C675.137 339.784 681.645 348.554 681.645 348.554C681.645 348.554 695.97 356.494 709.509 348.447C723.049 340.4 738.743 352.909 738.743 352.909C738.743 352.909 749.144 295.811 735.989 280.286C722.834 264.762 738.158 216.05 738.158 216.05L727.188 157.921L711.248 168.999L700.278 187.585Z" fill="#0F56FE" stroke="#020202" stroke-miterlimit="10"/>
<path d="M718.556 167.552C718.941 173.045 713.833 179.522 713.833 179.522C707.555 188.954 695.185 194.062 695.185 194.062C693.8 192.093 696.724 188.369 696.724 188.369C695.185 183.846 701.832 177.368 701.832 177.368C698.093 168.521 706.14 166.752 705.171 161.982C702.878 150.981 707.725 147.058 707.725 147.058C698.678 143.981 685.723 132.918 685.723 132.918C685.723 132.918 691.415 106.592 722.449 122.502C725.771 124.658 728.211 127.933 729.327 131.733C731.281 138.211 732.265 157.274 734.235 160.413C735.785 162.497 736.863 164.894 737.394 167.436C737.926 169.979 737.898 172.607 737.312 175.137C735.943 183 743.79 191.247 743.79 191.247C743.79 191.247 748.713 194.201 741.051 219.541C741.051 219.541 739.282 227.388 742.42 233.681C742.42 233.681 729.065 214.433 726.311 212.464C723.557 210.494 724.772 200.878 724.772 200.878C724.772 200.878 727.388 187.462 724.049 180.122L710.31 194.062C710.31 194.062 709.71 182.476 719.341 175.599L718.556 167.552Z" fill="#131210" stroke="black" stroke-miterlimit="10"/>
<path d="M701.462 216.048C689.068 234.629 671.333 249.016 650.596 257.314C650.596 257.314 639.195 256.529 635.656 258.683C632.118 260.837 623.086 270.669 623.086 270.669C623.107 271.012 623.207 271.345 623.378 271.643C623.55 271.94 623.789 272.194 624.075 272.383C624.362 272.573 624.688 272.693 625.029 272.735C625.37 272.776 625.716 272.738 626.04 272.623C628.794 272.038 636.056 270.669 636.056 270.669L646.273 272.715C647.467 272.715 648.645 272.437 649.713 271.903C650.781 271.369 651.711 270.594 652.427 269.638C654.581 266.561 665.582 259.022 687.384 251.559C687.384 251.559 712.694 229.757 715.648 222.895C718.603 216.033 701.462 216.048 701.462 216.048Z" fill="#F6F6F6" stroke="#020202" stroke-miterlimit="10"/>
<path d="M713.617 190.707L695.969 213.309C695.969 213.309 694.431 216.848 695.969 218.217C697.508 219.587 711.248 230.788 711.248 230.788C711.935 230.704 712.595 230.467 713.178 230.095C713.761 229.722 714.253 229.222 714.617 228.634C716.156 226.464 732.296 208.401 732.296 208.401C732.296 208.401 739.512 179.291 713.617 190.707Z" fill="#6698F9" stroke="black" stroke-miterlimit="10"/>
<path d="M693.016 467.088C693.016 467.088 675.737 480.828 673.014 481.428C670.29 482.028 665.751 483.582 665.551 484.505C665.448 485.944 665.448 487.389 665.551 488.828H711.125C711.125 488.828 718.187 479.197 711.125 469.965C711.094 470.027 699.493 474.35 693.016 467.088Z" fill="#0F56FE" stroke="#020202" stroke-miterlimit="10"/>
<path d="M707.294 467.088C707.294 467.088 690 480.828 687.292 481.428C684.584 482.028 680.014 483.582 679.83 484.505C679.727 485.944 679.727 487.389 679.83 488.828H725.388C725.388 488.828 732.465 479.197 725.388 469.965C725.357 470.027 713.771 474.35 707.294 467.088Z" fill="#0F56FE" stroke="#020202" stroke-miterlimit="10"/>
<path d="M622.84 277.963H479.319V462.334H622.84V277.963Z" fill="#CBCBCB" stroke="black" stroke-miterlimit="10"/>
<path d="M611.777 462.334H479.257V487.783H611.777V462.334Z" fill="#CBCBCB" stroke="black" stroke-miterlimit="10"/>
<path d="M498.274 277.5V299.564C498.274 310.811 504.244 319.935 511.629 319.935H596.606C603.992 319.935 609.961 310.811 609.961 299.564V277.5H498.274Z" fill="white"/>
<path d="M499.813 277.5H498.274V279.039" stroke="black" stroke-miterlimit="10"/>
<path d="M498.274 282.087V299.565C498.274 310.813 504.244 319.937 511.629 319.937H596.606C603.992 319.937 609.961 310.813 609.961 299.565V280.564" stroke="black" stroke-miterlimit="10" stroke-dasharray="1.98 1.98"/>
<path d="M610.023 279.039V277.5H608.484" stroke="black" stroke-miterlimit="10"/>
<path d="M605.392 277.5H501.351" stroke="black" stroke-miterlimit="10" stroke-dasharray="2.02 2.02"/>
<path d="M529.138 230.759C529.138 230.759 525.477 252.422 521.676 256.3C517.876 260.177 539.678 258.315 539.678 258.131C539.678 257.946 534.047 232.913 534.185 230.436L529.138 230.759Z" fill="#FFFFFB" stroke="black" stroke-miterlimit="10"/>
<path d="M511.983 284.581C511.983 284.581 505.306 265.917 506.09 263.04C506.875 260.163 512.907 251.193 526.446 255.162C526.446 255.162 533.555 260.271 538.355 249.008C543.155 237.745 557.88 243.9 557.88 243.9C557.88 243.9 571.312 260.225 569.266 255.486C568.789 254.362 586.76 246.254 592.652 263.856C593.184 266.807 593.184 269.829 592.652 272.78C592.652 272.78 599.13 272.98 596.176 282.396C596.176 282.396 595.791 295.412 599.253 299.028C599.253 299.028 573.912 314.03 546.602 305.583C519.292 297.136 511.983 284.581 511.983 284.581Z" fill="white" stroke="black" stroke-miterlimit="10"/>
<path d="M565.742 295.579C565.742 295.579 568.481 300.087 575.558 300.087C575.558 300.087 593.237 275.146 584.205 270.438L586.775 263.868L581.836 261.991L579.282 267.684C579.282 267.684 569.465 261.991 565.742 295.579Z" fill="#649CFF" stroke="black" stroke-miterlimit="10"/>
<path d="M513.522 263.946C513.522 263.946 518.23 261.592 565.834 282.024C565.834 282.024 557.433 304.611 533.831 297.733C510.229 290.856 507.983 274.562 513.522 263.946Z" fill="#FEFDD1" stroke="black" stroke-miterlimit="10"/>
<path d="M505.244 270.439C505.244 270.439 502.49 297.349 520.63 306.381C538.77 315.412 554.818 309.719 562.48 295.18L505.244 270.439Z" fill="#F7F771" stroke="black" stroke-miterlimit="10"/>
<path d="M528.815 267.469C528.815 267.469 531.169 256.083 540.601 264.915" stroke="black" stroke-miterlimit="10"/>
<path d="M542.556 265.717C542.556 265.717 543.079 256.839 551.064 261.578C551.064 261.578 546.294 252.561 556.311 255.116" stroke="black" stroke-miterlimit="10"/>
<path d="M471.979 277.963H635.395" stroke="black" stroke-miterlimit="10"/>
<path d="M628.071 277.963V335.845" stroke="black" stroke-miterlimit="10"/>
<path d="M628.071 341.86V397.65" stroke="black" stroke-miterlimit="10"/>
<path d="M628.071 402.881V462.333" stroke="black" stroke-miterlimit="10"/>
<path d="M491.104 226.371H482.719V277.499H491.104V226.371Z" fill="#F8BFA2" stroke="black" stroke-miterlimit="10"/>
<path d="M487.012 265.623C490.793 265.623 493.858 262.557 493.858 258.776C493.858 254.995 490.793 251.929 487.012 251.929C483.23 251.929 480.165 254.995 480.165 258.776C480.165 262.557 483.23 265.623 487.012 265.623Z" fill="#F7F17F" stroke="black" stroke-miterlimit="10"/>
<path d="M487.012 259.699C487.521 259.699 487.935 259.286 487.935 258.776C487.935 258.266 487.521 257.853 487.012 257.853C486.502 257.853 486.088 258.266 486.088 258.776C486.088 259.286 486.502 259.699 487.012 259.699Z" fill="black"/>
<path d="M527.046 224.082L528.816 231.744H534.709L536.463 224.082H527.046Z" fill="#F7F771" stroke="black" stroke-miterlimit="10"/>
<path d="M536.463 225.327V220.157H482.75V225.327H536.463Z" fill="#F8BFA2" stroke="black" stroke-miterlimit="10"/>
<path d="M505.09 235.16C505.09 235.16 494.32 243.007 502.29 248.315C510.26 253.623 512.506 242.345 512.506 242.345C512.506 242.345 510.829 235.283 505.09 235.16Z" fill="white" stroke="black" stroke-miterlimit="10"/>
<path d="M558.141 230.437C558.141 230.437 564.942 230.175 560.88 236.853C556.818 243.531 551.987 232.268 558.141 230.437Z" fill="white" stroke="black" stroke-miterlimit="10"/>
<path d="M568.681 221.91C568.681 221.91 569.096 212.155 576.251 214.217C583.405 216.278 582.405 224.987 580.267 226.402C578.128 227.818 570.05 230.757 568.681 221.91Z" fill="white" stroke="black" stroke-miterlimit="10"/>
<path d="M586.774 231.742C586.774 231.742 587.544 223.619 594.606 225.327C601.668 227.034 599.329 235.866 599.329 235.866C599.329 235.866 596.575 240.836 591.852 238.943C587.128 237.051 587.174 235.666 586.774 231.742Z" fill="white" stroke="black" stroke-miterlimit="10"/>
<path d="M508.505 239.375C508.505 239.375 513.229 246.145 505.967 246.929L508.505 239.375Z" fill="white"/>
<path d="M508.505 239.375C508.505 239.375 513.229 246.145 505.967 246.929" stroke="#3185FF" stroke-miterlimit="10" stroke-linecap="round"/>
<path d="M557.741 233.049C557.741 233.049 559.711 232.788 559.28 234.68L557.741 233.049Z" fill="white"/>
<path d="M557.741 233.049C557.741 233.049 559.711 232.788 559.28 234.68" stroke="#3185FF" stroke-miterlimit="10" stroke-linecap="round"/>
<path d="M572.943 217.34C572.943 217.34 578.959 214.909 578.959 222.74L572.943 217.34Z" fill="white"/>
<path d="M572.943 217.34C572.943 217.34 578.959 214.909 578.959 222.74" stroke="#3185FF" stroke-miterlimit="10" stroke-linecap="round"/>
<path d="M591.145 228.603C591.145 228.603 597.822 226.418 595.991 233.865L591.145 228.603Z" fill="white"/>
<path d="M591.145 228.603C591.145 228.603 597.822 226.418 595.991 233.865" stroke="#3185FF" stroke-miterlimit="10" stroke-linecap="round"/>
<path d="M509.075 263.163C509.075 263.163 516.768 255.716 524 257.87C531.231 260.024 538.57 258.655 539.678 255.608C540.786 252.562 544.725 241.653 555.187 246.084C555.187 246.084 562.296 255.901 565.742 257.87" stroke="#3185FF" stroke-miterlimit="10" stroke-linecap="round"/>
<path d="M486.242 391.497H616.562" stroke="black" stroke-width="0.5" stroke-miterlimit="10"/>
<path d="M487.627 391.496L489.304 388.727H489.212L484.688 390.511L479.965 391.558L484.688 392.589L489.212 394.389H489.304L487.627 391.496Z" fill="black"/>
<path d="M615.178 391.496L613.485 388.727H613.577L618.147 390.45L622.871 391.496L618.147 392.527L613.531 394.327H613.439L615.178 391.496Z" fill="black"/>
<path d="M693.029 262.968C693.029 262.968 723.905 261.568 731.65 258.502L731.354 265.271C731.354 265.271 693.792 270.787 692.689 267.448C691.586 264.109 693.029 262.968 693.029 262.968Z" fill="#FEFDD1" stroke="black" stroke-miterlimit="10"/>
<path d="M544.911 381.314C544.911 381.94 544.704 382.44 544.291 382.814C543.884 383.18 543.334 383.364 542.641 383.364C541.881 383.364 541.294 383.09 540.881 382.544C540.467 381.997 540.261 381.22 540.261 380.214V379.584C540.261 378.484 540.467 377.674 540.881 377.154C541.301 376.627 541.877 376.364 542.611 376.364C543.057 376.364 543.444 376.444 543.771 376.604C544.104 376.757 544.357 376.967 544.531 377.234C544.711 377.494 544.797 377.784 544.791 378.104L543.611 378.244C543.644 377.75 543.571 377.374 543.391 377.114C543.211 376.847 542.951 376.714 542.611 376.714C542.404 376.714 542.217 376.774 542.051 376.894C541.891 377.014 541.764 377.24 541.671 377.574C541.584 377.9 541.541 378.374 541.541 378.994V379.854C541.734 379.627 541.951 379.467 542.191 379.374C542.437 379.28 542.691 379.234 542.951 379.234C543.324 379.234 543.657 379.317 543.951 379.484C544.251 379.644 544.484 379.874 544.651 380.174C544.824 380.467 544.911 380.814 544.911 381.214V381.314ZM541.541 380.804C541.541 381.364 541.584 381.807 541.671 382.134C541.757 382.454 541.884 382.68 542.051 382.814C542.224 382.947 542.434 383.014 542.681 383.014C542.981 383.014 543.221 382.89 543.401 382.644C543.587 382.397 543.681 381.974 543.681 381.374V381.274C543.681 380.78 543.607 380.39 543.461 380.104C543.314 379.817 543.061 379.674 542.701 379.674C542.507 379.674 542.304 379.73 542.091 379.844C541.877 379.95 541.694 380.127 541.541 380.374V380.804ZM550.941 379.544V380.174C550.941 380.814 550.845 381.374 550.651 381.854C550.465 382.334 550.188 382.707 549.821 382.974C549.455 383.234 549.011 383.364 548.491 383.364C547.971 383.364 547.528 383.234 547.161 382.974C546.795 382.707 546.515 382.334 546.321 381.854C546.135 381.374 546.041 380.814 546.041 380.174V379.544C546.041 378.904 546.135 378.347 546.321 377.874C546.515 377.394 546.795 377.024 547.161 376.764C547.528 376.497 547.971 376.364 548.491 376.364C549.011 376.364 549.455 376.497 549.821 376.764C550.188 377.024 550.465 377.394 550.651 377.874C550.845 378.347 550.941 378.904 550.941 379.544ZM549.611 378.844C549.611 378.084 549.515 377.54 549.321 377.214C549.128 376.88 548.851 376.714 548.491 376.714C548.131 376.714 547.855 376.88 547.661 377.214C547.468 377.54 547.371 378.084 547.371 378.844V380.874C547.371 381.64 547.468 382.19 547.661 382.524C547.855 382.85 548.131 383.014 548.491 383.014C548.851 383.014 549.128 382.85 549.321 382.524C549.515 382.19 549.611 381.64 549.611 380.874V378.844ZM556.52 378.444C556.2 378.444 555.96 378.597 555.8 378.904C555.646 379.204 555.57 379.71 555.57 380.424V381.024C555.57 381.73 555.66 382.24 555.84 382.554C556.02 382.86 556.313 383.014 556.72 383.014C557.02 383.014 557.263 382.93 557.45 382.764C557.643 382.59 557.753 382.3 557.78 381.894L558.42 382.074C558.3 382.54 558.08 382.874 557.76 383.074C557.446 383.267 557.076 383.364 556.65 383.364C555.883 383.364 555.306 383.134 554.92 382.674C554.533 382.207 554.34 381.59 554.34 380.824V380.624C554.34 379.857 554.526 379.244 554.9 378.784C555.273 378.324 555.813 378.094 556.52 378.094C556.986 378.094 557.366 378.187 557.66 378.374C557.96 378.554 558.17 378.794 558.29 379.094C558.416 379.387 558.45 379.704 558.39 380.044L557.29 380.204C557.363 379.644 557.333 379.21 557.2 378.904C557.066 378.597 556.84 378.444 556.52 378.444ZM564.859 382.984V383.264H562.169V382.984L562.719 382.914C562.826 382.9 562.889 382.874 562.909 382.834C562.929 382.787 562.939 382.65 562.939 382.424V379.904C562.939 379.444 562.876 379.11 562.749 378.904C562.622 378.69 562.432 378.584 562.179 378.584C562.072 378.584 561.946 378.614 561.799 378.674C561.652 378.727 561.506 378.827 561.359 378.974C561.219 379.12 561.096 379.337 560.989 379.624V382.424C560.989 382.65 560.999 382.787 561.019 382.834C561.039 382.874 561.102 382.9 561.209 382.914L561.759 382.984V383.264H559.069V382.984L559.619 382.914C559.726 382.9 559.789 382.874 559.809 382.834C559.829 382.787 559.839 382.65 559.839 382.424V379.034C559.839 378.807 559.829 378.674 559.809 378.634C559.789 378.587 559.726 378.557 559.619 378.544L559.069 378.474V378.194H560.929V379.074C561.116 378.734 561.356 378.487 561.649 378.334C561.942 378.174 562.239 378.094 562.539 378.094C562.899 378.094 563.202 378.187 563.449 378.374C563.702 378.554 563.882 378.814 563.989 379.154C564.169 378.78 564.412 378.51 564.719 378.344C565.026 378.177 565.332 378.094 565.639 378.094C566.112 378.094 566.489 378.25 566.769 378.564C567.049 378.877 567.189 379.32 567.189 379.894V382.424C567.189 382.65 567.199 382.787 567.219 382.834C567.239 382.874 567.302 382.9 567.409 382.914L567.959 382.984V383.264H565.269V382.984L565.819 382.914C565.926 382.9 565.989 382.874 566.009 382.834C566.029 382.787 566.039 382.65 566.039 382.424V379.904C566.039 379.444 565.976 379.11 565.849 378.904C565.722 378.69 565.532 378.584 565.279 378.584C565.172 378.584 565.046 378.614 564.899 378.674C564.752 378.727 564.606 378.83 564.459 378.984C564.312 379.137 564.186 379.36 564.079 379.654C564.086 379.687 564.089 379.727 564.089 379.774C564.089 379.814 564.089 379.854 564.089 379.894V382.424C564.089 382.65 564.099 382.787 564.119 382.834C564.139 382.874 564.202 382.9 564.309 382.914L564.859 382.984Z" fill="black"/>
<path d="M930.334 34.2468H902.84V488.351H930.334V34.2468Z" fill="#CBCBCB" stroke="black" stroke-miterlimit="10"/>
<path d="M1059.18 303.071H930.334V467.271H1059.18V303.071Z" fill="#CBCBCB" stroke="black" stroke-miterlimit="10"/>
<path d="M1043.47 467.288H930.334V488.352H1043.47V467.288Z" fill="#CBCBCB" stroke="black" stroke-miterlimit="10"/>
<path d="M930.334 66.7885H994.756" stroke="black" stroke-miterlimit="10"/>
<path d="M930.334 136.517H986.709" stroke="black" stroke-miterlimit="10"/>
<path d="M930.334 208.004H996.525" stroke="black" stroke-miterlimit="10"/>
<path d="M1062.59 309.364V358.861" stroke="black" stroke-miterlimit="10"/>
<path d="M1062.59 365.138V410.45" stroke="black" stroke-miterlimit="10"/>
<path d="M1062.59 418.314V467.288" stroke="black" stroke-miterlimit="10"/>
<path d="M1062.59 440.824H1072.27" stroke="black" stroke-miterlimit="10"/>
<path d="M1062.59 387.804H1070.7" stroke="black" stroke-miterlimit="10"/>
<path d="M1062.59 334.106H1070.7" stroke="black" stroke-miterlimit="10"/>
<path d="M938.581 181.461V204.248" stroke="black" stroke-miterlimit="10"/>
<path d="M933.473 169.091H943.69V184.6C942.109 186.114 940.406 187.493 938.597 188.724C938.597 188.724 933.689 185.647 933.489 184.016L933.473 169.091Z" fill="#FFFFFD" stroke="black" stroke-miterlimit="10"/>
<path d="M938.597 201.494C938.597 201.494 937.843 205.372 943.705 207.002H933.473C933.473 207.002 938.597 205.418 938.597 201.494Z" fill="black" stroke="black" stroke-miterlimit="10"/>
<path d="M954.891 181.461V204.248" stroke="black" stroke-miterlimit="10"/>
<path d="M949.783 169.091H959.999V184.6C958.414 186.114 956.705 187.493 954.891 188.724C954.891 188.724 949.983 185.647 949.783 184.016V169.091Z" fill="#FFFFFD" stroke="black" stroke-miterlimit="10"/>
<path d="M954.891 201.494C954.891 201.494 954.122 205.372 959.999 207.002H949.783C949.783 207.002 954.891 205.418 954.891 201.494Z" fill="black" stroke="black" stroke-miterlimit="10"/>
<path d="M970.8 182.153V204.924" stroke="black" stroke-miterlimit="10"/>
<path d="M965.692 169.767H975.908V185.292C974.323 186.806 972.614 188.185 970.8 189.415C970.8 189.415 965.892 186.338 965.692 184.707V169.767Z" fill="#FFFFFD" stroke="black" stroke-miterlimit="10"/>
<path d="M970.8 202.186C970.8 202.186 970.031 206.063 975.908 207.679H965.692C965.692 207.679 970.8 206.11 970.8 202.186Z" fill="black" stroke="black" stroke-miterlimit="10"/>
<path d="M988.078 182.153V204.924" stroke="black" stroke-miterlimit="10"/>
<path d="M982.97 169.767H993.187V185.292C991.601 186.806 989.893 188.185 988.078 189.415C988.078 189.415 983.216 186.261 982.97 184.723V169.767Z" fill="#FFFFFD" stroke="black" stroke-miterlimit="10"/>
<path d="M988.078 202.186C988.078 202.186 987.324 206.063 993.187 207.679H982.97C982.97 207.679 988.078 206.11 988.078 202.186Z" fill="black" stroke="black" stroke-miterlimit="10"/>
<path d="M934.627 106.563H989.817C989.817 106.563 995.71 129.335 971.754 135.043C947.797 140.751 939.935 125.611 937.766 122.734C935.596 119.857 934.627 106.563 934.627 106.563Z" fill="#FEFDD1" stroke="black" stroke-miterlimit="10"/>
<path d="M973.354 122.763C973.354 122.763 987.294 120.209 989.648 122.763C992.002 125.317 998.095 126.886 1002.42 137.303C1002.42 137.303 1070.78 185 1075.09 190.339L1080.39 197.601L1072.15 207.002C1072.15 207.002 1029.37 184.63 1012.45 161.259C995.525 137.887 985.724 136.903 983.955 134.749C982.186 132.595 973.539 127.086 973.354 122.763Z" fill="white" stroke="black" stroke-miterlimit="10"/>
<path d="M1080.39 240.621C1080.39 240.621 1037.58 289.856 1036.41 290.902C1036.41 290.902 1021.87 291.687 1019.11 292.272C1016.36 292.856 1007.53 299.349 1006.94 302.288H1035.42L1080.39 265.562V240.621Z" fill="white" stroke="black" stroke-miterlimit="10"/>
<path d="M1083.23 339.215C1083.23 339.215 1112.83 446.21 1091.61 467.288L1089 475.659L1105.75 473.566L1116.52 462.303L1120.46 397.051L1105.54 355.924L1089.04 325.814L1083.23 339.215Z" fill="#F7F7F7" stroke="black" stroke-miterlimit="10"/>
<path d="M1089.04 339.614C1089.04 339.614 1123.41 410.713 1112.01 466.103L1114.34 475.657L1127.54 463.872C1127.54 463.872 1125.18 446.332 1127.54 432.192C1129.89 418.052 1130.15 366.447 1117.58 330.644L1089.04 339.614Z" fill="#F7F7F7" stroke="black" stroke-miterlimit="10"/>
<path d="M1072.15 209.771C1072.15 209.771 1063.7 214.879 1066.3 227.804C1068.9 240.728 1076.43 245.482 1076.52 257.037C1076.61 268.592 1070.36 323.813 1079.46 344.83C1079.46 344.83 1120.32 348.369 1127.58 344.83C1127.58 344.83 1133.86 306.534 1127.58 291.81C1121.31 277.085 1113.44 265.653 1113.04 254.083C1112.64 242.513 1111.09 220.695 1112.86 208.91L1072.15 209.771Z" fill="#0F56FE" stroke="black" stroke-miterlimit="10"/>
<path d="M1077.64 189.418C1077.64 189.418 1066.25 199.573 1066.25 210.558L1094.93 222.344C1094.93 222.344 1118.89 226.283 1105.34 195.049C1096.52 191.526 1087.14 189.619 1077.64 189.418Z" fill="#609BF9" stroke="black" stroke-miterlimit="10"/>
<path d="M1078.43 141.425C1078.43 141.425 1066.45 169.904 1081.96 175.012C1097.47 180.121 1101.21 163.181 1101.21 163.181L1091.98 139.609L1078.43 141.425Z" fill="white" stroke="black" stroke-miterlimit="10"/>
<path d="M1093.75 156.936C1093.75 156.936 1076.83 145.935 1074.7 142.411C1074.7 142.411 1088.26 120.994 1107.11 135.734C1107.11 135.734 1121.06 143.427 1116.34 163.429C1116.34 163.429 1113.98 175.999 1118.71 184.631C1118.71 184.631 1122.05 191.124 1116.15 197.986C1116.15 197.986 1121.44 203.094 1115.75 210.756C1115.75 210.756 1126.52 225.681 1118.71 232.558C1109.32 220.538 1101.41 207.438 1095.13 193.539C1095.13 193.539 1090.81 205.986 1084.52 204.925C1078.23 203.863 1088.26 199.37 1086.69 185.031C1086.69 185.031 1074.7 189.477 1072.55 181.461C1072.55 181.461 1085.9 179.522 1086.69 171.276C1086.69 171.276 1083.35 163.029 1093.75 156.936Z" fill="black"/>
<path d="M1091.13 465.443C1091.13 465.443 1087.21 477.229 1079.87 479.599C1072.53 481.968 1071.75 480.383 1069.39 481.137C1067.04 481.891 1065.78 488.322 1065.78 488.322H1091.13C1091.13 488.322 1089.04 482.707 1101.9 482.445C1114.77 482.183 1111.34 460.704 1111.34 460.704L1091.13 465.443Z" fill="#1152FF" stroke="black" stroke-miterlimit="10"/>
<path d="M1110.41 465.629C1110.41 465.629 1106.47 477.414 1099.15 479.768C1091.83 482.122 1091.03 480.553 1088.67 481.307C1086.32 482.061 1085.04 488.492 1085.04 488.492H1110.41C1110.41 488.492 1108.32 482.876 1121.18 482.615C1120.35 482.615 1121.92 485.23 1124.14 486.984C1128.51 490.477 1135.34 490.692 1130.6 460.828L1110.41 465.629Z" fill="#1152FF" stroke="black" stroke-miterlimit="10"/>
<path d="M954.106 45.7711C954.106 45.7711 979.432 46.5558 982.186 44.7864C982.186 44.7864 987.294 55.9874 980.647 64.2344C980.647 64.2344 959.63 66.7884 956.291 64.2344C954.227 61.6741 952.927 58.5834 952.54 55.3173C952.154 52.0513 952.696 48.7424 954.106 45.7711Z" fill="#F9BEA0" stroke="black" stroke-miterlimit="10"/>
<path d="M969.23 49.1102V22" stroke="black" stroke-miterlimit="10"/>
<path d="M969.23 34.2463L980.416 32.4154" stroke="black" stroke-miterlimit="10"/>
<path d="M969.231 38.109L957.63 41.2478" stroke="black" stroke-miterlimit="10"/>
<path d="M969.23 28.6775C969.23 28.6775 961.168 28.6775 958.46 25.1387" stroke="black" stroke-miterlimit="10"/>
<path d="M1076.38 255.177C1076.38 255.177 1105.61 251.115 1112.72 247.392L1113 254.162C1113 254.162 1077.75 262.901 1076.43 259.67C1075.1 256.439 1076.38 255.177 1076.38 255.177Z" fill="#FEFDD1" stroke="black" stroke-miterlimit="10"/>
<path d="M972.569 31.2316L980.416 29.5699" stroke="#18A300" stroke-miterlimit="10"/>
<path d="M957.63 38.1092L965.492 36.4321" stroke="#18A300" stroke-miterlimit="10"/>
<path d="M959.599 22.3698L967.261 24.7392" stroke="#18A300" stroke-miterlimit="10"/>
<path d="M936.612 400.758H1052.33" stroke="black" stroke-width="0.5" stroke-miterlimit="10"/>
<path d="M937.981 400.757L939.674 397.988H939.581L935.058 399.788L930.334 400.819L935.058 401.865L939.581 403.65H939.674L937.981 400.757Z" fill="black"/>
<path d="M1050.91 400.757L1049.22 397.988H1049.31L1053.84 399.788L1058.56 400.819L1053.84 401.865L1049.38 403.588H1049.28L1050.91 400.757Z" fill="black"/>
<path d="M1158.82 476.168V136.828" stroke="black" stroke-width="0.5" stroke-miterlimit="10"/>
<path d="M1158.82 474.78L1156.05 473.103V473.195L1157.83 477.719C1158.19 479.258 1158.53 480.796 1158.88 482.442C1159.22 480.904 1159.57 479.288 1159.93 477.719L1161.71 473.195V473.103L1158.82 474.78Z" fill="black"/>
<path d="M1158.82 138.213L1156.05 139.89V139.798L1157.83 135.275C1158.19 133.736 1158.53 132.197 1158.88 130.551C1159.22 132.09 1159.57 133.628 1159.93 135.275L1161.69 139.798V139.89L1158.82 138.213Z" fill="black"/>
<path d="M872.191 440.577V317.458" stroke="black" stroke-width="0.5" stroke-miterlimit="10"/>
<path d="M872.191 439.208L869.36 437.515V437.608L871.16 442.131C871.498 443.67 871.852 445.285 872.191 446.855C872.545 445.316 872.883 443.701 873.237 442.131L875.022 437.608V437.515L872.191 439.208Z" fill="black"/>
<path d="M872.191 318.844L869.36 320.536V320.444L871.16 315.92C871.498 314.382 871.852 312.766 872.191 311.197C872.545 312.735 872.883 314.351 873.237 315.92L875.022 320.444V320.536L872.191 318.844Z" fill="black"/>
<path d="M872.191 255.022V53.8643" stroke="black" stroke-width="0.5" stroke-miterlimit="10"/>
<path d="M872.191 253.638L869.36 251.96V252.053L871.16 256.576C871.498 258.115 871.852 259.653 872.191 261.3C872.545 259.761 872.883 258.146 873.237 256.576L875.022 252.053V251.96L872.191 253.638Z" fill="black"/>
<path d="M872.191 55.2494L869.36 57.0188V56.9111L871.16 52.403C871.498 50.8644 871.852 49.2488 872.191 47.6794C872.545 49.218 872.883 50.7567 873.237 52.403L875.022 56.9111V57.0188L872.191 55.2494Z" fill="black"/>
<path d="M872.191 484.212V473.549" stroke="black" stroke-width="0.5" stroke-miterlimit="10"/>
<path d="M872.191 482.827L869.36 481.15V481.242L871.16 485.75C871.498 487.289 871.852 488.904 872.191 490.489C872.545 488.95 872.883 487.335 873.237 485.75L875.022 481.242V481.15L872.191 482.827Z" fill="black"/>
<path d="M872.191 474.935L869.36 476.612V476.52L871.16 472.012C871.498 470.473 871.852 468.857 872.191 467.288C872.545 468.827 872.883 470.365 873.237 472.012L875.022 476.52V476.612L872.191 474.935Z" fill="black"/>
<path d="M988.078 55.0803H999.279" stroke="black" stroke-width="0.5" stroke-miterlimit="10"/>
<path d="M1003.93 55.0807C1001.55 55.9266 999.327 57.1643 997.356 58.7426L998.679 55.0807L997.356 51.4188C999.334 52.9859 1001.55 54.2225 1003.93 55.0807Z" fill="black"/>
<path d="M949.321 55.0803H938.104" stroke="black" stroke-width="0.5" stroke-miterlimit="10"/>
<path d="M933.473 55.0807C935.847 54.2225 938.065 52.9859 940.043 51.4188L938.72 55.0807L940.043 58.7272C938.068 57.1593 935.849 55.9274 933.473 55.0807Z" fill="black"/>
<path d="M830.314 472.287L831.704 471.397H832.664V477.357C832.664 477.584 832.674 477.721 832.694 477.767C832.714 477.807 832.777 477.834 832.884 477.847L833.434 477.917V478.197H830.494V477.917L831.244 477.847C831.351 477.834 831.414 477.807 831.434 477.767C831.454 477.721 831.464 477.584 831.464 477.357V471.977L830.504 472.587L830.314 472.287ZM839.306 474.477V475.107C839.306 475.747 839.21 476.307 839.016 476.787C838.83 477.267 838.553 477.641 838.186 477.907C837.82 478.167 837.376 478.297 836.856 478.297C836.336 478.297 835.893 478.167 835.526 477.907C835.16 477.641 834.88 477.267 834.686 476.787C834.5 476.307 834.406 475.747 834.406 475.107V474.477C834.406 473.837 834.5 473.281 834.686 472.807C834.88 472.327 835.16 471.957 835.526 471.697C835.893 471.431 836.336 471.297 836.856 471.297C837.376 471.297 837.82 471.431 838.186 471.697C838.553 471.957 838.83 472.327 839.016 472.807C839.21 473.281 839.306 473.837 839.306 474.477ZM837.976 473.777C837.976 473.017 837.88 472.474 837.686 472.147C837.493 471.814 837.216 471.647 836.856 471.647C836.496 471.647 836.22 471.814 836.026 472.147C835.833 472.474 835.736 473.017 835.736 473.777V475.807C835.736 476.574 835.833 477.124 836.026 477.457C836.22 477.784 836.496 477.947 836.856 477.947C837.216 477.947 837.493 477.784 837.686 477.457C837.88 477.124 837.976 476.574 837.976 475.807V473.777ZM844.885 473.377C844.565 473.377 844.325 473.531 844.165 473.837C844.011 474.137 843.935 474.644 843.935 475.357V475.957C843.935 476.664 844.025 477.174 844.205 477.487C844.385 477.794 844.678 477.947 845.085 477.947C845.385 477.947 845.628 477.864 845.815 477.697C846.008 477.524 846.118 477.234 846.145 476.827L846.785 477.007C846.665 477.474 846.445 477.807 846.125 478.007C845.811 478.201 845.441 478.297 845.015 478.297C844.248 478.297 843.671 478.067 843.285 477.607C842.898 477.141 842.705 476.524 842.705 475.757V475.557C842.705 474.791 842.891 474.177 843.265 473.717C843.638 473.257 844.178 473.027 844.885 473.027C845.351 473.027 845.731 473.121 846.025 473.307C846.325 473.487 846.535 473.727 846.655 474.027C846.781 474.321 846.815 474.637 846.755 474.977L845.655 475.137C845.728 474.577 845.698 474.144 845.565 473.837C845.431 473.531 845.205 473.377 844.885 473.377ZM853.224 477.917V478.197H850.534V477.917L851.084 477.847C851.191 477.834 851.254 477.807 851.274 477.767C851.294 477.721 851.304 477.584 851.304 477.357V474.837C851.304 474.377 851.241 474.044 851.114 473.837C850.987 473.624 850.797 473.517 850.544 473.517C850.437 473.517 850.311 473.547 850.164 473.607C850.017 473.661 849.871 473.761 849.724 473.907C849.584 474.054 849.461 474.271 849.354 474.557V477.357C849.354 477.584 849.364 477.721 849.384 477.767C849.404 477.807 849.467 477.834 849.574 477.847L850.124 477.917V478.197H847.434V477.917L847.984 477.847C848.091 477.834 848.154 477.807 848.174 477.767C848.194 477.721 848.204 477.584 848.204 477.357V473.967C848.204 473.741 848.194 473.607 848.174 473.567C848.154 473.521 848.091 473.491 847.984 473.477L847.434 473.407V473.127H849.294V474.007C849.481 473.667 849.721 473.421 850.014 473.267C850.307 473.107 850.604 473.027 850.904 473.027C851.264 473.027 851.567 473.121 851.814 473.307C852.067 473.487 852.247 473.747 852.354 474.087C852.534 473.714 852.777 473.444 853.084 473.277C853.391 473.111 853.697 473.027 854.004 473.027C854.477 473.027 854.854 473.184 855.134 473.497C855.414 473.811 855.554 474.254 855.554 474.827V477.357C855.554 477.584 855.564 477.721 855.584 477.767C855.604 477.807 855.667 477.834 855.774 477.847L856.324 477.917V478.197H853.634V477.917L854.184 477.847C854.291 477.834 854.354 477.807 854.374 477.767C854.394 477.721 854.404 477.584 854.404 477.357V474.837C854.404 474.377 854.341 474.044 854.214 473.837C854.087 473.624 853.897 473.517 853.644 473.517C853.537 473.517 853.411 473.547 853.264 473.607C853.117 473.661 852.971 473.764 852.824 473.917C852.677 474.071 852.551 474.294 852.444 474.587C852.451 474.621 852.454 474.661 852.454 474.707C852.454 474.747 852.454 474.787 852.454 474.827V477.357C852.454 477.584 852.464 477.721 852.484 477.767C852.504 477.807 852.567 477.834 852.674 477.847L853.224 477.917Z" fill="black"/>
<path d="M830.694 372.058H830.414V369.848H834.574V370.788C834.287 371.168 834.037 371.555 833.824 371.948C833.617 372.342 833.444 372.765 833.304 373.218C833.171 373.672 833.064 374.178 832.984 374.738C832.904 375.298 832.847 375.935 832.814 376.648H831.364C831.431 376.175 831.524 375.715 831.644 375.268C831.764 374.822 831.927 374.372 832.134 373.918C832.347 373.465 832.617 372.992 832.944 372.498C833.271 372.005 833.674 371.468 834.154 370.888H831.454C831.301 370.888 831.187 370.895 831.114 370.908C831.047 370.915 831.001 370.938 830.974 370.978C830.954 371.012 830.934 371.068 830.914 371.148L830.694 372.058ZM839.143 374.438H839.423V376.648H835.233V375.948C835.233 375.535 835.296 375.188 835.423 374.908C835.556 374.622 835.733 374.375 835.953 374.168C836.173 373.962 836.41 373.778 836.663 373.618C836.91 373.452 837.153 373.282 837.393 373.108C837.64 372.928 837.843 372.712 838.003 372.458C838.163 372.198 838.243 371.868 838.243 371.468C838.243 370.555 837.94 370.098 837.333 370.098C836.96 370.098 836.696 370.262 836.543 370.588C836.396 370.915 836.356 371.378 836.423 371.978L835.223 371.818C835.163 371.458 835.196 371.122 835.323 370.808C835.456 370.495 835.69 370.242 836.023 370.048C836.363 369.848 836.803 369.748 837.343 369.748C837.87 369.748 838.293 369.835 838.613 370.008C838.933 370.175 839.166 370.398 839.313 370.678C839.466 370.952 839.543 371.248 839.543 371.568C839.543 371.962 839.463 372.285 839.303 372.538C839.143 372.792 838.933 373.002 838.673 373.168C838.413 373.328 838.133 373.468 837.833 373.588C837.533 373.702 837.243 373.825 836.963 373.958C836.623 374.112 836.333 374.318 836.093 374.578C835.853 374.832 835.706 375.175 835.653 375.608H838.383C838.543 375.608 838.656 375.605 838.723 375.598C838.79 375.585 838.833 375.562 838.853 375.528C838.88 375.488 838.903 375.428 838.923 375.348L839.143 374.438ZM845.022 371.828C844.702 371.828 844.462 371.982 844.302 372.288C844.148 372.588 844.072 373.095 844.072 373.808V374.408C844.072 375.115 844.162 375.625 844.342 375.938C844.522 376.245 844.815 376.398 845.222 376.398C845.522 376.398 845.765 376.315 845.952 376.148C846.145 375.975 846.255 375.685 846.282 375.278L846.922 375.458C846.802 375.925 846.582 376.258 846.262 376.458C845.948 376.652 845.578 376.748 845.152 376.748C844.385 376.748 843.808 376.518 843.422 376.058C843.035 375.592 842.842 374.975 842.842 374.208V374.008C842.842 373.242 843.028 372.628 843.402 372.168C843.775 371.708 844.315 371.478 845.022 371.478C845.488 371.478 845.868 371.572 846.162 371.758C846.462 371.938 846.672 372.178 846.792 372.478C846.918 372.772 846.952 373.088 846.892 373.428L845.792 373.588C845.865 373.028 845.835 372.595 845.702 372.288C845.568 371.982 845.342 371.828 845.022 371.828ZM853.361 376.368V376.648H850.671V376.368L851.221 376.298C851.327 376.285 851.391 376.258 851.411 376.218C851.431 376.172 851.441 376.035 851.441 375.808V373.288C851.441 372.828 851.377 372.495 851.251 372.288C851.124 372.075 850.934 371.968 850.681 371.968C850.574 371.968 850.447 371.998 850.301 372.058C850.154 372.112 850.007 372.212 849.861 372.358C849.721 372.505 849.597 372.722 849.491 373.008V375.808C849.491 376.035 849.501 376.172 849.521 376.218C849.541 376.258 849.604 376.285 849.711 376.298L850.261 376.368V376.648H847.571V376.368L848.121 376.298C848.227 376.285 848.291 376.258 848.311 376.218C848.331 376.172 848.341 376.035 848.341 375.808V372.418C848.341 372.192 848.331 372.058 848.311 372.018C848.291 371.972 848.227 371.942 848.121 371.928L847.571 371.858V371.578H849.431V372.458C849.617 372.118 849.857 371.872 850.151 371.718C850.444 371.558 850.741 371.478 851.041 371.478C851.401 371.478 851.704 371.572 851.951 371.758C852.204 371.938 852.384 372.198 852.491 372.538C852.671 372.165 852.914 371.895 853.221 371.728C853.527 371.562 853.834 371.478 854.141 371.478C854.614 371.478 854.991 371.635 855.271 371.948C855.551 372.262 855.691 372.705 855.691 373.278V375.808C855.691 376.035 855.701 376.172 855.721 376.218C855.741 376.258 855.804 376.285 855.911 376.298L856.461 376.368V376.648H853.771V376.368L854.321 376.298C854.427 376.285 854.491 376.258 854.511 376.218C854.531 376.172 854.541 376.035 854.541 375.808V373.288C854.541 372.828 854.477 372.495 854.351 372.288C854.224 372.075 854.034 371.968 853.781 371.968C853.674 371.968 853.547 371.998 853.401 372.058C853.254 372.112 853.107 372.215 852.961 372.368C852.814 372.522 852.687 372.745 852.581 373.038C852.587 373.072 852.591 373.112 852.591 373.158C852.591 373.198 852.591 373.238 852.591 373.278V375.808C852.591 376.035 852.601 376.172 852.621 376.218C852.641 376.258 852.704 376.285 852.811 376.298L853.361 376.368Z" fill="black"/>
<path d="M838.434 150.063C838.434 150.689 838.227 151.189 837.814 151.563C837.407 151.929 836.857 152.113 836.164 152.113C835.404 152.113 834.817 151.839 834.404 151.293C833.991 150.746 833.784 149.969 833.784 148.963V148.333C833.784 147.233 833.991 146.423 834.404 145.903C834.824 145.376 835.401 145.113 836.134 145.113C836.581 145.113 836.967 145.193 837.294 145.353C837.627 145.506 837.881 145.716 838.054 145.983C838.234 146.243 838.321 146.533 838.314 146.853L837.134 146.993C837.167 146.499 837.094 146.123 836.914 145.863C836.734 145.596 836.474 145.463 836.134 145.463C835.927 145.463 835.741 145.523 835.574 145.643C835.414 145.763 835.287 145.989 835.194 146.323C835.107 146.649 835.064 147.123 835.064 147.743V148.603C835.257 148.376 835.474 148.216 835.714 148.123C835.961 148.029 836.214 147.983 836.474 147.983C836.847 147.983 837.181 148.066 837.474 148.233C837.774 148.393 838.007 148.623 838.174 148.923C838.347 149.216 838.434 149.563 838.434 149.963V150.063ZM835.064 149.553C835.064 150.113 835.107 150.556 835.194 150.883C835.281 151.203 835.407 151.429 835.574 151.563C835.747 151.696 835.957 151.763 836.204 151.763C836.504 151.763 836.744 151.639 836.924 151.393C837.111 151.146 837.204 150.723 837.204 150.123V150.023C837.204 149.529 837.131 149.139 836.984 148.853C836.837 148.566 836.584 148.423 836.224 148.423C836.031 148.423 835.827 148.479 835.614 148.593C835.401 148.699 835.217 148.876 835.064 149.123V149.553ZM844.465 148.293V148.923C844.465 149.563 844.368 150.123 844.175 150.603C843.988 151.083 843.711 151.456 843.345 151.723C842.978 151.983 842.535 152.113 842.015 152.113C841.495 152.113 841.051 151.983 840.685 151.723C840.318 151.456 840.038 151.083 839.845 150.603C839.658 150.123 839.565 149.563 839.565 148.923V148.293C839.565 147.653 839.658 147.096 839.845 146.623C840.038 146.143 840.318 145.773 840.685 145.513C841.051 145.246 841.495 145.113 842.015 145.113C842.535 145.113 842.978 145.246 843.345 145.513C843.711 145.773 843.988 146.143 844.175 146.623C844.368 147.096 844.465 147.653 844.465 148.293ZM843.135 147.593C843.135 146.833 843.038 146.289 842.845 145.963C842.651 145.629 842.375 145.463 842.015 145.463C841.655 145.463 841.378 145.629 841.185 145.963C840.991 146.289 840.895 146.833 840.895 147.593V149.623C840.895 150.389 840.991 150.939 841.185 151.273C841.378 151.599 841.655 151.763 842.015 151.763C842.375 151.763 842.651 151.599 842.845 151.273C843.038 150.939 843.135 150.389 843.135 149.623V147.593ZM850.043 147.193C849.723 147.193 849.483 147.346 849.323 147.653C849.17 147.953 849.093 148.459 849.093 149.173V149.773C849.093 150.479 849.183 150.989 849.363 151.303C849.543 151.609 849.836 151.763 850.243 151.763C850.543 151.763 850.786 151.679 850.973 151.513C851.166 151.339 851.276 151.049 851.303 150.643L851.943 150.823C851.823 151.289 851.603 151.623 851.283 151.823C850.97 152.016 850.6 152.113 850.173 152.113C849.406 152.113 848.83 151.883 848.443 151.423C848.056 150.956 847.863 150.339 847.863 149.573V149.373C847.863 148.606 848.05 147.993 848.423 147.533C848.796 147.073 849.336 146.843 850.043 146.843C850.51 146.843 850.89 146.936 851.183 147.123C851.483 147.303 851.693 147.543 851.813 147.843C851.94 148.136 851.973 148.453 851.913 148.793L850.813 148.953C850.886 148.393 850.856 147.959 850.723 147.653C850.59 147.346 850.363 147.193 850.043 147.193ZM858.382 151.733V152.013H855.692V151.733L856.242 151.663C856.349 151.649 856.412 151.623 856.432 151.583C856.452 151.536 856.462 151.399 856.462 151.173V148.653C856.462 148.193 856.399 147.859 856.272 147.653C856.146 147.439 855.956 147.333 855.702 147.333C855.596 147.333 855.469 147.363 855.322 147.423C855.176 147.476 855.029 147.576 854.882 147.723C854.742 147.869 854.619 148.086 854.512 148.373V151.173C854.512 151.399 854.522 151.536 854.542 151.583C854.562 151.623 854.626 151.649 854.732 151.663L855.282 151.733V152.013H852.592V151.733L853.142 151.663C853.249 151.649 853.312 151.623 853.332 151.583C853.352 151.536 853.362 151.399 853.362 151.173V147.783C853.362 147.556 853.352 147.423 853.332 147.383C853.312 147.336 853.249 147.306 853.142 147.293L852.592 147.223V146.943H854.452V147.823C854.639 147.483 854.879 147.236 855.172 147.083C855.466 146.923 855.762 146.843 856.062 146.843C856.422 146.843 856.726 146.936 856.972 147.123C857.226 147.303 857.406 147.563 857.512 147.903C857.692 147.529 857.936 147.259 858.242 147.093C858.549 146.926 858.856 146.843 859.162 146.843C859.636 146.843 860.012 146.999 860.292 147.313C860.572 147.626 860.712 148.069 860.712 148.643V151.173C860.712 151.399 860.722 151.536 860.742 151.583C860.762 151.623 860.826 151.649 860.932 151.663L861.482 151.733V152.013H858.792V151.733L859.342 151.663C859.449 151.649 859.512 151.623 859.532 151.583C859.552 151.536 859.562 151.399 859.562 151.173V148.653C859.562 148.193 859.499 147.859 859.372 147.653C859.246 147.439 859.056 147.333 858.802 147.333C858.696 147.333 858.569 147.363 858.422 147.423C858.276 147.476 858.129 147.579 857.982 147.733C857.836 147.886 857.709 148.109 857.602 148.403C857.609 148.436 857.612 148.476 857.612 148.523C857.612 148.563 857.612 148.603 857.612 148.643V151.173C857.612 151.399 857.622 151.536 857.642 151.583C857.662 151.623 857.726 151.649 857.832 151.663L858.382 151.733Z" fill="black"/>
<path d="M956.09 6.69H955.82V6.34H956.09C956.563 6.34 956.897 6.2 957.09 5.92C957.29 5.64 957.39 5.28 957.39 4.84C957.39 3.91333 957.087 3.45 956.48 3.45C956.107 3.45 955.843 3.61333 955.69 3.94C955.543 4.26667 955.503 4.73 955.57 5.33L954.37 5.17C954.31 4.81 954.343 4.47333 954.47 4.16C954.603 3.84667 954.837 3.59333 955.17 3.4C955.51 3.2 955.95 3.1 956.49 3.1C957.017 3.1 957.44 3.18333 957.76 3.35C958.08 3.51 958.313 3.72333 958.46 3.99C958.613 4.25 958.69 4.53333 958.69 4.84C958.69 5.30667 958.53 5.68333 958.21 5.97C957.89 6.25 957.433 6.43 956.84 6.51C957.46 6.59 957.933 6.77667 958.26 7.07C958.593 7.36333 958.76 7.77333 958.76 8.3C958.76 8.82667 958.56 9.26 958.16 9.6C957.76 9.93333 957.163 10.1 956.37 10.1C955.843 10.1 955.393 9.98 955.02 9.74C954.653 9.49333 954.42 9.08667 954.32 8.52L955.03 8.33C955.097 8.83667 955.237 9.2 955.45 9.42C955.67 9.64 955.947 9.75 956.28 9.75C956.693 9.75 956.993 9.63 957.18 9.39C957.367 9.14333 957.46 8.78 957.46 8.3C957.46 7.82667 957.357 7.44 957.15 7.14C956.943 6.84 956.59 6.69 956.09 6.69ZM963.634 7.79H963.914V10H959.724V9.3C959.724 8.88667 959.788 8.54 959.914 8.26C960.048 7.97333 960.224 7.72667 960.444 7.52C960.664 7.31333 960.901 7.13 961.154 6.97C961.401 6.80333 961.644 6.63333 961.884 6.46C962.131 6.28 962.334 6.06333 962.494 5.81C962.654 5.55 962.734 5.22 962.734 4.82C962.734 3.90667 962.431 3.45 961.824 3.45C961.451 3.45 961.188 3.61333 961.034 3.94C960.888 4.26667 960.848 4.73 960.914 5.33L959.714 5.17C959.654 4.81 959.688 4.47333 959.814 4.16C959.948 3.84667 960.181 3.59333 960.514 3.4C960.854 3.2 961.294 3.1 961.834 3.1C962.361 3.1 962.784 3.18667 963.104 3.36C963.424 3.52667 963.658 3.75 963.804 4.03C963.958 4.30333 964.034 4.6 964.034 4.92C964.034 5.31333 963.954 5.63667 963.794 5.89C963.634 6.14333 963.424 6.35333 963.164 6.52C962.904 6.68 962.624 6.82 962.324 6.94C962.024 7.05333 961.734 7.17667 961.454 7.31C961.114 7.46333 960.824 7.67 960.584 7.93C960.344 8.18333 960.198 8.52667 960.144 8.96H962.874C963.034 8.96 963.148 8.95667 963.214 8.95C963.281 8.93667 963.324 8.91333 963.344 8.88C963.371 8.84 963.394 8.78 963.414 8.7L963.634 7.79ZM969.513 5.18C969.193 5.18 968.953 5.33333 968.793 5.64C968.639 5.94 968.563 6.44667 968.563 7.16V7.76C968.563 8.46667 968.653 8.97667 968.833 9.29C969.013 9.59667 969.306 9.75 969.713 9.75C970.013 9.75 970.256 9.66667 970.443 9.5C970.636 9.32667 970.746 9.03667 970.773 8.63L971.413 8.81C971.293 9.27667 971.073 9.61 970.753 9.81C970.439 10.0033 970.069 10.1 969.643 10.1C968.876 10.1 968.299 9.87 967.913 9.41C967.526 8.94333 967.333 8.32667 967.333 7.56V7.36C967.333 6.59333 967.519 5.98 967.893 5.52C968.266 5.06 968.806 4.83 969.513 4.83C969.979 4.83 970.359 4.92333 970.653 5.11C970.953 5.29 971.163 5.53 971.283 5.83C971.409 6.12333 971.443 6.44 971.383 6.78L970.283 6.94C970.356 6.38 970.326 5.94667 970.193 5.64C970.059 5.33333 969.833 5.18 969.513 5.18ZM977.852 9.72V10H975.162V9.72L975.712 9.65C975.819 9.63667 975.882 9.61 975.902 9.57C975.922 9.52333 975.932 9.38667 975.932 9.16V6.64C975.932 6.18 975.869 5.84667 975.742 5.64C975.615 5.42667 975.425 5.32 975.172 5.32C975.065 5.32 974.939 5.35 974.792 5.41C974.645 5.46333 974.499 5.56333 974.352 5.71C974.212 5.85667 974.089 6.07333 973.982 6.36V9.16C973.982 9.38667 973.992 9.52333 974.012 9.57C974.032 9.61 974.095 9.63667 974.202 9.65L974.752 9.72V10H972.062V9.72L972.612 9.65C972.719 9.63667 972.782 9.61 972.802 9.57C972.822 9.52333 972.832 9.38667 972.832 9.16V5.77C972.832 5.54333 972.822 5.41 972.802 5.37C972.782 5.32333 972.719 5.29333 972.612 5.28L972.062 5.21V4.93H973.922V5.81C974.109 5.47 974.349 5.22333 974.642 5.07C974.935 4.91 975.232 4.83 975.532 4.83C975.892 4.83 976.195 4.92333 976.442 5.11C976.695 5.29 976.875 5.55 976.982 5.89C977.162 5.51667 977.405 5.24667 977.712 5.08C978.019 4.91333 978.325 4.83 978.632 4.83C979.105 4.83 979.482 4.98667 979.762 5.3C980.042 5.61333 980.182 6.05667 980.182 6.63V9.16C980.182 9.38667 980.192 9.52333 980.212 9.57C980.232 9.61 980.295 9.63667 980.402 9.65L980.952 9.72V10H978.262V9.72L978.812 9.65C978.919 9.63667 978.982 9.61 979.002 9.57C979.022 9.52333 979.032 9.38667 979.032 9.16V6.64C979.032 6.18 978.969 5.84667 978.842 5.64C978.715 5.42667 978.525 5.32 978.272 5.32C978.165 5.32 978.039 5.35 977.892 5.41C977.745 5.46333 977.599 5.56667 977.452 5.72C977.305 5.87333 977.179 6.09667 977.072 6.39C977.079 6.42333 977.082 6.46333 977.082 6.51C977.082 6.55 977.082 6.59 977.082 6.63V9.16C977.082 9.38667 977.092 9.52333 977.112 9.57C977.132 9.61 977.195 9.63667 977.302 9.65L977.852 9.72Z" fill="black"/>
<path d="M1171.19 299.961L1172.58 299.071H1173.54V305.031C1173.54 305.258 1173.55 305.394 1173.57 305.441C1173.59 305.481 1173.66 305.508 1173.76 305.521L1174.31 305.591V305.871H1171.37V305.591L1172.12 305.521C1172.23 305.508 1172.29 305.481 1172.31 305.441C1172.33 305.394 1172.34 305.258 1172.34 305.031V299.651L1171.38 300.261L1171.19 299.961ZM1179.97 303.921C1179.97 304.548 1179.76 305.048 1179.35 305.421C1178.94 305.788 1178.39 305.971 1177.7 305.971C1176.94 305.971 1176.35 305.698 1175.94 305.151C1175.52 304.604 1175.32 303.828 1175.32 302.821V302.191C1175.32 301.091 1175.52 300.281 1175.94 299.761C1176.36 299.234 1176.93 298.971 1177.67 298.971C1178.11 298.971 1178.5 299.051 1178.83 299.211C1179.16 299.364 1179.41 299.574 1179.59 299.841C1179.77 300.101 1179.85 300.391 1179.85 300.711L1178.67 300.851C1178.7 300.358 1178.63 299.981 1178.45 299.721C1178.27 299.454 1178.01 299.321 1177.67 299.321C1177.46 299.321 1177.27 299.381 1177.11 299.501C1176.95 299.621 1176.82 299.848 1176.73 300.181C1176.64 300.508 1176.6 300.981 1176.6 301.601V302.461C1176.79 302.234 1177.01 302.074 1177.25 301.981C1177.49 301.888 1177.75 301.841 1178.01 301.841C1178.38 301.841 1178.71 301.924 1179.01 302.091C1179.31 302.251 1179.54 302.481 1179.71 302.781C1179.88 303.074 1179.97 303.421 1179.97 303.821V303.921ZM1176.6 303.411C1176.6 303.971 1176.64 304.414 1176.73 304.741C1176.81 305.061 1176.94 305.288 1177.11 305.421C1177.28 305.554 1177.49 305.621 1177.74 305.621C1178.04 305.621 1178.28 305.498 1178.46 305.251C1178.64 305.004 1178.74 304.581 1178.74 303.981V303.881C1178.74 303.388 1178.66 302.998 1178.52 302.711C1178.37 302.424 1178.12 302.281 1177.76 302.281C1177.56 302.281 1177.36 302.338 1177.15 302.451C1176.93 302.558 1176.75 302.734 1176.6 302.981V303.411ZM1186 302.151V302.781C1186 303.421 1185.9 303.981 1185.71 304.461C1185.52 304.941 1185.24 305.314 1184.88 305.581C1184.51 305.841 1184.07 305.971 1183.55 305.971C1183.03 305.971 1182.58 305.841 1182.22 305.581C1181.85 305.314 1181.57 304.941 1181.38 304.461C1181.19 303.981 1181.1 303.421 1181.1 302.781V302.151C1181.1 301.511 1181.19 300.954 1181.38 300.481C1181.57 300.001 1181.85 299.631 1182.22 299.371C1182.58 299.104 1183.03 298.971 1183.55 298.971C1184.07 298.971 1184.51 299.104 1184.88 299.371C1185.24 299.631 1185.52 300.001 1185.71 300.481C1185.9 300.954 1186 301.511 1186 302.151ZM1184.67 301.451C1184.67 300.691 1184.57 300.148 1184.38 299.821C1184.18 299.488 1183.91 299.321 1183.55 299.321C1183.19 299.321 1182.91 299.488 1182.72 299.821C1182.52 300.148 1182.43 300.691 1182.43 301.451V303.481C1182.43 304.248 1182.52 304.798 1182.72 305.131C1182.91 305.458 1183.19 305.621 1183.55 305.621C1183.91 305.621 1184.18 305.458 1184.38 305.131C1184.57 304.798 1184.67 304.248 1184.67 303.481V301.451ZM1187.23 302.701V302.351H1189.87V302.701H1187.23ZM1190.35 299.961L1191.74 299.071H1192.7V305.031C1192.7 305.258 1192.71 305.394 1192.73 305.441C1192.75 305.481 1192.82 305.508 1192.92 305.521L1193.47 305.591V305.871H1190.53V305.591L1191.28 305.521C1191.39 305.508 1191.45 305.481 1191.47 305.441C1191.49 305.394 1191.5 305.258 1191.5 305.031V299.651L1190.54 300.261L1190.35 299.961ZM1194.39 301.281H1194.11V299.071H1198.27V300.011C1197.98 300.391 1197.73 300.778 1197.52 301.171C1197.31 301.564 1197.14 301.988 1197 302.441C1196.86 302.894 1196.76 303.401 1196.68 303.961C1196.6 304.521 1196.54 305.158 1196.51 305.871H1195.06C1195.12 305.398 1195.22 304.938 1195.34 304.491C1195.46 304.044 1195.62 303.594 1195.83 303.141C1196.04 302.688 1196.31 302.214 1196.64 301.721C1196.96 301.228 1197.37 300.691 1197.85 300.111H1195.15C1194.99 300.111 1194.88 300.118 1194.81 300.131C1194.74 300.138 1194.69 300.161 1194.67 300.201C1194.65 300.234 1194.63 300.291 1194.61 300.371L1194.39 301.281ZM1203.87 302.151V302.781C1203.87 303.421 1203.77 303.981 1203.58 304.461C1203.39 304.941 1203.11 305.314 1202.75 305.581C1202.38 305.841 1201.94 305.971 1201.42 305.971C1200.9 305.971 1200.45 305.841 1200.09 305.581C1199.72 305.314 1199.44 304.941 1199.25 304.461C1199.06 303.981 1198.97 303.421 1198.97 302.781V302.151C1198.97 301.511 1199.06 300.954 1199.25 300.481C1199.44 300.001 1199.72 299.631 1200.09 299.371C1200.45 299.104 1200.9 298.971 1201.42 298.971C1201.94 298.971 1202.38 299.104 1202.75 299.371C1203.11 299.631 1203.39 300.001 1203.58 300.481C1203.77 300.954 1203.87 301.511 1203.87 302.151ZM1202.54 301.451C1202.54 300.691 1202.44 300.148 1202.25 299.821C1202.05 299.488 1201.78 299.321 1201.42 299.321C1201.06 299.321 1200.78 299.488 1200.59 299.821C1200.39 300.148 1200.3 300.691 1200.3 301.451V303.481C1200.3 304.248 1200.39 304.798 1200.59 305.131C1200.78 305.458 1201.06 305.621 1201.42 305.621C1201.78 305.621 1202.05 305.458 1202.25 305.131C1202.44 304.798 1202.54 304.248 1202.54 303.481V301.451ZM1209.45 301.051C1209.13 301.051 1208.89 301.204 1208.73 301.511C1208.57 301.811 1208.5 302.318 1208.5 303.031V303.631C1208.5 304.338 1208.59 304.848 1208.77 305.161C1208.95 305.468 1209.24 305.621 1209.65 305.621C1209.95 305.621 1210.19 305.538 1210.38 305.371C1210.57 305.198 1210.68 304.908 1210.71 304.501L1211.35 304.681C1211.23 305.148 1211.01 305.481 1210.69 305.681C1210.37 305.874 1210 305.971 1209.58 305.971C1208.81 305.971 1208.23 305.741 1207.85 305.281C1207.46 304.814 1207.27 304.198 1207.27 303.431V303.231C1207.27 302.464 1207.45 301.851 1207.83 301.391C1208.2 300.931 1208.74 300.701 1209.45 300.701C1209.91 300.701 1210.29 300.794 1210.59 300.981C1210.89 301.161 1211.1 301.401 1211.22 301.701C1211.34 301.994 1211.38 302.311 1211.32 302.651L1210.22 302.811C1210.29 302.251 1210.26 301.818 1210.13 301.511C1209.99 301.204 1209.77 301.051 1209.45 301.051ZM1217.78 305.591V305.871H1215.09V305.591L1215.64 305.521C1215.75 305.508 1215.81 305.481 1215.83 305.441C1215.85 305.394 1215.86 305.258 1215.86 305.031V302.511C1215.86 302.051 1215.8 301.718 1215.67 301.511C1215.55 301.298 1215.36 301.191 1215.1 301.191C1215 301.191 1214.87 301.221 1214.72 301.281C1214.58 301.334 1214.43 301.434 1214.28 301.581C1214.14 301.728 1214.02 301.944 1213.91 302.231V305.031C1213.91 305.258 1213.92 305.394 1213.94 305.441C1213.96 305.481 1214.03 305.508 1214.13 305.521L1214.68 305.591V305.871H1211.99V305.591L1212.54 305.521C1212.65 305.508 1212.71 305.481 1212.73 305.441C1212.75 305.394 1212.76 305.258 1212.76 305.031V301.641C1212.76 301.414 1212.75 301.281 1212.73 301.241C1212.71 301.194 1212.65 301.164 1212.54 301.151L1211.99 301.081V300.801H1213.85V301.681C1214.04 301.341 1214.28 301.094 1214.57 300.941C1214.87 300.781 1215.16 300.701 1215.46 300.701C1215.82 300.701 1216.13 300.794 1216.37 300.981C1216.63 301.161 1216.81 301.421 1216.91 301.761C1217.09 301.388 1217.34 301.118 1217.64 300.951C1217.95 300.784 1218.26 300.701 1218.56 300.701C1219.04 300.701 1219.41 300.858 1219.69 301.171C1219.97 301.484 1220.11 301.928 1220.11 302.501V305.031C1220.11 305.258 1220.12 305.394 1220.14 305.441C1220.16 305.481 1220.23 305.508 1220.33 305.521L1220.88 305.591V305.871H1218.19V305.591L1218.74 305.521C1218.85 305.508 1218.91 305.481 1218.93 305.441C1218.95 305.394 1218.96 305.258 1218.96 305.031V302.511C1218.96 302.051 1218.9 301.718 1218.77 301.511C1218.65 301.298 1218.46 301.191 1218.2 301.191C1218.1 301.191 1217.97 301.221 1217.82 301.281C1217.68 301.334 1217.53 301.438 1217.38 301.591C1217.24 301.744 1217.11 301.968 1217 302.261C1217.01 302.294 1217.01 302.334 1217.01 302.381C1217.01 302.421 1217.01 302.461 1217.01 302.501V305.031C1217.01 305.258 1217.02 305.394 1217.04 305.441C1217.06 305.481 1217.13 305.508 1217.23 305.521L1217.78 305.591Z" fill="black"/>
<path d="M987.31 390.05C987.31 390.677 987.103 391.177 986.69 391.55C986.283 391.917 985.733 392.1 985.04 392.1C984.28 392.1 983.693 391.827 983.28 391.28C982.867 390.733 982.66 389.957 982.66 388.95V388.32C982.66 387.22 982.867 386.41 983.28 385.89C983.7 385.363 984.277 385.1 985.01 385.1C985.457 385.1 985.843 385.18 986.17 385.34C986.503 385.493 986.757 385.703 986.93 385.97C987.11 386.23 987.197 386.52 987.19 386.84L986.01 386.98C986.043 386.487 985.97 386.11 985.79 385.85C985.61 385.583 985.35 385.45 985.01 385.45C984.803 385.45 984.617 385.51 984.45 385.63C984.29 385.75 984.163 385.977 984.07 386.31C983.983 386.637 983.94 387.11 983.94 387.73V388.59C984.133 388.363 984.35 388.203 984.59 388.11C984.837 388.017 985.09 387.97 985.35 387.97C985.723 387.97 986.057 388.053 986.35 388.22C986.65 388.38 986.883 388.61 987.05 388.91C987.223 389.203 987.31 389.55 987.31 389.95V390.05ZM983.94 389.54C983.94 390.1 983.983 390.543 984.07 390.87C984.157 391.19 984.283 391.417 984.45 391.55C984.623 391.683 984.833 391.75 985.08 391.75C985.38 391.75 985.62 391.627 985.8 391.38C985.987 391.133 986.08 390.71 986.08 390.11V390.01C986.08 389.517 986.007 389.127 985.86 388.84C985.713 388.553 985.46 388.41 985.1 388.41C984.907 388.41 984.703 388.467 984.49 388.58C984.277 388.687 984.093 388.863 983.94 389.11V389.54ZM993.341 388.28V388.91C993.341 389.55 993.244 390.11 993.051 390.59C992.864 391.07 992.587 391.443 992.221 391.71C991.854 391.97 991.411 392.1 990.891 392.1C990.371 392.1 989.927 391.97 989.561 391.71C989.194 391.443 988.914 391.07 988.721 390.59C988.534 390.11 988.441 389.55 988.441 388.91V388.28C988.441 387.64 988.534 387.083 988.721 386.61C988.914 386.13 989.194 385.76 989.561 385.5C989.927 385.233 990.371 385.1 990.891 385.1C991.411 385.1 991.854 385.233 992.221 385.5C992.587 385.76 992.864 386.13 993.051 386.61C993.244 387.083 993.341 387.64 993.341 388.28ZM992.011 387.58C992.011 386.82 991.914 386.277 991.721 385.95C991.527 385.617 991.251 385.45 990.891 385.45C990.531 385.45 990.254 385.617 990.061 385.95C989.867 386.277 989.771 386.82 989.771 387.58V389.61C989.771 390.377 989.867 390.927 990.061 391.26C990.254 391.587 990.531 391.75 990.891 391.75C991.251 391.75 991.527 391.587 991.721 391.26C991.914 390.927 992.011 390.377 992.011 389.61V387.58ZM998.919 387.18C998.599 387.18 998.359 387.333 998.199 387.64C998.046 387.94 997.969 388.447 997.969 389.16V389.76C997.969 390.467 998.059 390.977 998.239 391.29C998.419 391.597 998.712 391.75 999.119 391.75C999.419 391.75 999.662 391.667 999.849 391.5C1000.04 391.327 1000.15 391.037 1000.18 390.63L1000.82 390.81C1000.7 391.277 1000.48 391.61 1000.16 391.81C999.846 392.003 999.476 392.1 999.049 392.1C998.282 392.1 997.706 391.87 997.319 391.41C996.932 390.943 996.739 390.327 996.739 389.56V389.36C996.739 388.593 996.926 387.98 997.299 387.52C997.672 387.06 998.212 386.83 998.919 386.83C999.386 386.83 999.766 386.923 1000.06 387.11C1000.36 387.29 1000.57 387.53 1000.69 387.83C1000.82 388.123 1000.85 388.44 1000.79 388.78L999.689 388.94C999.762 388.38 999.732 387.947 999.599 387.64C999.466 387.333 999.239 387.18 998.919 387.18ZM1007.26 391.72V392H1004.57V391.72L1005.12 391.65C1005.22 391.637 1005.29 391.61 1005.31 391.57C1005.33 391.523 1005.34 391.387 1005.34 391.16V388.64C1005.34 388.18 1005.27 387.847 1005.15 387.64C1005.02 387.427 1004.83 387.32 1004.58 387.32C1004.47 387.32 1004.34 387.35 1004.2 387.41C1004.05 387.463 1003.9 387.563 1003.76 387.71C1003.62 387.857 1003.49 388.073 1003.39 388.36V391.16C1003.39 391.387 1003.4 391.523 1003.42 391.57C1003.44 391.61 1003.5 391.637 1003.61 391.65L1004.16 391.72V392H1001.47V391.72L1002.02 391.65C1002.12 391.637 1002.19 391.61 1002.21 391.57C1002.23 391.523 1002.24 391.387 1002.24 391.16V387.77C1002.24 387.543 1002.23 387.41 1002.21 387.37C1002.19 387.323 1002.12 387.293 1002.02 387.28L1001.47 387.21V386.93H1003.33V387.81C1003.51 387.47 1003.75 387.223 1004.05 387.07C1004.34 386.91 1004.64 386.83 1004.94 386.83C1005.3 386.83 1005.6 386.923 1005.85 387.11C1006.1 387.29 1006.28 387.55 1006.39 387.89C1006.57 387.517 1006.81 387.247 1007.12 387.08C1007.42 386.913 1007.73 386.83 1008.04 386.83C1008.51 386.83 1008.89 386.987 1009.17 387.3C1009.45 387.613 1009.59 388.057 1009.59 388.63V391.16C1009.59 391.387 1009.6 391.523 1009.62 391.57C1009.64 391.61 1009.7 391.637 1009.81 391.65L1010.36 391.72V392H1007.67V391.72L1008.22 391.65C1008.32 391.637 1008.39 391.61 1008.41 391.57C1008.43 391.523 1008.44 391.387 1008.44 391.16V388.64C1008.44 388.18 1008.37 387.847 1008.25 387.64C1008.12 387.427 1007.93 387.32 1007.68 387.32C1007.57 387.32 1007.44 387.35 1007.3 387.41C1007.15 387.463 1007 387.567 1006.86 387.72C1006.71 387.873 1006.58 388.097 1006.48 388.39C1006.48 388.423 1006.49 388.463 1006.49 388.51C1006.49 388.55 1006.49 388.59 1006.49 388.63V391.16C1006.49 391.387 1006.5 391.523 1006.52 391.57C1006.54 391.61 1006.6 391.637 1006.71 391.65L1007.26 391.72Z" fill="black"/>
</svg>
