<svg width="80" height="80" viewBox="0 0 80 80" fill="none" xmlns="http://www.w3.org/2000/svg">
<g clip-path="url(#clip0_19_7303)">
<path d="M56.1719 35.8106H49.9219C49.1969 35.8115 48.5019 36.0998 47.9893 36.6124C47.4767 37.125 47.1883 37.8201 47.1875 38.545V42.4513C47.1883 43.1762 47.4767 43.8712 47.9893 44.3838C48.5019 44.8965 49.1969 45.1848 49.9219 45.1856H56.1719C56.8968 45.1848 57.5918 44.8965 58.1045 44.3838C58.6171 43.8712 58.9054 43.1762 58.9062 42.4513V38.545C58.9054 37.8201 58.6171 37.125 58.1045 36.6124C57.5918 36.0998 56.8968 35.8115 56.1719 35.8106ZM56.5625 42.4513C56.5624 42.5548 56.5212 42.6541 56.4479 42.7273C56.3747 42.8006 56.2754 42.8418 56.1719 42.8419H49.9219C49.8183 42.8418 49.719 42.8006 49.6458 42.7273C49.5726 42.6541 49.5314 42.5548 49.5312 42.4513V38.545C49.5314 38.4414 49.5726 38.3422 49.6458 38.2689C49.719 38.1957 49.8183 38.1545 49.9219 38.1544H56.1719C56.2754 38.1545 56.3747 38.1957 56.4479 38.2689C56.5212 38.3422 56.5624 38.4414 56.5625 38.545V42.4513ZM29.1828 57.9181C29.1806 57.8969 29.1766 57.876 29.1733 57.855C29.1708 57.8388 29.1691 57.8222 29.1658 57.8061C29.1603 57.7785 29.1528 57.7517 29.1455 57.7249C29.1428 57.7152 29.1409 57.7055 29.1381 57.696C29.1305 57.6711 29.1212 57.647 29.1122 57.6228C29.1078 57.6114 29.1042 57.5995 29.0995 57.5883C29.0909 57.568 29.0811 57.5483 29.0714 57.5285C29.0644 57.5136 29.058 57.4986 29.0501 57.4841C29.0419 57.4685 29.0323 57.4539 29.0234 57.4388C29.0126 57.4208 29.0025 57.4028 28.9909 57.3852C28.9833 57.3739 28.9747 57.3633 28.9667 57.3524C28.9525 57.3324 28.9383 57.3124 28.9226 57.2933C28.9151 57.2842 28.907 57.2761 28.8992 57.2672C28.882 57.2475 28.865 57.2278 28.8464 57.2091C28.8294 57.192 28.8111 57.1764 28.7931 57.1606C28.7828 57.1514 28.7734 57.1417 28.7626 57.1328C28.7323 57.1078 28.7007 57.0844 28.668 57.0625L28.6669 57.0617C28.663 57.0592 28.6589 57.0572 28.655 57.0547C28.6266 57.0361 28.5975 57.0187 28.5676 57.0027C28.5569 56.9969 28.5458 56.9922 28.535 56.9869C28.5116 56.9753 28.4881 56.9638 28.4639 56.9536C28.4481 56.9472 28.432 56.942 28.4161 56.9363C28.3962 56.9291 28.3767 56.9214 28.3566 56.9153C28.3362 56.9091 28.3156 56.9045 28.2952 56.8997C28.2787 56.8955 28.2625 56.8909 28.2458 56.8877C28.2203 56.8825 28.1947 56.8792 28.1692 56.8759C28.1567 56.8744 28.1447 56.8719 28.1322 56.8708C28.0989 56.8676 28.0655 56.8659 28.032 56.8656C28.0269 56.8656 28.022 56.8649 28.0169 56.8649L28.0156 56.865C27.9763 56.865 27.9371 56.867 27.898 56.871C27.8814 56.8725 27.8655 56.8759 27.8492 56.8783C27.8281 56.8814 27.8069 56.8838 27.7859 56.888C27.7598 56.8931 27.7344 56.9003 27.7089 56.9072C27.698 56.9103 27.6867 56.9124 27.6758 56.9158C27.6519 56.923 27.6289 56.9319 27.6055 56.9406C27.593 56.9453 27.5805 56.9492 27.568 56.9544C27.5484 56.9625 27.5297 56.972 27.5108 56.981C27.4951 56.9886 27.4792 56.9955 27.4639 57.0038C27.4494 57.0116 27.4358 57.0203 27.4217 57.0288C27.4025 57.0399 27.3833 57.0506 27.3648 57.0631C27.3548 57.0699 27.3456 57.0774 27.3358 57.0844C27.3147 57.0995 27.2934 57.1145 27.2731 57.1313C27.2653 57.1377 27.2583 57.1449 27.2506 57.1514C27.2297 57.1695 27.2087 57.1877 27.1891 57.2075C27.1755 57.2209 27.1633 57.2356 27.1505 57.2497C27.138 57.2635 27.1248 57.2766 27.1128 57.2911C27.0878 57.3215 27.0643 57.3531 27.0425 57.3858L27.0419 57.3867L23.3294 62.9555L19.6169 57.3867L19.6162 57.3858C19.5944 57.353 19.5709 57.3214 19.5459 57.291C19.5381 57.2816 19.5294 57.2731 19.5212 57.2639C19.5044 57.2447 19.4876 57.2253 19.4694 57.2072C19.4517 57.1894 19.4328 57.1733 19.4141 57.1569C19.4044 57.1483 19.3953 57.1391 19.3851 57.131C19.3669 57.1158 19.3476 57.1024 19.3284 57.0885C19.3166 57.0799 19.3053 57.0708 19.2931 57.0627C19.2769 57.0517 19.2598 57.0422 19.2431 57.0322C19.2267 57.0225 19.2108 57.0122 19.1941 57.0033C19.1812 56.9964 19.168 56.9908 19.1548 56.9844C19.1333 56.9739 19.112 56.9631 19.0898 56.9539C19.0808 56.9503 19.0714 56.9474 19.0623 56.9439C19.0358 56.9338 19.0092 56.9236 18.9819 56.9155L18.9655 56.9113C18.9346 56.9021 18.9033 56.8943 18.8717 56.8878L18.8691 56.8874C18.826 56.8791 18.7826 56.8733 18.7389 56.8699C18.7075 56.8672 18.6761 56.8652 18.6445 56.8652L18.6419 56.865C18.6323 56.865 18.623 56.8661 18.6134 56.8664C18.5848 56.867 18.5562 56.868 18.5278 56.8706C18.5122 56.8722 18.4972 56.875 18.4819 56.8772C18.4592 56.8803 18.4366 56.883 18.4141 56.8875C18.3951 56.8913 18.3766 56.8964 18.358 56.9009C18.3397 56.9056 18.3212 56.9097 18.3033 56.915C18.2811 56.9217 18.2598 56.9299 18.2384 56.9377C18.2242 56.943 18.2097 56.9475 18.1956 56.9533C18.1703 56.9641 18.1453 56.9757 18.1208 56.9883C18.1111 56.9931 18.1011 56.9972 18.0914 57.0024C18.0612 57.0186 18.032 57.0363 18.0034 57.0549C17.9997 57.0574 17.9956 57.0592 17.9919 57.0617L17.9909 57.0625C17.9582 57.0843 17.9265 57.1078 17.8961 57.1328C17.8855 57.1416 17.8759 57.1514 17.8656 57.1605C17.8476 57.1764 17.8294 57.192 17.8125 57.2091C17.7937 57.2278 17.7767 57.2475 17.7595 57.2672C17.7519 57.2761 17.7436 57.2844 17.7361 57.2933C17.7205 57.3124 17.7064 57.3324 17.692 57.3524C17.6841 57.3633 17.6755 57.3739 17.668 57.3852C17.6562 57.4027 17.6461 57.4208 17.6355 57.4388C17.6264 57.4539 17.617 57.4685 17.6086 57.4841C17.6008 57.4986 17.5945 57.5138 17.5873 57.5285C17.5776 57.5483 17.5678 57.5678 17.5592 57.5883C17.5545 57.5995 17.5509 57.6114 17.5467 57.6228C17.5375 57.647 17.5283 57.6711 17.5208 57.696C17.5178 57.7055 17.5161 57.7152 17.5133 57.7249C17.5059 57.7517 17.4986 57.7785 17.493 57.8061C17.4898 57.8222 17.4881 57.8388 17.4855 57.855C17.4823 57.8761 17.4781 57.8967 17.4761 57.9181C17.4722 57.957 17.4702 57.9961 17.4701 58.0352V71.7867C17.4701 72.0975 17.5936 72.3956 17.8134 72.6154C18.0331 72.8351 18.3312 72.9586 18.642 72.9586C18.9528 72.9586 19.2509 72.8351 19.4707 72.6154C19.6904 72.3956 19.8139 72.0975 19.8139 71.7867V61.9072L22.3544 65.7181C22.4614 65.8786 22.6064 66.0102 22.7765 66.1012C22.9465 66.1923 23.1365 66.2399 23.3294 66.2399C23.5223 66.2399 23.7122 66.1923 23.8823 66.1012C24.0524 66.0102 24.1973 65.8786 24.3044 65.7181L26.845 61.9072V71.7869C26.845 72.0977 26.9685 72.3958 27.1882 72.6155C27.408 72.8353 27.7061 72.9588 28.0169 72.9588C28.3277 72.9588 28.6257 72.8353 28.8455 72.6155C29.0653 72.3958 29.1887 72.0977 29.1887 71.7869V58.0352C29.1886 57.9961 29.1867 57.957 29.1828 57.9181ZM42.3137 59.2088C42.6245 59.2088 42.9226 59.0853 43.1424 58.8655C43.3622 58.6458 43.4856 58.3477 43.4856 58.0369C43.4856 57.7261 43.3622 57.428 43.1424 57.2082C42.9226 56.9885 42.6245 56.865 42.3137 56.865H32.9387C32.6279 56.865 32.3299 56.9885 32.1101 57.2082C31.8903 57.428 31.7669 57.7261 31.7669 58.0369C31.7669 58.3477 31.8903 58.6458 32.1101 58.8655C32.3299 59.0853 32.6279 59.2088 32.9387 59.2088H36.4544V70.615H32.9387C32.6279 70.615 32.3299 70.7385 32.1101 70.9583C31.8903 71.178 31.7669 71.4761 31.7669 71.7869C31.7669 72.0977 31.8903 72.3958 32.1101 72.6155C32.3299 72.8353 32.6279 72.9588 32.9387 72.9588H42.3137C42.6245 72.9588 42.9226 72.8353 43.1424 72.6155C43.3622 72.3958 43.4856 72.0977 43.4856 71.7869C43.4856 71.4761 43.3622 71.178 43.1424 70.9583C42.9226 70.7385 42.6245 70.615 42.3137 70.615H38.7981V59.2088H42.3137ZM57.7344 28.7794H48.3594C48.0486 28.7794 47.7505 28.9029 47.5307 29.1226C47.311 29.3424 47.1875 29.6405 47.1875 29.9513C47.1875 30.2621 47.311 30.5601 47.5307 30.7799C47.7505 30.9997 48.0486 31.1231 48.3594 31.1231H57.7344C58.0452 31.1231 58.3432 30.9997 58.563 30.7799C58.7828 30.5601 58.9062 30.2621 58.9062 29.9513C58.9062 29.6405 58.7828 29.3424 58.563 29.1226C58.3432 28.9029 58.0452 28.7794 57.7344 28.7794ZM42.1094 35.8106H35.8594C35.1344 35.8115 34.4394 36.0998 33.9268 36.6124C33.4142 37.125 33.1258 37.8201 33.125 38.545V42.4513C33.1258 43.1762 33.4142 43.8712 33.9268 44.3838C34.4394 44.8965 35.1344 45.1848 35.8594 45.1856H42.1094C42.8343 45.1848 43.5293 44.8965 44.042 44.3838C44.5546 43.8712 44.8429 43.1762 44.8437 42.4513V38.545C44.8429 37.8201 44.5546 37.125 44.042 36.6124C43.5293 36.0998 42.8343 35.8115 42.1094 35.8106ZM42.5 42.4513C42.4999 42.5548 42.4587 42.6541 42.3854 42.7273C42.3122 42.8006 42.2129 42.8418 42.1094 42.8419H35.8594C35.7558 42.8418 35.6565 42.8006 35.5833 42.7273C35.5101 42.6541 35.4689 42.5548 35.4687 42.4513V38.545C35.4689 38.4414 35.5101 38.3422 35.5833 38.2689C35.6565 38.1957 35.7558 38.1545 35.8594 38.1544H42.1094C42.2129 38.1545 42.3122 38.1957 42.3854 38.2689C42.4587 38.3422 42.4999 38.4414 42.5 38.545V42.4513ZM43.6719 28.7794H34.2969C33.9861 28.7794 33.688 28.9029 33.4682 29.1226C33.2485 29.3424 33.125 29.6405 33.125 29.9513C33.125 30.2621 33.2485 30.5601 33.4682 30.7799C33.688 30.9997 33.9861 31.1231 34.2969 31.1231H43.6719C43.9827 31.1231 44.2807 30.9997 44.5005 30.7799C44.7203 30.5601 44.8437 30.2621 44.8437 29.9513C44.8437 29.6405 44.7203 29.3424 44.5005 29.1226C44.2807 28.9029 43.9827 28.7794 43.6719 28.7794ZM13.9544 59.2088C14.2652 59.2088 14.5632 59.0853 14.783 58.8655C15.0028 58.6458 15.1262 58.3477 15.1262 58.0369C15.1262 57.7261 15.0028 57.428 14.783 57.2082C14.5632 56.9885 14.2652 56.865 13.9544 56.865H6.92312C6.61231 56.865 6.31424 56.9885 6.09447 57.2082C5.87471 57.428 5.75124 57.7261 5.75124 58.0369V71.7869C5.75124 72.0977 5.87471 72.3958 6.09447 72.6155C6.31424 72.8353 6.61231 72.9588 6.92312 72.9588H13.9544C14.2652 72.9588 14.5632 72.8353 14.783 72.6155C15.0028 72.3958 15.1262 72.0977 15.1262 71.7869C15.1262 71.4761 15.0028 71.178 14.783 70.9583C14.5632 70.7385 14.2652 70.615 13.9544 70.615H8.09499V66.0838H13.9544C14.2652 66.0838 14.5632 65.9603 14.783 65.7405C15.0028 65.5208 15.1262 65.2227 15.1262 64.9119C15.1262 64.6011 15.0028 64.303 14.783 64.0833C14.5632 63.8635 14.2652 63.74 13.9544 63.74H8.09499V59.2088H13.9544ZM69.4531 7.03126H36.6406C35.7085 7.0323 34.8149 7.40302 34.1558 8.06211C33.4968 8.72119 33.126 9.6148 33.125 10.5469V20.5763C33.126 21.5083 33.4968 22.402 34.1558 23.061C34.8149 23.7201 35.7085 24.0909 36.6406 24.0919H69.4531C70.3852 24.0909 71.2788 23.7201 71.9379 23.061C72.597 22.402 72.9677 21.5083 72.9687 20.5763V10.5469C72.9677 9.6148 72.597 8.72119 71.9379 8.06211C71.2788 7.40302 70.3852 7.0323 69.4531 7.03126ZM70.625 20.5763C70.6247 20.887 70.5011 21.1848 70.2814 21.4045C70.0617 21.6242 69.7638 21.7478 69.4531 21.7481H36.6406C36.3299 21.7478 36.032 21.6242 35.8123 21.4045C35.5926 21.1848 35.4691 20.887 35.4687 20.5763V10.5469C35.4691 10.2362 35.5926 9.93831 35.8123 9.71861C36.032 9.49891 36.3299 9.37534 36.6406 9.37501H69.4531C69.7638 9.37534 70.0617 9.49891 70.2814 9.71861C70.5011 9.93831 70.6247 10.2362 70.625 10.5469V20.5763ZM67.1094 14.3897C66.8776 14.3897 66.651 14.4584 66.4583 14.5872C66.2656 14.716 66.1154 14.899 66.0267 15.1131C65.938 15.3273 65.9148 15.5629 65.96 15.7902C66.0052 16.0175 66.1168 16.2263 66.2807 16.3902C66.4446 16.5541 66.6534 16.6657 66.8808 16.7109C67.1081 16.7561 67.3437 16.7329 67.5578 16.6442C67.772 16.5555 67.955 16.4053 68.0837 16.2126C68.2125 16.0199 68.2812 15.7934 68.2812 15.5616C68.2812 15.2508 68.1578 14.9527 67.938 14.7329C67.7182 14.5132 67.4202 14.3897 67.1094 14.3897ZM62.4219 14.3897C62.1901 14.3897 61.9635 14.4584 61.7708 14.5872C61.5781 14.716 61.4279 14.899 61.3392 15.1131C61.2505 15.3273 61.2273 15.5629 61.2725 15.7902C61.3177 16.0175 61.4293 16.2263 61.5932 16.3902C61.7571 16.5541 61.9659 16.6657 62.1932 16.7109C62.4206 16.7561 62.6562 16.7329 62.8703 16.6442C63.0845 16.5555 63.2675 16.4053 63.3962 16.2126C63.525 16.0199 63.5937 15.7934 63.5937 15.5616C63.5937 15.2508 63.4703 14.9527 63.2505 14.7329C63.0307 14.5132 62.7327 14.3897 62.4219 14.3897ZM78.28 1.59095C77.7371 1.04607 77.0917 0.614154 76.3809 0.320166C75.6702 0.0261776 74.9082 -0.124059 74.1391 -0.121863H74.1281L31.9416 -0.00936349C30.3902 -0.00407752 28.9041 0.615312 27.8083 1.71334C26.7124 2.81138 26.096 4.29869 26.0937 5.85001V49.8297H5.73999C4.18652 49.8314 2.69717 50.4493 1.5987 51.5478C0.500235 52.6463 -0.117648 54.1356 -0.119385 55.6891V74.1347C-0.117648 75.6882 0.500235 77.1775 1.5987 78.276C2.69717 79.3745 4.18652 79.9923 5.73999 79.9941H43.4969C43.7125 79.9938 43.928 79.9816 44.1423 79.9577L74.152 79.878C75.7033 79.8728 77.1895 79.2534 78.2854 78.1554C79.3813 77.0574 79.9978 75.5701 80 74.0188V5.73751C80.0021 4.96689 79.8512 4.20353 79.5559 3.49172C79.2606 2.7799 78.8269 2.13382 78.28 1.59095ZM47.0125 74.1347C47.0114 75.0668 46.6407 75.9604 45.9816 76.6194C45.3225 77.2785 44.4289 77.6493 43.4969 77.6503H5.73999C4.80792 77.6493 3.91433 77.2785 3.25526 76.6194C2.59618 75.9604 2.22544 75.0668 2.22437 74.1347V55.6889C2.22544 54.7568 2.59618 53.8633 3.25526 53.2042C3.91433 52.5451 4.80792 52.1744 5.73999 52.1733H27.2625L27.2655 52.1735H43.4967C44.4288 52.1745 45.3224 52.5453 45.9814 53.2043C46.6405 53.8634 47.0113 54.757 47.0123 55.6891L47.0125 74.1347ZM77.6562 74.0188C77.655 74.9497 77.285 75.8422 76.6273 76.5011C75.9697 77.1599 75.0778 77.5315 74.1469 77.5344L48.2156 77.6031C48.9576 76.599 49.3574 75.3832 49.3562 74.1347V72.9092C49.5422 72.9487 49.7318 72.9686 49.9219 72.9688H56.1719C56.8968 72.9679 57.5918 72.6796 58.1045 72.167C58.6171 71.6544 58.9054 70.9593 58.9062 70.2344V66.3281C58.9054 65.6032 58.6171 64.9082 58.1045 64.3956C57.5918 63.8829 56.8968 63.5946 56.1719 63.5938H49.9219C49.7318 63.5939 49.5422 63.6138 49.3562 63.6533V59.1886C49.5422 59.2281 49.7318 59.248 49.9219 59.2481H56.1719C56.8968 59.2473 57.5918 58.959 58.1045 58.4463C58.6171 57.9337 58.9054 57.2387 58.9062 56.5138V52.6075C58.9054 51.8826 58.6171 51.1875 58.1045 50.6749C57.5918 50.1623 56.8968 49.874 56.1719 49.8731H49.9219C49.4132 49.8739 48.9147 50.0165 48.4826 50.285C48.0505 50.5534 47.7018 50.9371 47.4758 51.3928C46.3949 50.3873 44.9732 49.8286 43.4969 49.8295H28.4375V5.85001C28.4389 4.91911 28.8088 4.02663 29.4665 3.3678C30.1241 2.70896 31.016 2.3374 31.9469 2.33439L74.1334 2.22204H74.14C75.0724 2.22204 75.9667 2.5924 76.6261 3.25165C77.2855 3.91091 77.656 4.80508 77.6562 5.73751V74.0188ZM49.5312 70.2344V66.3281C49.5314 66.2246 49.5726 66.1253 49.6458 66.0521C49.719 65.9788 49.8183 65.9376 49.9219 65.9375H56.1719C56.2754 65.9376 56.3747 65.9788 56.4479 66.0521C56.5212 66.1253 56.5624 66.2246 56.5625 66.3281V70.2344C56.5624 70.338 56.5212 70.4372 56.4479 70.5105C56.3747 70.5837 56.2754 70.6249 56.1719 70.625H49.9219C49.8183 70.6249 49.719 70.5837 49.6458 70.5105C49.5726 70.4372 49.5314 70.338 49.5312 70.2344ZM49.5312 56.5138V52.6075C49.5314 52.5039 49.5726 52.4047 49.6458 52.3314C49.719 52.2582 49.8183 52.217 49.9219 52.2169H56.1719C56.2754 52.217 56.3747 52.2582 56.4479 52.3314C56.5212 52.4047 56.5624 52.5039 56.5625 52.6075V56.5138C56.5624 56.6173 56.5212 56.7166 56.4479 56.7898C56.3747 56.8631 56.2754 56.9043 56.1719 56.9044H49.9219C49.8183 56.9043 49.719 56.8631 49.6458 56.7898C49.5726 56.7166 49.5314 56.6173 49.5312 56.5138ZM71.7969 28.7794H62.4219C62.1111 28.7794 61.813 28.9029 61.5932 29.1226C61.3735 29.3424 61.25 29.6405 61.25 29.9513C61.25 30.2621 61.3735 30.5601 61.5932 30.7799C61.813 30.9997 62.1111 31.1231 62.4219 31.1231H71.7969C72.1077 31.1231 72.4057 30.9997 72.6255 30.7799C72.8453 30.5601 72.9687 30.2621 72.9687 29.9513C72.9687 29.6405 72.8453 29.3424 72.6255 29.1226C72.4057 28.9029 72.1077 28.7794 71.7969 28.7794ZM57.7344 14.3897C57.5026 14.3897 57.276 14.4584 57.0833 14.5872C56.8906 14.716 56.7404 14.899 56.6517 15.1131C56.563 15.3273 56.5398 15.5629 56.585 15.7902C56.6302 16.0175 56.7418 16.2263 56.9057 16.3902C57.0696 16.5541 57.2784 16.6657 57.5057 16.7109C57.7331 16.7561 57.9687 16.7329 58.1828 16.6442C58.397 16.5555 58.58 16.4053 58.7087 16.2126C58.8375 16.0199 58.9062 15.7934 58.9062 15.5616C58.9062 15.2508 58.7828 14.9527 58.563 14.7329C58.3432 14.5132 58.0452 14.3897 57.7344 14.3897ZM70.2344 35.8106H63.9844C63.2594 35.8115 62.5644 36.0998 62.0518 36.6124C61.5392 37.125 61.2508 37.8201 61.25 38.545V42.4513C61.2508 43.1762 61.5392 43.8712 62.0518 44.3838C62.5644 44.8965 63.2594 45.1848 63.9844 45.1856H70.2344C70.9593 45.1848 71.6543 44.8965 72.1669 44.3838C72.6796 43.8712 72.9679 43.1762 72.9687 42.4513V38.545C72.9679 37.8201 72.6796 37.125 72.1669 36.6124C71.6543 36.0998 70.9593 35.8115 70.2344 35.8106ZM70.625 42.4513C70.6249 42.5548 70.5837 42.6541 70.5104 42.7273C70.4372 42.8006 70.3379 42.8418 70.2344 42.8419H63.9844C63.8808 42.8418 63.7815 42.8006 63.7083 42.7273C63.6351 42.6541 63.5939 42.5548 63.5937 42.4513V38.545C63.5939 38.4414 63.6351 38.3422 63.7083 38.2689C63.7815 38.1957 63.8808 38.1545 63.9844 38.1544H70.2344C70.3379 38.1545 70.4372 38.1957 70.5104 38.2689C70.5837 38.3422 70.6249 38.4414 70.625 38.545V42.4513ZM70.2344 49.8731H63.9844C63.2594 49.874 62.5644 50.1623 62.0518 50.6749C61.5392 51.1875 61.2508 51.8826 61.25 52.6075V70.2344C61.2508 70.9593 61.5392 71.6544 62.0518 72.167C62.5644 72.6796 63.2594 72.9679 63.9844 72.9688H70.2344C70.9593 72.9679 71.6543 72.6796 72.1669 72.167C72.6796 71.6544 72.9679 70.9593 72.9687 70.2344V52.6075C72.9679 51.8826 72.6796 51.1875 72.1669 50.6749C71.6543 50.1623 70.9593 49.874 70.2344 49.8731ZM70.625 70.2344C70.6249 70.338 70.5837 70.4372 70.5104 70.5105C70.4372 70.5837 70.3379 70.6249 70.2344 70.625H63.9844C63.8808 70.6249 63.7815 70.5837 63.7083 70.5105C63.6351 70.4372 63.5939 70.338 63.5937 70.2344V52.6075C63.5939 52.5039 63.6351 52.4047 63.7083 52.3314C63.7815 52.2582 63.8808 52.217 63.9844 52.2169H70.2344C70.3379 52.217 70.4372 52.2582 70.5104 52.3314C70.5837 52.4047 70.6249 52.5039 70.625 52.6075V70.2344ZM53.0469 14.3897C52.8151 14.3897 52.5885 14.4584 52.3958 14.5872C52.2031 14.716 52.0529 14.899 51.9642 15.1131C51.8755 15.3273 51.8523 15.5629 51.8975 15.7902C51.9427 16.0175 52.0543 16.2263 52.2182 16.3902C52.3821 16.5541 52.5909 16.6657 52.8182 16.7109C53.0456 16.7561 53.2812 16.7329 53.4953 16.6442C53.7095 16.5555 53.8925 16.4053 54.0212 16.2126C54.15 16.0199 54.2187 15.7934 54.2187 15.5616C54.2187 15.2508 54.0953 14.9527 53.8755 14.7329C53.6557 14.5132 53.3577 14.3897 53.0469 14.3897Z" fill="url(#paint0_linear_19_7303)"/>
</g>
<defs>
<linearGradient id="paint0_linear_19_7303" x1="2.17923e-05" y1="9.47117e-05" x2="78.5455" y2="78.9092" gradientUnits="userSpaceOnUse">
<stop stop-color="#2A92F1"/>
<stop offset="1" stop-color="#CB21D5"/>
</linearGradient>
<clipPath id="clip0_19_7303">
<rect width="80" height="80" fill="white"/>
</clipPath>
</defs>
</svg>
