<svg width="80" height="80" viewBox="0 0 80 80" fill="none" xmlns="http://www.w3.org/2000/svg">
<g clip-path="url(#clip0_19_7258)">
<path d="M40 80C32.0888 80 24.3552 77.6541 17.7772 73.2588C11.1992 68.8635 6.07234 62.6164 3.04484 55.3074C0.0173314 47.9983 -0.774802 39.9556 0.768607 32.1964C2.31202 24.4372 6.12165 17.3098 11.7157 11.7157C17.3098 6.12165 24.4372 2.31202 32.1964 0.768607C39.9556 -0.774802 47.9983 0.0173314 55.3074 3.04484C62.6164 6.07234 68.8635 11.1992 73.2588 17.7772C77.6541 24.3552 80 32.0888 80 40C80 50.6087 75.7857 60.7828 68.2843 68.2843C60.7828 75.7857 50.6087 80 40 80ZM40 3.07694C32.6973 3.07694 25.5586 5.24244 19.4867 9.2996C13.4147 13.3568 8.68216 19.1234 5.88754 25.8702C3.09292 32.617 2.36172 40.041 3.78641 47.2034C5.21109 54.3657 8.72767 60.9448 13.8915 66.1086C19.0552 71.2724 25.6343 74.7889 32.7967 76.2136C39.9591 77.6383 47.3831 76.9071 54.1299 74.1125C60.8767 71.3179 66.6433 66.5854 70.7004 60.5134C74.7576 54.4414 76.9231 47.3027 76.9231 40C76.9231 30.2074 73.033 20.8159 66.1086 13.8915C59.1842 6.96704 49.7926 3.07694 40 3.07694Z" fill="url(#paint0_linear_19_7258)"/>
<path d="M40 73.8461C33.3058 73.8461 26.762 71.8611 21.1961 68.142C15.6301 64.423 11.2919 59.1369 8.73021 52.9523C6.16847 46.7678 5.49821 39.9624 6.80417 33.3969C8.11013 26.8314 11.3337 20.8006 16.0671 16.0671C20.8006 11.3337 26.8314 8.11013 33.3969 6.80417C39.9624 5.49821 46.7678 6.16847 52.9523 8.73021C59.1369 11.2919 64.423 15.6301 68.142 21.1961C71.8611 26.762 73.8461 33.3058 73.8461 40C73.8461 48.9765 70.2802 57.5854 63.9328 63.9328C57.5854 70.2802 48.9765 73.8461 40 73.8461ZM40 9.23075C33.9144 9.23075 27.9655 11.0353 22.9055 14.4163C17.8455 17.7973 13.9018 22.6028 11.5729 28.2251C9.24407 33.8474 8.63473 40.0341 9.82197 46.0028C11.0092 51.9714 13.9397 57.454 18.2428 61.7571C22.546 66.0603 28.0286 68.9907 33.9972 70.178C39.9658 71.3652 46.1525 70.7559 51.7748 68.427C57.3972 66.0982 62.2027 62.1544 65.5837 57.0944C68.9646 52.0345 70.7692 46.0856 70.7692 40C70.7692 35.9593 69.9733 31.9582 68.427 28.2251C66.8807 24.492 64.6143 21.1 61.7571 18.2428C58.8999 15.3857 55.5079 13.1192 51.7748 11.5729C48.0418 10.0266 44.0406 9.23075 40 9.23075Z" fill="url(#paint1_linear_19_7258)"/>
<path d="M42.4 60.5846L29.323 44.2308L29.4 40.9846C35.5538 41.4154 40.3077 40.7538 41.4154 34.9538H28.3384L30.4461 31.4154L40.8769 31.5692C39.3384 28.2615 34.923 27.8462 28.1077 28.0923L30.4461 24.6154H52.6L50.4154 28.0308H44.2615C45.3173 29.0008 46.0071 30.3045 46.2154 31.7231H52.5692L50.3846 35.1077L46.1538 35.0308C45.4923 40.0923 40.8461 43.0923 34.9692 43.7692L48.1538 60.5846H42.4Z" fill="url(#paint2_linear_19_7258)"/>
</g>
<defs>
<linearGradient id="paint0_linear_19_7258" x1="40" y1="-0.507674" x2="40" y2="81.8154" gradientUnits="userSpaceOnUse">
<stop stop-color="#1A6DFF"/>
<stop offset="1" stop-color="#C822FF"/>
</linearGradient>
<linearGradient id="paint1_linear_19_7258" x1="40" y1="-0.507714" x2="40" y2="81.8154" gradientUnits="userSpaceOnUse">
<stop stop-color="#1A6DFF"/>
<stop offset="1" stop-color="#C822FF"/>
</linearGradient>
<linearGradient id="paint2_linear_19_7258" x1="40.3538" y1="24.5231" x2="40.3538" y2="60.5846" gradientUnits="userSpaceOnUse">
<stop stop-color="#1A6DFF"/>
<stop offset="1" stop-color="#C822FF"/>
</linearGradient>
<clipPath id="clip0_19_7258">
<rect width="80" height="80" fill="white"/>
</clipPath>
</defs>
</svg>
