<svg width="638" height="413" viewBox="0 0 638 413" fill="none" xmlns="http://www.w3.org/2000/svg">
<path d="M637.627 356.538H0.372533C0.22352 356.538 0 356.384 0 356.154C0 355.923 0.149013 355.77 0.372533 355.77H637.627C637.776 355.77 638 355.923 638 356.154C638 356.384 637.776 356.538 637.627 356.538Z" fill="#271F4A"/>
<path d="M432.66 59.1677H405.018V36.1217H432.66V59.1677ZM407.029 57.0935H430.648V38.1958H407.029V57.0935Z" fill="#C2D2EF"/>
<path d="M469.317 89.4346H448.977V36.0448H469.317V89.4346ZM450.988 87.3605H467.305V38.1189H450.988V87.3605Z" fill="#C2D2EF"/>
<path d="M575.712 74.9156H506.794V46.5691H575.712V74.9156ZM508.806 72.8415H573.701V48.6432H508.806V72.8415Z" fill="#C2D2EF"/>
<path d="M566.846 70.3064H551.945V49.7955H566.846V70.3064ZM553.957 68.2323H564.835V51.8697H553.957V68.2323Z" fill="#C2D2EF"/>
<path d="M570.124 101.342H518.64V85.6708H570.124V101.342ZM520.652 99.2679H568.113V87.7449H520.652V99.2679Z" fill="#C2D2EF"/>
<path d="M575.712 205.74H555.521V125.771H575.712V205.74ZM557.533 203.666H573.701V127.845H557.533V203.666Z" fill="#C2D2EF"/>
<path d="M533.542 192.68H516.629V158.803H533.542V192.68ZM518.64 190.606H531.53V160.877H518.64V190.606Z" fill="#C2D2EF"/>
<path d="M529.742 155.73H520.056V148.663H529.742V155.73ZM522.068 153.656H527.73V150.814H522.068V153.656Z" fill="#C2D2EF"/>
<path d="M543.824 172.323H537.043V162.337H543.824V172.323ZM539.055 170.249H541.812V164.411H539.055V170.249Z" fill="#C2D2EF"/>
<path d="M543.824 187.072H537.043V177.086H543.824V187.072ZM539.055 184.998H541.812V179.16H539.055V184.998Z" fill="#C2D2EF"/>
<path d="M506.049 145.052H452.553V125.771H506.049V145.052ZM454.49 142.978H503.963V127.845H454.49V142.978Z" fill="#C2D2EF"/>
<path d="M497.704 157.804H469.168V148.663H497.704V157.804ZM471.18 155.73H495.692V150.814H471.18V155.73Z" fill="#C2D2EF"/>
<path d="M500.461 205.048H441.973V174.781H500.461V205.048ZM443.985 202.974H498.449V176.855H443.985V202.974Z" fill="#C2D2EF"/>
<path d="M577.054 207.123H403.304V89.8955H407.998V202.283H572.36V39.5016H407.998V69.2309H403.304V34.662H577.054V207.123Z" fill="#7C98DB"/>
<path d="M511.339 205.74H503.665V128.228H448.977V125.463H506.347V202.974H511.339V205.74Z" fill="#7C98DB"/>
<path d="M429.68 125.463H405.688V128.228H429.68V125.463Z" fill="#7C98DB"/>
<path d="M574.669 98.9598H514.841V101.725H574.669V98.9598Z" fill="#7C98DB"/>
<path d="M496.661 101.726H466.933V37.12H469.615V98.96H496.661V101.726Z" fill="#7C98DB"/>
<path d="M574.669 125.463H550.082V128.228H574.669V125.463Z" fill="#7C98DB"/>
<path d="M537.118 125.463H505.006V128.228H537.118V125.463Z" fill="#7C98DB"/>
<path d="M379.686 244.533H359.122C358.302 244.533 357.632 243.842 357.557 243.074L353.087 199.978C353.012 199.133 353.608 198.518 354.353 198.518H374.917C375.737 198.518 376.407 199.21 376.482 199.978L380.952 243.074C381.027 243.842 380.505 244.533 379.686 244.533Z" fill="#F9D4C5"/>
<path d="M379.686 244.918H359.122C358.153 244.918 357.334 244.15 357.185 243.151L352.714 200.055C352.64 199.594 352.789 199.133 353.087 198.749C353.385 198.365 353.832 198.212 354.279 198.212H374.843C375.811 198.212 376.631 198.98 376.78 199.978L381.25 243.074C381.325 243.535 381.176 243.996 380.878 244.38C380.58 244.688 380.207 244.918 379.686 244.918ZM354.353 198.826C354.055 198.826 353.832 198.903 353.608 199.133C353.459 199.364 353.385 199.594 353.385 199.902L357.855 242.998C357.93 243.612 358.451 244.15 359.122 244.15H379.686C379.984 244.15 380.207 244.073 380.431 243.843C380.58 243.612 380.654 243.382 380.654 243.074L376.184 199.978C376.109 199.364 375.588 198.826 374.917 198.826H354.353Z" fill="#271F4A"/>
<path d="M377.674 244.533H357.11C356.291 244.533 355.62 243.842 355.545 243.074L351.075 199.978C351.001 199.133 351.597 198.518 352.342 198.518H372.906C373.725 198.518 374.396 199.21 374.47 199.978L378.941 243.074C379.09 243.842 378.494 244.533 377.674 244.533Z" fill="#F9D4C5"/>
<path d="M377.674 244.918H357.11C356.141 244.918 355.322 244.15 355.173 243.151L350.703 200.055C350.628 199.594 350.777 199.133 351.075 198.749C351.373 198.365 351.82 198.212 352.267 198.212H372.831C373.8 198.212 374.619 198.98 374.768 199.978L379.239 243.074C379.313 243.535 379.164 243.996 378.866 244.38C378.642 244.688 378.195 244.918 377.674 244.918ZM352.416 198.826C352.118 198.826 351.895 198.903 351.671 199.133C351.522 199.364 351.448 199.594 351.448 199.902L355.918 242.998C355.992 243.612 356.514 244.15 357.185 244.15H377.748C378.046 244.15 378.27 244.073 378.493 243.843C378.642 243.612 378.717 243.382 378.717 243.074L374.247 199.978C374.172 199.364 373.651 198.826 372.98 198.826H352.416Z" fill="#271F4A"/>
<path d="M395.257 248.298H339.974C339.154 248.298 338.558 247.607 338.558 246.839V243.919C338.558 243.074 339.229 242.46 339.974 242.46H395.257C396.077 242.46 396.673 243.151 396.673 243.919V246.762C396.748 247.607 396.077 248.298 395.257 248.298Z" fill="#F9D4C5"/>
<path d="M395.257 248.605H339.974C339.005 248.605 338.185 247.76 338.185 246.762V243.919C338.185 242.921 339.005 242.076 339.974 242.076H395.257C396.226 242.076 397.046 242.921 397.046 243.919V246.762C397.046 247.76 396.226 248.605 395.257 248.605ZM339.974 242.767C339.378 242.767 338.856 243.305 338.856 243.919V246.762C338.856 247.376 339.378 247.914 339.974 247.914H395.257C395.854 247.914 396.375 247.376 396.375 246.762V243.919C396.375 243.305 395.854 242.767 395.257 242.767H339.974Z" fill="#271F4A"/>
<path d="M393.246 248.298H337.962C337.142 248.298 336.546 247.607 336.546 246.839V243.919C336.546 243.074 337.217 242.46 337.962 242.46H393.246C394.065 242.46 394.661 243.151 394.661 243.919V246.762C394.661 247.607 394.065 248.298 393.246 248.298Z" fill="#F9D4C5"/>
<path d="M393.246 248.605H337.962C336.993 248.605 336.174 247.76 336.174 246.762V243.919C336.174 242.921 336.993 242.076 337.962 242.076H393.246C394.214 242.076 395.034 242.921 395.034 243.919V246.762C395.034 247.76 394.214 248.605 393.246 248.605ZM337.962 242.767C337.366 242.767 336.844 243.305 336.844 243.919V246.762C336.844 247.376 337.366 247.914 337.962 247.914H393.246C393.842 247.914 394.363 247.376 394.363 246.762V243.919C394.363 243.305 393.842 242.767 393.246 242.767H337.962Z" fill="#271F4A"/>
<path d="M421.409 227.019H312.555C309.5 227.019 307.265 224.484 307.414 221.334L311.81 152.427C312.034 149.277 314.641 146.742 317.622 146.742H426.476C429.53 146.742 431.766 149.277 431.617 152.427L427.221 221.334C426.997 224.484 424.39 227.019 421.409 227.019Z" fill="#F9D4C5"/>
<path d="M418.429 227.019H309.649C306.595 227.019 304.359 224.484 304.508 221.334L308.904 152.427C309.128 149.277 311.736 146.742 314.716 146.742H423.57C426.625 146.742 428.86 149.277 428.711 152.427L424.315 221.334C424.091 224.484 421.484 227.019 418.429 227.019Z" fill="#F9D4C5"/>
<path d="M418.429 227.403H333.268C333.119 227.403 332.895 227.249 332.895 227.019C332.895 226.789 333.044 226.635 333.268 226.635H418.429C421.26 226.635 423.719 224.254 423.943 221.258L428.338 152.35C428.413 150.891 427.966 149.585 427.072 148.586C426.178 147.587 424.911 147.05 423.57 147.05C423.421 147.05 423.272 146.896 423.272 146.742C423.272 146.589 423.421 146.358 423.57 146.358C425.135 146.358 426.55 146.973 427.593 148.125C428.636 149.277 429.158 150.814 429.009 152.427L424.613 221.334C424.39 224.714 421.633 227.403 418.429 227.403Z" fill="#271F4A"/>
<path d="M417.535 222.333H311.587C309.798 222.333 308.383 220.796 308.532 218.952L312.704 154.501C312.779 152.811 314.12 151.505 315.759 151.505H421.707C423.495 151.505 424.911 153.041 424.762 154.885L420.59 219.337C420.515 221.027 419.174 222.333 417.535 222.333Z" fill="white"/>
<path d="M308.904 213.268L308.532 218.953C308.383 220.797 309.798 222.333 311.587 222.333H417.535C419.174 222.333 420.515 221.027 420.59 219.337L420.962 213.268H308.904Z" fill="#7C98DB"/>
<path d="M400.249 180.697C400.1 180.62 399.802 180.62 399.579 180.62C399.057 180.697 399.132 181.234 398.908 181.542C398.759 181.695 398.983 181.849 399.132 181.695C399.132 181.695 399.132 181.695 399.132 181.772C399.132 181.849 399.206 182.003 399.281 182.003C399.43 182.079 399.579 181.926 399.728 181.926C400.026 181.772 400.398 181.465 400.473 181.158C400.473 180.927 400.398 180.774 400.249 180.697Z" fill="#EE7153"/>
<path d="M399.132 181.772C399.132 181.619 399.132 181.542 399.057 181.388C399.057 181.388 399.057 181.388 399.057 181.311C399.057 181.081 399.132 180.697 398.983 180.543C398.834 180.389 398.685 180.389 398.461 180.466C398.238 180.543 398.163 180.774 398.163 181.004C398.163 181.311 398.238 181.619 398.387 181.849C398.461 181.926 398.685 182.156 398.834 182.156C399.132 182.233 399.132 181.926 399.132 181.772Z" fill="#EE7153"/>
<path d="M399.057 182.541C398.685 183.386 398.387 184.231 398.163 185.076C397.94 184.538 397.791 183.923 397.344 183.462C397.269 183.386 397.12 183.462 397.12 183.539C397.12 183.923 397.195 184.231 397.344 184.538C397.493 184.922 397.791 185.152 397.94 185.537C397.94 185.613 398.014 185.613 398.089 185.613C398.014 186.151 397.94 186.766 397.94 187.303C397.94 187.457 397.94 187.611 397.94 187.764C398.014 187.764 398.089 187.764 398.089 187.764H398.163C398.163 187.611 398.163 187.457 398.163 187.303C398.163 186.766 398.238 186.151 398.312 185.613C398.61 185.46 398.834 185.306 398.759 184.922C398.759 184.845 398.61 184.845 398.536 184.922C398.461 184.999 398.461 184.999 398.387 185.076C398.61 184.231 398.834 183.386 399.206 182.541C399.355 182.464 399.132 182.387 399.057 182.541Z" fill="#C49D57"/>
<path d="M399.802 181.234C399.728 181.157 399.579 181.157 399.504 181.08C399.281 181.004 399.132 180.85 398.908 180.773C398.685 180.696 398.61 180.85 398.536 181.004C398.536 181.004 398.461 181.004 398.461 181.08C398.312 181.311 398.387 181.618 398.461 181.925C398.536 182.233 398.759 182.463 399.132 182.54C399.206 182.54 399.281 182.54 399.281 182.463C399.728 182.31 400.026 181.541 399.802 181.234Z" fill="#EE7153"/>
<path d="M400.622 181.465C400.547 181.311 400.398 181.388 400.324 181.388C400.175 181.388 399.951 181.311 399.802 181.311C399.653 181.388 399.579 181.542 399.579 181.619C399.504 181.772 399.355 181.926 399.281 182.156C399.281 182.233 399.206 182.31 399.281 182.387C399.206 182.464 399.206 182.617 399.355 182.617C399.728 182.617 400.026 182.464 400.324 182.233C400.398 182.079 400.696 181.695 400.622 181.465Z" fill="#EE7153"/>
<path d="M399.206 182.387C398.983 182.31 398.834 182.156 398.759 182.003C398.685 181.849 398.685 181.695 398.536 181.542C398.387 181.311 398.163 181.311 398.014 181.542C397.716 182.003 398.089 182.233 398.536 182.464C398.685 182.54 398.834 182.617 398.983 182.694H399.057C399.281 182.694 399.355 182.464 399.206 182.387Z" fill="#EE7153"/>
<path d="M396.003 179.621C396.152 179.545 396.524 179.545 396.673 179.545C397.12 179.621 396.971 180.159 397.195 180.467C397.269 180.62 397.046 180.774 396.971 180.62C396.971 180.62 396.971 180.62 396.971 180.543C396.971 180.543 396.971 180.543 396.897 180.62C396.822 180.697 396.822 180.851 396.673 180.851C396.524 180.927 396.375 180.774 396.301 180.774C396.077 180.62 395.705 180.313 395.705 180.006C395.705 179.775 395.779 179.621 396.003 179.621Z" fill="#EE7153"/>
<path d="M396.822 180.62C396.822 180.466 396.897 180.389 396.971 180.236C396.971 180.236 396.971 180.236 396.971 180.159C397.046 179.928 397.046 179.544 397.195 179.391C397.344 179.237 397.567 179.237 397.716 179.314C397.94 179.391 397.94 179.621 397.865 179.852C397.791 180.159 397.716 180.466 397.493 180.697C397.418 180.773 397.12 181.004 396.971 181.004C396.822 181.081 396.822 180.773 396.822 180.62Z" fill="#EE7153"/>
<path d="M396.822 181.388C397.046 182.233 397.195 183.078 397.269 183.923C397.567 183.386 397.791 182.771 398.312 182.31C398.387 182.233 398.536 182.31 398.536 182.387C398.461 182.771 398.387 183.078 398.163 183.386C397.94 183.77 397.642 184 397.418 184.384C397.418 184.461 397.344 184.461 397.269 184.461C397.269 184.999 397.195 185.613 397.12 186.151C397.12 186.305 396.971 186.996 396.897 187.15C396.822 187.15 396.673 187.15 396.673 187.15C396.673 186.996 396.822 186.305 396.897 186.151C396.971 185.613 397.046 184.999 397.046 184.461C396.822 184.307 396.524 184.154 396.748 183.77C396.822 183.693 396.897 183.693 396.971 183.77C397.046 183.847 397.046 183.846 397.12 183.923C397.046 183.078 396.971 182.233 396.748 181.388C396.524 181.311 396.748 181.235 396.822 181.388Z" fill="#C49D57"/>
<path d="M396.301 180.082C396.375 180.005 396.524 180.005 396.673 179.928C396.897 179.851 397.12 179.698 397.344 179.621C397.567 179.544 397.642 179.698 397.642 179.851C397.642 179.851 397.642 179.851 397.642 179.928C397.716 180.159 397.642 180.466 397.493 180.773C397.344 181.08 397.046 181.311 396.748 181.388C396.673 181.388 396.599 181.388 396.599 181.311C396.152 181.157 396.003 180.389 396.301 180.082Z" fill="#EE7153"/>
<path d="M395.481 180.313C395.555 180.159 395.704 180.236 395.779 180.236C395.928 180.236 396.151 180.159 396.3 180.159C396.45 180.236 396.45 180.389 396.524 180.466C396.599 180.62 396.673 180.773 396.748 181.004C396.748 181.081 396.748 181.158 396.748 181.234C396.822 181.311 396.748 181.465 396.598 181.465C396.226 181.465 395.928 181.311 395.704 181.081C395.555 180.927 395.332 180.543 395.481 180.313Z" fill="#EE7153"/>
<path d="M396.673 181.234C396.897 181.158 397.046 181.004 397.195 180.85C397.269 180.697 397.344 180.543 397.493 180.389C397.642 180.159 397.94 180.159 398.014 180.389C398.238 180.85 397.791 181.081 397.344 181.311C397.195 181.388 397.046 181.465 396.822 181.542H396.748C396.599 181.542 396.524 181.311 396.673 181.234Z" fill="#EE7153"/>
<path d="M393.32 181.312C393.469 181.235 393.767 181.082 393.991 181.082C394.512 181.005 394.438 181.619 394.736 181.85C394.885 181.927 394.661 182.157 394.512 182.003V182.08C394.512 182.157 394.438 182.311 394.363 182.387C394.214 182.464 394.065 182.387 393.916 182.387C393.618 182.311 393.246 182.157 393.171 181.85C393.097 181.619 393.171 181.466 393.32 181.312Z" fill="#EE7153"/>
<path d="M394.438 182.157C394.438 182.003 394.438 181.926 394.438 181.772C394.438 181.772 394.438 181.772 394.438 181.696C394.438 181.465 394.363 181.158 394.512 180.927C394.587 180.774 394.81 180.697 395.034 180.697C395.257 180.774 395.332 180.927 395.332 181.158C395.332 181.465 395.332 181.772 395.183 182.08C395.108 182.233 394.885 182.464 394.81 182.464C394.512 182.541 394.438 182.31 394.438 182.157Z" fill="#EE7153"/>
<path d="M394.587 182.848C395.034 183.54 395.406 184.385 395.63 185.153C395.779 184.538 395.854 183.924 396.301 183.386C396.375 183.309 396.524 183.309 396.524 183.386C396.524 183.77 396.524 184.077 396.375 184.385C396.226 184.769 396.003 185.153 395.854 185.537C395.854 185.614 395.779 185.614 395.705 185.614C395.854 186.152 395.928 186.689 396.003 187.227C396.003 187.381 396.077 188.072 396.077 188.226C396.003 188.226 395.854 188.303 395.854 188.303C395.854 188.149 395.779 187.457 395.779 187.304C395.705 186.766 395.63 186.152 395.481 185.614C395.183 185.537 394.885 185.383 395.034 185.076C395.034 184.999 395.183 184.922 395.257 184.999C395.332 184.999 395.332 185.076 395.406 185.076C395.183 184.308 394.81 183.54 394.363 182.848C394.289 182.848 394.512 182.695 394.587 182.848Z" fill="#C49D57"/>
<path d="M393.767 181.772C393.842 181.619 393.991 181.619 394.065 181.542C394.289 181.388 394.438 181.235 394.587 181.081C394.736 180.927 394.885 181.081 394.959 181.235C394.959 181.235 395.034 181.235 395.034 181.312C395.183 181.542 395.183 181.849 395.108 182.157C395.034 182.464 394.81 182.771 394.512 182.925C394.438 183.002 394.363 182.925 394.363 182.848C393.916 182.771 393.544 182.157 393.767 181.772Z" fill="#EE7153"/>
<path d="M392.948 182.157C393.022 182.003 393.097 182.003 393.246 182.003C393.395 181.927 393.618 181.773 393.767 181.85C393.916 181.85 393.991 182.003 394.065 182.08C394.14 182.234 394.289 182.388 394.363 182.541C394.438 182.618 394.438 182.695 394.438 182.772C394.512 182.848 394.512 183.002 394.363 183.002C393.991 183.079 393.618 183.079 393.395 182.848C393.246 182.695 392.873 182.464 392.948 182.157Z" fill="#EE7153"/>
<path d="M394.438 182.771C394.661 182.618 394.736 182.464 394.885 182.233C394.959 182.08 394.959 181.926 395.034 181.773C395.108 181.542 395.406 181.465 395.555 181.619C395.853 182.003 395.481 182.31 395.108 182.618C394.959 182.771 394.81 182.848 394.661 182.925H394.587C394.363 183.078 394.289 182.848 394.438 182.771Z" fill="#EE7153"/>
<path d="M400.175 194.293C399.728 195.523 398.908 196.137 398.312 196.444C397.865 196.675 397.567 196.752 397.567 196.752H394.512C394.512 196.752 394.289 196.752 393.991 196.598C393.469 196.368 392.575 195.753 392.277 194.37C391.905 192.296 394.438 188.301 394.438 188.301L394.214 186.688H399.579L399.057 188.301C399.132 188.301 400.995 192.219 400.175 194.293Z" fill="#F9D4C5"/>
<path d="M379.76 213.346H378.642L379.909 204.742H381.25L379.76 213.346Z" fill="#D27D5F"/>
<path d="M404.645 213.346H405.763L406.061 204.742H404.645V213.346Z" fill="#D27D5F"/>
<path d="M407.626 205.894H378.568L379.611 196.215H407.849L407.626 205.894Z" fill="#7C98DB"/>
<path d="M405.316 203.974H381.25L381.846 198.443H405.688L405.316 203.974Z" fill="#F9D4C5"/>
<path d="M394.14 201.208C394.14 200.824 393.916 200.517 393.544 200.517C393.171 200.517 392.873 200.824 392.799 201.208C392.799 201.592 393.022 201.899 393.395 201.899C393.842 201.899 394.14 201.592 394.14 201.208Z" fill="#D27D5F"/>
<path d="M370.074 213.268L369.553 204.357H366.87L368.137 213.268H370.074Z" fill="#D27D5F"/>
<path d="M361.283 213.268L360.686 204.357H358.079L359.271 213.268H361.283Z" fill="#D27D5F"/>
<path d="M352.565 204.818H369.404L370.894 188.379H353.981L352.565 204.818Z" fill="#D6B269"/>
<path d="M366.349 204.819H370.596C371.564 204.819 372.458 203.974 372.533 202.975L373.576 191.529C373.725 189.839 372.533 188.456 370.819 188.456C369.18 188.456 367.69 189.839 367.541 191.529L366.349 204.819Z" fill="#C49D57"/>
<path d="M356.662 184.384C355.992 182.003 355.023 180.236 354.203 179.007C353.905 178.546 353.458 178.392 353.011 178.469H322.911L319.856 196.598H350.18H357.854C358.078 191.375 357.482 187.38 356.662 184.384Z" fill="#C49D57"/>
<path d="M321.272 179.929L319.782 196.599H327.456C327.68 192.758 327.456 189.608 326.935 187.073C326.19 183.309 324.998 180.697 323.88 179.084C323.657 178.7 323.21 178.546 322.837 178.546C322.166 178.469 321.347 179.007 321.272 179.929Z" fill="#D6B269"/>
<path d="M321.049 213.268L323.21 204.357H325.817L323.061 213.268H321.049Z" fill="#D27D5F"/>
<path d="M329.915 213.268L332.001 204.357H334.684L331.852 213.268H329.915Z" fill="#D27D5F"/>
<path d="M339.452 204.742H365.753L366.647 195.062H340.346L339.452 204.742Z" fill="#ED8744"/>
<path d="M339.75 201.361H366.647L367.243 195.062H340.346L339.75 201.361Z" fill="#D6B269"/>
<path d="M339.75 201.361H366.647L366.349 204.741H339.452L339.75 201.361Z" fill="#C49D57"/>
<path d="M322.017 204.818H340.048L341.538 188.379H320.602L319.41 201.822C319.261 203.435 320.453 204.818 322.017 204.818Z" fill="#D6B269"/>
<path d="M337.068 204.818H341.315C342.283 204.818 343.177 203.973 343.252 202.975L344.295 191.529C344.444 189.839 343.252 188.456 341.538 188.456C339.899 188.456 338.409 189.839 338.26 191.529L337.068 204.818Z" fill="#C49D57"/>
<path d="M385.274 180.159H363.89C363.667 180.159 363.592 180.006 363.592 179.775L365.604 157.113C365.604 156.883 365.827 156.729 365.976 156.729H387.36C387.583 156.729 387.658 156.883 387.658 157.113L385.646 179.775C385.646 180.006 385.497 180.159 385.274 180.159Z" fill="#EE7153"/>
<path d="M383.783 178.393H365.827C365.604 178.393 365.529 178.239 365.529 178.009L367.243 158.804C367.243 158.573 367.466 158.42 367.615 158.42H385.572C385.795 158.42 385.87 158.573 385.87 158.804L384.156 178.009C384.081 178.239 383.932 178.393 383.783 178.393Z" fill="#F9D4C5"/>
<path d="M261.593 244.457V248.298H353.385V244.457C353.385 242.69 352.044 241.307 350.33 241.307H264.647C262.934 241.307 261.593 242.69 261.593 244.457Z" fill="#FFEBDE"/>
<path d="M443.016 248.298H142.904V254.751H443.016V248.298Z" fill="#271F4A"/>
<path d="M435.566 254.751H378.643V260.436H435.566V254.751Z" fill="#271F4A"/>
<path d="M442.942 255.058H374.545V248.298H375.215V254.367H442.942V255.058Z" fill="#8676A1"/>
<path d="M370.149 411.54C369.925 411.54 369.776 411.31 369.851 411.156L387.658 257.516C387.658 257.363 387.881 257.209 388.03 257.209C388.179 257.209 388.328 257.439 388.328 257.593L370.521 411.233C370.447 411.387 370.298 411.54 370.149 411.54Z" fill="#271F4A"/>
<path d="M447.487 411.54C447.338 411.54 447.189 411.387 447.189 411.233L429.381 257.593C429.381 257.439 429.456 257.209 429.68 257.209C429.829 257.209 430.052 257.286 430.052 257.516L447.859 411.156C447.859 411.31 447.71 411.54 447.487 411.54Z" fill="#271F4A"/>
<path d="M205.266 254.751H148.343V260.436H205.266V254.751Z" fill="#271F4A"/>
<path d="M139.849 411.54C139.625 411.54 139.476 411.31 139.551 411.156L157.358 257.516C157.358 257.363 157.581 257.209 157.73 257.209C157.879 257.209 158.028 257.439 158.028 257.593L140.221 411.233C140.147 411.387 139.998 411.54 139.849 411.54Z" fill="#271F4A"/>
<path d="M217.187 411.54C217.038 411.54 216.889 411.387 216.889 411.233L199.082 257.593C199.082 257.439 199.156 257.209 199.38 257.209C199.529 257.209 199.752 257.286 199.752 257.516L217.559 411.156C217.559 411.31 217.41 411.54 217.187 411.54Z" fill="#271F4A"/>
<path d="M341.613 233.088L341.836 239.617C341.836 240.232 341.166 240.539 340.719 240.232L335.727 236.237L316.281 196.675C315.461 194.985 316.132 192.988 317.696 192.143C319.335 191.298 321.273 191.989 322.092 193.602L341.613 233.088Z" fill="#271F4A"/>
<path d="M338.111 233.472C337.515 233.779 336.844 233.548 336.621 232.934L318.814 196.675C318.516 196.06 318.739 195.369 319.335 195.138C319.931 194.831 320.602 195.062 320.825 195.676L338.632 231.935C338.931 232.473 338.707 233.164 338.111 233.472Z" fill="#DEE0E2"/>
<path d="M229.927 112.25C234.845 120.239 240.433 148.663 225.904 150.045C211.375 151.428 206.532 139.905 203.552 133.606C200.572 127.307 194.686 109.561 207.128 105.644C219.496 101.726 226.798 107.026 229.927 112.25Z" fill="#F7F7F7"/>
<path d="M202.583 121.93C203.329 132.147 201.317 152.581 201.317 152.581C201.317 152.581 211.301 163.643 221.061 153.964L222.253 139.061L202.583 121.93Z" fill="#F7F7F7"/>
<path d="M230.366 122.661C229.544 122.678 228.895 123.654 228.917 124.841C228.939 126.029 229.624 126.979 230.447 126.962C231.27 126.946 231.919 125.97 231.897 124.782C231.874 123.594 231.189 122.645 230.366 122.661Z" fill="#271F4A"/>
<path d="M221.666 123.391C220.843 123.407 220.194 124.383 220.217 125.571C220.239 126.759 220.924 127.708 221.747 127.692C222.57 127.675 223.219 126.699 223.196 125.511C223.174 124.324 222.489 123.374 221.666 123.391Z" fill="#271F4A"/>
<path d="M226.277 133.99C226.053 133.99 225.904 133.837 225.904 133.606C225.904 133.452 226.053 133.299 226.277 133.299C227.841 133.299 230.002 132.915 230.151 132.147C230.3 131.225 228.363 127.614 227.022 125.617C226.947 125.463 226.947 125.233 227.096 125.156C227.245 125.079 227.469 125.079 227.543 125.233C227.916 125.77 230.971 130.764 230.747 132.3C230.523 133.913 227.022 133.99 226.277 133.99Z" fill="#271F4A"/>
<path d="M218.9 121.161C218.677 121.161 218.379 121.084 218.155 120.854C217.783 120.47 217.783 119.779 218.155 119.394C220.316 117.167 222.924 117.781 223.967 118.396C224.488 118.703 224.637 119.318 224.339 119.779C224.041 120.239 223.445 120.47 222.998 120.163C222.775 120.086 221.136 119.241 219.496 120.854C219.422 121.008 219.124 121.161 218.9 121.161Z" fill="#271F4A"/>
<path d="M228.81 119.395C228.512 119.395 228.214 119.241 227.99 118.934C227.692 118.473 227.767 117.858 228.214 117.474C230.672 115.631 233.131 116.629 234.1 117.397C234.547 117.782 234.621 118.396 234.249 118.857C233.876 119.318 233.28 119.395 232.833 119.087C232.684 118.934 231.12 117.858 229.331 119.164C229.257 119.318 229.033 119.395 228.81 119.395Z" fill="#271F4A"/>
<path d="M236.707 99.1911C233.876 101.112 228.214 97.3474 222.179 96.4256C218.9 95.8879 210.109 94.121 204.595 100.036C203.105 101.649 201.689 103.416 201.317 105.567C195.133 108.64 191.854 116.783 192.6 123.466C194.239 137.755 201.242 143.67 208.097 142.671C210.183 142.364 207.799 134.528 208.097 132.531C208.469 130.303 209.215 129.228 209.513 128.844C210.332 127.614 216.218 123.927 215.548 112.865C219.794 114.017 225.01 113.633 229.406 112.558C238.719 110.176 238.645 104.184 238.645 100.113C238.645 98.4997 237.825 98.4229 236.707 99.1911Z" fill="#271F4A"/>
<path d="M212.493 133.299C212.046 134.375 211.375 134.759 210.332 135.066C209.289 135.45 208.171 135.22 207.203 134.605C206.234 133.991 205.638 133.069 205.191 131.917C204.819 130.918 204.819 129.766 205.042 128.69C205.266 127.615 205.787 126.616 206.532 125.925C207.277 125.233 208.171 124.849 209.14 124.772C210.183 124.696 211.45 125.387 212.344 125.925C213.089 126.463 213.163 128.537 213.089 129.228C213.089 130.534 213.014 132.224 212.493 133.299Z" fill="#F7F7F7"/>
<path d="M210.928 132.148C210.854 132.148 210.779 132.148 210.779 132.071C210.63 131.994 210.556 131.764 210.705 131.61C210.779 131.533 211.897 129.459 210.332 127.923C209.96 127.538 209.513 127.385 209.066 127.385C207.948 127.462 206.979 128.768 206.979 128.768C206.83 128.921 206.681 128.921 206.532 128.844C206.383 128.691 206.383 128.537 206.458 128.383C206.532 128.307 207.65 126.847 209.066 126.77C209.736 126.693 210.332 126.924 210.854 127.462C212.865 129.459 211.375 131.994 211.375 131.994C211.152 132.071 211.003 132.148 210.928 132.148Z" fill="#271F4A"/>
<path d="M208.172 130.534C208.097 130.534 208.022 130.534 207.948 130.457C207.799 130.303 207.799 130.15 207.873 129.996C208.544 129.151 210.109 127.922 211.524 129.074C211.673 129.228 211.673 129.382 211.599 129.535C211.45 129.689 211.301 129.689 211.152 129.612C209.885 128.613 208.47 130.38 208.395 130.457C208.321 130.534 208.246 130.534 208.172 130.534Z" fill="#271F4A"/>
<path d="M223.296 150.43C208.469 150.43 202.807 132.761 202.807 132.607C202.732 132.454 202.881 132.223 203.03 132.146C203.18 132.07 203.403 132.223 203.478 132.377C203.552 132.531 208.991 149.738 223.371 149.738C223.445 149.738 223.594 149.738 223.669 149.738C223.818 149.738 223.967 149.892 224.041 150.045C224.041 150.199 223.892 150.43 223.743 150.43C223.52 150.43 223.371 150.43 223.296 150.43Z" fill="#271F4A"/>
<path d="M228.288 140.674C225.755 140.674 224.637 138.6 224.637 138.6C224.563 138.446 224.637 138.216 224.786 138.139C224.935 138.062 225.159 138.139 225.234 138.292C225.308 138.369 226.426 140.443 229.033 139.906C231.567 139.445 231.343 137.447 231.343 137.371C231.343 137.217 231.418 136.986 231.641 136.986C231.79 136.986 232.014 137.063 232.014 137.294C232.014 137.294 232.386 140.059 229.182 140.674C228.884 140.674 228.586 140.674 228.288 140.674Z" fill="#271F4A"/>
<path d="M235.292 374.974C235.068 375.435 234.919 375.666 234.845 375.819V375.896C227.99 386.036 189.992 365.449 193.941 359.918C200.05 351.314 239.315 364.911 235.292 374.974Z" fill="#271F4A"/>
<path d="M205.34 351.928L195.058 375.896C195.058 375.896 207.65 389.57 218.677 385.038L241.252 344.477L205.34 351.928Z" fill="#FFA38C"/>
<path d="M241.848 411.08H218.975C213.834 411.08 208.917 409.313 204.893 406.009C198.188 400.478 188.8 391.644 189.247 386.344C189.247 385.959 189.321 385.575 189.396 385.114C190.141 380.582 193.27 374.283 195.282 370.826C195.952 369.597 197.815 367.062 198.858 365.372C199.827 363.835 201.242 362.606 202.881 361.992C205.117 361.147 207.948 361.377 208.768 367.139C208.768 367.139 215.771 378.585 221.508 380.198L229.406 393.257C229.331 393.104 241.848 395.716 241.848 411.08Z" fill="#F8D2C7"/>
<path d="M208.768 367.369C208.693 367.369 208.619 367.369 208.544 367.293C204.446 363.836 199.007 365.603 198.933 365.603C198.784 365.679 198.56 365.526 198.486 365.372C198.411 365.218 198.486 364.988 198.709 364.911C198.933 364.834 204.595 362.991 208.991 366.678C209.14 366.832 209.14 366.985 209.066 367.139C208.917 367.369 208.842 367.369 208.768 367.369Z" fill="#271F4A"/>
<path d="M211.226 404.55C215.25 408.237 217.932 410.619 228.512 411.08H220.167C214.132 411.08 208.246 408.929 203.627 404.934C197.07 399.326 188.8 391.26 189.172 386.267C189.172 386.19 189.172 386.113 189.172 386.037C189.247 385.345 189.47 384.654 189.917 384.193C190.811 383.117 192.451 382.196 195.207 382.733C201.391 383.886 202.807 396.868 211.226 404.55Z" fill="#7C98DB"/>
<path d="M233.355 410.157C219.944 410.157 217.41 407.853 213.387 404.088C213.163 403.858 212.865 403.627 212.567 403.32C208.544 399.633 206.011 394.563 203.776 390.107C201.391 385.268 199.305 381.119 196.176 380.582C194.164 380.197 192.302 380.505 190.662 381.427L190.29 380.812C192.078 379.737 194.09 379.429 196.25 379.89C199.678 380.505 201.838 384.807 204.297 389.8C206.532 394.255 209.066 399.249 212.94 402.859C213.238 403.09 213.461 403.32 213.759 403.628C218.528 408.083 220.912 410.311 241.774 409.235V409.927C238.57 410.08 235.813 410.157 233.355 410.157Z" fill="#271F4A"/>
<path d="M268.82 250.219L255.111 249.144C248.181 257.21 241.401 265.353 234.621 273.495C229.331 279.948 223.892 286.401 217.932 292.163C225.382 291.932 230.672 291.625 230.672 291.625L194.015 359.841C200.125 351.314 239.39 364.911 235.366 374.975C240.135 366.063 272.545 304.3 281.709 282.868C287.819 268.579 283.87 252.37 268.82 250.219Z" fill="#EE7153"/>
<path d="M278.58 291.855C281.039 289.473 268 254.674 269.043 249.066L222.104 243.381L212.642 232.089L173.302 255.288C173.302 255.288 174.42 288.321 191.035 291.471C206.16 294.313 273.067 292.162 278.58 291.855Z" fill="#D6B269"/>
<path d="M291.395 374.974C291.172 375.435 291.023 375.666 290.948 375.819V375.896C284.094 386.036 246.095 365.449 250.044 359.918C256.154 351.314 295.493 364.911 291.395 374.974Z" fill="#271F4A"/>
<path d="M291.393 375.051C291.319 375.281 291.171 375.589 290.948 375.819C291.097 375.665 291.171 375.435 291.393 375.051Z" fill="#271F4A"/>
<path d="M261.518 351.928L251.236 375.896C251.236 375.896 263.828 389.57 274.855 385.038L297.43 344.477L261.518 351.928Z" fill="#FFA38C"/>
<path d="M297.952 411.08H275.078C269.937 411.08 265.02 409.313 260.997 406.009C254.291 400.478 244.903 391.644 245.35 386.344C245.35 385.959 245.425 385.575 245.499 385.114C246.244 380.582 249.374 374.283 251.385 370.826C252.056 369.597 253.918 367.062 254.962 365.372C255.93 363.835 257.346 362.606 258.985 361.992C261.22 361.147 264.051 361.377 264.871 367.139C264.871 367.139 271.875 378.585 277.612 380.198L285.509 393.257C285.435 393.104 297.952 395.716 297.952 411.08Z" fill="#F8D2C7"/>
<path d="M264.871 367.369C264.796 367.369 264.722 367.369 264.647 367.293C260.55 363.836 255.111 365.603 255.036 365.603C254.887 365.679 254.664 365.526 254.589 365.372C254.515 365.218 254.589 364.988 254.813 364.911C255.036 364.834 260.699 362.991 265.094 366.678C265.243 366.832 265.243 366.985 265.169 367.139C265.094 367.369 264.945 367.369 264.871 367.369Z" fill="#271F4A"/>
<path d="M267.33 404.55C271.353 408.237 274.035 410.619 284.615 411.08H276.27C270.235 411.08 264.349 408.929 259.73 404.934C253.173 399.326 244.903 391.26 245.276 386.267C245.276 386.19 245.276 386.113 245.276 386.037C245.35 385.345 245.574 384.654 246.021 384.193C246.915 383.117 248.554 382.196 251.311 382.733C257.495 383.886 258.985 396.868 267.33 404.55Z" fill="#7C98DB"/>
<path d="M289.458 410.157C276.047 410.157 273.514 407.853 269.49 404.088C269.267 403.858 268.969 403.627 268.671 403.32C264.647 399.633 262.114 394.563 259.879 390.107C257.495 385.268 255.409 381.119 252.279 380.582C250.268 380.197 248.405 380.505 246.766 381.427L246.468 380.812C248.256 379.737 250.268 379.429 252.428 379.89C255.856 380.505 258.016 384.807 260.475 389.8C262.71 394.255 265.243 399.249 269.118 402.859C269.416 403.09 269.639 403.32 269.937 403.628C274.706 408.083 277.09 410.311 297.952 409.235V409.927C294.748 410.08 291.917 410.157 289.458 410.157Z" fill="#271F4A"/>
<path d="M337.813 282.867C328.649 304.223 296.238 366.063 291.47 374.974C295.493 364.911 256.228 351.314 250.119 359.841L286.776 291.625C286.776 291.625 248.629 293.929 232.088 290.856C215.473 287.707 203.925 256.211 203.925 256.211L253.621 231.475L255.036 244.688L324.849 250.219C339.974 252.37 343.923 268.579 337.813 282.867Z" fill="#EE7153"/>
<path d="M306.297 347.396C306.222 347.396 306.222 347.396 306.148 347.396C305.999 347.319 305.924 347.088 305.999 346.935L337.44 282.79C337.515 282.637 337.738 282.56 337.887 282.637C338.036 282.713 338.111 282.944 338.036 283.098L306.595 347.242C306.52 347.319 306.446 347.396 306.297 347.396Z" fill="#271F4A"/>
<path d="M249.895 360.609C249.821 360.609 249.821 360.609 249.746 360.532C249.597 360.455 249.523 360.225 249.597 360.071L269.639 322.276L286.18 292.009L249.895 292.93C249.746 292.93 249.597 292.777 249.523 292.623C249.523 292.47 249.672 292.239 249.821 292.239L286.701 291.317C286.776 291.317 286.925 291.394 286.999 291.471C287.074 291.548 287.074 291.701 286.999 291.855L270.235 322.583L250.193 360.378C250.119 360.532 249.97 360.609 249.895 360.609Z" fill="#271F4A"/>
<path d="M232.535 307.527H227.99C225.755 307.527 223.967 305.683 223.967 303.379V296.695H236.558V303.379C236.558 305.683 234.77 307.527 232.535 307.527Z" fill="#271F4A"/>
<path d="M232.312 305.299H228.139V392.72H232.312V305.299Z" fill="#271F4A"/>
<path d="M207.724 405.857H205.713V397.867C205.713 394.487 208.395 391.722 211.673 391.722H230.225V393.796H211.673C209.513 393.796 207.724 395.639 207.724 397.867V405.857Z" fill="#271F4A"/>
<path d="M206.681 410.773C208.903 410.773 210.705 408.916 210.705 406.625C210.705 404.334 208.903 402.476 206.681 402.476C204.459 402.476 202.658 404.334 202.658 406.625C202.658 408.916 204.459 410.773 206.681 410.773Z" fill="#271F4A"/>
<path d="M195.952 405.856H193.941V397.867C193.941 394.487 196.623 391.721 199.901 391.721H218.453V393.796H199.901C197.741 393.796 195.952 395.639 195.952 397.867V405.856Z" fill="#271F4A"/>
<path d="M194.909 410.773C197.131 410.773 198.933 408.915 198.933 406.624C198.933 404.333 197.131 402.476 194.909 402.476C192.687 402.476 190.886 404.333 190.886 406.624C190.886 408.915 192.687 410.773 194.909 410.773Z" fill="#271F4A"/>
<path d="M253.173 405.857H251.162V397.867C251.162 395.639 249.374 393.796 247.213 393.796H228.661V391.722H247.213C250.491 391.722 253.173 394.487 253.173 397.867V405.857Z" fill="#271F4A"/>
<path d="M252.13 410.773C254.352 410.773 256.154 408.916 256.154 406.625C256.154 404.334 254.352 402.476 252.13 402.476C249.908 402.476 248.107 404.334 248.107 406.625C248.107 408.916 249.908 410.773 252.13 410.773Z" fill="#271F4A"/>
<path d="M264.945 405.857H262.934V397.867C262.934 395.639 261.146 393.796 258.985 393.796H240.433V391.722H258.985C262.263 391.722 264.945 394.487 264.945 397.867V405.857Z" fill="#271F4A"/>
<path d="M263.902 410.773C266.124 410.773 267.926 408.916 267.926 406.625C267.926 404.334 266.124 402.476 263.902 402.476C261.68 402.476 259.879 404.334 259.879 406.625C259.879 408.916 261.68 410.773 263.902 410.773Z" fill="#271F4A"/>
<path d="M240.582 171.018C234.323 163.566 228.81 153.656 212.195 150.353C195.505 147.05 185.67 162.337 181.498 169.865C172.781 185.69 170.993 231.552 172.259 262.51C193.941 317.59 267.181 242.844 267.181 242.844L240.582 171.018Z" fill="#F8D2C7"/>
<path d="M226.426 214.114C226.426 214.114 242.444 248.222 252.205 250.527C261.891 252.831 314.716 226.713 314.716 226.713L309.128 211.579L270.534 219.031L254.813 194.448L226.426 214.114Z" fill="#F7F7F7"/>
<path d="M221.955 159.034C217.932 160.724 206.16 168.329 213.536 191.759C220.912 215.189 222.551 219.107 222.551 219.107C222.551 219.107 242.817 208.967 260.475 197.597C260.475 197.521 241.699 150.737 221.955 159.034Z" fill="#F8D2C7"/>
<path d="M222.551 219.337C222.402 219.337 222.328 219.26 222.253 219.107C222.179 218.953 220.465 214.958 213.163 191.759C205.34 166.946 218.975 159.802 221.806 158.649C221.955 158.572 222.179 158.649 222.253 158.803C222.328 158.957 222.253 159.187 222.104 159.264C219.422 160.416 206.234 167.33 213.908 191.528C221.21 214.651 222.924 218.799 222.924 218.799C222.998 218.953 222.924 219.183 222.775 219.26C222.626 219.337 222.626 219.337 222.551 219.337Z" fill="#271F4A"/>
<path d="M336.546 217.801C334.162 215.343 331.629 212.961 328.649 211.578C325.37 210.042 322.912 208.89 319.41 209.197C315.386 209.581 311.438 210.349 307.787 212.193C307.34 212.424 307.265 212.808 307.265 213.192C307.191 213.345 307.191 213.576 307.265 213.806C307.787 216.802 308.83 219.721 310.32 222.333C310.022 224.1 311.14 226.097 312.63 227.096C315.014 228.633 317.771 228.018 320.155 226.712C320.602 227.711 320.974 228.786 321.571 229.785C322.241 230.937 323.21 231.859 324.253 232.55C325.147 233.165 326.264 233.549 327.307 233.088C327.68 233.472 328.127 233.856 328.649 234.087C329.841 234.624 331.256 234.701 332.299 233.856C333.492 232.934 333.715 231.244 333.715 229.708C333.715 228.018 333.492 226.328 333.119 224.715C333.119 224.561 333.045 224.407 332.97 224.254C333.566 224.561 334.162 224.868 334.758 225.176C336.174 225.79 338.931 227.327 340.048 226.097C341.836 224.177 337.589 218.876 336.546 217.801Z" fill="#F7F7F7"/>
<path d="M327.307 233.396C327.233 233.396 327.159 233.396 327.159 233.319C327.009 233.242 326.935 233.012 327.009 232.858C327.009 232.858 329.021 229.324 327.978 225.944C326.935 222.488 323.806 219.722 323.806 219.722C323.657 219.568 323.657 219.415 323.731 219.261C323.88 219.107 324.029 219.107 324.178 219.184C324.327 219.338 327.531 222.103 328.574 225.714C329.692 229.401 327.606 233.012 327.531 233.165C327.531 233.319 327.382 233.396 327.307 233.396Z" fill="#271F4A"/>
<path d="M333.566 231.859C333.492 231.859 333.491 231.859 333.417 231.859C333.268 231.782 333.119 231.628 333.193 231.398C333.641 230.169 333.193 227.25 332.672 224.254C332.15 221.411 327.382 216.264 327.307 216.187C327.158 216.034 327.158 215.803 327.307 215.727C327.456 215.573 327.68 215.573 327.755 215.727C327.978 215.957 332.746 221.027 333.268 224.1C333.939 227.71 334.237 230.246 333.79 231.628C333.864 231.782 333.715 231.859 333.566 231.859Z" fill="#271F4A"/>
<path d="M248.256 296.695C224.414 290.089 234.994 263.509 236.111 249.067C237.155 236.238 221.434 194.602 217.857 185.307C217.41 184.231 216.367 183.463 215.25 183.463H151.099C149.088 183.463 147.747 185.537 148.492 187.458C153.186 199.749 166.82 237.083 165.926 249.144C164.809 263.586 154.154 290.089 178.071 296.772H248.256V296.695Z" fill="#7C98DB"/>
<path d="M213.685 187.918H151.546C151.397 187.918 151.174 187.764 151.174 187.534C151.174 187.38 151.323 187.149 151.546 187.149H213.685C213.834 187.149 213.983 187.303 213.983 187.534C214.057 187.764 213.908 187.918 213.685 187.918Z" fill="#271F4A"/>
<path d="M239.837 296.695L288.415 296.003C290.129 296.003 291.47 294.544 291.47 292.854C291.47 291.087 290.129 289.704 288.49 289.704L224.19 288.091L223.073 291.01L239.837 296.695Z" fill="#7C98DB"/>
<path d="M89.7059 405.241L94.1018 403.474L40.2335 260.743L72.2714 155.269C78.3064 135.296 98.4977 123.542 118.167 128.535L119.285 123.849C97.2311 118.318 74.5811 131.455 67.801 153.809L35.3161 260.896L35.6141 261.664L89.7059 405.241Z" fill="#FFA38C"/>
<path d="M153.633 123.773C155.197 125.77 147.151 134.989 135.677 144.438C134.857 145.129 134.037 145.744 133.218 146.435C122.787 154.655 113.623 159.725 112.132 157.881C103.639 146.896 104.682 131.302 113.995 121.622C114.74 120.854 115.485 120.163 116.305 119.471C127.853 110.022 144.543 111.943 153.633 123.773Z" fill="#F97A59"/>
<path d="M153.633 123.773C155.197 125.77 147.151 134.989 135.677 144.438C124.203 153.81 113.697 159.878 112.132 157.881C110.568 155.884 118.615 146.665 130.089 137.217C141.563 127.768 152.068 121.776 153.633 123.773Z" fill="#F97A59"/>
<path d="M152.59 123.389C153.037 123.389 153.409 123.543 153.633 123.774C155.197 125.771 147.151 134.989 135.677 144.438C125.693 152.658 116.454 158.266 113.176 158.266C112.654 158.266 112.356 158.112 112.132 157.882C110.568 155.884 118.615 146.666 130.089 137.217C140.072 128.997 149.386 123.389 152.59 123.389ZM152.59 122.698C149.088 122.698 139.7 128.46 129.641 136.679C124.053 141.289 119.136 145.898 115.709 149.892C110.046 156.345 111.238 157.882 111.611 158.343C111.909 158.803 112.43 158.957 113.176 158.957C116.677 158.957 126.065 153.196 136.049 144.976C141.637 140.367 146.554 135.681 149.982 131.763C155.644 125.31 154.452 123.774 154.08 123.313C153.856 122.929 153.335 122.698 152.59 122.698Z" fill="#271F4A"/>
<path d="M138.88 135.833C139.923 137.139 140.445 138.676 140.519 140.212C140.668 142.747 139.7 145.282 137.688 146.972C135.677 148.662 132.994 149.123 130.685 148.355C129.269 147.894 127.928 147.049 126.885 145.743C125.842 144.437 125.32 142.901 125.246 141.364C126.81 139.982 128.375 138.599 130.089 137.216C131.802 135.833 133.441 134.527 135.155 133.222C136.571 133.682 137.912 134.527 138.88 135.833Z" fill="#FFC577"/>
<path d="M105.874 401.4H78.0084C72.0479 401.4 67.1305 406.317 66.9814 412.539V413H116.826C116.975 406.624 111.983 401.4 105.874 401.4Z" fill="#F97A59"/>
<path d="M116.975 409.236H66.9069C65.8638 409.236 65.1188 410.081 65.1188 411.079C65.1188 412.155 65.9384 412.923 66.9069 412.923H116.975C118.018 412.923 118.764 412.078 118.764 411.079C118.764 410.081 117.944 409.236 116.975 409.236Z" fill="#FFC577"/>
<path d="M291.619 107.948L275.6 84.9788C274.184 82.9046 274.631 80.0623 276.643 78.6027L347.126 26.2884C349.138 24.8288 351.895 25.2897 353.31 27.3638L369.329 50.333C370.745 52.4071 370.298 55.2495 368.286 56.709L297.803 108.947C295.791 110.406 293.034 109.945 291.619 107.948Z" fill="white"/>
<path d="M295.195 110.176C293.705 110.176 292.215 109.485 291.321 108.102L275.302 85.1327C273.737 82.905 274.259 79.8322 276.419 78.2958L346.903 25.9814C349.063 24.3682 352.044 24.906 353.534 27.1337L369.553 50.1029C371.117 52.3306 370.596 55.4035 368.435 56.9398L297.952 109.254C297.132 109.869 296.164 110.176 295.195 110.176ZM291.917 107.718C293.258 109.638 295.791 110.022 297.654 108.716L368.137 56.4021C370 55.0193 370.372 52.4075 369.031 50.487L353.012 27.5178C351.671 25.5973 349.138 25.2132 347.275 26.5192L276.792 78.8335C274.929 80.2163 274.557 82.8281 275.898 84.7486L291.917 107.718Z" fill="#271F4A"/>
<path d="M365.381 54.293L348.359 29.9153L335.842 39.2067L352.864 63.5844L365.381 54.293Z" fill="#C49D57"/>
<path d="M349.257 66.2128L332.235 41.8381L319.72 51.1295L336.741 75.5042L349.257 66.2128Z" fill="#D6B269"/>
<path d="M333.199 78.1328L316.177 53.7581L303.662 63.0494L320.684 87.4241L333.199 78.1328Z" fill="#EFCB97"/>
<path d="M317.069 90.1415L300.047 65.7638L287.53 75.0552L304.552 99.4328L317.069 90.1415Z" fill="#FFE0B6"/>
<path d="M293.034 102.033L268.373 89.665C266.138 88.5895 265.244 85.824 266.287 83.5962L304.21 3.01216C305.254 0.707559 307.936 -0.214282 310.097 0.861197L334.758 13.2292C336.993 14.3047 337.887 17.0702 336.844 19.3748L298.921 99.9589C297.877 102.187 295.27 103.108 293.034 102.033Z" fill="white"/>
<path d="M294.972 102.801C294.301 102.801 293.556 102.648 292.885 102.34L268.224 89.9724C267.106 89.4346 266.212 88.436 265.765 87.13C265.318 85.9009 265.393 84.5182 265.989 83.3659L303.912 2.7818C305.03 0.323564 307.936 -0.675094 310.32 0.477204L334.982 12.8452C336.099 13.3829 336.993 14.3816 337.44 15.6875C337.887 16.9167 337.813 18.2994 337.217 19.4517L299.293 100.036C298.473 101.803 296.76 102.801 294.972 102.801ZM308.234 0.784485C306.744 0.784485 305.254 1.6295 304.508 3.1659L266.585 83.75C266.138 84.7486 266.063 85.9009 266.436 86.9764C266.808 88.0519 267.553 88.8969 268.522 89.3578L293.183 101.726C295.195 102.724 297.654 101.879 298.622 99.8053L336.546 19.2213C336.993 18.2226 337.068 17.0703 336.695 15.9948C336.323 14.9193 335.578 14.0743 334.609 13.6134L310.022 1.16858C309.426 0.861305 308.83 0.784485 308.234 0.784485Z" fill="#271F4A"/>
<path d="M333.26 18.6971L307.053 5.57715L300.316 19.8823L326.523 33.0023L333.26 18.6971Z" fill="#7C98DB"/>
<path d="M324.605 37.1258L298.398 24.0059L291.661 38.311L317.868 51.431L324.605 37.1258Z" fill="#9EB5E5"/>
<path d="M315.895 55.4735L289.688 42.3535L282.951 56.6587L309.158 69.7787L315.895 55.4735Z" fill="#C2D2EF"/>
<path d="M307.237 73.9071L281.03 60.7871L274.293 75.0923L300.5 88.2123L307.237 73.9071Z" fill="#DEEAFC"/>
<path d="M291.842 100.189L264.498 102.34C262.04 102.57 259.954 100.65 259.73 98.1146L253.024 8.84986C252.801 6.31481 254.664 4.16385 257.122 3.93339L284.466 1.78243C286.925 1.55197 289.011 3.47247 289.235 6.00753L295.94 95.2722C296.089 97.8073 294.301 100.035 291.842 100.189Z" fill="white"/>
<path d="M264.126 102.724C261.667 102.724 259.581 100.727 259.357 98.1917L252.652 8.92704C252.428 6.23835 254.44 3.85692 257.048 3.62646L284.392 1.47551C286.999 1.24505 289.309 3.31919 289.533 6.00788L296.238 95.2726C296.313 96.5785 295.94 97.8845 295.121 98.8831C294.301 99.8818 293.109 100.496 291.842 100.573L264.498 102.724C264.349 102.724 264.275 102.724 264.126 102.724ZM284.839 2.16689C284.764 2.16689 284.615 2.16689 284.541 2.16689L257.197 4.31784C254.962 4.47148 253.248 6.54562 253.397 8.85022L260.103 98.1149C260.252 100.42 262.263 102.186 264.498 102.033L291.842 99.8818C292.96 99.805 293.929 99.2672 294.674 98.4222C295.419 97.5772 295.717 96.5017 295.642 95.3494L288.937 6.0847C288.862 4.9324 288.341 3.93374 287.521 3.16554C286.701 2.47417 285.807 2.16689 284.839 2.16689Z" fill="#271F4A"/>
<path d="M285.752 7.40482L256.708 9.71509L257.894 25.5691L286.939 23.2588L285.752 7.40482Z" fill="#EE7153"/>
<path d="M287.241 27.7641L258.197 30.0752L259.383 45.9292L288.428 43.6181L287.241 27.7641Z" fill="#FFA38C"/>
<path d="M288.804 48.1176L259.759 50.4286L260.946 66.2826L289.991 63.9716L288.804 48.1176Z" fill="#F9D4C5"/>
<path d="M290.298 68.5532L261.253 70.8643L262.44 86.7183L291.485 84.4072L290.298 68.5532Z" fill="#FFEBDE"/>
<path d="M284.988 94.2743C285.975 94.2743 286.776 93.4488 286.776 92.4306C286.776 91.4124 285.975 90.5869 284.988 90.5869C284 90.5869 283.2 91.4124 283.2 92.4306C283.2 93.4488 284 94.2743 284.988 94.2743Z" fill="#271F4A"/>
<path d="M567.293 263.662C562.897 270.806 553.659 272.881 546.804 268.348C539.875 263.816 537.863 254.29 542.259 247.223C546.655 240.078 560.439 230.553 567.368 235.085C574.297 239.617 571.689 256.518 567.293 263.662Z" fill="#D6B269"/>
<path d="M483.399 262.049C490.775 265.737 493.83 274.878 490.253 282.56C486.677 290.165 477.811 293.315 470.435 289.628C463.059 285.94 452.255 272.881 455.831 265.276C459.408 257.671 476.023 258.285 483.399 262.049Z" fill="#D6B269"/>
<path d="M541.812 269.884C542.93 276.107 538.906 282.176 532.797 283.251C526.762 284.403 520.876 280.255 519.833 273.956C518.715 267.734 521.621 255.212 527.656 254.06C533.765 252.984 540.769 263.662 541.812 269.884Z" fill="#D6B269"/>
<path d="M522.291 307.603C519.385 313.211 512.605 315.285 507.166 312.212C501.727 309.216 499.716 302.225 502.696 296.617C505.602 291.01 515.511 283.097 520.876 286.17C526.315 289.243 525.271 302.072 522.291 307.603Z" fill="#D6B269"/>
<path d="M478.481 285.325C484.591 284.634 490.104 289.166 490.85 295.466C491.52 301.765 487.124 307.526 481.015 308.218C474.905 308.909 462.984 305.145 462.239 298.846C461.494 292.546 472.297 286.094 478.481 285.325Z" fill="#D6B269"/>
<path d="M551.721 330.649C545.686 332.032 539.726 328.191 538.31 321.968C536.969 315.746 540.694 309.6 546.729 308.141C552.764 306.758 564.983 309.139 566.399 315.285C567.815 321.584 557.756 329.189 551.721 330.649Z" fill="#D6B269"/>
<path d="M508.21 354.54C507.986 354.54 507.837 354.309 507.912 354.156C507.912 354.002 509.7 341.096 506.57 324.964C503.665 310.138 495.916 289.473 475.278 275.415C475.129 275.338 475.054 275.108 475.203 274.954C475.278 274.801 475.501 274.724 475.65 274.877C496.512 289.089 504.335 309.907 507.241 324.887C510.37 341.096 508.582 354.156 508.582 354.309C508.508 354.463 508.433 354.54 508.21 354.54Z" fill="#271F4A"/>
<path d="M517.672 351.775C517.597 351.775 517.597 351.775 517.672 351.775C517.448 351.698 517.299 351.544 517.374 351.39C517.523 350.853 529.593 295.081 556.341 251.294C556.415 251.14 556.639 251.064 556.788 251.217C556.937 251.294 557.011 251.525 556.862 251.678C530.115 295.312 518.044 350.929 517.97 351.544C517.97 351.698 517.821 351.775 517.672 351.775Z" fill="#271F4A"/>
<path d="M522.291 333.722C522.217 333.722 522.142 333.722 522.068 333.645C521.919 333.491 521.919 333.261 522.068 333.184C522.217 333.03 538.981 316.437 553.659 320.048C553.808 320.125 553.957 320.278 553.882 320.432C553.808 320.586 553.659 320.739 553.51 320.662C539.204 317.206 522.738 333.491 522.515 333.645C522.44 333.645 522.366 333.722 522.291 333.722Z" fill="#271F4A"/>
<path d="M507.241 326.808C507.017 326.808 506.868 326.654 506.868 326.424C506.868 326.27 507.912 311.828 511.264 303.839C511.339 303.685 511.562 303.608 511.711 303.685C511.86 303.762 511.935 303.992 511.86 304.146C508.508 311.982 507.539 326.347 507.464 326.501C507.539 326.654 507.39 326.808 507.241 326.808Z" fill="#271F4A"/>
<path d="M498.151 300.382C498.077 300.382 498.077 300.382 498.002 300.382C497.928 300.305 489.732 296.311 482.952 295.005C482.803 295.005 482.654 294.774 482.654 294.621C482.654 294.467 482.877 294.313 483.026 294.313C489.881 295.696 498.151 299.691 498.226 299.767C498.375 299.844 498.449 300.075 498.375 300.228C498.375 300.305 498.3 300.382 498.151 300.382Z" fill="#271F4A"/>
<path d="M533.393 299.537C533.169 299.537 533.02 299.307 533.095 299.153C534.883 288.321 532.424 275.339 532.35 275.185C532.35 275.031 532.424 274.801 532.648 274.801C532.797 274.724 533.02 274.878 533.02 275.108C533.02 275.262 535.628 288.321 533.765 299.307C533.691 299.383 533.542 299.537 533.393 299.537Z" fill="#271F4A"/>
<path d="M534.585 412.309C541.514 399.48 545.984 382.579 545.984 370.595C545.984 358.842 541.738 348.241 534.957 341.097H491.818C485.038 348.318 480.791 358.842 480.791 370.595C480.791 382.579 485.187 399.48 492.191 412.309H534.585Z" fill="#F9D4C5"/>
<path d="M545.239 364.681H481.462C481.313 364.681 481.164 364.527 481.164 364.373C481.164 364.22 481.313 363.989 481.462 363.989H545.239C545.388 363.989 545.612 364.143 545.612 364.373C545.537 364.527 545.388 364.681 545.239 364.681Z" fill="#271F4A"/>
</svg>
