<svg width="76" height="76" viewBox="0 0 76 76" fill="none" xmlns="http://www.w3.org/2000/svg">
<g clip-path="url(#clip0_19_6634)">
<path d="M3.43527 16.7207H28.2353C28.6513 16.7207 29.0503 16.886 29.3445 17.1801C29.6386 17.4743 29.8039 17.8733 29.8039 18.2893V38.4305H1.88232V18.2658C1.88844 17.8566 2.05427 17.4659 2.3444 17.1773C2.63454 16.8886 3.02601 16.7248 3.43527 16.7207Z" stroke="url(#paint0_linear_19_6634)" stroke-width="1.98" stroke-linecap="round" stroke-linejoin="round"/>
<path d="M29.7882 38.4238H1.88232V74.0787H29.7882V38.4238Z" stroke="url(#paint1_linear_19_6634)" stroke-width="1.98" stroke-linecap="round" stroke-linejoin="round"/>
<path d="M6.53326 54.6988V42.2988" stroke="url(#paint2_linear_19_6634)" stroke-width="1.98" stroke-linecap="round" stroke-linejoin="round"/>
<path d="M6.53326 33.773V21.373" stroke="url(#paint3_linear_19_6634)" stroke-width="1.98" stroke-linecap="round" stroke-linejoin="round"/>
<path d="M74.7451 41.5216H29.7882V74.0706H74.7451V41.5216Z" stroke="url(#paint4_linear_19_6634)" stroke-width="1.98" stroke-linecap="round" stroke-linejoin="round"/>
<path d="M49.9372 45.3965H32.8862V51.6004H49.9372V45.3965Z" stroke="url(#paint5_linear_19_6634)" stroke-width="1.98" stroke-linecap="round" stroke-linejoin="round"/>
<path d="M49.9372 51.5996H32.8862V57.8035H49.9372V51.5996Z" stroke="url(#paint6_linear_19_6634)" stroke-width="1.98" stroke-linecap="round" stroke-linejoin="round"/>
<path d="M49.9372 57.7969H32.8862V70.1969H49.9372V57.7969Z" stroke="url(#paint7_linear_19_6634)" stroke-width="1.98" stroke-linecap="round" stroke-linejoin="round"/>
<path d="M71.647 50.8242H53.0431V69.4281H71.647V50.8242Z" stroke="url(#paint8_linear_19_6634)" stroke-width="1.98" stroke-linecap="round" stroke-linejoin="round"/>
<path d="M55.3646 47.725C56.2223 47.725 56.9176 47.0297 56.9176 46.1721C56.9176 45.3144 56.2223 44.6191 55.3646 44.6191C54.507 44.6191 53.8117 45.3144 53.8117 46.1721C53.8117 47.0297 54.507 47.725 55.3646 47.725Z" stroke="url(#paint9_linear_19_6634)" stroke-width="1.98" stroke-linecap="round" stroke-linejoin="round"/>
<path d="M69.3176 47.725C70.1753 47.725 70.8705 47.0297 70.8705 46.1721C70.8705 45.3144 70.1753 44.6191 69.3176 44.6191C68.4599 44.6191 67.7646 45.3144 67.7646 46.1721C67.7646 47.0297 68.4599 47.725 69.3176 47.725Z" stroke="url(#paint10_linear_19_6634)" stroke-width="1.98" stroke-linecap="round" stroke-linejoin="round"/>
<path d="M62.3372 47.725C63.1949 47.725 63.8902 47.0297 63.8902 46.1721C63.8902 45.3144 63.1949 44.6191 62.3372 44.6191C61.4796 44.6191 60.7843 45.3144 60.7843 46.1721C60.7843 47.0297 61.4796 47.725 62.3372 47.725Z" stroke="url(#paint11_linear_19_6634)" stroke-width="1.98" stroke-linecap="round" stroke-linejoin="round"/>
<path d="M66.9882 53.9219C66.9882 54.3379 66.8229 54.7369 66.5287 55.0311C66.2346 55.3252 65.8356 55.4905 65.4195 55.4905H59.2392C58.8231 55.4905 58.4241 55.3252 58.13 55.0311C57.8358 54.7369 57.6705 54.3379 57.6705 53.9219" stroke="url(#paint12_linear_19_6634)" stroke-width="1.98" stroke-linecap="round" stroke-linejoin="round"/>
<path d="M71.647 66.3223H53.0431V69.4203H71.647V66.3223Z" stroke="url(#paint13_linear_19_6634)" stroke-width="1.98" stroke-linecap="round" stroke-linejoin="round"/>
<path d="M53.8117 41.5208V39.1992H55.3646" stroke="url(#paint14_linear_19_6634)" stroke-width="1.98" stroke-linecap="round" stroke-linejoin="round"/>
<path d="M60.0156 41.5208V39.1992H58.4627" stroke="url(#paint15_linear_19_6634)" stroke-width="1.98" stroke-linecap="round" stroke-linejoin="round"/>
<path d="M64.6666 41.5208V39.1992H66.2196" stroke="url(#paint16_linear_19_6634)" stroke-width="1.98" stroke-linecap="round" stroke-linejoin="round"/>
<path d="M70.8627 41.5208V39.1992H69.3176" stroke="url(#paint17_linear_19_6634)" stroke-width="1.98" stroke-linecap="round" stroke-linejoin="round"/>
<path d="M74.7372 13.623H49.9372V18.274H74.7372V13.623Z" stroke="url(#paint18_linear_19_6634)" stroke-width="1.98" stroke-linecap="round" stroke-linejoin="round"/>
<path d="M74.7372 13.6238H49.9372L58.4627 7.41992H66.2195L74.7372 13.6238Z" stroke="url(#paint19_linear_19_6634)" stroke-width="1.98" stroke-linecap="round" stroke-linejoin="round"/>
<path d="M66.2196 1.21484V7.41877H58.4627V1.21484" stroke="url(#paint20_linear_19_6634)" stroke-width="1.98" stroke-linecap="round" stroke-linejoin="round"/>
<path d="M71.6392 16.7209C72.068 16.7209 72.4157 16.3733 72.4157 15.9444C72.4157 15.5156 72.068 15.168 71.6392 15.168C71.2104 15.168 70.8627 15.5156 70.8627 15.9444C70.8627 16.3733 71.2104 16.7209 71.6392 16.7209Z" stroke="url(#paint21_linear_19_6634)" stroke-width="1.98" stroke-linecap="round" stroke-linejoin="round"/>
<path d="M68.5411 16.7209C68.97 16.7209 69.3176 16.3733 69.3176 15.9444C69.3176 15.5156 68.97 15.168 68.5411 15.168C68.1123 15.168 67.7646 15.5156 67.7646 15.9444C67.7646 16.3733 68.1123 16.7209 68.5411 16.7209Z" stroke="url(#paint22_linear_19_6634)" stroke-width="1.98" stroke-linecap="round" stroke-linejoin="round"/>
</g>
<defs>
<linearGradient id="paint0_linear_19_6634" x1="15.8431" y1="16.7207" x2="15.8431" y2="38.4305" gradientUnits="userSpaceOnUse">
<stop stop-color="#3B86EE"/>
<stop offset="1" stop-color="#A83ADB"/>
</linearGradient>
<linearGradient id="paint1_linear_19_6634" x1="15.8353" y1="38.4238" x2="15.8353" y2="74.0787" gradientUnits="userSpaceOnUse">
<stop stop-color="#3B86EE"/>
<stop offset="1" stop-color="#A83ADB"/>
</linearGradient>
<linearGradient id="paint2_linear_19_6634" x1="7.03326" y1="42.2988" x2="7.03326" y2="54.6988" gradientUnits="userSpaceOnUse">
<stop stop-color="#3B86EE"/>
<stop offset="1" stop-color="#A83ADB"/>
</linearGradient>
<linearGradient id="paint3_linear_19_6634" x1="7.03326" y1="21.373" x2="7.03326" y2="33.773" gradientUnits="userSpaceOnUse">
<stop stop-color="#3B86EE"/>
<stop offset="1" stop-color="#A83ADB"/>
</linearGradient>
<linearGradient id="paint4_linear_19_6634" x1="52.2666" y1="41.5216" x2="52.2666" y2="74.0706" gradientUnits="userSpaceOnUse">
<stop stop-color="#3B86EE"/>
<stop offset="1" stop-color="#A83ADB"/>
</linearGradient>
<linearGradient id="paint5_linear_19_6634" x1="41.4117" y1="45.3965" x2="41.4117" y2="51.6004" gradientUnits="userSpaceOnUse">
<stop stop-color="#3B86EE"/>
<stop offset="1" stop-color="#A83ADB"/>
</linearGradient>
<linearGradient id="paint6_linear_19_6634" x1="41.4117" y1="51.5996" x2="41.4117" y2="57.8035" gradientUnits="userSpaceOnUse">
<stop stop-color="#3B86EE"/>
<stop offset="1" stop-color="#A83ADB"/>
</linearGradient>
<linearGradient id="paint7_linear_19_6634" x1="41.4117" y1="57.7969" x2="41.4117" y2="70.1969" gradientUnits="userSpaceOnUse">
<stop stop-color="#3B86EE"/>
<stop offset="1" stop-color="#A83ADB"/>
</linearGradient>
<linearGradient id="paint8_linear_19_6634" x1="62.3451" y1="50.8242" x2="62.3451" y2="69.4281" gradientUnits="userSpaceOnUse">
<stop stop-color="#3B86EE"/>
<stop offset="1" stop-color="#A83ADB"/>
</linearGradient>
<linearGradient id="paint9_linear_19_6634" x1="55.3646" y1="44.6191" x2="55.3646" y2="47.725" gradientUnits="userSpaceOnUse">
<stop stop-color="#3B86EE"/>
<stop offset="1" stop-color="#A83ADB"/>
</linearGradient>
<linearGradient id="paint10_linear_19_6634" x1="69.3176" y1="44.6191" x2="69.3176" y2="47.725" gradientUnits="userSpaceOnUse">
<stop stop-color="#3B86EE"/>
<stop offset="1" stop-color="#A83ADB"/>
</linearGradient>
<linearGradient id="paint11_linear_19_6634" x1="62.3372" y1="44.6191" x2="62.3372" y2="47.725" gradientUnits="userSpaceOnUse">
<stop stop-color="#3B86EE"/>
<stop offset="1" stop-color="#A83ADB"/>
</linearGradient>
<linearGradient id="paint12_linear_19_6634" x1="62.3294" y1="53.9219" x2="62.3294" y2="55.4905" gradientUnits="userSpaceOnUse">
<stop stop-color="#3B86EE"/>
<stop offset="1" stop-color="#A83ADB"/>
</linearGradient>
<linearGradient id="paint13_linear_19_6634" x1="62.3451" y1="66.3223" x2="62.3451" y2="69.4203" gradientUnits="userSpaceOnUse">
<stop stop-color="#3B86EE"/>
<stop offset="1" stop-color="#A83ADB"/>
</linearGradient>
<linearGradient id="paint14_linear_19_6634" x1="54.5882" y1="39.1992" x2="54.5882" y2="41.5208" gradientUnits="userSpaceOnUse">
<stop stop-color="#3B86EE"/>
<stop offset="1" stop-color="#A83ADB"/>
</linearGradient>
<linearGradient id="paint15_linear_19_6634" x1="59.2392" y1="39.1992" x2="59.2392" y2="41.5208" gradientUnits="userSpaceOnUse">
<stop stop-color="#3B86EE"/>
<stop offset="1" stop-color="#A83ADB"/>
</linearGradient>
<linearGradient id="paint16_linear_19_6634" x1="65.4431" y1="39.1992" x2="65.4431" y2="41.5208" gradientUnits="userSpaceOnUse">
<stop stop-color="#3B86EE"/>
<stop offset="1" stop-color="#A83ADB"/>
</linearGradient>
<linearGradient id="paint17_linear_19_6634" x1="70.0902" y1="39.1992" x2="70.0902" y2="41.5208" gradientUnits="userSpaceOnUse">
<stop stop-color="#3B86EE"/>
<stop offset="1" stop-color="#A83ADB"/>
</linearGradient>
<linearGradient id="paint18_linear_19_6634" x1="62.3372" y1="13.623" x2="62.3372" y2="18.274" gradientUnits="userSpaceOnUse">
<stop stop-color="#3B86EE"/>
<stop offset="1" stop-color="#A83ADB"/>
</linearGradient>
<linearGradient id="paint19_linear_19_6634" x1="62.3372" y1="7.41992" x2="62.3372" y2="13.6238" gradientUnits="userSpaceOnUse">
<stop stop-color="#3B86EE"/>
<stop offset="1" stop-color="#A83ADB"/>
</linearGradient>
<linearGradient id="paint20_linear_19_6634" x1="62.3411" y1="1.21484" x2="62.3411" y2="7.41877" gradientUnits="userSpaceOnUse">
<stop stop-color="#3B86EE"/>
<stop offset="1" stop-color="#A83ADB"/>
</linearGradient>
<linearGradient id="paint21_linear_19_6634" x1="71.6392" y1="15.168" x2="71.6392" y2="16.7209" gradientUnits="userSpaceOnUse">
<stop stop-color="#3B86EE"/>
<stop offset="1" stop-color="#A83ADB"/>
</linearGradient>
<linearGradient id="paint22_linear_19_6634" x1="68.5411" y1="15.168" x2="68.5411" y2="16.7209" gradientUnits="userSpaceOnUse">
<stop stop-color="#3B86EE"/>
<stop offset="1" stop-color="#A83ADB"/>
</linearGradient>
<clipPath id="clip0_19_6634">
<rect width="75.2941" height="75.2941" fill="white" transform="translate(0.666626)"/>
</clipPath>
</defs>
</svg>
