<svg width="80" height="80" viewBox="0 0 80 80" fill="none" xmlns="http://www.w3.org/2000/svg">
<path d="M10.043 65.8947H12.9053V69.9736C12.9053 73.282 15.6753 76 18.9843 76H65.9781C67.5695 75.9914 69.0926 75.3523 70.2135 74.2226C71.3344 73.093 71.9617 71.565 71.9579 69.9736V10.0264C71.9617 8.43498 71.3344 6.907 70.2135 5.77736C69.0926 4.64771 67.5695 4.00856 65.9781 4H18.9843C15.6753 4 12.9053 6.718 12.9053 10.0264V14.1053H10.043C9.34542 14.1053 8.80005 14.5938 8.80005 15.2915V24.2884C8.80005 24.9861 9.34542 25.4737 10.043 25.4737H12.9053V54.5263H10.043C9.34542 54.5263 8.80005 55.0139 8.80005 55.7116V64.7085C8.80005 65.4062 9.34542 65.8947 10.043 65.8947ZM11.3264 16.6316H17.1685V22.9474H11.3264V16.6316ZM15.4316 25.4737H18.392C19.0896 25.4737 19.6948 24.9861 19.6948 24.2884V15.2915C19.6948 14.5938 19.0896 14.1053 18.392 14.1053H15.4316V10.0264C15.4316 8.11095 17.0682 6.52632 18.9843 6.52632H65.9781C66.8997 6.53412 67.7807 6.90686 68.428 7.56289C69.0753 8.21892 69.4362 9.10476 69.4316 10.0264V69.9736C69.4362 70.8952 69.0753 71.7811 68.428 72.4371C67.7807 73.0931 66.8997 73.4659 65.9781 73.4737H18.9843C17.0682 73.4737 15.4316 71.8891 15.4316 69.9736V65.8947H18.392C19.0896 65.8947 19.6948 65.4062 19.6948 64.7085V55.7116C19.6948 55.0139 19.0896 54.5263 18.392 54.5263H15.4316V25.4737ZM11.3264 57.0526H17.1685V63.3684H11.3264V57.0526Z" fill="url(#paint0_linear_19_7298)"/>
<path d="M61.3791 16.3158C61.3791 15.9808 61.246 15.6595 61.0091 15.4226C60.7722 15.1857 60.4509 15.0526 60.1159 15.0526H24.9054C24.5704 15.0526 24.2491 15.1857 24.0122 15.4226C23.7753 15.6595 23.6422 15.9808 23.6422 16.3158V63.8421C23.6422 64.1771 23.7753 64.4984 24.0122 64.7353C24.2491 64.9722 24.5704 65.1053 24.9054 65.1053H60.1159C60.4509 65.1053 60.7722 64.9722 61.0091 64.7353C61.246 64.4984 61.3791 64.1771 61.3791 63.8421V16.3158ZM26.1685 17.579H58.8527V62.4211H26.1685V17.579Z" fill="url(#paint1_linear_19_7298)"/>
<path d="M43.328 24.5945C43.0984 24.3952 42.8046 24.2853 42.5006 24.2852C42.1965 24.285 41.9026 24.3945 41.6728 24.5936L27.063 37.2457C26.8677 37.4207 26.7293 37.6502 26.6657 37.9046C26.6022 38.159 26.6163 38.4266 26.7063 38.6729C26.7948 38.9178 26.9552 39.1302 27.1665 39.2823C27.3778 39.4345 27.6302 39.5193 27.8905 39.5255H29.958V54.2434C29.9534 54.5788 30.0803 54.9026 30.3114 55.1457C30.5426 55.3888 30.8597 55.5318 31.1949 55.5441L53.4985 55.789H53.5102C53.8438 55.7747 54.1585 55.6298 54.3863 55.3856C54.6231 55.1324 54.7525 54.7973 54.7474 54.4507V39.5258H57.0721C57.3318 39.5189 57.5834 39.4341 57.7943 39.2824C58.0052 39.1307 58.1656 38.9192 58.2549 38.6753C58.3441 38.4313 58.3581 38.1662 58.2948 37.9142C58.2316 37.6623 58.0941 37.4351 57.9003 37.2623L43.328 24.5945ZM42.4987 27.2824L53.6906 36.9995H31.278L42.4987 27.2824ZM44.958 53.1081L40.0632 53.0632V47.4206H44.958V53.1081ZM52.2211 53.1757L47.4843 53.1315V46.1999C47.4857 45.8605 47.3543 45.534 47.1183 45.2901C46.8824 45.0461 46.5604 44.9041 46.2211 44.8942H38.8601C38.5144 44.9017 38.1847 45.0411 37.9386 45.284C37.6926 45.5269 37.5488 45.8548 37.5369 46.2004V53.0399L32.4843 52.9925V39.5258H52.2211V53.1757Z" fill="url(#paint2_linear_19_7298)"/>
<defs>
<linearGradient id="paint0_linear_19_7298" x1="8.77708" y1="3.98852" x2="71.9809" y2="83.7282" gradientUnits="userSpaceOnUse">
<stop stop-color="#2F8FF0"/>
<stop offset="1" stop-color="#C923D5"/>
</linearGradient>
<linearGradient id="paint1_linear_19_7298" x1="23.6285" y1="15.0447" x2="68.6105" y2="63.8215" gradientUnits="userSpaceOnUse">
<stop stop-color="#2F8FF0"/>
<stop offset="1" stop-color="#C923D5"/>
</linearGradient>
<linearGradient id="paint2_linear_19_7298" x1="26.6151" y1="24.2801" x2="53.1823" y2="62.7373" gradientUnits="userSpaceOnUse">
<stop stop-color="#2F8FF0"/>
<stop offset="1" stop-color="#C923D5"/>
</linearGradient>
</defs>
</svg>
