<svg xmlns="http://www.w3.org/2000/svg" width="405" height="386" fill="none"><path fill="silver" d="M342.341 81.621c-2.569-2.616-6.138-4.066-10.03-4.066-8.036 0-15.046 6.23-15.596 13.888-.549 7.54 12.002 24.781 12.527 25.518.05.072.124.096.199.096a.229.229 0 0 0 .199-.096c.05-.047 3.968-4.518 7.91-9.869 5.315-7.206 8.135-12.462 8.359-15.625.276-3.734-.997-7.23-3.568-9.87v.025z"/><path fill="#464646" d="M298.974 45.069c-5.465-5.589-13.025-8.657-21.31-8.657-17.117 0-32.014 13.27-33.211 29.585-.5 6.778 3.867 18.026 13 33.437 6.786 11.463 13.798 21.071 13.874 21.166l.174.262.2-.238c.074-.095 8.509-9.703 16.968-21.166 11.378-15.41 17.391-26.66 17.89-33.437.574-7.92-2.121-15.364-7.585-20.976v.024z"/><path fill="#EFEEEC" d="m250.117 348.265 4.492-3.211c.598-2.473.074-5.161-1.647-7.348a9.12 9.12 0 0 0-3.32-2.616c-5.513 3.471-3.718 10.392.475 13.198v-.023z"/><path fill="#464646" d="M250.117 348.503c-.05 0-.1 0-.15-.048-2.446-1.64-4.067-4.637-4.017-7.491.024-2.497 1.297-4.662 3.568-6.088a.235.235 0 0 1 .25 0 9.454 9.454 0 0 1 3.393 2.687c1.697 2.165 2.321 4.923 1.672 7.539 0 .048-.05.095-.1.143l-4.492 3.21c-.05.024-.1.048-.149.048h.025zm-.449-13.151c-2.621 1.712-3.194 3.995-3.219 5.612-.05 2.64 1.422 5.447 3.668 6.992l4.266-3.044c.575-2.473 0-5.042-1.621-7.063a8.85 8.85 0 0 0-3.094-2.497z"/><path fill="#464646" d="M273.572 312.355a.243.243 0 0 0-.324-.048l-13.3 7.682c-.05.023-.1.095-.124.143v.118c0 .309-.25 2.545-.35 3.378-.024.238-.05.427-.05.522-.2 1.76-1.421 4.757-2.37 5.755-.324.333-.674.667-1.074 1-.148.118-.274.237-.424.356-.523.404-1.097.833-1.697 1.212-.997.644-2.045 1.238-2.944 1.618-.498.215-.973.476-1.397.737-.074.048-.124.12-.1.215.026.095.05.166.15.19a8.78 8.78 0 0 1 3.22 2.568 8.344 8.344 0 0 1 1.597 7.158c0 .095-.002.191.098.263.05.023.1.047.126.047.024 0 .1 0 .15-.047l22.481-16.102c.076-.047.1-.143.1-.213-.2-1.713-3.492-16.268-3.768-16.576v.024z"/><path fill="#FEAE28" d="M250.117 348.265c2.121 1.428 4.866 1.76 7.56.048a505.574 505.574 0 0 0 15.396-10.654c3.493-2.497 4.391-5.589 4.017-8.727l-26.973 19.31v.023z"/><path fill="#464646" d="M253.909 349.693c-1.347 0-2.694-.405-3.942-1.238a.21.21 0 0 1-.1-.189c0-.072.025-.143.1-.19l26.973-19.312c.076-.047.176-.071.25-.023.076.023.15.095.15.19.449 3.662-.948 6.659-4.118 8.941a548.655 548.655 0 0 1-15.419 10.655c-1.249.808-2.596 1.189-3.918 1.189l.024-.023zm-3.344-1.451c1.423.855 3.994 1.76 6.988-.143 5.015-3.33 10.18-6.921 15.395-10.631 2.895-2.068 4.218-4.78 3.942-8.085l-26.349 18.859h.024z"/><path fill="#fff" d="M258.077 335.614a.23.23 0 0 1-.2-.095l-2.869-3.782c-.075-.094-.05-.261.05-.332.099-.072.274-.048.348.048l2.871 3.781c.074.094.05.261-.05.332a.351.351 0 0 1-.15.048zm1.771-1.5a.23.23 0 0 1-.198-.095l-2.871-3.781c-.074-.095-.049-.261.05-.333.1-.071.274-.048.35.047l2.869 3.782c.075.095.05.261-.05.333-.05.023-.1.047-.15.047zm-3.618 2.76a.233.233 0 0 1-.2-.095l-2.869-3.781c-.075-.096-.05-.262.05-.334.1-.07.274-.047.35.048l2.869 3.781c.075.096.05.263-.05.334-.05.023-.1.047-.15.047z"/><path fill="silver" d="M272.399 252.495c-.248-5.232-3.143-9.442-8.209-11.867-5.839-2.806-13.149-2.474-18.215.785-4.567 2.924-6.762 7.919-6.238 14.031 1.497 16.932 16.493 68.943 16.668 69.467 0 .071.05.118.125.143.05 0 .074.023.124.023h.075l20.811-5.565c.124-.023.199-.143.174-.238-.05-.547-4.716-54.08-5.315-66.756v-.023z"/><path fill="silver" d="M340.096 246.739c1.547 7.278-3.893 17.908-17.717 18.169-14.772.286-56.542.286-56.542.286s-23.781-20.571-18.14-23.639c9.98-5.423 46.735-16.576 61.682-14.983 14.946 1.593 29.22 13.128 30.741 20.19l-.024-.023z"/><path fill="silver" d="M265.812 265.408c-.05 0-.125 0-.175-.071-.798-.69-19.713-17.123-19.064-22.593.075-.642.4-1.118.974-1.451 10.38-5.636 47.035-16.576 61.833-15.03 6.862.738 14.148 3.592 20.536 8.086 5.663 3.995 9.656 8.704 10.43 12.295.848 4.02-.425 8.681-3.344 12.153-2.346 2.783-6.762 6.136-14.598 6.279-14.597.284-56.143.284-56.542.284l-.05.048zm40.348-38.788c-16.219 0-48.707 9.87-58.363 15.101-.424.238-.674.595-.724 1.071-.574 5.066 17.542 21 18.839 22.116 2.245 0 42.194 0 56.442-.284 7.636-.143 11.953-3.402 14.224-6.113 2.844-3.376 4.092-7.895 3.243-11.772-.748-3.472-4.666-8.085-10.231-12.009-6.288-4.447-13.498-7.278-20.286-7.992a32.95 32.95 0 0 0-3.169-.141l.025.023z"/><path fill="#F9F871" d="m306.385 182.339.698-1.569-1.247 1.592c-.274.381-2.919 3.877-6.712 6.969-.449.356-1.422 1.189-2.769 2.355-5.041 4.304-15.546 13.27-21.61 17.599-7.635 4.185-11.179 8.014-10.58 11.415.824 4.47 8.809 6.801 11.554 7.277.374.071.747.094 1.123.094 7.959 0 21.982-12.152 31.414-20.333 1.697-1.45 3.27-2.829 4.592-3.947 5.914-4.948 13.924-15.554 13.998-15.649l.2-.285-20.661-5.518z"/><path fill="#F7F7F7" d="M327.819 151.351c-1.747.261-3.019 1.617-3.168 3.235-5.291.76-10.58-1.332-13.774-5.352-.948 1.046-2.196 1.879-3.644 2.403-1.397.499-2.819.618-4.192.476-.424 1.831-.474 3.78-.15 5.803 1.249 7.561 7.811 12.865 14.648 11.842 5.515-.832 9.507-5.54 10.206-11.296.399.071.823.071 1.247 0 2.047-.31 3.468-2.141 3.144-4.114-.324-1.951-2.246-3.306-4.317-2.997z"/><path fill="#464646" d="M315.842 170.091c-6.313 0-12.027-5.113-13.199-12.176a15.46 15.46 0 0 1 .149-5.874c.025-.119.149-.191.275-.191 1.372.167 2.769 0 4.068-.452a8.587 8.587 0 0 0 3.542-2.33c.05-.047.125-.095.2-.072.074 0 .15.048.199.095 3.119 3.925 8.234 5.946 13.351 5.281.248-1.665 1.595-2.997 3.342-3.259a4.07 4.07 0 0 1 2.995.69 3.694 3.694 0 0 1 1.597 2.497 3.6 3.6 0 0 1-.724 2.854 3.933 3.933 0 0 1-2.62 1.522c-.349.047-.698.071-1.072 0-.799 5.946-4.941 10.44-10.38 11.272-.575.096-1.174.12-1.747.12l.024.023zm-12.601-17.742c-.374 1.785-.4 3.639-.1 5.494 1.223 7.421 7.686 12.652 14.374 11.654 5.289-.808 9.307-5.256 9.98-11.107 0-.071.05-.118.1-.166.05-.047.124-.047.2-.047.4.07.773.07 1.172 0a3.577 3.577 0 0 0 2.296-1.332 3.208 3.208 0 0 0 .624-2.497 3.359 3.359 0 0 0-1.397-2.188 3.639 3.639 0 0 0-2.621-.596c-1.597.238-2.819 1.475-2.944 3.022 0 .118-.1.19-.2.213-5.265.762-10.53-1.236-13.823-5.208-.973.999-2.196 1.76-3.543 2.236-1.298.452-2.695.642-4.068.499l-.05.023z"/><path fill="#F9F871" d="M346.035 192.232c-1.024-7.729-6.089-14.316-13.525-17.574a24.504 24.504 0 0 0-10.006-2.046c-.124 0-.25.095-.25.238-.074 2.046-1.671 3.734-3.792 3.972-1.897.238-3.693-.714-4.491-2.379-.05-.119-.2-.166-.324-.119a23.978 23.978 0 0 0-5.765 3.283c-6.362 4.923-9.532 12.486-8.509 20.238.799 5.945 3.968 11.225 8.933 14.911a24.18 24.18 0 0 0 14.374 4.709c.997 0 1.995-.072 2.994-.19 6.237-.761 11.802-3.782 15.645-8.514 3.842-4.733 5.539-10.607 4.741-16.552l-.025.023z"/><path fill="silver" d="M296.729 125.691c7.51-2.949 16.094.452 19.189 7.61.099.238 1.447 6.492-.824 6.159-2.271-.309-.599-5.469 3.418-6.777 4.218-1.308 7.786.5 9.133 4.019 1.123 3.116-2.196 7.967-3.818 5.185-1.871-3.544 10.181-2.521 10.181 4.803.124 3.686-3.294 7.23-7.087 7.635-17.168 4.066-19.812-10.964-15.047-9.799 4.767 1.166-2.719 6.564-3.942 7.064-7.511 2.949-16.094-.452-19.189-7.611-3.094-7.158.474-15.339 7.986-18.288z"/><path fill="#464646" d="M321.332 155.274c-6.238 0-9.208-3.019-10.331-4.566a8.242 8.242 0 0 1-.398-.618c-1.099.879-2.147 1.546-2.571 1.712a15.548 15.548 0 0 1-11.429 0c-3.692-1.45-6.562-4.209-8.084-7.729-1.523-3.519-1.523-7.396 0-10.892 1.522-3.52 4.416-6.255 8.11-7.705 7.61-2.997 16.369.475 19.513 7.728 0 .025.05.191.124.453a6.993 6.993 0 0 1 2.146-1.19c4.192-1.284 7.986.381 9.457 4.162.324.928.324 2.092-.05 3.258.45.095.924.238 1.397.404 3.17 1.166 5.041 3.568 5.041 6.422.124 3.686-3.344 7.443-7.286 7.872-2.12.499-3.993.713-5.614.713l-.025-.024zm-10.355-5.517c.124.214.274.452.449.665 1.347 1.879 5.589 5.994 15.445 3.664h.025c3.718-.381 6.987-3.902 6.862-7.398 0-1.284-.448-4.422-4.716-5.992-.474-.167-.923-.31-1.373-.38-.474 1.213-1.247 2.164-2.045 2.497-.799.332-1.523.023-2.022-.832-.424-.81-.174-1.332.1-1.618.625-.642 2.022-.857 3.619-.594.324-.976.398-2.069.074-2.997-1.373-3.52-4.915-5.065-8.833-3.852a6.17 6.17 0 0 0-2.196 1.284c.275 1.45.574 4.09-.25 5.089a1.094 1.094 0 0 1-1.072.404c-.699-.095-1.149-.595-1.223-1.403-.1-.927.324-2.141 1.098-3.234.275-.381.573-.738.899-1.046-.076-.381-.126-.619-.15-.643-3.044-7.016-11.504-10.369-18.865-7.467-3.568 1.403-6.337 4.042-7.834 7.443-1.497 3.401-1.497 7.135 0 10.535 1.471 3.402 4.242 6.041 7.81 7.468 3.568 1.404 7.485 1.427 11.053 0 .374-.143 1.423-.832 2.521-1.712-.924-1.784-1.098-3.687-.35-4.733.424-.594 1.123-.808 1.947-.617 1.097.261 1.697.784 1.747 1.545.074 1.189-1.273 2.711-2.72 3.924zm.399-5.065c-.399 0-.723.166-.973.474-.574.785-.55 2.403.324 4.14 1.297-1.119 2.52-2.498 2.445-3.449-.05-.523-.499-.904-1.372-1.118-.15-.047-.3-.047-.449-.047h.025zm14.696-4.542c-.947 0-1.671.213-1.995.546-.25.262-.275.643-.026 1.07.374.642.824.832 1.373.619.648-.262 1.322-1.119 1.747-2.165-.399-.047-.749-.095-1.099-.095v.025zm-10.13-5.542c-1.123 1.189-1.697 2.663-1.621 3.639.049.57.324.903.797.975.25.023.45-.024.6-.215.374-.452.524-1.545.374-3.092-.05-.475-.1-.926-.174-1.307h.024z"/><path fill="#EFEEEC" d="M322.504 172.849c-.074 2.117-1.747 3.948-4.017 4.21-2.271.262-3.942-.809-4.766-2.497 1.897-.737 3.918-1.284 6.039-1.522a21.409 21.409 0 0 1 2.744-.166v-.025z"/><path fill="#464646" d="M317.888 177.345c-1.871 0-3.593-1.023-4.391-2.688-.026-.048-.026-.119 0-.191 0-.07.074-.118.124-.142a25.577 25.577 0 0 1 6.114-1.546 26.81 26.81 0 0 1 2.769-.19c.05 0 .126.023.176.071.05.047.074.119.074.167-.074 2.282-1.847 4.161-4.242 4.447-.2.024-.424.047-.624.047v.025zm-3.817-2.665c.847 1.499 2.57 2.355 4.391 2.141 2.047-.238 3.618-1.808 3.792-3.734-.823 0-1.621.071-2.444.166a23.828 23.828 0 0 0-5.739 1.427zm-.66-14.384c.51-.011.907-.701.886-1.542-.02-.841-.449-1.512-.958-1.502-.51.012-.907.701-.887 1.541.02.842.45 1.514.959 1.503zm-7.755.169c.51-.012.907-.701.887-1.541-.02-.841-.449-1.514-.958-1.502-.511.01-.908.701-.887 1.541.02.841.449 1.514.958 1.502zm6.742-4.167c-.1 0-.2-.048-.224-.143-.05-.12 0-.261.124-.309 1.024-.405 2.071-.072 2.121-.047.126.047.2.189.15.308-.05.119-.2.191-.324.143 0 0-.923-.285-1.771.048h-.1.024zm-7.76.167c-.1 0-.2-.048-.224-.143a.232.232 0 0 1 .124-.309c1.024-.404 2.071-.071 2.121-.047.126.047.2.19.15.308-.05.12-.2.191-.324.143 0 0-.923-.285-1.772.048h-.099.024zm4.492 8.085h-.074c-.05 0-1.124-.38-1.573-.831-.624-.619 1.647-5.161 1.672-5.209.05-.095.175-.143.299-.119.1.024.175.119.175.238 0 .047 0 .095-.05.142-.275.5-1.846 4.091-1.697 4.614.324.309 1.098.618 1.372.713.126.048.2.191.15.31a.237.237 0 0 1-.224.166l-.05-.024zm2.794 3.021c-.524 0-1.097-.119-1.747-.381-.124-.047-.174-.19-.124-.308.05-.12.2-.168.324-.12 1.023.405 1.823.453 2.421.143.623-.309 1.073-1.069 1.297-2.188a.26.26 0 0 1 .3-.19.25.25 0 0 1 .2.286c-.25 1.284-.774 2.139-1.548 2.52a2.435 2.435 0 0 1-1.123.261v-.023zm16.819-10.418a.266.266 0 0 1-.25-.19c0-.119.075-.261.2-.261.997-.143 1.697-1.071 1.522-2.046 0-.119.075-.261.199-.261.125 0 .275.07.275.19.2 1.236-.673 2.402-1.946 2.593h-.05l.05-.025z"/><path fill="#fff" d="M311.9 214.945c-.05 0-.076 0-.126-.025-5.613-2.758-9.58-7.087-11.502-12.461-1.696-4.805-1.696-10.417 0-15.839a.273.273 0 0 1 .299-.166c.125.048.2.166.175.284-1.672 5.328-1.647 10.846 0 15.555 1.871 5.255 5.763 9.488 11.254 12.2.124.071.174.214.1.309a.268.268 0 0 1-.226.118l.026.025z"/><path fill="#9B9A9A" d="M291.713 141.767c.15.357.324.689.524 1.023 2.421 4.137 7.76 5.993 12.501 4.162 1.971-.762 3.544-2.046 4.616-3.616a10.688 10.688 0 0 1-2.545 1.427c-4.741 1.832-10.08-.047-12.501-4.161a7.953 7.953 0 0 1-.524-1.023c-.773-1.831-.923-3.757-.499-5.565a9.11 9.11 0 0 1 1.373-3.139 9.228 9.228 0 0 0-1.697 1.688 9.698 9.698 0 0 0-1.771 3.663c-.426 1.808-.276 3.734.498 5.565l.025-.024zm23.929 8.396c.1.213.25.404.374.594 1.773 2.355 5.69 3.401 9.183 2.33 1.447-.451 2.62-1.189 3.419-2.092a7.295 7.295 0 0 1-1.872.808c-3.493 1.071-7.41 0-9.183-2.33a3.116 3.116 0 0 1-.374-.594c-.574-1.046-.673-2.141-.349-3.163a5.08 5.08 0 0 1 1.023-1.808 7.282 7.282 0 0 0-1.272.976 5.267 5.267 0 0 0-1.323 2.092 4.05 4.05 0 0 0 .35 3.164l.024.023z"/><path fill="silver" d="M340.496 245.456c-3.145-11.676-11.304-15.102-18.865-16.909-6.613-1.57-21.284-.547-39.276 2.735-16.717 3.044-30.716 7.087-34.833 10.059-.573.404-.899 1.023-.973 1.808-.649 6.089 13.948 21.927 14.572 22.593.05.047.126.072.2.072.449 0 44.341-.976 58.015-.905h.174c7.935 0 14.847-2.686 18.565-7.23 2.819-3.448 3.642-7.657 2.421-12.223z"/><path fill="#F9F871" d="M369.09 200.295c-2.145-8.443-8.933-15.435-19.661-20.238-7.112-3.187-20.537-5.923-20.662-5.946-.074 0-.15 0-.224.071-.05.048-.076.12-.076.215l2.946 20.072v.046c0 .12.074.238.198.263h.05c.5.095 4.891.998 9.408 3.067 2.395 1.094 6.587 3.353 7.884 6.255.05.095.126.142.226.142h.923c6.987 0 13.849 1.784 19.837 5.138.05 0 .074.023.124.023s.076 0 .126-.023a.25.25 0 0 0 .124-.215c-.024-2.829-.424-5.826-1.197-8.87h-.026zm-56.691 27.182c.299.19.574.38.874.571 2.445-6.064 6.512-11.368 11.702-15.458a31.944 31.944 0 0 1-1.172-.737c-4.517-2.997-10.756-1.927-13.9 2.377-3.144 4.305-2.045 10.251 2.496 13.247z"/><path fill="#F9F871" d="M313.273 228.286c-.05 0-.1 0-.15-.048-.3-.19-.599-.381-.873-.571-4.642-3.067-5.765-9.156-2.546-13.58 3.219-4.423 9.606-5.492 14.247-2.425.4.261.774.499 1.149.737.074.048.1.119.124.191a.211.211 0 0 1-.099.19c-5.19 4.091-9.207 9.394-11.628 15.34a.22.22 0 0 1-.15.141h-.074v.025zm4.84-17.885c-3.069 0-6.113 1.379-8.01 3.972-3.068 4.186-1.971 9.989 2.421 12.914.199.143.399.262.623.404 2.421-5.827 6.339-11.011 11.379-15.054a8.913 8.913 0 0 1-.873-.571 10.046 10.046 0 0 0-5.54-1.665z"/><path fill="#464646" d="M370.139 227.976a.231.231 0 0 1-.2-.095c-.074-.095-.074-.263.024-.333 3.644-2.807 5.989-7.777 6.564-13.961.574-5.969-.599-12.461-3.194-17.788-.05-.12 0-.262.124-.31.126-.048.274 0 .324.12 5.691 11.676 4.093 26.469-3.518 32.319a.366.366 0 0 1-.15.048h.026z"/><path fill="#F7F7F7" d="M370.013 209.117c-5.838-3.258-12.65-5.137-19.911-5.137h-.773c-.076 0-.126.071-.1.119.1.215.174.453.224.666 1.347 5.28.674 8.847-1.971 10.583-4.267 2.783-12.277 4.163-21.834 1.688-5.464-1.331-13.3-1.569-15.321-1.331-4.241.499-8.983 2.64-8.983 2.64l-3.094 15.339c2.271-.451 5.865-2.021 6.313-2.141 5.066-1.331 9.182-.356 12.077 0 2.97.357 6.912 1.119 8.783 1.499 17.542 2.521 27.324-.333 32.215-2.164 7.534-2.83 12.525-12.415 12.425-21.666 0-.023 0-.071-.05-.071v-.024z"/><path fill="#464646" d="M338.449 234.279c-4.067 0-8.433-.333-13.075-1h-.05c-1.572-.332-5.64-1.117-8.734-1.474-.448-.047-.948-.119-1.472-.19-2.82-.405-6.312-.904-10.53.214-.1.023-.473.166-.923.356-1.297.5-3.718 1.452-5.389 1.808-.076 0-.176 0-.226-.072-.05-.046-.074-.141-.074-.213l3.094-15.34c0-.071.075-.143.15-.166.05 0 4.84-2.187 9.057-2.663 1.947-.214 9.782-.048 15.396 1.331 10.081 2.616 17.791.856 21.633-1.64 2.547-1.665 3.195-5.138 1.873-10.322a3.26 3.26 0 0 0-.226-.642c-.05-.095-.024-.215.026-.31a.35.35 0 0 1 .274-.142h.799c7.061 0 13.973 1.784 20.037 5.16.1.048.174.167.174.286.05 4.614-1.173 9.37-3.394 13.366-2.295 4.137-5.563 7.157-9.207 8.537-5.664 2.116-12.027 3.187-19.263 3.187l.05-.071zm-12.975-1.475c12.825 1.831 23.305 1.142 32.064-2.164 7.061-2.663 12.326-11.844 12.276-21.356-5.963-3.305-12.775-5.066-19.712-5.066h-.573c.074.166.124.334.148.5 1.373 5.399.674 9.037-2.071 10.821-3.942 2.568-11.802 4.376-22.033 1.712h-.049c-5.34-1.284-13.15-1.546-15.197-1.308-3.792.428-8.059 2.259-8.809 2.568l-2.994 14.863c1.623-.379 3.744-1.212 4.941-1.688.574-.213.849-.333.974-.356 4.317-1.141 8.035-.595 10.729-.215.524.072.998.143 1.448.19 3.118.381 7.186 1.166 8.783 1.499h.075z"/><path fill="#EFEEEC" d="M309.753 215.799c-4.441.809-7.286 2.069-10.03 3.282-1.747.761-3.768 2.069-5.115 3.424-1.049 1.785.548 2.783 2.594 1.88l12.551-8.586z"/><path fill="#464646" d="M295.755 224.955c-.549 0-1.049-.166-1.347-.474-.474-.501-.474-1.261 0-2.069 0 0 0-.025.024-.048 1.273-1.285 3.27-2.617 5.191-3.473l.1-.047c2.744-1.214 5.563-2.45 9.981-3.258.124-.025.274.071.299.19.025.119-.075.261-.2.285-4.367.785-7.161 2.022-9.88 3.234l-.1.048c-1.847.809-3.818 2.117-5.017 3.353-.348.619-.374 1.166-.05 1.499.426.427 1.373.452 2.347 0 .124-.048.274 0 .324.118a.23.23 0 0 1-.125.309c-.549.238-1.097.358-1.572.358l.025-.025z"/><path fill="#EFEEEC" d="M298.624 227.572s-3.343 1.521-4.366-.143c-.949-1.594.424-2.284 1.871-3.164 1.098-.665 4.642-2.663 6.738-2.972l-4.267 6.302.024-.023z"/><path fill="#464646" d="M295.955 228.452c-.773 0-1.497-.213-1.922-.903-.998-1.688.375-2.521 1.722-3.353l.224-.143c.176-.12 4.368-2.64 6.838-3.02.124 0 .274.071.274.189 0 .12-.075.263-.2.263-1.896.285-5.189 2.069-6.662 2.949l-.224.143c-1.497.903-2.296 1.474-1.573 2.711.874 1.474 3.994.07 4.044.047.124-.047.274 0 .324.119a.23.23 0 0 1-.126.308c-.1.048-1.472.667-2.769.667l.05.023z"/><path fill="#EFEEEC" d="M305.662 228.451s-9.259 5.018-11.03 2.569c-1.273-1.759.973-2.854 1.847-3.496.674-.523 4.267-2.354 6.762-3.115.648-.191 1.247-.357 1.771-.452l.65 4.494z"/><path fill="#464646" d="M296.403 231.925c-.947 0-1.621-.263-1.995-.785-1.223-1.713.474-2.854 1.471-3.52.15-.096.3-.214.426-.285.698-.523 4.316-2.379 6.836-3.139a18.082 18.082 0 0 1 1.797-.452c.124-.024.274.071.3.189.024.12-.076.263-.2.286-.5.095-1.049.215-1.747.428-2.421.738-6.014 2.569-6.688 3.068-.124.095-.274.19-.448.31-1.249.855-2.221 1.64-1.347 2.877 1.347 1.855 8.159-1.261 10.678-2.64a.26.26 0 0 1 .35.095c.075.119.025.262-.1.333 0 0-2.371 1.284-4.891 2.212-1.871.689-3.368 1.046-4.492 1.046l.05-.023z"/><path fill="#EFEEEC" d="M306.06 227.262a10.323 10.323 0 0 0-2.221.523c-3.244.976-5.239 2.235-5.239 2.235s-3.294 1.808-1.923 3.353c1.224 1.332 6.065-1.354 9.233-2.092l.15-3.995v-.024z"/><path fill="#464646" d="M297.776 233.946c-.549 0-.973-.118-1.273-.452-.324-.356-.448-.784-.374-1.213.224-1.307 2.271-2.45 2.345-2.497.076-.048 2.022-1.284 5.291-2.26h.1a10.675 10.675 0 0 1 2.171-.522c.124 0 .249.071.274.214 0 .119-.075.261-.225.261-.899.119-1.696.357-2.07.476h-.1c-3.17.975-5.141 2.212-5.165 2.236-.026 0-1.923 1.069-2.121 2.164-.05.309.024.57.274.833.698.76 3.218-.168 5.415-1 1.223-.452 2.47-.928 3.542-1.165.126-.024.275.047.3.166.025.119-.05.262-.174.286-1.024.238-2.271.713-3.494 1.165-1.797.666-3.518 1.308-4.716 1.308zm27.872-16.98-4.291-.714-3.668 15.53 4.341.808 3.618-15.624z"/><path fill="#F9F871" d="M325.249 221.295c-1.871-1.784-4.916-1.784-6.787 0a4.428 4.428 0 0 0 0 6.468c.948.904 2.171 1.331 3.394 1.331a4.988 4.988 0 0 0 3.393-1.331 4.592 4.592 0 0 0 1.423-3.234c0-1.213-.5-2.379-1.398-3.234h-.025z"/><path fill="#464646" d="M321.831 228.286a4.135 4.135 0 0 1-2.795-1.094 3.652 3.652 0 0 1-1.147-2.664c0-.999.423-1.95 1.147-2.664 1.547-1.474 4.042-1.45 5.589 0a3.653 3.653 0 0 1 1.148 2.664c0 .999-.424 1.95-1.148 2.664a4.028 4.028 0 0 1-2.794 1.094zm0-7.039c-.874 0-1.772.309-2.445.951a3.215 3.215 0 0 0-1.024 2.33c0 .88.35 1.712.998 2.331a3.548 3.548 0 0 0 2.446.975c.922 0 1.771-.333 2.445-.952a3.219 3.219 0 0 0 1.023-2.33c0-.88-.349-1.712-.999-2.33-.673-.642-1.547-.952-2.444-.952v-.023z"/><path fill="#464646" d="M322.854 226.811c-.1 0-.176-.048-.226-.143l-.997-2.046a.232.232 0 0 1 .125-.309c.124-.047.274 0 .324.12l.998 2.044c.05.12 0 .262-.124.309h-.1v.025z"/><path fill="#464646" d="M321.856 224.766h-.075c-.125-.048-.2-.166-.175-.284l.774-2.498c.05-.12.174-.19.3-.167.124.047.198.167.174.286l-.774 2.497c-.025.095-.124.166-.249.166h.025z"/><path fill="#C1C023" d="M342.766 206.263c1.048-1.545 1.822-3.353 2.371-5.374-4.317-3.496-8.859-5.851-13.824-6.207 4.416 2.545 8.109 6.658 11.428 11.581h.025z"/><path fill="#F9F871" d="M342.766 206.5c-.075 0-.175-.047-.199-.118-3.694-5.446-7.412-9.228-11.354-11.51a.216.216 0 0 1-.1-.286c.024-.095.15-.166.25-.166 4.591.332 9.157 2.378 13.972 6.254.076.048.1.143.076.238-.574 2.093-1.397 3.923-2.421 5.446-.05.072-.125.119-.199.119l-.025.023zm-10.405-11.486c3.618 2.307 7.036 5.851 10.405 10.797.872-1.38 1.572-2.997 2.096-4.851-4.316-3.473-8.434-5.423-12.501-5.946z"/><path fill="#F9F871" d="M345.985 201.316c-.05 0-.124 0-.174-.072-3.17-2.686-10.181-6.588-14.622-6.588-4.442 0-.25-.095-.25-.236 0-.143.1-.238.25-.238 4.566 0 11.727 3.97 14.946 6.706.1.095.1.238 0 .333a.274.274 0 0 1-.174.071l.024.024z"/><path fill="#464646" d="M318.113 182.599c-3.768 0-7.286-1.854-9.583-5.183-.074-.119-.05-.262.076-.334.124-.071.274-.047.35.072 2.694 3.9 7.11 5.708 11.552 4.708 4.293-.951 7.311-4.208 7.885-8.514 0-.118.15-.213.274-.213.126 0 .225.143.225.261-.599 4.519-3.767 7.919-8.259 8.919-.849.189-1.673.284-2.496.284h-.024z"/><path fill="#fff" d="M223.768 301.726c-.326.808-1.823 7.704-3.144 13.293-.774 3.258-1.473 6.064-1.847 6.992l15.171 3.235c.474-1.737.898-2.926 1.572-5.685 1.722-7.087 3.668-15.648 3.743-16.195.474-4.067-2.595-7.753-6.888-8.205-4.266-.452-6.512 1.261-8.607 6.565z"/><path fill="silver" d="M233.948 325.481h-.05l-15.171-3.233c-.074 0-.124-.048-.174-.12-.026-.07-.05-.143 0-.19.324-.784.922-3.068 1.845-6.967.475-1.974.974-4.163 1.398-6.089.849-3.734 1.522-6.706 1.746-7.253 2.121-5.423 4.442-7.182 8.859-6.707 2.145.238 4.042 1.236 5.389 2.83a7.386 7.386 0 0 1 1.723 5.636c-.076.571-2.022 9.133-3.744 16.22a74.912 74.912 0 0 1-1.097 4.067c-.15.522-.3 1.046-.474 1.617-.026.095-.126.166-.25.166v.023zm-14.847-3.637 14.672 3.115c.125-.499.275-.951.399-1.404.324-1.093.65-2.212 1.098-4.043 1.772-7.252 3.669-15.671 3.718-16.172.225-1.901-.349-3.78-1.596-5.279-1.249-1.497-3.07-2.45-5.066-2.663-4.142-.429-6.313 1.236-8.334 6.397-.2.499-.898 3.591-1.721 7.182-.45 1.926-.949 4.115-1.398 6.089-.849 3.614-1.422 5.778-1.746 6.778h-.026z"/><path fill="#EFEEEC" d="m202.632 347.362 5.115-2.212a8.459 8.459 0 0 0 .076-7.515 9.076 9.076 0 0 0-2.62-3.258c-6.163 2.236-5.989 9.371-2.571 12.962v.023z"/><path fill="#464646" d="M202.632 347.599a.237.237 0 0 1-.174-.071c-2.021-2.094-2.894-5.376-2.196-8.158.599-2.426 2.346-4.28 4.865-5.208.076-.024.176 0 .25.048a9.118 9.118 0 0 1 2.696 3.328c1.172 2.474 1.147 5.281-.076 7.706a.293.293 0 0 1-.124.12l-5.115 2.21h-.1l-.026.025zm2.521-12.938c-2.945 1.118-4.018 3.235-4.417 4.805-.648 2.568.149 5.612 1.972 7.586l4.865-2.094a8.26 8.26 0 0 0 .05-7.229 8.559 8.559 0 0 0-2.446-3.068h-.024z"/><path fill="#464646" d="M234.172 325.149a.185.185 0 0 0-.174-.119l-15.171-3.235c-.1 0-.176 0-.25.072-.05.048-.074.118-.05.166-.05.31-.798 2.427-1.097 3.211-.1.237-.15.428-.176.523-.574 1.665-2.47 4.353-3.618 5.138-.398.261-.823.522-1.272.76-.175.095-.325.166-.499.261-.599.286-1.247.571-1.947.833-1.123.428-2.27.761-3.244.975-.524.12-1.047.261-1.521.428-.076.024-.15.096-.15.191s0 .166.1.213a8.96 8.96 0 0 1 2.57 3.163 8.335 8.335 0 0 1-.075 7.302c-.05.095-.025.19.05.261.05.048.125.072.175.072h.1l25.626-11.036c.074-.023.124-.118.15-.19.174-1.498.673-8.752.549-8.989h-.076z"/><path fill="#FEAE28" d="M202.632 347.361c1.747 1.831 4.342 2.736 7.362 1.618 6.686-2.616 12.801-5.185 17.466-7.182 3.968-1.713 5.565-4.542 5.915-7.682l-30.743 13.246z"/><path fill="#464646" d="M207.399 349.692c-1.847 0-3.569-.737-4.941-2.187a.22.22 0 0 1-.05-.214c.024-.072.074-.143.15-.167l30.741-13.247a.307.307 0 0 1 .25.024c.075.047.1.142.1.215-.4 3.661-2.445 6.302-6.063 7.871a550.189 550.189 0 0 1-17.468 7.183c-.923.333-1.821.499-2.695.499l-.024.023zm-4.343-2.259c1.199 1.142 3.494 2.545 6.862 1.308a580.28 580.28 0 0 0 17.442-7.182c3.294-1.427 5.215-3.805 5.715-7.063l-30.019 12.937z"/><path fill="#fff" d="M213.362 336.66c-.1 0-.2-.047-.224-.143l-1.947-4.28c-.05-.12 0-.263.124-.31.126-.048.276 0 .326.119l1.945 4.281c.05.118 0 .261-.124.309h-.1v.024zm2.071-1.07c-.1 0-.2-.047-.224-.142l-1.947-4.281c-.05-.12 0-.261.124-.309.126-.048.276 0 .326.118l1.945 4.281c.05.119 0 .261-.124.309h-.1v.024zm-4.167 1.951c-.1 0-.2-.048-.224-.143l-1.947-4.281a.233.233 0 0 1 .125-.31c.125-.047.274 0 .324.12l1.947 4.281a.23.23 0 0 1-.125.308h-.1v.025z"/><path fill="silver" d="M268.632 245.478c-3.867-4.803-10.43-7.466-16.32-6.634-5.413.761-9.681 4.352-12.001 10.13-6.363 15.864-24.628 72.417-24.828 72.988v.19c0 .071.1.095.15.119l19.986 4.78h.05c.1 0 .175-.048.225-.143.299-.547 29.369-55.65 34.609-67.326 2.146-4.78 1.448-9.918-1.946-14.127l.075.023z"/><path fill="#464646" d="M331.213 238.203h-44.94c-3.069 0-5.565-2.378-5.565-5.303h56.044c0 2.925-2.495 5.303-5.565 5.303h.026z"/><path fill="#464646" d="m303.215 230.354-9.78-27.921c-.849-2.448-3.244-4.066-5.939-4.066h-43.543c-2.045 0-3.892.903-5.065 2.473a5.641 5.641 0 0 0-.848 5.375l9.781 27.92c.849 2.45 3.244 4.066 5.939 4.066h43.542c2.046 0 3.892-.903 5.066-2.473a5.64 5.64 0 0 0 .847-5.374z"/><path fill="#464646" d="M267.462 212.561c2.022-.342 3.24-2.875 2.72-5.655-.52-2.781-2.58-4.756-4.602-4.412-2.021.342-3.239 2.874-2.719 5.655.52 2.78 2.58 4.755 4.601 4.412zm13.246 137.155h-88.731c-.149 0-.249-.095-.249-.238s.1-.238.249-.238h88.483v-84.045c0-.143.098-.238.248-.238h77.578c.15 0 .25.095.25.238s-.1.238-.25.238h-77.328v84.045c0 .143-.1.238-.25.238z"/><path fill="silver" d="M225.663 106.45c-15.495-28.3-45.114-46.494-79.273-48.634a110.801 110.801 0 0 0-6.938-.214c-14.073 0-27.896 2.616-41.146 7.8a114.541 114.541 0 0 0-34.684 21.285c-10.23 9.108-18.54 19.739-24.653 31.559-6.338 12.247-10.031 25.256-11.03 38.669-1.047 14.174 1.024 27.848 6.114 40.667 8.135 20.429 23.68 37.338 43.817 47.635 14.322 7.325 30.142 11.059 47.01 11.059 16.869 0 27.897-2.616 41.147-7.801a114.518 114.518 0 0 0 34.684-21.284c10.231-9.108 18.54-19.74 24.653-31.559 6.338-12.248 10.031-25.256 11.029-38.67 1.297-17.788-2.42-35.244-10.754-50.489l.024-.023z"/><path fill="#EFEEEC" d="M119.69 155.655c-32.662-5.232-34.16 10.678-44.49 26.731-9.382 14.602-27.573 17.836-40.872 15.125-4.916-12.39-7.162-26.112-6.114-40.571 4.018-54.723 53.823-99.1 111.238-99.1 57.417 0 4.642.071 6.912.214-7.186 6.73-16.767 17.313-19.462 28.015-4.467 17.765 29.518 12.914 34.883 33.889 4.666 18.241-9.432 40.929-42.095 35.697z"/><path fill="silver" d="M43.16 198.605c-3.068 0-6.063-.31-8.882-.88-.075 0-.15-.072-.175-.143-5.09-12.819-7.162-26.493-6.114-40.667.974-13.413 4.692-26.422 11.03-38.669 6.113-11.82 14.397-22.45 24.653-31.56 10.255-9.108 21.908-16.29 34.684-21.284 13.225-5.184 27.073-7.8 41.146-7.8 14.074 0 4.667.071 6.938.214.098 0 .174.07.224.166.024.095 0 .19-.05.262-7.386 6.896-16.743 17.337-19.388 27.896-2.221 8.8 5.265 11.962 13.923 15.601 8.559 3.615 18.266 7.705 20.96 18.169 2.445 9.56-.324 19.929-7.236 27.016-7.935 8.158-20.436 11.345-35.133 8.99-26.949-4.305-32.488 5.779-39.525 18.55-1.447 2.616-2.944 5.351-4.69 8.062-7.387 11.463-20.312 16.1-32.265 16.1l-.1-.023zm-8.658-1.308c13.6 2.735 31.366-.856 40.473-15.03 1.747-2.712 3.244-5.423 4.691-8.039 3.444-6.278 6.713-12.2 12.452-15.839 6.313-4.018 15.096-4.946 27.597-2.949 14.548 2.332 26.873-.808 34.684-8.847 6.813-6.967 9.532-17.146 7.112-26.564-2.62-10.25-12.202-14.293-20.661-17.86-8.858-3.734-16.519-6.968-14.223-16.148 2.645-10.464 11.778-20.81 19.139-27.754a111.41 111.41 0 0 0-6.338-.19c-13.999 0-27.773 2.616-40.947 7.777-12.726 4.97-24.33 12.105-34.535 21.19-10.206 9.084-18.44 19.644-24.528 31.439-6.313 12.2-10.006 25.138-10.98 38.479-1.022 14.056.999 27.611 6.04 40.335h.024z"/><path fill="#EFEEEC" d="M236.169 156.94c-4.018 54.722-53.823 99.099-111.239 99.099-57.416 0-33.137-3.972-46.911-11.034 4.317-14.174 14.622-41.501 35.358-47.136 27.822-7.563 44.265 19.952 72.611 3.923 28.347-16.028-2.469-78.123 16.744-92.94 5.739-4.423 14.123-4.803 22.731-2.283 8.086 14.769 12.078 31.987 10.706 50.371z"/><path fill="silver" d="M124.905 256.253c-16.868 0-32.688-3.71-47.01-11.058-.1-.047-.15-.167-.125-.285 5.714-18.718 16.493-42.143 35.532-47.303 12.601-3.424 22.932.333 32.938 3.948 12.401 4.495 24.129 8.751 39.6 0 6.862-3.876 10.804-10.868 12.101-21.357 1.148-9.322.1-20.19-.923-30.702-1.697-17.503-3.269-34.056 5.539-40.857 5.49-4.234 13.624-5.042 22.957-2.331.075 0 .125.071.149.119 8.335 15.244 12.053 32.701 10.754 50.489-.972 13.413-4.689 26.421-11.028 38.669-6.114 11.82-14.397 22.45-24.653 31.56a115.007 115.007 0 0 1-34.685 21.284c-13.224 5.185-27.072 7.801-41.146 7.801v.023zm-46.611-11.391c14.223 7.23 29.893 10.916 46.611 10.916 16.718 0 27.772-2.617 40.947-7.777 12.726-4.97 24.329-12.105 34.534-21.19 10.206-9.085 18.441-19.643 24.529-31.439 6.313-12.201 10.005-25.138 10.979-38.479 1.297-17.67-2.371-35.008-10.63-50.157-9.107-2.64-17.067-1.831-22.382 2.283-8.609 6.635-7.037 23.045-5.365 40.429 1.024 10.536 2.071 21.428.924 30.798-1.298 10.654-5.341 17.766-12.327 21.713-7.036 3.971-14.024 5.613-21.31 5.018-6.512-.546-12.725-2.806-18.739-4.97-9.931-3.591-20.187-7.325-32.638-3.949-18.74 5.09-29.444 28.206-35.133 46.804zm-47.21-56.887a.298.298 0 0 1-.225-.12c-.075-.118-.025-.261.075-.333l28.745-16.885-9.133-36.29c-.024-.12.05-.238.175-.286l55.445-17.504 8.534-44.852-16.868-5.637c-.125-.047-.2-.19-.15-.309.05-.119.2-.19.324-.142l17.068 5.707c.124.048.174.143.174.262l-8.583 45.209c0 .095-.075.167-.175.19l-55.37 17.48 9.133 36.244c.025.096 0 .214-.1.262l-28.895 16.98c-.05.024-.075.024-.125.024h-.05z"/><path fill="silver" d="M50.796 134.536a.233.233 0 0 1-.175-.07l-12.95-13.128a.222.222 0 0 1 0-.333.25.25 0 0 1 .35 0l12.95 13.127c.1.096.1.238 0 .334-.05.047-.1.07-.175.07zm185.373 22.641a.263.263 0 0 1-.225-.119l-14.698-26.422-114.881-13.651c-.125 0-.224-.142-.224-.261 0-.119.149-.214.274-.214l115.031 13.65c.075 0 .15.048.2.12l14.747 26.54c.074.119 0 .262-.1.333-.025 0-.075.024-.124.024zm-129.355 82.595h-.025c-.074 0-.149-.047-.174-.095l-46.861-68.776c-.075-.12-.05-.262.075-.333.124-.072.274-.048.35.071l46.685 68.563 26.65-23.163a.287.287 0 0 1 .199-.071l54.846 7.562c.125 0 .225.142.199.262 0 .118-.149.214-.274.189l-54.721-7.538-26.774 23.282a.235.235 0 0 1-.175.072v-.025z"/><path fill="silver" d="M141.349 255.041c-.126 0-.225-.072-.25-.19l-7.66-38.599c-.025-.118.074-.261.199-.286.125-.023.275.072.3.191l7.661 38.599c.024.118-.076.261-.2.285h-.05zm48.283-31.06c-.1 0-.174-.047-.224-.143a.23.23 0 0 1 .124-.308l24.404-11.012c.125-.047.274 0 .324.12.05.118 0 .261-.124.309l-24.404 11.011h-.1v.023z"/><path fill="#1256FF" d="M110.297 120.592c2.409-2.217 2.608-5.745.444-7.881-2.163-2.135-5.87-2.069-8.279.149-2.409 2.217-2.607 5.745-.444 7.88 2.163 2.136 5.87 2.069 8.279-.148zM63.893 174.61c2.409-2.218 2.608-5.746.444-7.881-2.164-2.136-5.87-2.069-8.28.148-2.408 2.217-2.607 5.745-.443 7.881 2.163 2.135 5.87 2.069 8.279-.148zm73.721 45.462c2.408-2.216 2.608-5.745.444-7.88s-5.87-2.069-8.279.148c-2.409 2.218-2.608 5.746-.445 7.88 2.164 2.136 5.871 2.069 8.28-.148zm87.71-85.806c2.41-2.217 2.609-5.746.445-7.881-2.163-2.135-5.87-2.069-8.279.148-2.409 2.218-2.608 5.746-.444 7.881 2.163 2.136 5.87 2.069 8.278-.148zm-171.714 2.79c1.715-1.579 1.848-4.1.297-5.631-1.55-1.53-4.198-1.491-5.913.088-1.715 1.577-1.848 4.098-.297 5.629 1.55 1.53 4.198 1.491 5.913-.086zm137.723 89.466c1.714-1.578 1.848-4.099.297-5.63-1.551-1.53-4.199-1.491-5.913.087-1.715 1.578-1.848 4.099-.297 5.63 1.55 1.529 4.198 1.491 5.913-.087zm-84.519 16.983c2.301 0 4.167-1.778 4.167-3.972 0-2.192-1.866-3.971-4.167-3.971-2.301 0-4.167 1.779-4.167 3.971 0 2.194 1.866 3.972 4.167 3.972zm10.972-169.21c1.715-1.578 1.848-4.098.297-5.629-1.55-1.53-4.198-1.492-5.913.087-1.715 1.578-1.848 4.099-.297 5.629 1.551 1.53 4.198 1.492 5.913-.087z"/><path fill="#EFEEEC" fill-rule="evenodd" d="M278.613 186.738h-2.097l-.623 4.781-3.992-4.781h-19.863c-1.946 0-3.318-1.498-3.094-3.353l1.347-10.511c.25-1.855 2.021-3.354 3.944-3.354h26.549c1.946 0 3.318 1.499 3.094 3.354l-1.347 10.511c-.25 1.855-2.021 3.353-3.944 3.353h.026z" clip-rule="evenodd"/><path fill="silver" d="M275.918 191.756c-.075 0-.149-.023-.199-.094l-3.918-4.686h-19.737c-.999 0-1.897-.379-2.546-1.046-.648-.69-.924-1.593-.798-2.568l1.347-10.512c.25-1.974 2.145-3.567 4.192-3.567h26.549c.999 0 1.897.38 2.546 1.046.648.69.924 1.593.798 2.568l-1.347 10.513c-.25 1.973-2.147 3.566-4.192 3.566h-1.871l-.599 4.567c0 .095-.075.166-.175.19h-.075l.025.023zm-21.633-21.998c-1.823 0-3.47 1.404-3.694 3.139l-1.347 10.513c-.1.832.124 1.617.673 2.187.524.571 1.298.904 2.171.904h19.863c.074 0 .15.024.2.096l3.642 4.328.549-4.21c0-.118.125-.214.25-.214h2.095c1.823 0 3.468-1.403 3.694-3.139l1.347-10.512c.1-.833-.124-1.618-.673-2.187-.524-.572-1.298-.905-2.171-.905h-26.599z"/><path fill="#fff" d="M259.134 180.376c1.246-1.115 1.415-2.872.376-3.926-1.038-1.054-2.889-1.004-4.133.112-1.246 1.114-1.415 2.872-.377 3.926 1.037 1.052 2.888 1.003 4.134-.112z"/><path fill="silver" d="M256.855 181.15c-.849 0-1.597-.309-2.147-.88-.523-.571-.773-1.331-.673-2.164.2-1.64 1.797-2.997 3.518-2.997 1.721 0 1.597.309 2.146.88.524.572.774 1.332.674 2.165-.2 1.64-1.797 2.996-3.518 2.996zm.724-5.541c-1.498 0-2.846 1.141-3.02 2.568-.075.666.1 1.308.549 1.784.424.475 1.048.738 1.771.738 1.473 0 2.845-1.143 3.02-2.57.074-.665-.1-1.307-.549-1.783-.424-.475-1.048-.737-1.771-.737z"/><path fill="#fff" d="M268.384 180.368c1.246-1.116 1.415-2.873.377-3.926-1.037-1.054-2.888-1.003-4.134.112-1.246 1.114-1.415 2.872-.377 3.926 1.037 1.052 2.889 1.002 4.134-.112z"/><path fill="#FF6833" d="M266.088 181.15c-.85 0-1.597-.309-2.147-.88-.524-.571-.773-1.331-.674-2.164.2-1.64 1.797-2.997 3.519-2.997 1.722 0 1.597.309 2.146.88.524.572.774 1.332.674 2.165-.2 1.64-1.797 2.996-3.518 2.996zm.723-5.541c-1.473 0-2.844 1.141-3.02 2.568-.074.666.1 1.308.55 1.784.424.475 1.047.738 1.771.738 1.473 0 2.844-1.143 3.02-2.57.074-.665-.1-1.307-.55-1.783-.423-.475-1.047-.737-1.771-.737z"/><path fill="#fff" d="M277.61 180.362c1.246-1.115 1.415-2.873.377-3.925-1.038-1.054-2.889-1.004-4.135.11-1.245 1.116-1.414 2.874-.377 3.926 1.038 1.054 2.889 1.004 4.135-.111z"/><path fill="silver" d="M275.295 181.15c-.849 0-1.597-.309-2.147-.88-.524-.571-.773-1.331-.673-2.164.199-1.64 1.796-2.997 3.518-2.997 1.722 0 1.597.309 2.146.88.524.572.774 1.332.674 2.165-.2 1.64-1.797 2.996-3.518 2.996zm.723-5.541c-1.473 0-2.844 1.141-3.02 2.568-.074.666.1 1.308.55 1.784.424.475 1.047.738 1.771.738 1.473 0 2.844-1.143 3.02-2.57.074-.665-.1-1.307-.55-1.783-.423-.475-1.047-.737-1.771-.737z"/><path fill="#fff" fill-rule="evenodd" d="M193.176 209.996h-3.095l-1.447 7.112-5.439-7.112h-29.569c-2.894 0-4.791-2.259-4.242-4.993l3.169-15.649c.549-2.758 3.368-4.995 6.262-4.995h39.551c2.895 0 4.79 2.26 4.242 4.995l-3.17 15.649c-.548 2.758-3.368 4.993-6.262 4.993z" clip-rule="evenodd"/><path fill="#464646" d="m188.758 217.677-5.713-7.443H153.6c-1.447 0-2.719-.547-3.568-1.522-.873-.999-1.197-2.33-.898-3.757l3.169-15.649c.574-2.853 3.494-5.185 6.488-5.185h39.55c1.447 0 2.72.547 3.568 1.522.873 1 1.197 2.332.897 3.759l-3.168 15.648c-.574 2.854-3.494 5.184-6.488 5.184h-2.895l-1.497 7.443zm-29.967-33.104c-2.77 0-5.465 2.164-6.014 4.804l-3.169 15.649c-.249 1.284.025 2.473.798 3.353.749.88 1.897 1.356 3.194 1.356h29.694l5.165 6.753 1.373-6.753h3.318c2.77 0 5.465-2.164 6.014-4.805l3.169-15.648c.249-1.284-.025-2.473-.798-3.353-.75-.88-1.897-1.356-3.194-1.356h-39.55z"/><path fill="#464646" d="M163.083 192.803c-2.495 0-4.941 1.949-5.415 4.328-.25 1.189.025 2.307.749 3.138.698.81 1.771 1.261 2.994 1.261 2.495 0 4.94-1.95 5.415-4.328.249-1.189-.025-2.307-.749-3.14-.698-.808-1.771-1.259-2.994-1.259z"/><path fill="silver" d="M176.831 192.803c-2.495 0-4.94 1.949-5.415 4.328-.248 1.189.026 2.307.749 3.138.7.81 1.772 1.261 2.995 1.261 2.495 0 4.941-1.95 5.415-4.328.249-1.189-.026-2.307-.75-3.14-.698-.808-1.771-1.259-2.994-1.259z"/><path fill="#EFEEEC" d="M193.55 194.062c-.698-.808-1.772-1.259-2.995-1.259-2.495 0-4.941 1.949-5.415 4.328-.249 1.189.026 2.307.75 3.138.698.81 1.771 1.261 2.994 1.261 2.495 0 4.94-1.95 5.415-4.328.25-1.189-.026-2.307-.749-3.14z"/><path fill="#fff" fill-rule="evenodd" d="M222.345 115.726h-2.097l-.972 4.78-3.643-4.78H195.77c-1.945 0-3.218-1.498-2.844-3.353l2.121-10.512c.374-1.855 2.27-3.353 4.191-3.353h26.551c1.945 0 3.218 1.498 2.844 3.353l-2.121 10.512c-.374 1.855-2.27 3.353-4.191 3.353h.024z" clip-rule="evenodd"/><path fill="#464646" d="m219.451 121.076-3.918-5.113h-19.737c-.999 0-1.873-.38-2.471-1.046-.599-.69-.823-1.617-.623-2.592l2.12-10.512c.399-1.95 2.395-3.544 4.442-3.544h26.549c.998 0 1.871.381 2.471 1.047.599.69.823 1.617.623 2.592l-2.121 10.512c-.399 1.95-2.394 3.543-4.441 3.543h-1.871l-1.023 5.113zm-20.163-22.33c-1.821 0-3.592 1.426-3.942 3.162l-2.121 10.512c-.175.832 0 1.617.524 2.188.5.571 1.223.88 2.071.88h19.987l3.394 4.423.898-4.423h2.296c1.821 0 3.592-1.427 3.942-3.163l2.121-10.512c.175-.832 0-1.617-.524-2.188-.498-.57-1.223-.88-2.071-.88h-26.575z"/><path fill="#464646" d="M202.158 104.096c-1.722 0-3.393 1.331-3.717 2.972-.176.833 0 1.594.523 2.188.5.571 1.224.88 2.071.88 1.722 0 3.394-1.331 3.718-2.973.174-.832 0-1.593-.524-2.187-.499-.571-1.223-.88-2.071-.88z"/><path fill="silver" d="M211.391 104.096c-1.723 0-3.394 1.331-3.718 2.972-.175.833 0 1.594.524 2.188.498.571 1.222.88 2.071.88 1.721 0 3.394-1.331 3.718-2.973.174-.832 0-1.593-.524-2.187-.5-.571-1.223-.88-2.071-.88z"/><path fill="#EFEEEC" d="M222.669 104.976c-.498-.571-1.223-.88-2.071-.88-1.721 0-3.394 1.331-3.718 2.972-.174.833 0 1.594.524 2.188.5.571 1.223.88 2.071.88 1.723 0 3.394-1.331 3.718-2.973.175-.832 0-1.593-.524-2.187z"/><path fill="#fff" fill-rule="evenodd" d="M98.68 105.927h-2.096l-.973 4.78-3.643-4.78H72.105c-1.946 0-3.218-1.498-2.844-3.353l2.12-10.512c.375-1.855 2.272-3.353 4.193-3.353h26.549c1.947 0 3.219 1.498 2.845 3.353l-2.121 10.512c-.374 1.855-2.271 3.353-4.192 3.353h.025z" clip-rule="evenodd"/><path fill="#464646" d="m95.76 111.278-3.917-5.114H72.105c-.998 0-1.871-.38-2.47-1.046-.599-.69-.823-1.617-.624-2.592l2.121-10.512c.4-1.95 2.396-3.543 4.442-3.543h26.549c.998 0 1.872.38 2.471 1.046.599.69.823 1.617.623 2.592l-2.12 10.512c-.4 1.95-2.396 3.543-4.442 3.543h-1.871l-1.024 5.114zM75.6 88.946c-1.822 0-3.593 1.427-3.943 3.163l-2.12 10.512c-.175.832 0 1.617.523 2.188.5.571 1.223.88 2.071.88h19.987l3.394 4.423.898-4.423h2.296c1.821 0 3.593-1.427 3.942-3.163l2.121-10.512c.175-.832 0-1.617-.524-2.188-.499-.57-1.222-.88-2.071-.88H75.599z"/><path fill="#464646" d="M78.468 94.299c-1.721 0-3.393 1.332-3.718 2.972-.174.833 0 1.594.524 2.189.5.57 1.223.879 2.071.879 1.722 0 3.394-1.331 3.718-2.972.175-.833 0-1.594-.524-2.188-.499-.571-1.222-.88-2.07-.88z"/><path fill="silver" d="M87.7 94.299c-1.721 0-3.393 1.332-3.717 2.972-.175.833 0 1.594.524 2.189.499.57 1.222.879 2.07.879 1.723 0 3.395-1.331 3.719-2.972.174-.833 0-1.594-.524-2.188-.5-.571-1.223-.88-2.071-.88z"/><path fill="#EFEEEC" d="M99.004 95.179c-.499-.571-1.223-.88-2.071-.88-1.722 0-3.394 1.332-3.718 2.972-.175.833 0 1.594.524 2.189.5.57 1.223.879 2.071.879 1.722 0 3.394-1.331 3.718-2.972.175-.833 0-1.594-.524-2.188z"/><path fill="#FEAE28" d="M295.805 45.069c-5.465-5.589-13.025-8.657-21.31-8.657-17.116 0-32.013 13.27-33.211 29.585-.499 6.778 3.868 18.026 13.001 33.437 6.786 11.463 13.798 21.071 13.872 21.166a.23.23 0 0 0 .2.095c.076 0 .15-.023.2-.095.075-.095 8.509-9.703 16.968-21.166 11.378-15.41 17.392-26.66 17.89-33.437.575-7.92-2.121-15.363-7.586-20.976l-.024.048z"/><path fill="#fff" d="M282.886 75.783c6.453-5.94 6.974-15.404 1.162-21.139-5.81-5.735-15.752-5.569-22.206.37-6.453 5.94-6.974 15.405-1.164 21.14 5.812 5.735 15.753 5.569 22.208-.371z"/><path fill="#EFEEEC" fill-rule="evenodd" d="M343.34 91.468c-.549 7.562-16.195 25.351-16.195 25.351s-13.05-17.813-12.476-25.351c.549-7.563 7.436-13.675 15.347-13.675 7.909 0 13.898 6.112 13.348 13.675h-.024z" clip-rule="evenodd"/><path fill="silver" d="M327.145 117.082c-.074 0-.149-.048-.199-.095-.524-.738-13.075-17.956-12.526-25.518.574-7.658 7.56-13.889 15.596-13.889 8.033 0 7.46 1.45 10.03 4.067 2.57 2.64 3.842 6.135 3.568 9.87-.224 3.186-3.044 8.442-8.359 15.624-3.942 5.351-7.86 9.822-7.91 9.869-.05.048-.124.096-.2.096v-.024zm2.871-39.026c-7.786 0-14.548 6.04-15.098 13.46-.224 3.044 1.847 8.348 6.015 15.363 2.719 4.59 5.514 8.538 6.262 9.585 1.871-2.141 15.421-18.075 15.945-24.972.274-3.59-.947-6.968-3.444-9.512-2.47-2.521-5.888-3.924-9.656-3.924h-.024z"/><path fill="#fff" d="M333.892 96c3.003-2.764 3.25-7.165.55-9.83-2.7-2.663-7.322-2.582-10.326.182-3.004 2.765-3.251 7.166-.551 9.83 2.7 2.665 7.323 2.583 10.327-.181z"/><path fill="#464646" fill-rule="evenodd" d="M333.516 95.63c2.816-2.591 3.005-6.666.538-9.102-2.467-2.435-6.748-2.397-9.563.194-2.816 2.592-3.005 6.668-.537 9.103 2.467 2.435 6.747 2.397 9.562-.194zm.926-9.46c2.7 2.665 2.453 7.066-.55 9.83-3.004 2.765-7.627 2.847-10.327.182-2.7-2.664-2.453-7.065.551-9.83 3.004-2.764 7.626-2.845 10.326-.181z" clip-rule="evenodd"/><path fill="#9B9A9A" d="m249.893 301.057 17.69-35.745 5.665.263-23.355 35.482z"/><path fill="#fff" d="M249.668 301.749h-.1a.233.233 0 0 1-.125-.309l17.941-36.172a.268.268 0 0 1 .225-.143l11.952.522c.149 0 .249.12.249.238 0 .12-.124.238-.249.238l-11.778-.499-17.866 36.029c-.05.096-.124.143-.224.143l-.025-.047z"/><path fill="#464646" d="m218.303 322.865 15.795 3.854-.125 4.066-15.995-6.968.325-.952zm57.316-2.091-17.816 8.181c.723-1.214 1.247-2.759 1.597-4.567l15.995-4.281.224.667z"/></svg>