<svg width="83" height="85" viewBox="0 0 83 85" fill="none" xmlns="http://www.w3.org/2000/svg">
<path d="M77.0388 32.6873L76.98 32.6533L77.5575 31.6531C78.7375 29.6092 78.0347 26.9863 75.9908 25.8062L42.1005 6.23963C40.0566 5.05959 37.4337 5.7624 36.2536 7.80629L35.6762 8.80652L35.6173 8.77255C34.0925 7.89219 32.1357 8.4165 31.2554 9.94133L30.6779 10.9416L30.6191 10.9076C28.5752 9.72756 25.9523 10.4304 24.7722 12.4743L20.4241 20.0054C19.244 22.0493 19.9468 24.6722 21.9907 25.8523L42.7015 37.8096C43.7721 38.4278 44.1402 39.8017 43.5221 40.8723L42.4011 42.8139L41.4009 42.2364C39.8761 41.3561 37.9193 41.8804 37.039 43.4052L25.6251 63.1746C24.1454 65.7375 25.0267 69.0266 27.5896 70.5063C30.1526 71.986 33.4417 71.1047 34.9214 68.5418L46.3353 48.7724C47.2156 47.2476 46.6913 45.2909 45.1665 44.4105L44.1662 43.833L45.2872 41.8914C46.4673 39.8475 45.7645 37.2246 43.7206 36.0445L23.0098 24.0872C21.9392 23.4691 21.5711 22.0951 22.1892 21.0245L26.5373 13.4933C27.1554 12.4227 28.5294 12.0546 29.6 12.6727L29.6588 12.7067L29.0813 13.7069C28.201 15.2318 28.7253 17.1885 30.2501 18.0689L30.3089 18.1028L29.7314 19.1031C28.5514 21.147 29.2542 23.7699 31.2981 24.9499L65.1884 44.5165C67.2323 45.6965 69.8552 44.9937 71.0353 42.9498L71.6128 41.9496L71.6716 41.9836C73.1964 42.8639 75.1532 42.3396 76.0335 40.8148L78.2076 37.0492C79.088 35.5244 78.5637 33.5676 77.0388 32.6873ZM28.6087 68.7412C27.0191 67.8234 26.4724 65.7834 27.3902 64.1936L37.2075 47.1897L42.9736 50.5187L33.1563 67.5227C32.2384 69.1125 30.1984 69.659 28.6087 68.7412ZM44.5701 47.7533L43.9926 48.7536L38.2266 45.4245L38.8041 44.4243C39.1225 43.8728 39.8303 43.6831 40.3818 44.0015L44.1474 46.1756C44.6989 46.494 44.8886 47.2018 44.5701 47.7533ZM31.2692 16.3037C30.7176 15.9853 30.528 15.2776 30.8464 14.726L33.0205 10.9604C33.3389 10.4089 34.0467 10.2192 34.5982 10.5377L34.6571 10.5716L31.328 16.3377L31.2692 16.3037ZM69.2702 41.9307C68.652 43.0014 67.2781 43.3695 66.2075 42.7514L32.3172 23.1848C31.2466 22.5667 30.8785 21.1928 31.4966 20.1222L38.0188 8.82538C38.6369 7.75478 40.0108 7.38664 41.0814 8.00475L74.9717 27.5713C76.0423 28.1895 76.4105 29.5634 75.7924 30.634L69.2702 41.9307ZM74.2684 39.7957C73.95 40.3472 73.2422 40.5369 72.6907 40.2185L72.6319 40.1845L75.9609 34.4184L76.0197 34.4524C76.5713 34.7708 76.7609 35.4786 76.4425 36.0301L74.2684 39.7957Z" fill="url(#paint0_linear_19_6550)"/>
<path d="M30.7827 64.9763C30.5497 64.8418 30.2682 64.8048 30.0096 64.8751C29.7504 64.9436 29.5252 65.1162 29.3906 65.3494C29.2568 65.5812 29.2191 65.8638 29.2894 66.1225C29.3579 66.3817 29.5318 66.6076 29.7636 66.7415C29.9954 66.8753 30.2781 66.913 30.5368 66.8427C30.7966 66.773 31.0219 66.6003 31.1557 66.3685C31.2896 66.1365 31.3272 65.854 31.2569 65.5953C31.1885 65.3361 31.0145 65.1102 30.7827 64.9763Z" fill="url(#paint1_linear_19_6550)"/>
<defs>
<linearGradient id="paint0_linear_19_6550" x1="31.804" y1="0.294922" x2="69.9942" y2="74.2707" gradientUnits="userSpaceOnUse">
<stop stop-color="#2A92F1"/>
<stop offset="1" stop-color="#D41BD3"/>
</linearGradient>
<linearGradient id="paint1_linear_19_6550" x1="29.9001" y1="64.4668" x2="31.1165" y2="67.027" gradientUnits="userSpaceOnUse">
<stop stop-color="#2A92F1"/>
<stop offset="1" stop-color="#D41BD3"/>
</linearGradient>
</defs>
</svg>
