<svg width="86" height="63" viewBox="0 0 86 63" fill="none" xmlns="http://www.w3.org/2000/svg">
<path d="M67.0866 54.0648C65.6433 54.0648 64.469 52.8908 64.469 51.4476C64.469 50.0045 65.6433 48.8302 67.0866 48.8302C68.5298 48.8302 69.7038 50.0045 69.7038 51.4476C69.7038 52.8908 68.5298 54.0648 67.0866 54.0648ZM67.0866 50.6693C66.6571 50.6693 66.3079 51.0185 66.3079 51.4478C66.3079 51.8769 66.6571 52.2261 67.0866 52.2261C67.5157 52.2261 67.8649 51.8771 67.8649 51.4478C67.8649 51.0185 67.5157 50.6693 67.0866 50.6693Z" fill="url(#paint0_linear_19_6691)"/>
<path d="M19.5019 54.0648C18.0588 54.0648 16.8845 52.8908 16.8845 51.4476C16.8845 50.0045 18.0588 48.8302 19.5019 48.8302C20.9451 48.8302 22.1191 50.0045 22.1191 51.4476C22.1191 52.8908 20.9451 54.0648 19.5019 54.0648ZM19.5019 50.6693C19.0726 50.6693 18.7234 51.0185 18.7234 51.4478C18.7234 51.8769 19.0726 52.2261 19.5019 52.2261C19.931 52.2261 20.2802 51.8771 20.2802 51.4478C20.2802 51.0185 19.931 50.6693 19.5019 50.6693Z" fill="url(#paint1_linear_19_6691)"/>
<path d="M84.1339 57.5486V45.3467L85.5824 41.8376C85.6995 41.554 85.6674 41.2305 85.4968 40.9755C85.3262 40.7205 85.0395 40.5673 84.7326 40.5673H72.5942L71.3869 37.9111H75.0672C75.5749 37.9111 75.9866 37.4994 75.9866 36.9916V1.439C75.9866 0.931247 75.5749 0.519531 75.0672 0.519531H11.522C11.0142 0.519531 10.6025 0.931247 10.6025 1.439V36.9916C10.6025 37.4994 11.0142 37.9111 11.522 37.9111H15.2023L13.9949 40.5673H1.85597C1.54908 40.5673 1.26241 40.7205 1.0918 40.9755C0.921186 41.2305 0.889107 41.554 1.00619 41.8376L2.45465 45.3469V57.5484L1.00598 61.0577C0.888903 61.3413 0.920982 61.6647 1.09159 61.9197C1.26241 62.1747 1.54887 62.328 1.85577 62.328H43.2942H84.7324C85.0393 62.328 85.326 62.1747 85.4966 61.9197C85.6672 61.6645 85.6993 61.3413 85.5822 61.0577L84.1339 57.5486ZM12.4413 36.0721V2.35846H74.1475V36.0721H12.4413ZM70.5741 40.5673H68.5075L67.3002 37.9111H69.3667L70.5741 40.5673ZM66.4876 40.5673H20.101L21.3084 37.9111H65.2802L66.4876 40.5673ZM19.2884 37.9111L18.081 40.5673H16.0145L17.2219 37.9111H19.2884ZM3.23027 60.489L3.98934 58.6501H82.5994L83.3585 60.489H3.23027ZM4.29358 56.8112V46.0841H6.68643V56.8112H4.29358ZM8.52536 56.8112V46.0841H30.4787V56.8112H8.52536ZM32.3176 52.3726H54.2707V56.8112H43.2942H32.3174V52.3726H32.3176ZM54.2707 50.5337H32.3176V46.0841H54.2707V50.5337ZM56.1097 56.8112V46.0841H78.0632V56.8112H56.1097ZM79.9021 56.8112V46.0841H82.295V56.8112H79.9021ZM82.5992 44.2452H3.98913L3.23006 42.4062H83.3581L82.5992 44.2452Z" fill="url(#paint2_linear_19_6691)"/>
<defs>
<linearGradient id="paint0_linear_19_6691" x1="64.469" y1="48.8302" x2="70.4621" y2="52.9627" gradientUnits="userSpaceOnUse">
<stop stop-color="#2A92F1"/>
<stop offset="1" stop-color="#D41BD3"/>
</linearGradient>
<linearGradient id="paint1_linear_19_6691" x1="16.8845" y1="48.8302" x2="22.8775" y2="52.9625" gradientUnits="userSpaceOnUse">
<stop stop-color="#2A92F1"/>
<stop offset="1" stop-color="#D41BD3"/>
</linearGradient>
<linearGradient id="paint2_linear_19_6691" x1="0.936401" y1="0.519531" x2="76.5257" y2="71.9561" gradientUnits="userSpaceOnUse">
<stop stop-color="#2A92F1"/>
<stop offset="1" stop-color="#D41BD3"/>
</linearGradient>
</defs>
</svg>
