<svg width="51" height="71" viewBox="0 0 51 71" fill="none" xmlns="http://www.w3.org/2000/svg">
<g clip-path="url(#clip0_19_6607)">
<path d="M13.5681 65.6921V70.4316H8.08227L9.06779 65.6921H4.81242C3.78236 65.6861 2.7962 65.2742 2.06782 64.5459C1.33945 63.8175 0.927611 62.8313 0.921631 61.8013L0.921631 1.33171C0.921631 1.09299 1.01646 0.864059 1.18525 0.695264C1.35405 0.526469 1.58298 0.431641 1.8217 0.431641L49.6733 0.431641C49.9065 0.439066 50.1276 0.537342 50.2893 0.705499C50.4511 0.873655 50.5407 1.09837 50.5391 1.33171V61.8013C50.5332 62.8313 50.1213 63.8175 49.3929 64.5459C48.6646 65.2742 47.6784 65.6861 46.6484 65.6921H42.4044L43.3785 70.4316H37.9496V65.6921H13.5681ZM31.2276 52.5898C31.2276 54.3957 30.9143 55.8597 30.5326 55.8597C30.151 55.8597 29.8319 54.3957 29.8319 52.5898C29.8319 50.784 30.1453 49.3257 30.5326 49.3257C30.92 49.3257 31.2276 50.784 31.2276 52.5898ZM21.0364 52.5898C21.0364 54.3957 20.7231 55.8597 20.3414 55.8597C19.9597 55.8597 19.6464 54.3957 19.6464 52.5898C19.6464 50.784 19.9597 49.3257 20.3414 49.3257C20.7231 49.3257 21.0364 50.784 21.0364 52.5898ZM7.29045 26.7842H5.0118C4.90098 26.7842 4.79461 26.8278 4.71572 26.9056C4.63682 26.9835 4.59175 27.0892 4.59025 27.2V29.0571H7.73478V27.2057C7.73478 27.0954 7.69097 26.9897 7.61298 26.9117C7.53499 26.8337 7.42922 26.7899 7.31893 26.7899L7.29045 26.7842ZM4.56177 30.2022V35.8532H7.7063V30.1965L4.56177 30.2022ZM4.56177 36.9868V38.6958C4.56327 38.8066 4.60834 38.9124 4.68723 38.9902C4.76613 39.068 4.8725 39.1117 4.98332 39.1117H7.29045C7.40074 39.1117 7.50651 39.0678 7.5845 38.9899C7.66249 38.9119 7.7063 38.8061 7.7063 38.6958V36.9868H4.56177ZM12.1041 26.7899H9.82544C9.77083 26.7899 9.71675 26.8006 9.6663 26.8215C9.61585 26.8424 9.57 26.8731 9.53139 26.9117C9.49277 26.9503 9.46214 26.9961 9.44124 27.0466C9.42034 27.097 9.40959 27.1511 9.40959 27.2057V29.0628H12.5541V27.2057C12.5526 27.0949 12.5075 26.9892 12.4287 26.9113C12.3498 26.8335 12.2434 26.7899 12.1326 26.7899H12.1041ZM9.3811 30.2078V35.8589H12.5256V30.1965L9.3811 30.2078ZM9.3811 36.9925V38.7015C9.3811 38.8118 9.42492 38.9176 9.5029 38.9956C9.58089 39.0735 9.68666 39.1174 9.79696 39.1174H12.0756C12.1864 39.1174 12.2928 39.0737 12.3717 38.9959C12.4506 38.9181 12.4957 38.8123 12.4972 38.7015V36.9925H9.3811ZM16.8722 26.7842H14.5935C14.4827 26.7842 14.3763 26.8278 14.2974 26.9056C14.2185 26.9835 14.1735 27.0892 14.172 27.2V29.0571H17.3165V27.2057C17.3165 27.0954 17.2727 26.9897 17.1947 26.9117C17.1167 26.8337 17.0109 26.7899 16.9006 26.7899L16.8722 26.7842ZM14.1435 30.2022V35.8532H17.288V30.1965L14.1435 30.2022ZM14.1435 36.9868V38.6958C14.145 38.8066 14.19 38.9124 14.2689 38.9902C14.3478 39.068 14.4542 39.1117 14.565 39.1117H16.8722C16.9824 39.1117 17.0882 39.0678 17.1662 38.9899C17.2442 38.9119 17.288 38.8061 17.288 38.6958V36.9868H14.1435ZM21.6345 26.7899H19.3559C19.2451 26.7899 19.1387 26.8335 19.0598 26.9113C18.9809 26.9892 18.9358 27.0949 18.9343 27.2057V29.0628H22.0561V27.2057C22.0546 27.0949 22.0095 26.9892 21.9306 26.9113C21.8517 26.8335 21.7453 26.7899 21.6345 26.7899ZM18.9115 30.2078V35.8589H22.0561V30.1965L18.9115 30.2078ZM18.9115 36.9925V38.7015C18.913 38.8123 18.9581 38.9181 19.037 38.9959C19.1159 39.0737 19.2223 39.1174 19.3331 39.1174H21.6117C21.7226 39.1174 21.8289 39.0737 21.9078 38.9959C21.9867 38.9181 22.0318 38.8123 22.0333 38.7015V36.9925H18.9115ZM26.4026 26.7956H24.1239C24.0151 26.797 23.911 26.8405 23.8335 26.917C23.756 26.9934 23.711 27.0969 23.7081 27.2057V29.0628H26.8526V27.2057C26.8511 27.0949 26.806 26.9892 26.7272 26.9113C26.6483 26.8335 26.5419 26.7899 26.4311 26.7899L26.4026 26.7956ZM23.6796 30.2135V35.8646H26.8241V30.1965L23.6796 30.2135ZM23.6796 36.9982V38.7072C23.6811 38.818 23.7262 38.9238 23.8051 39.0016C23.884 39.0794 23.9903 39.1231 24.1012 39.123H26.3798C26.4906 39.1231 26.597 39.0794 26.6759 39.0016C26.7548 38.9238 26.7999 38.818 26.8013 38.7072V36.9982H23.6796ZM35.483 26.7614L33.3183 27.5475C33.2142 27.5872 33.1297 27.666 33.0829 27.7671C33.0361 27.8682 33.0306 27.9836 33.0676 28.0887L33.7 29.8319L36.6565 28.7552L36.0185 27.012C36 26.9603 35.9715 26.9126 35.9345 26.8719C35.8975 26.8312 35.8528 26.7983 35.803 26.775C35.7532 26.7517 35.6993 26.7385 35.6444 26.7361C35.5894 26.7338 35.5346 26.7424 35.483 26.7614ZM34.0873 30.8971L36.0185 36.2064L38.975 35.1297L37.0439 29.8205L34.0873 30.8971ZM36.4115 37.2773L36.9812 38.8952C37.0007 38.9501 37.0312 39.0005 37.0708 39.0433C37.1105 39.086 37.1585 39.1201 37.2119 39.1436C37.2652 39.1671 37.3228 39.1794 37.3811 39.1798C37.4394 39.1802 37.4972 39.1686 37.5509 39.1458L39.7156 38.3597C39.771 38.341 39.822 38.3109 39.8652 38.2713C39.9084 38.2318 39.9429 38.1837 39.9665 38.1301C39.99 38.0765 40.0022 38.0186 40.0022 37.9601C40.0021 37.9015 39.9899 37.8436 39.9662 37.79L39.3966 36.1722L36.4115 37.2773ZM31.1707 26.7842H28.8635C28.7532 26.7842 28.6475 26.828 28.5695 26.906C28.4915 26.984 28.4477 27.0897 28.4477 27.2V29.0571H31.5922V27.2057C31.5907 27.0949 31.5456 26.9892 31.4667 26.9113C31.3878 26.8335 31.2815 26.7899 31.1707 26.7899V26.7842ZM28.4477 30.2022V35.8532H31.5922V30.1965L28.4477 30.2022ZM28.4477 36.9868V38.6958C28.4477 38.8061 28.4915 38.9119 28.5695 38.9899C28.6475 39.0678 28.7532 39.1117 28.8635 39.1117H31.1707C31.2815 39.1117 31.3878 39.068 31.4667 38.9902C31.5456 38.9124 31.5907 38.8066 31.5922 38.6958V36.9868H28.4477ZM7.63794 6.12826H5.35929C5.30393 6.12826 5.24912 6.13916 5.19797 6.16034C5.14683 6.18153 5.10036 6.21258 5.06121 6.25172C5.02207 6.29087 4.99102 6.33734 4.96983 6.38848C4.94865 6.43963 4.93774 6.49445 4.93774 6.54981V8.4069H8.08227V6.5555C8.08228 6.44468 8.03866 6.33831 7.96083 6.25942C7.883 6.18052 7.77723 6.13545 7.66642 6.13395L7.63794 6.12826ZM4.90926 9.54622V15.1973H8.05379V9.54622H4.90926ZM4.90926 16.3309V18.0399C4.91074 18.1512 4.95562 18.2576 5.03436 18.3363C5.1131 18.4151 5.21947 18.46 5.33081 18.4614H7.60946C7.72027 18.4599 7.82603 18.4149 7.90386 18.336C7.98169 18.2571 8.02532 18.1507 8.02531 18.0399V16.3309H4.90926ZM12.4003 6.12826H10.1217C10.0663 6.12826 10.0115 6.13916 9.96034 6.16034C9.9092 6.18153 9.86273 6.21258 9.82358 6.25172C9.78444 6.29087 9.75339 6.33734 9.7322 6.38848C9.71102 6.43963 9.70011 6.49445 9.70011 6.54981V8.4069H12.8446V6.5555C12.8446 6.4437 12.8002 6.33648 12.7212 6.25742C12.6421 6.17837 12.5349 6.13395 12.4231 6.13395L12.4003 6.12826ZM9.67733 9.54622V15.1973H12.8219V9.54622H9.67733ZM9.67733 16.3309V18.0399C9.67733 18.1517 9.72174 18.2589 9.8008 18.338C9.87985 18.417 9.98707 18.4614 10.0989 18.4614H12.3775C12.4893 18.4614 12.5965 18.417 12.6756 18.338C12.7547 18.2589 12.7991 18.1517 12.7991 18.0399V16.3309H9.67733ZM17.1684 6.12826H14.8897C14.8344 6.12826 14.7796 6.13916 14.7284 6.16034C14.6773 6.18153 14.6308 6.21258 14.5916 6.25172C14.5525 6.29087 14.5215 6.33734 14.5003 6.38848C14.4791 6.43963 14.4682 6.49445 14.4682 6.54981V8.4069H17.6127V6.5555C17.6127 6.4437 17.5683 6.33648 17.4892 6.25742C17.4102 6.17837 17.303 6.13395 17.1912 6.13395L17.1684 6.12826ZM14.4454 9.54622V15.1973H17.5899V9.54622H14.4454ZM14.4454 16.3309V18.0399C14.4454 18.1517 14.4898 18.2589 14.5689 18.338C14.6479 18.417 14.7551 18.4614 14.8669 18.4614H17.1456C17.2574 18.4614 17.3646 18.417 17.4437 18.338C17.5227 18.2589 17.5671 18.1517 17.5671 18.0399V16.3309H14.4454ZM26.2488 6.12826L24.0841 6.91439C24.0291 6.93385 23.9787 6.96436 23.936 7.00403C23.8933 7.0437 23.8591 7.09169 23.8356 7.14505C23.8122 7.19842 23.7998 7.25602 23.7995 7.31432C23.7991 7.37262 23.8106 7.43038 23.8334 7.48405L24.4657 9.22721L27.4223 8.15055L26.79 6.40739C26.7502 6.3033 26.6714 6.21884 26.5703 6.17201C26.4692 6.12519 26.3539 6.11971 26.2488 6.15674V6.12826ZM24.8474 10.2469L26.7786 15.5562L29.7351 14.4852L27.8097 9.17025L24.8474 10.2469ZM27.1716 16.6271L27.7413 18.245C27.76 18.3004 27.7901 18.3514 27.8297 18.3946C27.8692 18.4378 27.9173 18.4723 27.9709 18.4958C28.0245 18.5194 28.0824 18.5316 28.1409 18.5315C28.1995 18.5315 28.2574 18.5193 28.311 18.4956L30.4757 17.7095C30.5275 17.691 30.5751 17.6625 30.6158 17.6255C30.6565 17.5885 30.6894 17.5438 30.7127 17.494C30.736 17.4442 30.7492 17.3903 30.7516 17.3354C30.7539 17.2804 30.7453 17.2256 30.7263 17.174L30.1567 15.5505L27.2058 16.6271H27.1716ZM21.9364 6.12826H19.6578C19.547 6.12975 19.4412 6.17483 19.3634 6.25372C19.2856 6.33261 19.2419 6.43898 19.2419 6.54981V8.4069H22.3865V6.5555C22.3865 6.4437 22.3421 6.33648 22.263 6.25742C22.184 6.17837 22.0767 6.13395 21.9649 6.13395L21.9364 6.12826ZM19.2135 9.54622V15.1973H22.358V9.54622H19.2135ZM19.2135 16.3309V18.0399C19.2134 18.1507 19.2571 18.2571 19.3349 18.336C19.4127 18.4149 19.5185 18.4599 19.6293 18.4614H21.908C22.0198 18.4614 22.127 18.417 22.206 18.338C22.2851 18.2589 22.3295 18.1517 22.3295 18.0399V16.3309H19.2135ZM48.7732 22.0788H2.71606V41.1055H48.7732V22.0788ZM2.71606 20.4951H48.7732V2.22607H2.71606V20.4951ZM48.7732 42.655H26.4766V63.8976H46.6484C46.9258 63.9006 47.2012 63.8487 47.4585 63.7447C47.7158 63.6408 47.9499 63.487 48.1475 63.2921C48.345 63.0972 48.502 62.8651 48.6094 62.6092C48.7168 62.3534 48.7725 62.0788 48.7732 61.8013V42.655ZM24.9443 42.655H2.72746V61.8013C2.73045 62.3563 2.95228 62.8878 3.34477 63.2803C3.73727 63.6728 4.26875 63.8946 4.82381 63.8976H24.9158V42.655H24.9443Z" fill="url(#paint0_linear_19_6607)"/>
</g>
<defs>
<linearGradient id="paint0_linear_19_6607" x1="0.921631" y1="0.431641" x2="68.575" y2="33.4968" gradientUnits="userSpaceOnUse">
<stop stop-color="#2A92F1"/>
<stop offset="1" stop-color="#D41BD3"/>
</linearGradient>
<clipPath id="clip0_19_6607">
<rect width="49.6175" height="70" fill="white" transform="translate(0.921631 0.431641)"/>
</clipPath>
</defs>
</svg>
