<svg width="81" height="80" viewBox="0 0 81 80" fill="none" xmlns="http://www.w3.org/2000/svg">
<g clip-path="url(#clip0_19_6555)">
<path d="M70.6628 30.9414H75.6044C76.4885 30.9414 77.3363 31.2926 77.9614 31.9177C78.5866 32.5428 78.9378 33.3907 78.9378 34.2747V63.8831H67.3711V34.2331C67.3819 33.3634 67.7322 32.5324 68.3471 31.9175C68.9621 31.3025 69.7931 30.9522 70.6628 30.9414Z" stroke="url(#paint0_linear_19_6555)" stroke-width="1.98" stroke-linecap="round" stroke-linejoin="round"/>
<path d="M4.78767 30.9414H9.72934C10.6134 30.9414 11.4612 31.2926 12.0864 31.9177C12.7115 32.5428 13.0627 33.3907 13.0627 34.2747V63.8831H1.48767V34.2331C1.49852 33.362 1.84994 32.5298 2.4667 31.9146C3.08347 31.2994 3.91657 30.9501 4.78767 30.9414Z" stroke="url(#paint1_linear_19_6555)" stroke-width="1.98" stroke-linecap="round" stroke-linejoin="round"/>
<path d="M17.9627 42.5H35.2543C36.5592 42.5 37.8111 43.016 38.7369 43.9356C39.6627 44.8551 40.1872 46.1035 40.196 47.4083V52.35H13.021V47.4083C13.0298 46.1035 13.5543 44.8551 14.4801 43.9356C15.4059 43.016 16.6578 42.5 17.9627 42.5Z" stroke="url(#paint2_linear_19_6555)" stroke-width="1.98" stroke-linecap="round" stroke-linejoin="round"/>
<path d="M45.1377 42.5H62.4294C63.0783 42.5 63.7209 42.6278 64.3205 42.8762C64.92 43.1245 65.4648 43.4885 65.9237 43.9474C66.3825 44.4063 66.7465 44.951 66.9949 45.5506C67.2432 46.1501 67.371 46.7927 67.371 47.4417V52.3833H40.196V47.4083C40.2048 46.1035 40.7294 44.8551 41.6552 43.9356C42.5809 43.016 43.8329 42.5 45.1377 42.5Z" stroke="url(#paint3_linear_19_6555)" stroke-width="1.98" stroke-linecap="round" stroke-linejoin="round"/>
<path d="M10.546 30.9422V21.0589C10.5482 19.7489 11.0696 18.4933 11.9958 17.567C12.9221 16.6407 14.1778 16.1194 15.4877 16.1172H35.2544C36.565 16.1172 37.8219 16.6378 38.7486 17.5646C39.6754 18.4913 40.196 19.7482 40.196 21.0589V44.9422" stroke="url(#paint4_linear_19_6555)" stroke-width="1.98" stroke-linecap="round" stroke-linejoin="round"/>
<path d="M69.846 30.9422V21.0589C69.8438 19.7489 69.3225 18.4933 68.3962 17.567C67.47 16.6407 66.2143 16.1194 64.9044 16.1172H45.1377C43.8271 16.1172 42.5702 16.6378 41.6434 17.5646C40.7167 18.4913 40.196 19.7482 40.196 21.0589V44.9422" stroke="url(#paint5_linear_19_6555)" stroke-width="1.98" stroke-linecap="round" stroke-linejoin="round"/>
<path d="M67.371 52.3496H13.021V63.8746H67.371V52.3496Z" stroke="url(#paint6_linear_19_6555)" stroke-width="1.98" stroke-linecap="round" stroke-linejoin="round"/>
<path d="M49.2544 27.2414C50.1656 27.2414 50.9044 26.5027 50.9044 25.5914C50.9044 24.6801 50.1656 23.9414 49.2544 23.9414C48.3431 23.9414 47.6044 24.6801 47.6044 25.5914C47.6044 26.5027 48.3431 27.2414 49.2544 27.2414Z" stroke="url(#paint7_linear_19_6555)" stroke-width="1.98" stroke-linecap="round" stroke-linejoin="round"/>
<path d="M60.7877 27.2414C61.699 27.2414 62.4377 26.5027 62.4377 25.5914C62.4377 24.6801 61.699 23.9414 60.7877 23.9414C59.8764 23.9414 59.1377 24.6801 59.1377 25.5914C59.1377 26.5027 59.8764 27.2414 60.7877 27.2414Z" stroke="url(#paint8_linear_19_6555)" stroke-width="1.98" stroke-linecap="round" stroke-linejoin="round"/>
<path d="M49.2544 37.1164C50.1656 37.1164 50.9044 36.3777 50.9044 35.4664C50.9044 34.5551 50.1656 33.8164 49.2544 33.8164C48.3431 33.8164 47.6044 34.5551 47.6044 35.4664C47.6044 36.3777 48.3431 37.1164 49.2544 37.1164Z" stroke="url(#paint9_linear_19_6555)" stroke-width="1.98" stroke-linecap="round" stroke-linejoin="round"/>
<path d="M60.7877 37.1164C61.699 37.1164 62.4377 36.3777 62.4377 35.4664C62.4377 34.5551 61.699 33.8164 60.7877 33.8164C59.8764 33.8164 59.1377 34.5551 59.1377 35.4664C59.1377 36.3777 59.8764 37.1164 60.7877 37.1164Z" stroke="url(#paint10_linear_19_6555)" stroke-width="1.98" stroke-linecap="round" stroke-linejoin="round"/>
<path d="M19.6043 27.6496C20.5156 27.6496 21.2543 26.9109 21.2543 25.9996C21.2543 25.0883 20.5156 24.3496 19.6043 24.3496C18.6931 24.3496 17.9543 25.0883 17.9543 25.9996C17.9543 26.9109 18.6931 27.6496 19.6043 27.6496Z" stroke="url(#paint11_linear_19_6555)" stroke-width="1.98" stroke-linecap="round" stroke-linejoin="round"/>
<path d="M31.1377 27.6496C32.0489 27.6496 32.7877 26.9109 32.7877 25.9996C32.7877 25.0883 32.0489 24.3496 31.1377 24.3496C30.2264 24.3496 29.4877 25.0883 29.4877 25.9996C29.4877 26.9109 30.2264 27.6496 31.1377 27.6496Z" stroke="url(#paint12_linear_19_6555)" stroke-width="1.98" stroke-linecap="round" stroke-linejoin="round"/>
<path d="M19.6043 37.5324C20.5156 37.5324 21.2543 36.7937 21.2543 35.8824C21.2543 34.9712 20.5156 34.2324 19.6043 34.2324C18.6931 34.2324 17.9543 34.9712 17.9543 35.8824C17.9543 36.7937 18.6931 37.5324 19.6043 37.5324Z" stroke="url(#paint13_linear_19_6555)" stroke-width="1.98" stroke-linecap="round" stroke-linejoin="round"/>
<path d="M31.1377 37.5324C32.0489 37.5324 32.7877 36.7937 32.7877 35.8824C32.7877 34.9712 32.0489 34.2324 31.1377 34.2324C30.2264 34.2324 29.4877 34.9712 29.4877 35.8824C29.4877 36.7937 30.2264 37.5324 31.1377 37.5324Z" stroke="url(#paint14_linear_19_6555)" stroke-width="1.98" stroke-linecap="round" stroke-linejoin="round"/>
</g>
<defs>
<linearGradient id="paint0_linear_19_6555" x1="73.1544" y1="30.9414" x2="73.1544" y2="63.8831" gradientUnits="userSpaceOnUse">
<stop stop-color="#3B86EE"/>
<stop offset="1" stop-color="#A83ADB"/>
</linearGradient>
<linearGradient id="paint1_linear_19_6555" x1="7.27517" y1="30.9414" x2="7.27517" y2="63.8831" gradientUnits="userSpaceOnUse">
<stop stop-color="#3B86EE"/>
<stop offset="1" stop-color="#A83ADB"/>
</linearGradient>
<linearGradient id="paint2_linear_19_6555" x1="26.6085" y1="42.5" x2="26.6085" y2="52.35" gradientUnits="userSpaceOnUse">
<stop stop-color="#3B86EE"/>
<stop offset="1" stop-color="#A83ADB"/>
</linearGradient>
<linearGradient id="paint3_linear_19_6555" x1="53.7835" y1="42.5" x2="53.7835" y2="52.3833" gradientUnits="userSpaceOnUse">
<stop stop-color="#3B86EE"/>
<stop offset="1" stop-color="#A83ADB"/>
</linearGradient>
<linearGradient id="paint4_linear_19_6555" x1="25.371" y1="16.1172" x2="25.371" y2="44.9422" gradientUnits="userSpaceOnUse">
<stop stop-color="#3B86EE"/>
<stop offset="1" stop-color="#A83ADB"/>
</linearGradient>
<linearGradient id="paint5_linear_19_6555" x1="55.021" y1="16.1172" x2="55.021" y2="44.9422" gradientUnits="userSpaceOnUse">
<stop stop-color="#3B86EE"/>
<stop offset="1" stop-color="#A83ADB"/>
</linearGradient>
<linearGradient id="paint6_linear_19_6555" x1="40.196" y1="52.3496" x2="40.196" y2="63.8746" gradientUnits="userSpaceOnUse">
<stop stop-color="#3B86EE"/>
<stop offset="1" stop-color="#A83ADB"/>
</linearGradient>
<linearGradient id="paint7_linear_19_6555" x1="49.2544" y1="23.9414" x2="49.2544" y2="27.2414" gradientUnits="userSpaceOnUse">
<stop stop-color="#3B86EE"/>
<stop offset="1" stop-color="#A83ADB"/>
</linearGradient>
<linearGradient id="paint8_linear_19_6555" x1="60.7877" y1="23.9414" x2="60.7877" y2="27.2414" gradientUnits="userSpaceOnUse">
<stop stop-color="#3B86EE"/>
<stop offset="1" stop-color="#A83ADB"/>
</linearGradient>
<linearGradient id="paint9_linear_19_6555" x1="49.2544" y1="33.8164" x2="49.2544" y2="37.1164" gradientUnits="userSpaceOnUse">
<stop stop-color="#3B86EE"/>
<stop offset="1" stop-color="#A83ADB"/>
</linearGradient>
<linearGradient id="paint10_linear_19_6555" x1="60.7877" y1="33.8164" x2="60.7877" y2="37.1164" gradientUnits="userSpaceOnUse">
<stop stop-color="#3B86EE"/>
<stop offset="1" stop-color="#A83ADB"/>
</linearGradient>
<linearGradient id="paint11_linear_19_6555" x1="19.6043" y1="24.3496" x2="19.6043" y2="27.6496" gradientUnits="userSpaceOnUse">
<stop stop-color="#3B86EE"/>
<stop offset="1" stop-color="#A83ADB"/>
</linearGradient>
<linearGradient id="paint12_linear_19_6555" x1="31.1377" y1="24.3496" x2="31.1377" y2="27.6496" gradientUnits="userSpaceOnUse">
<stop stop-color="#3B86EE"/>
<stop offset="1" stop-color="#A83ADB"/>
</linearGradient>
<linearGradient id="paint13_linear_19_6555" x1="19.6043" y1="34.2324" x2="19.6043" y2="37.5324" gradientUnits="userSpaceOnUse">
<stop stop-color="#3B86EE"/>
<stop offset="1" stop-color="#A83ADB"/>
</linearGradient>
<linearGradient id="paint14_linear_19_6555" x1="31.1377" y1="34.2324" x2="31.1377" y2="37.5324" gradientUnits="userSpaceOnUse">
<stop stop-color="#3B86EE"/>
<stop offset="1" stop-color="#A83ADB"/>
</linearGradient>
<clipPath id="clip0_19_6555">
<rect width="80" height="80" fill="white" transform="translate(0.196045)"/>
</clipPath>
</defs>
</svg>
